<?xml version="1.0" encoding="UTF-8"?><svg xmlns="http://www.w3.org/2000/svg" viewBox="0 0 538.666015625 306"><g id="a"><rect id="b" x="27" y="1.888888889" width="432" height="9" fill="none"/></g><g id="c"><g id="d"><g id="e"><g><line x1="126" y1="1.888888889" x2="126" y2="7.888888889" fill="none" stroke="#929497" stroke-miterlimit="10" stroke-width="2"/><line x1="126" y1="20.555560642" x2="126" y2="115.555560642" fill="none" stroke="#929497" stroke-dasharray="0 0 12.666666985 12.666666985" stroke-miterlimit="10" stroke-width="2"/><line x1="126" y1="121.888888889" x2="126" y2="127.888888889" fill="none" stroke="#929497" stroke-miterlimit="10" stroke-width="2"/></g></g><g><path d="M43,54.333331638c3.419021606,14.256942749,10.50920105,23.970443726,15.897850037,29.638458252" fill="none" stroke="#3975bb" stroke-miterlimit="10" stroke-width="1.5"/><polygon points="55.400161743 84.738788181 65.888885498 90.111117893 59.492370605 80.213641697 55.400161743 84.738788181" fill="#3975bb"/></g><g><path d="M89.222221375,97.000003391c22.82624054,0,44.218925476-11.058792114,109.788566589-41.630020142" fill="none" stroke="#3975bb" stroke-miterlimit="10" stroke-width="1.5"/><polygon points="198.418914795 59.021716648 207.444442749 51.44444614 195.839294434 53.49283176 198.418914795 59.021716648" fill="#3975bb"/></g><g><line x1="54" y1="42.222217136" x2="198.586547852" y2="42.222217136" fill="none" stroke="#3975bb" stroke-miterlimit="10" stroke-width="1.5"/><polygon points="196.506027222 45.272754245 207.888885498 42.222217136 196.506027222 39.171695285 196.506027222 45.272754245" fill="#3975bb"/></g></g><g id="f"><g><g><circle cx="76.5" cy="96.388888889" r="12.75" fill="#fff"/><path d="M76.5,84.388888889c6.616821289,0,12,5.383178711,12,12s-5.383178711,12-12,12-12-5.383178711-12-12,5.383178711-12,12-12m0-1.5c-7.455841064,0-13.5,6.044158936-13.5,13.5s6.044158936,13.5,13.5,13.5,13.5-6.044158936,13.5-13.5-6.044158936-13.5-13.5-13.5h0Z" fill="#231f20"/></g><path d="M73.667480469,92.433322483c.479980469-.096191406,1.451171875-.16796875,2.362792969-.16796875,1.115234375,0,1.798828125,.107910156,2.38671875,.455566406,.563476562,.299804688,.971191406,.8515625,.971191406,1.583496094,0,.719238281-.419433594,1.391113281-1.331054688,1.727050781v.023925781c.923339844,.251953125,1.606933594,.947265625,1.606933594,1.990722656,0,.731445312-.335449219,1.307617188-.839355469,1.715332031-.587890625,.467773438-1.571289062,.731445312-3.178222656,.731445312-.899414062,0-1.571289062-.060058594-1.979003906-.120117188v-7.939453125Zm1.811035156,3.094238281h.599609375c.959472656,0,1.475097656-.395507812,1.475097656-.995605469,0-.611328125-.467773438-.935058594-1.294921875-.935058594-.395996094,0-.624023438,.023925781-.779785156,.047851562v1.8828125Zm0,3.5859375c.1796875,.023925781,.395996094,.023925781,.707519531,.023925781,.827636719,0,1.559082031-.311523438,1.559082031-1.163085938,0-.815429688-.731445312-1.139648438-1.643066406-1.139648438h-.623535156v2.278808594Z" fill="#231f20"/></g><g><g><circle cx="40.5" cy="42.388888889" r="12.75" fill="#fff"/><path d="M40.5,30.388888889c6.616821289,0,12,5.383178711,12,12s-5.383178711,12-12,12-12-5.383178711-12-12,5.383178711-12,12-12m0-1.5c-7.455841064,0-13.5,6.044158936-13.5,13.5s6.044158936,13.5,13.5,13.5,13.5-6.044158936,13.5-13.5-6.044158936-13.5-13.5-13.5h0Z" fill="#231f20"/></g><path d="M39.23828125,44.334201389l-.575683594,2.074707031h-1.89453125l2.470214844-8.083496094h2.398925781l2.506347656,8.083496094h-1.966796875l-.623535156-2.074707031h-2.314941406Zm2.051269531-1.3671875l-.50390625-1.715332031c-.144042969-.479492188-.287597656-1.079589844-.407714844-1.559082031h-.023925781c-.120117188,.479492188-.239746094,1.091308594-.372070312,1.559082031l-.479492188,1.715332031h1.787109375Z" fill="#231f20"/></g><g><g><rect x="207.75" y="29.638888889" width="70.5" height="25.5" fill="#fff"/><path d="M277.5,30.388888889v24h-69V30.388888889h69m1.5-1.5h-72v27h72V28.888888889h0Z" fill="#231f20"/></g><g><path d="M222.575683594,38.433322483c.563964844-.096191406,1.35546875-.16796875,2.470703125-.16796875,1.127441406,0,1.931152344,.215820312,2.470703125,.647460938,.515625,.408203125,.86328125,1.079589844,.86328125,1.87109375s-.263671875,1.463378906-.743652344,1.918945312c-.623535156,.587890625-1.546875,.8515625-2.626464844,.8515625-.239746094,0-.455566406-.01171875-.623535156-.036132812v2.890625h-1.811035156v-7.975585938Zm1.811035156,3.669921875c.155761719,.036132812,.34765625,.047851562,.611816406,.047851562,.971191406,0,1.570800781-.491699219,1.570800781-1.319335938,0-.743164062-.515625-1.187011719-1.426757812-1.187011719-.372070312,0-.624023438,.035644531-.755859375,.071777344v2.38671875Z" fill="#231f20"/><path d="M235.304199219,47.224338108c-.719726562,.323730469-1.343261719,.432128906-2.194824219,.432128906-1.990722656,0-3.741699219-1.427246094-3.741699219-3.778320312,0-2.446289062,1.774902344-4.569335938,4.485351562-4.569335938,2.110839844,0,3.622070312,1.451171875,3.622070312,3.466308594,0,1.750976562-.983398438,2.854003906-2.278808594,2.854003906-.563476562,0-.971679688-.287597656-1.03125-.923339844h-.023925781c-.372070312,.611816406-.911621094,.923339844-1.547363281,.923339844-.779785156,0-1.343261719-.575683594-1.343261719-1.559082031,0-1.462890625,1.079589844-2.794433594,2.806640625-2.794433594,.52734375,0,1.127441406,.131835938,1.427246094,.299804688l-.359863281,2.21875c-.120117188,.708007812-.036132812,1.031738281,.299804688,1.043457031,.515625,.012207031,1.163085938-.647460938,1.163085938-2.026855469,0-1.559082031-1.007324219-2.770507812-2.866210938-2.770507812-1.834960938,0-3.442382812,1.439453125-3.442382812,3.729980469,0,2.002929688,1.283691406,3.142578125,3.0703125,3.142578125,.611816406,0,1.259277344-.132324219,1.739257812-.383789062l.215820312,.6953125Zm-1.067382812-4.953125c-.095703125-.023925781-.215820312-.047851562-.371582031-.047851562-.791992188,0-1.415527344,.779296875-1.415527344,1.703125,0,.455566406,.204101562,.743164062,.599609375,.743164062,.443847656,0,.911621094-.563476562,1.01953125-1.259277344l.16796875-1.139160156Z" fill="#231f20"/><path d="M238.499511719,46.40890842v-1.103515625l1.007324219-.911621094c1.703125-1.522949219,2.530761719-2.3984375,2.5546875-3.310058594,0-.635742188-.383789062-1.139160156-1.283203125-1.139160156-.671875,0-1.259765625,.3359375-1.667480469,.647460938l-.515625-1.307128906c.587890625-.443847656,1.499023438-.803710938,2.5546875-.803710938,1.763183594,0,2.734375,1.031738281,2.734375,2.446777344,0,1.307128906-.947265625,2.350585938-2.074707031,3.357910156l-.719726562,.600097656v.023925781h2.938476562v1.499023438h-5.528808594Z" fill="#231f20"/><path d="M245.254882812,45.437228733c0-.647460938,.443359375-1.115234375,1.079101562-1.115234375s1.067382812,.455566406,1.067382812,1.115234375c0,.635742188-.431640625,1.103515625-1.079101562,1.103515625-.624023438,0-1.067382812-.467773438-1.067382812-1.103515625Z" fill="#231f20"/><path d="M254.036132812,42.474826389c0,2.411132812-.971679688,4.065917969-2.962890625,4.065917969-2.014648438,0-2.90234375-1.811035156-2.9140625-4.017578125,0-2.254882812,.959960938-4.041992188,2.974609375-4.041992188,2.086914062,0,2.90234375,1.858886719,2.90234375,3.993652344Zm-4.041992188,.048339844c-.01171875,1.787109375,.419921875,2.638183594,1.126953125,2.638183594,.708007812,0,1.091796875-.887207031,1.091796875-2.662109375,0-1.727050781-.372070312-2.638671875-1.103515625-2.638671875-.671875,0-1.126953125,.8515625-1.115234375,2.662597656Z" fill="#231f20"/><path d="M255.03515625,45.437228733c0-.647460938,.443359375-1.115234375,1.079101562-1.115234375s1.067382812,.455566406,1.067382812,1.115234375c0,.635742188-.431640625,1.103515625-1.079101562,1.103515625-.624023438,0-1.067382812-.467773438-1.067382812-1.103515625Z" fill="#231f20"/><path d="M258.3828125,44.621799045c.32421875,.16796875,1.067382812,.479980469,1.811523438,.479980469,.947265625,0,1.426757812-.456054688,1.426757812-1.043457031,0-.767578125-.767578125-1.115722656-1.5703125-1.115722656h-.744140625v-1.307128906h.708007812c.611328125-.01171875,1.390625-.239746094,1.390625-.899414062,0-.467773438-.383789062-.815429688-1.151367188-.815429688-.635742188,0-1.306640625,.275878906-1.630859375,.467773438l-.372070312-1.319335938c.467773438-.299804688,1.403320312-.587890625,2.411132812-.587890625,1.666992188,0,2.590820312,.875488281,2.590820312,1.942871094,0,.827636719-.467773438,1.475585938-1.427734375,1.811035156v.023925781c.935546875,.16796875,1.69140625,.875488281,1.69140625,1.895019531,0,1.379394531-1.211914062,2.38671875-3.190429688,2.38671875-1.0078125,0-1.859375-.263671875-2.314453125-.551757812l.37109375-1.3671875Z" fill="#231f20"/></g></g><g><path d="M134.088867188,28.123263889c.50390625-.083984375,1.1640625-.155761719,2.002929688-.155761719,1.032226562,0,1.787109375,.239746094,2.267578125,.671875,.443359375,.383789062,.70703125,.971191406,.70703125,1.690917969,0,.731445312-.215820312,1.307128906-.624023438,1.727050781-.55078125,.587402344-1.451171875,.887695312-2.469726562,.887695312-.3125,0-.600585938-.012207031-.83984375-.072265625v3.23828125h-1.043945312v-7.987792969Zm1.043945312,3.897949219c.227539062,.060058594,.515625,.083984375,.86328125,.083984375,1.259765625,0,2.02734375-.611816406,2.02734375-1.727050781,0-1.067382812-.755859375-1.583007812-1.907226562-1.583007812-.456054688,0-.803710938,.036132812-.983398438,.083984375v3.142089844Z" fill="#231f20"/><path d="M140.053710938,31.265842014c0-.443847656,.299804688-.755859375,.719726562-.755859375,.418945312,0,.6953125,.312011719,.70703125,.755859375,0,.419433594-.275390625,.743652344-.719726562,.743652344-.419921875,0-.70703125-.32421875-.70703125-.743652344Zm0,4.233398438c0-.443847656,.299804688-.755371094,.719726562-.755371094,.418945312,0,.6953125,.311523438,.70703125,.755371094,0,.419921875-.275390625,.743652344-.719726562,.743652344-.419921875,0-.70703125-.323730469-.70703125-.743652344Z" fill="#231f20"/><path d="M150.045898438,33.844455295l-2.002929688-4.653808594h-.0234375l-2.002929688,4.653808594h-.83984375l2.482421875-5.529296875h.744140625l2.482421875,5.529296875h-.83984375Z" fill="#231f20"/><path d="M152.149414062,36.111056858v-.647460938l.827148438-.803710938c1.991210938-1.895019531,2.890625-2.90234375,2.90234375-4.077636719,0-.791503906-.383789062-1.5234375-1.546875-1.5234375-.708007812,0-1.295898438,.359863281-1.655273438,.659667969l-.3359375-.743652344c.540039062-.455566406,1.307617188-.791503906,2.20703125-.791503906,1.678710938,0,2.38671875,1.151367188,2.38671875,2.266601562,0,1.439453125-1.043945312,2.603027344-2.686523438,4.186035156l-.624023438,.575683594v.023925781h3.501953125v.875488281h-4.9765625Z" fill="#231f20"/><path d="M158.389648438,35.487521701c0-.443847656,.299804688-.755859375,.719726562-.755859375,.418945312,0,.70703125,.312011719,.70703125,.755859375,0,.431640625-.275390625,.755371094-.719726562,.755371094-.419921875,0-.70703125-.323730469-.70703125-.755371094Z" fill="#231f20"/><path d="M165.969726562,32.129123264c0,2.650878906-.983398438,4.113769531-2.709960938,4.113769531-1.5234375,0-2.5546875-1.427246094-2.579101562-4.005859375,0-2.614257812,1.127929688-4.053710938,2.7109375-4.053710938,1.642578125,0,2.578125,1.463378906,2.578125,3.945800781Zm-4.233398438,.120117188c0,2.026855469,.623046875,3.178222656,1.583007812,3.178222656,1.079101562,0,1.594726562-1.259277344,1.594726562-3.25,0-1.918945312-.491210938-3.178710938-1.583007812-3.178710938-.922851562,0-1.594726562,1.127441406-1.594726562,3.250488281Z" fill="#231f20"/><path d="M167.029296875,35.487521701c0-.443847656,.299804688-.755859375,.71875-.755859375,.419921875,0,.708007812,.312011719,.708007812,.755859375,0,.431640625-.275390625,.755371094-.719726562,.755371094-.419921875,0-.70703125-.323730469-.70703125-.755371094Z" fill="#231f20"/><path d="M174.609375,32.129123264c0,2.650878906-.983398438,4.113769531-2.709960938,4.113769531-1.5234375,0-2.5546875-1.427246094-2.579101562-4.005859375,0-2.614257812,1.127929688-4.053710938,2.7109375-4.053710938,1.642578125,0,2.578125,1.463378906,2.578125,3.945800781Zm-4.233398438,.120117188c0,2.026855469,.624023438,3.178222656,1.583007812,3.178222656,1.079101562,0,1.594726562-1.259277344,1.594726562-3.25,0-1.918945312-.491210938-3.178710938-1.583007812-3.178710938-.922851562,0-1.594726562,1.127441406-1.594726562,3.250488281Z" fill="#231f20"/></g><g><path d="M151.033203125,85.012424045c.50390625-.083984375,1.1640625-.155761719,2.002929688-.155761719,1.032226562,0,1.787109375,.239746094,2.267578125,.671875,.443359375,.383789062,.70703125,.971191406,.70703125,1.690917969,0,.731445312-.215820312,1.307128906-.624023438,1.727050781-.55078125,.587402344-1.451171875,.887695312-2.469726562,.887695312-.3125,0-.600585938-.012207031-.83984375-.072265625v3.23828125h-1.043945312v-7.987792969Zm1.043945312,3.897949219c.227539062,.060058594,.515625,.083984375,.86328125,.083984375,1.259765625,0,2.02734375-.611816406,2.02734375-1.727050781,0-1.067382812-.755859375-1.583007812-1.907226562-1.583007812-.456054688,0-.803710938,.036132812-.983398438,.083984375v3.142089844Z" fill="#231f20"/><path d="M156.998046875,88.15500217c0-.443847656,.299804688-.755859375,.719726562-.755859375,.418945312,0,.6953125,.312011719,.70703125,.755859375,0,.419433594-.275390625,.743652344-.719726562,.743652344-.419921875,0-.70703125-.32421875-.70703125-.743652344Zm0,4.233398438c0-.443847656,.299804688-.755371094,.719726562-.755371094,.418945312,0,.6953125,.311523438,.70703125,.755371094,0,.419921875-.275390625,.743652344-.719726562,.743652344-.419921875,0-.70703125-.323730469-.70703125-.743652344Z" fill="#231f20"/><path d="M161.989257812,90.481662326c-.047851562-1.19921875,.599609375-1.811035156,1.426757812-1.811035156,.50390625,0,.887695312,.155761719,1.69140625,.539550781,.611328125,.288085938,1.055664062,.50390625,1.499023438,.50390625,.431640625,0,.635742188-.34765625,.647460938-1.007324219h.719726562c.060546875,1.343261719-.635742188,1.811035156-1.37890625,1.811035156-.479492188,0-.912109375-.144042969-1.739257812-.527832031-.563476562-.275878906-1.0078125-.527832031-1.439453125-.527832031s-.6953125,.299804688-.719726562,1.01953125h-.70703125Z" fill="#231f20"/><path d="M169.09375,93.000217014v-.647460938l.827148438-.803710938c1.991210938-1.895019531,2.890625-2.90234375,2.90234375-4.077636719,0-.791503906-.383789062-1.5234375-1.546875-1.5234375-.708007812,0-1.295898438,.359863281-1.655273438,.659667969l-.3359375-.743652344c.540039062-.455566406,1.307617188-.791503906,2.20703125-.791503906,1.678710938,0,2.38671875,1.151367188,2.38671875,2.266601562,0,1.439453125-1.043945312,2.603027344-2.686523438,4.186035156l-.624023438,.575683594v.023925781h3.501953125v.875488281h-4.9765625Z" fill="#231f20"/><path d="M175.333984375,92.376681858c0-.443847656,.299804688-.755859375,.719726562-.755859375,.418945312,0,.70703125,.312011719,.70703125,.755859375,0,.431640625-.275390625,.755371094-.719726562,.755371094-.419921875,0-.70703125-.323730469-.70703125-.755371094Z" fill="#231f20"/><path d="M182.9140625,89.01828342c0,2.650878906-.983398438,4.113769531-2.709960938,4.113769531-1.5234375,0-2.5546875-1.427246094-2.579101562-4.005859375,0-2.614257812,1.127929688-4.053710938,2.7109375-4.053710938,1.642578125,0,2.578125,1.463378906,2.578125,3.945800781Zm-4.233398438,.120117188c0,2.026855469,.623046875,3.178222656,1.583007812,3.178222656,1.079101562,0,1.594726562-1.259277344,1.594726562-3.25,0-1.918945312-.491210938-3.178710938-1.583007812-3.178710938-.922851562,0-1.594726562,1.127441406-1.594726562,3.250488281Z" fill="#231f20"/><path d="M183.973632812,92.376681858c0-.443847656,.299804688-.755859375,.71875-.755859375,.419921875,0,.708007812,.312011719,.708007812,.755859375,0,.431640625-.275390625,.755371094-.719726562,.755371094-.419921875,0-.70703125-.323730469-.70703125-.755371094Z" fill="#231f20"/><path d="M188.663085938,86.187717014h-.0234375l-1.35546875,.731933594-.204101562-.803710938,1.703125-.911621094h.899414062v7.795898438h-1.01953125v-6.8125Z" fill="#231f20"/></g></g></g></svg>