<?xml version="1.0" encoding="UTF-8"?><svg xmlns="http://www.w3.org/2000/svg" viewBox="0 0 538.666015625 306"><g id="a"><rect id="b" x="27" y="1.888888889" width="432" height="9" fill="none"/></g><g id="c"><g id="d"><g id="e"><g><line x1="216" y1="1.888888889" x2="216" y2="7.888888889" fill="none" stroke="#929497" stroke-miterlimit="10" stroke-width="2"/><line x1="216" y1="19.888888889" x2="216" y2="277.888888889" fill="none" stroke="#929497" stroke-dasharray="0 0 12 12" stroke-miterlimit="10" stroke-width="2"/><line x1="216" y1="283.888888889" x2="216" y2="289.888888889" fill="none" stroke="#929497" stroke-miterlimit="10" stroke-width="2"/></g></g><g><line x1="58.555557251" y1="122.555560642" x2="88.661201477" y2="75.396396213" fill="none" stroke="#3975bb" stroke-miterlimit="10" stroke-width="1.5"/><polygon points="90.112960815 78.791507297 93.666671753 67.555560642 84.970436096 75.508594089 90.112960815 78.791507297" fill="#3975bb"/></g><g><line x1="61" y1="137.222217136" x2="144.025238037" y2="179.037845188" fill="none" stroke="#3975bb" stroke-miterlimit="10" stroke-width="1.5"/><polygon points="140.794891357 180.826480442 152.333328247 183.222232395 143.539260864 175.377505832 140.794891357 180.826480442" fill="#3975bb"/></g><g><line x1="180" y1="185.888888889" x2="269.031005859" y2="185.888888889" fill="none" stroke="#3975bb" stroke-miterlimit="10" stroke-width="1.5"/><polygon points="266.950469971 188.939425998 278.333343506 185.888888889 266.950469971 182.83835178 266.950469971 188.939425998" fill="#3975bb"/></g><g><path d="M176.333328247,68.555560642c28.57723999,33.951370239,87.247146606,53.158889771,109.67616272,59.508224487" fill="none" stroke="#3975bb" stroke-miterlimit="10" stroke-width="1.5"/><polygon points="283.215484619 130.415790134 295 130.44444614 284.809143066 124.526538425 283.215484619 130.415790134" fill="#3975bb"/></g><g><line x1="180" y1="60.222217136" x2="270.531005859" y2="60.222217136" fill="none" stroke="#3975bb" stroke-miterlimit="10" stroke-width="1.5"/><polygon points="268.450469971 63.272754245 279.833343506 60.222217136 268.450469971 57.171695285 268.450469971 63.272754245" fill="#3975bb"/></g><g><path d="M370.870117188,21.609592014c-.875,1.175292969-1.510742188,2.734375-1.510742188,4.905273438,0,2.134765625,.659179688,3.669921875,1.510742188,4.869140625h-.827148438c-.755859375-.995605469-1.571289062-2.530761719-1.571289062-4.869140625,.01171875-2.362792969,.815429688-3.897949219,1.571289062-4.905273438h.827148438Z" fill="#231f20"/><path d="M371.98828125,26.023166233c0-.743652344-.024414062-1.343261719-.048828125-1.895019531h.948242188l.047851562,.995117188h.0234375c.431640625-.707519531,1.115234375-1.126953125,2.063476562-1.126953125,1.403320312,0,2.458007812,1.187011719,2.458007812,2.950195312,0,2.086914062-1.270507812,3.118164062-2.638671875,3.118164062-.767578125,0-1.438476562-.3359375-1.786132812-.911621094h-.024414062v3.154296875h-1.04296875v-6.284179688Zm1.04296875,1.546875c0,.155761719,.024414062,.299804688,.047851562,.431640625,.192382812,.731933594,.828125,1.235351562,1.583007812,1.235351562,1.115234375,0,1.763671875-.911132812,1.763671875-2.242675781,0-1.163085938-.612304688-2.158691406-1.727539062-2.158691406-.719726562,0-1.391601562,.515625-1.594726562,1.307128906-.036132812,.131835938-.072265625,.288085938-.072265625,.431640625v.995605469Z" fill="#231f20"/><path d="M379.403320312,27.222384983c.024414062,1.427246094,.935546875,2.014648438,1.991210938,2.014648438,.755859375,0,1.2109375-.131835938,1.607421875-.299804688l.1796875,.755859375c-.372070312,.16796875-1.0078125,.359863281-1.930664062,.359863281-1.787109375,0-2.854492188-1.17578125-2.854492188-2.926757812s1.03125-3.129882812,2.72265625-3.129882812c1.89453125,0,2.3984375,1.666992188,2.3984375,2.734375,0,.215820312-.024414062,.383789062-.036132812,.491699219h-4.078125Zm3.094726562-.755859375c.01171875-.671386719-.276367188-1.71484375-1.462890625-1.71484375-1.067382812,0-1.53515625,.983398438-1.619140625,1.71484375h3.08203125Z" fill="#231f20"/><path d="M385.415039062,27.222384983c.024414062,1.427246094,.935546875,2.014648438,1.991210938,2.014648438,.755859375,0,1.2109375-.131835938,1.607421875-.299804688l.1796875,.755859375c-.372070312,.16796875-1.0078125,.359863281-1.930664062,.359863281-1.787109375,0-2.854492188-1.17578125-2.854492188-2.926757812s1.03125-3.129882812,2.72265625-3.129882812c1.89453125,0,2.3984375,1.666992188,2.3984375,2.734375,0,.215820312-.024414062,.383789062-.036132812,.491699219h-4.078125Zm3.094726562-.755859375c.01171875-.671386719-.276367188-1.71484375-1.462890625-1.71484375-1.067382812,0-1.53515625,.983398438-1.619140625,1.71484375h3.08203125Z" fill="#231f20"/><path d="M390.83984375,25.939181858c0-.68359375-.012695312-1.271484375-.048828125-1.811035156h.923828125l.036132812,1.139160156h.047851562c.263671875-.779296875,.899414062-1.270996094,1.607421875-1.270996094,.120117188,0,.203125,.01171875,.299804688,.035644531v.995605469c-.108398438-.023925781-.215820312-.036132812-.360351562-.036132812-.743164062,0-1.271484375,.563964844-1.415039062,1.35546875-.0234375,.144042969-.047851562,.311523438-.047851562,.491699219v3.094238281h-1.04296875v-3.993652344Z" fill="#231f20"/><path d="M394.127929688,31.384006076c.8515625-1.1875,1.510742188-2.746582031,1.510742188-4.905273438,0-2.146972656-.647460938-3.682128906-1.510742188-4.869140625h.815429688c.767578125,.983398438,1.571289062,2.518554688,1.571289062,4.881347656,0,2.350585938-.803710938,3.873535156-1.571289062,4.893066406h-.815429688Z" fill="#231f20"/><path d="M362.477539062,36.344943576c.50390625-.083984375,1.1640625-.155761719,2.002929688-.155761719,1.032226562,0,1.787109375,.239746094,2.267578125,.671875,.443359375,.383789062,.70703125,.971191406,.70703125,1.690917969,0,.731445312-.215820312,1.307128906-.624023438,1.727050781-.55078125,.587402344-1.451171875,.887207031-2.469726562,.887207031-.3125,0-.600585938-.01171875-.83984375-.071777344v3.23828125h-1.043945312v-7.987792969Zm1.043945312,3.897949219c.227539062,.060058594,.515625,.083984375,.86328125,.083984375,1.259765625,0,2.02734375-.611816406,2.02734375-1.727050781,0-1.067382812-.755859375-1.583007812-1.907226562-1.583007812-.456054688,0-.803710938,.036132812-.983398438,.083984375v3.142089844Z" fill="#231f20"/><path d="M368.442382812,39.487521701c0-.443847656,.299804688-.755859375,.719726562-.755859375,.418945312,0,.6953125,.312011719,.70703125,.755859375,0,.419433594-.275390625,.743652344-.719726562,.743652344-.419921875,0-.70703125-.32421875-.70703125-.743652344Zm0,4.233398438c0-.443359375,.299804688-.755371094,.719726562-.755371094,.418945312,0,.6953125,.312011719,.70703125,.755371094,0,.419921875-.275390625,.743652344-.719726562,.743652344-.419921875,0-.70703125-.323730469-.70703125-.743652344Z" fill="#231f20"/><path d="M378.434570312,42.066134983l-2.002929688-4.653808594h-.0234375l-2.002929688,4.653808594h-.83984375l2.482421875-5.529296875h.744140625l2.482421875,5.529296875h-.83984375Z" fill="#231f20"/><path d="M380.538085938,44.332736545v-.647460938l.827148438-.803710938c1.991210938-1.895019531,2.890625-2.90234375,2.90234375-4.077636719,0-.791503906-.383789062-1.5234375-1.546875-1.5234375-.708007812,0-1.295898438,.359863281-1.655273438,.659667969l-.3359375-.743652344c.540039062-.455566406,1.307617188-.791503906,2.20703125-.791503906,1.678710938,0,2.38671875,1.151367188,2.38671875,2.267089844,0,1.438964844-1.043945312,2.602539062-2.686523438,4.185546875l-.624023438,.575683594v.023925781h3.501953125v.875488281h-4.9765625Z" fill="#231f20"/><path d="M386.778320312,43.709201389c0-.443847656,.299804688-.755859375,.719726562-.755859375,.418945312,0,.70703125,.312011719,.70703125,.755859375,0,.431640625-.275390625,.755371094-.719726562,.755371094-.419921875,0-.70703125-.323730469-.70703125-.755371094Z" fill="#231f20"/><path d="M394.358398438,40.350802951c0,2.650878906-.983398438,4.113769531-2.709960938,4.113769531-1.5234375,0-2.5546875-1.427246094-2.579101562-4.005859375,0-2.614257812,1.127929688-4.053710938,2.7109375-4.053710938,1.642578125,0,2.578125,1.463378906,2.578125,3.945800781Zm-4.233398438,.120117188c0,2.026855469,.623046875,3.178222656,1.583007812,3.178222656,1.079101562,0,1.594726562-1.259277344,1.594726562-3.250488281,0-1.918945312-.491210938-3.178222656-1.583007812-3.178222656-.922851562,0-1.594726562,1.127441406-1.594726562,3.250488281Z" fill="#231f20"/><path d="M395.41796875,43.709201389c0-.443847656,.299804688-.755859375,.71875-.755859375,.419921875,0,.708007812,.312011719,.708007812,.755859375,0,.431640625-.275390625,.755371094-.719726562,.755371094-.419921875,0-.70703125-.323730469-.70703125-.755371094Z" fill="#231f20"/><path d="M402.998046875,40.350802951c0,2.650878906-.983398438,4.113769531-2.709960938,4.113769531-1.5234375,0-2.5546875-1.427246094-2.579101562-4.005859375,0-2.614257812,1.127929688-4.053710938,2.7109375-4.053710938,1.642578125,0,2.578125,1.463378906,2.578125,3.945800781Zm-4.233398438,.120117188c0,2.026855469,.624023438,3.178222656,1.583007812,3.178222656,1.079101562,0,1.594726562-1.259277344,1.594726562-3.250488281,0-1.918945312-.491210938-3.178222656-1.583007812-3.178222656-.922851562,0-1.594726562,1.127441406-1.594726562,3.250488281Z" fill="#231f20"/></g><g><path d="M370.870117188,147.609592014c-.875,1.175292969-1.510742188,2.734375-1.510742188,4.905273438,0,2.134765625,.659179688,3.669921875,1.510742188,4.869140625h-.827148438c-.755859375-.995605469-1.571289062-2.530761719-1.571289062-4.869140625,.01171875-2.362792969,.815429688-3.897949219,1.571289062-4.905273438h.827148438Z" fill="#231f20"/><path d="M371.98828125,152.023166233c0-.743652344-.024414062-1.343261719-.048828125-1.895019531h.948242188l.047851562,.995117188h.0234375c.431640625-.707519531,1.115234375-1.126953125,2.063476562-1.126953125,1.403320312,0,2.458007812,1.187011719,2.458007812,2.950195312,0,2.086914062-1.270507812,3.118164062-2.638671875,3.118164062-.767578125,0-1.438476562-.3359375-1.786132812-.911621094h-.024414062v3.154296875h-1.04296875v-6.284179688Zm1.04296875,1.546875c0,.155761719,.024414062,.299804688,.047851562,.431640625,.192382812,.731933594,.828125,1.235351562,1.583007812,1.235351562,1.115234375,0,1.763671875-.911132812,1.763671875-2.242675781,0-1.163085938-.612304688-2.158691406-1.727539062-2.158691406-.719726562,0-1.391601562,.515625-1.594726562,1.307128906-.036132812,.131835938-.072265625,.288085938-.072265625,.431640625v.995605469Z" fill="#231f20"/><path d="M379.403320312,153.222384983c.024414062,1.427246094,.935546875,2.014648438,1.991210938,2.014648438,.755859375,0,1.2109375-.131835938,1.607421875-.299804688l.1796875,.755859375c-.372070312,.16796875-1.0078125,.359863281-1.930664062,.359863281-1.787109375,0-2.854492188-1.17578125-2.854492188-2.926757812s1.03125-3.129882812,2.72265625-3.129882812c1.89453125,0,2.3984375,1.666992188,2.3984375,2.734375,0,.215820312-.024414062,.383789062-.036132812,.491699219h-4.078125Zm3.094726562-.755859375c.01171875-.671386719-.276367188-1.71484375-1.462890625-1.71484375-1.067382812,0-1.53515625,.983398438-1.619140625,1.71484375h3.08203125Z" fill="#231f20"/><path d="M385.415039062,153.222384983c.024414062,1.427246094,.935546875,2.014648438,1.991210938,2.014648438,.755859375,0,1.2109375-.131835938,1.607421875-.299804688l.1796875,.755859375c-.372070312,.16796875-1.0078125,.359863281-1.930664062,.359863281-1.787109375,0-2.854492188-1.17578125-2.854492188-2.926757812s1.03125-3.129882812,2.72265625-3.129882812c1.89453125,0,2.3984375,1.666992188,2.3984375,2.734375,0,.215820312-.024414062,.383789062-.036132812,.491699219h-4.078125Zm3.094726562-.755859375c.01171875-.671386719-.276367188-1.71484375-1.462890625-1.71484375-1.067382812,0-1.53515625,.983398438-1.619140625,1.71484375h3.08203125Z" fill="#231f20"/><path d="M390.83984375,151.939181858c0-.68359375-.012695312-1.271484375-.048828125-1.811035156h.923828125l.036132812,1.139160156h.047851562c.263671875-.779296875,.899414062-1.270996094,1.607421875-1.270996094,.120117188,0,.203125,.01171875,.299804688,.035644531v.995605469c-.108398438-.023925781-.215820312-.036132812-.360351562-.036132812-.743164062,0-1.271484375,.563964844-1.415039062,1.35546875-.0234375,.144042969-.047851562,.311523438-.047851562,.491699219v3.094238281h-1.04296875v-3.993652344Z" fill="#231f20"/><path d="M394.127929688,157.384006076c.8515625-1.1875,1.510742188-2.746582031,1.510742188-4.905273438,0-2.146972656-.647460938-3.682128906-1.510742188-4.869140625h.815429688c.767578125,.983398438,1.571289062,2.518554688,1.571289062,4.881347656,0,2.350585938-.803710938,3.873535156-1.571289062,4.893066406h-.815429688Z" fill="#231f20"/><path d="M362.477539062,162.344943576c.50390625-.083984375,1.1640625-.155761719,2.002929688-.155761719,1.032226562,0,1.787109375,.239746094,2.267578125,.671875,.443359375,.383789062,.70703125,.971191406,.70703125,1.690917969,0,.731445312-.215820312,1.307128906-.624023438,1.727050781-.55078125,.587402344-1.451171875,.887207031-2.469726562,.887207031-.3125,0-.600585938-.01171875-.83984375-.071777344v3.23828125h-1.043945312v-7.987792969Zm1.043945312,3.897949219c.227539062,.060058594,.515625,.083984375,.86328125,.083984375,1.259765625,0,2.02734375-.611816406,2.02734375-1.727050781,0-1.067382812-.755859375-1.583007812-1.907226562-1.583007812-.456054688,0-.803710938,.036132812-.983398438,.083984375v3.142089844Z" fill="#231f20"/><path d="M368.442382812,165.487521701c0-.443847656,.299804688-.755859375,.719726562-.755859375,.418945312,0,.6953125,.312011719,.70703125,.755859375,0,.419433594-.275390625,.743652344-.719726562,.743652344-.419921875,0-.70703125-.32421875-.70703125-.743652344Zm0,4.233398438c0-.443359375,.299804688-.755371094,.719726562-.755371094,.418945312,0,.6953125,.312011719,.70703125,.755371094,0,.419921875-.275390625,.743652344-.719726562,.743652344-.419921875,0-.70703125-.323730469-.70703125-.743652344Z" fill="#231f20"/><path d="M378.434570312,168.066134983l-2.002929688-4.653808594h-.0234375l-2.002929688,4.653808594h-.83984375l2.482421875-5.529296875h.744140625l2.482421875,5.529296875h-.83984375Z" fill="#231f20"/><path d="M380.538085938,170.332736545v-.647460938l.827148438-.803710938c1.991210938-1.895019531,2.890625-2.90234375,2.90234375-4.077636719,0-.791503906-.383789062-1.5234375-1.546875-1.5234375-.708007812,0-1.295898438,.359863281-1.655273438,.659667969l-.3359375-.743652344c.540039062-.455566406,1.307617188-.791503906,2.20703125-.791503906,1.678710938,0,2.38671875,1.151367188,2.38671875,2.267089844,0,1.438964844-1.043945312,2.602539062-2.686523438,4.185546875l-.624023438,.575683594v.023925781h3.501953125v.875488281h-4.9765625Z" fill="#231f20"/><path d="M386.778320312,169.709201389c0-.443847656,.299804688-.755859375,.719726562-.755859375,.418945312,0,.70703125,.312011719,.70703125,.755859375,0,.431640625-.275390625,.755371094-.719726562,.755371094-.419921875,0-.70703125-.323730469-.70703125-.755371094Z" fill="#231f20"/><path d="M394.358398438,166.350802951c0,2.650878906-.983398438,4.113769531-2.709960938,4.113769531-1.5234375,0-2.5546875-1.427246094-2.579101562-4.005859375,0-2.614257812,1.127929688-4.053710938,2.7109375-4.053710938,1.642578125,0,2.578125,1.463378906,2.578125,3.945800781Zm-4.233398438,.120117188c0,2.026855469,.623046875,3.178222656,1.583007812,3.178222656,1.079101562,0,1.594726562-1.259277344,1.594726562-3.250488281,0-1.918945312-.491210938-3.178222656-1.583007812-3.178222656-.922851562,0-1.594726562,1.127441406-1.594726562,3.250488281Z" fill="#231f20"/><path d="M395.41796875,169.709201389c0-.443847656,.299804688-.755859375,.71875-.755859375,.419921875,0,.708007812,.312011719,.708007812,.755859375,0,.431640625-.275390625,.755371094-.719726562,.755371094-.419921875,0-.70703125-.323730469-.70703125-.755371094Z" fill="#231f20"/><path d="M402.998046875,166.350802951c0,2.650878906-.983398438,4.113769531-2.709960938,4.113769531-1.5234375,0-2.5546875-1.427246094-2.579101562-4.005859375,0-2.614257812,1.127929688-4.053710938,2.7109375-4.053710938,1.642578125,0,2.578125,1.463378906,2.578125,3.945800781Zm-4.233398438,.120117188c0,2.026855469,.624023438,3.178222656,1.583007812,3.178222656,1.079101562,0,1.594726562-1.259277344,1.594726562-3.250488281,0-1.918945312-.491210938-3.178222656-1.583007812-3.178222656-.922851562,0-1.594726562,1.127441406-1.594726562,3.250488281Z" fill="#231f20"/></g><g><path d="M399.833343506,59.055560642c-3.58013916,55.881103516-82.319610596,4.620178223-92.706085205,41.594940186" fill="none" stroke="#549445" stroke-miterlimit="10" stroke-width="1.5"/><polygon points="304.554138184 98.193393283 306 109.888888889 310.596496582 99.037738376 304.554138184 98.193393283" fill="#549445"/></g><g><path d="M399.833343506,185.055545383c-3.58013916,55.881134033-82.319610596,4.620178223-92.706085205,41.594940186" fill="none" stroke="#549445" stroke-miterlimit="10" stroke-width="1.5"/><polygon points="304.554138184 224.193393283 306 235.888888889 310.596496582 225.037723117 304.554138184 224.193393283" fill="#549445"/></g><g><line x1="351" y1="185.722232395" x2="400.143829346" y2="185.722232395" fill="none" stroke="#549445" stroke-miterlimit="10" stroke-width="1.5"/><g><circle cx="399.888259888" cy="185.722224765" r="4.511746354" transform="translate(31.669881688 428.247669047) rotate(-58.282544966)" fill="#fff"/><path d="M399.888244629,190.833957248c-2.818328857,0-5.111694336-2.293365479-5.111694336-5.111724854s2.293365479-5.111724854,5.111694336-5.111724854c2.81842041,0,5.111755371,2.293365479,5.111755371,5.111724854s-2.293334961,5.111724854-5.111755371,5.111724854c-2.818328857,0,2.81842041,0,0,0Zm0-9.023468018c-2.15737915,0-3.911682129,1.754302979-3.911682129,3.911743164,0,2.157409668,1.754302979,3.911712646,3.911682129,3.911712646,2.157470703,0,3.911743164-1.754302979,3.911743164-3.911712646,0-2.157440186-1.754272461-3.911743164-3.911743164-3.911743164-2.15737915,0,2.157470703,0,0,0Z" fill="#549445"/></g></g></g><g id="f"><g><line x1="116.833328247" y1="60.222217136" x2="144.419876099" y2="60.222217136" fill="none" stroke="#3975bb" stroke-miterlimit="10" stroke-width="1.5"/><polygon points="142.339355469 63.272754245 153.722229004 60.222217136 142.339355469 57.171695285 142.339355469 63.272754245" fill="#3975bb"/></g><g><path d="M176.333328247,194.555545383c28.57723999,33.951385498,87.247146606,53.158905029,109.67616272,59.508239746" fill="none" stroke="#3975bb" stroke-miterlimit="10" stroke-width="1.5"/><polygon points="283.215484619 256.415774875 295 256.444430881 284.809143066 250.526523166 283.215484619 256.415774875" fill="#3975bb"/></g><g><g><circle cx="103.5" cy="60.388888889" r="12.75" fill="#fff"/><path d="M103.5,48.388888889c6.616821289,0,12,5.383178711,12,12s-5.383178711,12-12,12-12-5.383178711-12-12,5.383178711-12,12-12m0-1.5c-7.455841064,0-13.5,6.044158936-13.5,13.5s6.044158936,13.5,13.5,13.5,13.5-6.044158936,13.5-13.5-6.044158936-13.5-13.5-13.5h0Z" fill="#231f20"/></g><path d="M100.667480469,56.433322483c.479980469-.096191406,1.451171875-.16796875,2.362792969-.16796875,1.115234375,0,1.798828125,.107910156,2.38671875,.455566406,.563476562,.299804688,.971191406,.8515625,.971191406,1.583496094,0,.719238281-.419433594,1.391113281-1.331054688,1.727050781v.023925781c.923339844,.251953125,1.606933594,.947265625,1.606933594,1.990722656,0,.731445312-.335449219,1.307617188-.839355469,1.715332031-.587890625,.467773438-1.571289062,.731445312-3.178222656,.731445312-.899414062,0-1.571289062-.060058594-1.979003906-.120117188v-7.939453125Zm1.811035156,3.094238281h.599609375c.959472656,0,1.475097656-.395507812,1.475097656-.995605469,0-.611328125-.467773438-.935058594-1.294921875-.935058594-.395996094,0-.624023438,.023925781-.779785156,.047851562v1.8828125Zm0,3.5859375c.1796875,.023925781,.395996094,.023925781,.707519531,.023925781,.827636719,0,1.559082031-.311523438,1.559082031-1.163085938,0-.815429688-.731445312-1.139648438-1.643066406-1.139648438h-.623535156v2.278808594Z" fill="#231f20"/></g><g><g><circle cx="49.5" cy="132.388888889" r="12.75" fill="#fff"/><path d="M49.5,120.388888889c6.616821289,0,12,5.383178711,12,12s-5.383178711,12-12,12-12-5.383178711-12-12,5.383178711-12,12-12m0-1.5c-7.455841064,0-13.5,6.044158936-13.5,13.5s6.044158936,13.5,13.5,13.5,13.5-6.044158936,13.5-13.5-6.044158936-13.5-13.5-13.5h0Z" fill="#231f20"/></g><path d="M48.23828125,134.334201389l-.575683594,2.074707031h-1.89453125l2.470214844-8.083496094h2.398925781l2.506347656,8.083496094h-1.966796875l-.623535156-2.074707031h-2.314941406Zm2.051269531-1.3671875l-.50390625-1.715332031c-.144042969-.479492188-.287597656-1.079589844-.407714844-1.559082031h-.023925781c-.120117188,.479492188-.239746094,1.091308594-.372070312,1.559082031l-.479492188,1.715332031h1.787109375Z" fill="#231f20"/></g><g><g><circle cx="166.5" cy="60.388888889" r="12.75" fill="#fff"/><path d="M166.5,48.388888889c6.616821289,0,12,5.383178711,12,12s-5.383178711,12-12,12-12-5.383178711-12-12,5.383178711-12,12-12m0-1.5c-7.455841064,0-13.5,6.044158936-13.5,13.5s6.044158936,13.5,13.5,13.5,13.5-6.044158936,13.5-13.5-6.044158936-13.5-13.5-13.5h0Z" fill="#231f20"/></g><path d="M169.658691406,64.180881076c-.3359375,.16796875-1.091796875,.348144531-2.075195312,.348144531-2.794433594,0-4.233398438-1.739257812-4.233398438-4.041992188,0-2.758300781,1.966796875-4.293457031,4.413574219-4.293457031,.947265625,0,1.666992188,.191894531,1.990722656,.359863281l-.371582031,1.451171875c-.372070312-.15625-.887695312-.299804688-1.53515625-.299804688-1.451171875,0-2.578613281,.875488281-2.578613281,2.674316406,0,1.619140625,.959472656,2.638671875,2.590332031,2.638671875,.551757812,0,1.163574219-.120117188,1.5234375-.264160156l.275878906,1.427246094Z" fill="#231f20"/></g><g><g><circle cx="166.5" cy="186.388888889" r="12.75" fill="#fff"/><path d="M166.5,174.388888889c6.616821289,0,12,5.383178711,12,12s-5.383178711,12-12,12-12-5.383178711-12-12,5.383178711-12,12-12m0-1.5c-7.455841064,0-13.5,6.044158936-13.5,13.5s6.044158936,13.5,13.5,13.5,13.5-6.044158936,13.5-13.5-6.044158936-13.5-13.5-13.5h0Z" fill="#231f20"/></g><path d="M163.115722656,182.433322483c.671875-.107910156,1.547363281-.16796875,2.470703125-.16796875,1.53515625,0,2.530761719,.275878906,3.310058594,.863769531,.83984375,.623535156,1.3671875,1.619140625,1.3671875,3.045898438,0,1.547363281-.563476562,2.614746094-1.343261719,3.274414062-.8515625,.707519531-2.146484375,1.043457031-3.729980469,1.043457031-.947265625,0-1.619140625-.060058594-2.074707031-.120117188v-7.939453125Zm1.834960938,6.596191406c.155761719,.036132812,.407714844,.036132812,.635742188,.036132812,1.655273438,.012207031,2.734375-.899414062,2.734375-2.830566406,.012207031-1.679199219-.971191406-2.56640625-2.542480469-2.56640625-.407714844,0-.671875,.036132812-.827636719,.071777344v5.2890625Z" fill="#231f20"/></g><g><g><rect x="270.75" y="236.638888889" width="70.5" height="25.5" fill="#fff"/><path d="M340.5,237.388888889v24h-69v-24h69m1.5-1.5h-72v27h72v-27h0Z" fill="#231f20"/></g><g><path d="M285.576171875,245.433322483c.563476562-.096191406,1.35546875-.16796875,2.470703125-.16796875,1.126953125,0,1.930664062,.215820312,2.470703125,.647460938,.515625,.408203125,.86328125,1.079589844,.86328125,1.87109375s-.263671875,1.463378906-.744140625,1.918945312c-.623046875,.587890625-1.546875,.8515625-2.626953125,.8515625-.239257812,0-.455078125-.01171875-.623046875-.036132812v2.890625h-1.810546875v-7.975585938Zm1.810546875,3.669921875c.15625,.036132812,.34765625,.047851562,.611328125,.047851562,.971679688,0,1.571289062-.491699219,1.571289062-1.319335938,0-.743164062-.515625-1.187011719-1.426757812-1.187011719-.372070312,0-.624023438,.035644531-.755859375,.071777344v2.38671875Z" fill="#231f20"/><path d="M298.3046875,254.224338108c-.720703125,.323730469-1.34375,.432128906-2.1953125,.432128906-1.990234375,0-3.7421875-1.427246094-3.7421875-3.778320312,0-2.446289062,1.775390625-4.569335938,4.486328125-4.569335938,2.110351562,0,3.62109375,1.451171875,3.62109375,3.466308594,0,1.750976562-.982421875,2.854003906-2.278320312,2.854003906-.563476562,0-.971679688-.287597656-1.03125-.923339844h-.024414062c-.37109375,.611816406-.911132812,.923339844-1.546875,.923339844-.779296875,0-1.34375-.575683594-1.34375-1.559082031,0-1.462890625,1.080078125-2.794433594,2.806640625-2.794433594,.52734375,0,1.127929688,.131835938,1.427734375,.299804688l-.359375,2.21875c-.12109375,.708007812-.037109375,1.031738281,.298828125,1.043457031,.515625,.012207031,1.1640625-.647460938,1.1640625-2.026855469,0-1.559082031-1.0078125-2.770507812-2.8671875-2.770507812-1.833984375,0-3.44140625,1.439453125-3.44140625,3.729980469,0,2.002929688,1.283203125,3.142578125,3.0703125,3.142578125,.611328125,0,1.258789062-.132324219,1.73828125-.383789062l.216796875,.6953125Zm-1.068359375-4.953125c-.095703125-.023925781-.21484375-.047851562-.37109375-.047851562-.791992188,0-1.416015625,.779296875-1.416015625,1.703125,0,.455566406,.205078125,.743164062,.599609375,.743164062,.444335938,0,.912109375-.563476562,1.01953125-1.259277344l.16796875-1.139160156Z" fill="#231f20"/><path d="M301.5,253.40890842v-1.103515625l1.006835938-.911621094c1.703125-1.522949219,2.530273438-2.3984375,2.5546875-3.310058594,0-.635742188-.383789062-1.139160156-1.283203125-1.139160156-.671875,0-1.259765625,.3359375-1.666992188,.647460938l-.515625-1.307128906c.587890625-.443847656,1.498046875-.803710938,2.5546875-.803710938,1.762695312,0,2.734375,1.031738281,2.734375,2.446777344,0,1.307128906-.947265625,2.350585938-2.075195312,3.357910156l-.719726562,.600097656v.023925781h2.938476562v1.499023438h-5.528320312Z" fill="#231f20"/><path d="M308.254882812,252.437228733c0-.647460938,.443359375-1.115234375,1.079101562-1.115234375s1.067382812,.455566406,1.067382812,1.115234375c0,.635742188-.431640625,1.103515625-1.079101562,1.103515625-.624023438,0-1.067382812-.467773438-1.067382812-1.103515625Z" fill="#231f20"/><path d="M313.60546875,247.232150608h-.0234375l-1.487304688,.707519531-.299804688-1.3671875,2.0625-.959472656h1.51171875v7.795898438h-1.763671875v-6.176757812Z" fill="#231f20"/><path d="M318.03515625,252.437228733c0-.647460938,.443359375-1.115234375,1.079101562-1.115234375s1.067382812,.455566406,1.067382812,1.115234375c0,.635742188-.431640625,1.103515625-1.079101562,1.103515625-.624023438,0-1.067382812-.467773438-1.067382812-1.103515625Z" fill="#231f20"/><path d="M323.385742188,247.232150608h-.0234375l-1.487304688,.707519531-.299804688-1.3671875,2.0625-.959472656h1.51171875v7.795898438h-1.763671875v-6.176757812Z" fill="#231f20"/></g></g><g><g><rect x="279.75" y="173.638888889" width="70.5" height="25.5" fill="#fff"/><path d="M349.5,174.388888889v24h-69v-24h69m1.5-1.5h-72v27h72v-27h0Z" fill="#231f20"/></g><g><path d="M300.66796875,191.800021701c-1.151367188-.3359375-2.111328125-.68359375-3.190429688-1.139160156-.1796875-.072265625-.372070312-.107910156-.563476562-.120117188-1.822265625-.119628906-3.525390625-1.462890625-3.525390625-4.1015625,0-2.422851562,1.53515625-4.245605469,3.9453125-4.245605469,2.470703125,0,3.826171875,1.870605469,3.826171875,4.077636719,0,1.834960938-.8515625,3.130371094-1.919921875,3.609863281v.047851562c.624023438,.180175781,1.3203125,.32421875,1.955078125,.456054688l-.52734375,1.415039062Zm-1.439453125-5.45703125c0-1.475097656-.6953125-2.698242188-1.942382812-2.698242188s-1.967773438,1.223144531-1.967773438,2.734375c-.01171875,1.53515625,.732421875,2.710449219,1.955078125,2.710449219,1.236328125,0,1.955078125-1.163085938,1.955078125-2.746582031Z" fill="#cb2026"/><path d="M308.12109375,191.224338108c-.720703125,.323730469-1.34375,.432128906-2.1953125,.432128906-1.990234375,0-3.7421875-1.427246094-3.7421875-3.778320312,0-2.446289062,1.775390625-4.569335938,4.486328125-4.569335938,2.110351562,0,3.62109375,1.451171875,3.62109375,3.466308594,0,1.750976562-.982421875,2.854003906-2.278320312,2.854003906-.563476562,0-.971679688-.287597656-1.03125-.923339844h-.024414062c-.37109375,.611816406-.911132812,.923339844-1.546875,.923339844-.779296875,0-1.34375-.575683594-1.34375-1.559082031,0-1.462890625,1.080078125-2.794433594,2.806640625-2.794433594,.52734375,0,1.127929688,.131835938,1.427734375,.299804688l-.359375,2.21875c-.12109375,.708007812-.037109375,1.031738281,.298828125,1.043457031,.515625,.012207031,1.1640625-.647460938,1.1640625-2.026855469,0-1.559082031-1.0078125-2.770507812-2.8671875-2.770507812-1.833984375,0-3.44140625,1.439453125-3.44140625,3.729980469,0,2.002929688,1.283203125,3.142578125,3.0703125,3.142578125,.611328125,0,1.258789062-.132324219,1.73828125-.383789062l.216796875,.6953125Zm-1.068359375-4.953125c-.095703125-.023925781-.21484375-.047851562-.37109375-.047851562-.791992188,0-1.416015625,.779296875-1.416015625,1.703125,0,.455566406,.205078125,.743164062,.599609375,.743164062,.444335938,0,.912109375-.563476562,1.01953125-1.259277344l.16796875-1.139160156Z" fill="#cb2026"/><path d="M311.639648438,188.621799045c.323242188,.16796875,1.067382812,.479980469,1.811523438,.479980469,.947265625,0,1.426757812-.456054688,1.426757812-1.043457031,0-.767578125-.767578125-1.115722656-1.571289062-1.115722656h-.744140625v-1.307128906h.708007812c.612304688-.01171875,1.391601562-.239746094,1.391601562-.899414062,0-.467773438-.383789062-.815429688-1.151367188-.815429688-.635742188,0-1.307617188,.275878906-1.631835938,.467773438l-.37109375-1.319335938c.467773438-.299804688,1.40234375-.587890625,2.41015625-.587890625,1.66796875,0,2.590820312,.875488281,2.590820312,1.942871094,0,.827636719-.467773438,1.475585938-1.426757812,1.811035156v.023925781c.935546875,.16796875,1.690429688,.875488281,1.690429688,1.895019531,0,1.379394531-1.2109375,2.38671875-3.190429688,2.38671875-1.006835938,0-1.858398438-.263671875-2.314453125-.551757812l.372070312-1.3671875Z" fill="#cb2026"/><path d="M318.071289062,189.437228733c0-.647460938,.443359375-1.115234375,1.079101562-1.115234375s1.067382812,.455566406,1.067382812,1.115234375c0,.635742188-.431640625,1.103515625-1.079101562,1.103515625-.624023438,0-1.067382812-.467773438-1.067382812-1.103515625Z" fill="#cb2026"/><path d="M326.852539062,186.474826389c0,2.411132812-.971679688,4.065917969-2.962890625,4.065917969-2.014648438,0-2.90234375-1.811035156-2.9140625-4.017578125,0-2.254882812,.959960938-4.041992188,2.974609375-4.041992188,2.086914062,0,2.90234375,1.858886719,2.90234375,3.993652344Zm-4.041992188,.048339844c-.01171875,1.787109375,.419921875,2.638183594,1.126953125,2.638183594,.708007812,0,1.091796875-.887207031,1.091796875-2.662109375,0-1.727050781-.372070312-2.638671875-1.103515625-2.638671875-.671875,0-1.126953125,.8515625-1.115234375,2.662597656Z" fill="#cb2026"/><path d="M327.8515625,189.437228733c0-.647460938,.443359375-1.115234375,1.079101562-1.115234375s1.067382812,.455566406,1.067382812,1.115234375c0,.635742188-.431640625,1.103515625-1.079101562,1.103515625-.624023438,0-1.067382812-.467773438-1.067382812-1.103515625Z" fill="#cb2026"/><path d="M336.6328125,186.474826389c0,2.411132812-.971679688,4.065917969-2.962890625,4.065917969-2.014648438,0-2.90234375-1.811035156-2.9140625-4.017578125,0-2.254882812,.958984375-4.041992188,2.974609375-4.041992188,2.086914062,0,2.90234375,1.858886719,2.90234375,3.993652344Zm-4.041992188,.048339844c-.01171875,1.787109375,.419921875,2.638183594,1.126953125,2.638183594,.708007812,0,1.091796875-.887207031,1.091796875-2.662109375,0-1.727050781-.372070312-2.638671875-1.103515625-2.638671875-.671875,0-1.126953125,.8515625-1.115234375,2.662597656Z" fill="#cb2026"/></g></g><g><g><rect x="270.75" y="110.638888889" width="70.5" height="25.5" fill="#fff"/><path d="M340.5,111.388888889v24h-69v-24h69m1.5-1.5h-72v27h72v-27h0Z" fill="#231f20"/></g><g><path d="M285.576171875,119.433322483c.563476562-.096191406,1.35546875-.16796875,2.470703125-.16796875,1.126953125,0,1.930664062,.215820312,2.470703125,.647460938,.515625,.408203125,.86328125,1.079589844,.86328125,1.87109375s-.263671875,1.463378906-.744140625,1.918945312c-.623046875,.587890625-1.546875,.8515625-2.626953125,.8515625-.239257812,0-.455078125-.01171875-.623046875-.036132812v2.890625h-1.810546875v-7.975585938Zm1.810546875,3.669921875c.15625,.036132812,.34765625,.047851562,.611328125,.047851562,.971679688,0,1.571289062-.491699219,1.571289062-1.319335938,0-.743164062-.515625-1.187011719-1.426757812-1.187011719-.372070312,0-.624023438,.035644531-.755859375,.071777344v2.38671875Z" fill="#231f20"/><path d="M298.3046875,128.224338108c-.720703125,.323730469-1.34375,.432128906-2.1953125,.432128906-1.990234375,0-3.7421875-1.427246094-3.7421875-3.778320312,0-2.446289062,1.775390625-4.569335938,4.486328125-4.569335938,2.110351562,0,3.62109375,1.451171875,3.62109375,3.466308594,0,1.750976562-.982421875,2.854003906-2.278320312,2.854003906-.563476562,0-.971679688-.287597656-1.03125-.923339844h-.024414062c-.37109375,.611816406-.911132812,.923339844-1.546875,.923339844-.779296875,0-1.34375-.575683594-1.34375-1.559082031,0-1.462890625,1.080078125-2.794433594,2.806640625-2.794433594,.52734375,0,1.127929688,.131835938,1.427734375,.299804688l-.359375,2.21875c-.12109375,.708007812-.037109375,1.031738281,.298828125,1.043457031,.515625,.012207031,1.1640625-.647460938,1.1640625-2.026855469,0-1.559082031-1.0078125-2.770507812-2.8671875-2.770507812-1.833984375,0-3.44140625,1.439453125-3.44140625,3.729980469,0,2.002929688,1.283203125,3.142578125,3.0703125,3.142578125,.611328125,0,1.258789062-.132324219,1.73828125-.383789062l.216796875,.6953125Zm-1.068359375-4.953125c-.095703125-.023925781-.21484375-.047851562-.37109375-.047851562-.791992188,0-1.416015625,.779296875-1.416015625,1.703125,0,.455566406,.205078125,.743164062,.599609375,.743164062,.444335938,0,.912109375-.563476562,1.01953125-1.259277344l.16796875-1.139160156Z" fill="#231f20"/><path d="M301.5,127.40890842v-1.103515625l1.006835938-.911621094c1.703125-1.522949219,2.530273438-2.3984375,2.5546875-3.310058594,0-.635742188-.383789062-1.139160156-1.283203125-1.139160156-.671875,0-1.259765625,.3359375-1.666992188,.647460938l-.515625-1.307128906c.587890625-.443847656,1.498046875-.803710938,2.5546875-.803710938,1.762695312,0,2.734375,1.031738281,2.734375,2.446777344,0,1.307128906-.947265625,2.350585938-2.075195312,3.357910156l-.719726562,.600097656v.023925781h2.938476562v1.499023438h-5.528320312Z" fill="#231f20"/><path d="M308.254882812,126.437228733c0-.647460938,.443359375-1.115234375,1.079101562-1.115234375s1.067382812,.455566406,1.067382812,1.115234375c0,.635742188-.431640625,1.103515625-1.079101562,1.103515625-.624023438,0-1.067382812-.467773438-1.067382812-1.103515625Z" fill="#231f20"/><path d="M317.036132812,123.474826389c0,2.411132812-.971679688,4.065917969-2.962890625,4.065917969-2.014648438,0-2.90234375-1.811035156-2.9140625-4.017578125,0-2.254882812,.959960938-4.041992188,2.974609375-4.041992188,2.086914062,0,2.90234375,1.858886719,2.90234375,3.993652344Zm-4.041992188,.048339844c-.01171875,1.787109375,.419921875,2.638183594,1.126953125,2.638183594,.708007812,0,1.091796875-.887207031,1.091796875-2.662109375,0-1.727050781-.372070312-2.638671875-1.103515625-2.638671875-.671875,0-1.126953125,.8515625-1.115234375,2.662597656Z" fill="#231f20"/><path d="M318.03515625,126.437228733c0-.647460938,.443359375-1.115234375,1.079101562-1.115234375s1.067382812,.455566406,1.067382812,1.115234375c0,.635742188-.431640625,1.103515625-1.079101562,1.103515625-.624023438,0-1.067382812-.467773438-1.067382812-1.103515625Z" fill="#231f20"/><path d="M321.3828125,125.621799045c.32421875,.16796875,1.067382812,.479980469,1.811523438,.479980469,.947265625,0,1.426757812-.456054688,1.426757812-1.043457031,0-.767578125-.767578125-1.115722656-1.5703125-1.115722656h-.744140625v-1.307128906h.708007812c.611328125-.01171875,1.390625-.239746094,1.390625-.899414062,0-.467773438-.383789062-.815429688-1.151367188-.815429688-.635742188,0-1.306640625,.275878906-1.630859375,.467773438l-.372070312-1.319335938c.467773438-.299804688,1.403320312-.587890625,2.411132812-.587890625,1.666992188,0,2.590820312,.875488281,2.590820312,1.942871094,0,.827636719-.467773438,1.475585938-1.427734375,1.811035156v.023925781c.935546875,.16796875,1.69140625,.875488281,1.69140625,1.895019531,0,1.379394531-1.211914062,2.38671875-3.190429688,2.38671875-1.0078125,0-1.859375-.263671875-2.314453125-.551757812l.37109375-1.3671875Z" fill="#231f20"/></g></g><g><g><rect x="279.75" y="47.638888889" width="70.5" height="25.5" fill="#fff"/><path d="M349.5,48.388888889v24h-69v-24h69m1.5-1.5h-72v27h72v-27h0Z" fill="#231f20"/></g><g><path d="M300.66796875,65.800021701c-1.151367188-.3359375-2.111328125-.68359375-3.190429688-1.139160156-.1796875-.072265625-.372070312-.107910156-.563476562-.120117188-1.822265625-.119628906-3.525390625-1.462890625-3.525390625-4.1015625,0-2.422851562,1.53515625-4.245605469,3.9453125-4.245605469,2.470703125,0,3.826171875,1.870605469,3.826171875,4.077636719,0,1.834960938-.8515625,3.130371094-1.919921875,3.609863281v.047851562c.624023438,.180175781,1.3203125,.32421875,1.955078125,.456054688l-.52734375,1.415039062Zm-1.439453125-5.45703125c0-1.475097656-.6953125-2.698242188-1.942382812-2.698242188s-1.967773438,1.223144531-1.967773438,2.734375c-.01171875,1.53515625,.732421875,2.710449219,1.955078125,2.710449219,1.236328125,0,1.955078125-1.163085938,1.955078125-2.746582031Z" fill="#231f20"/><path d="M308.12109375,65.224338108c-.720703125,.323730469-1.34375,.432128906-2.1953125,.432128906-1.990234375,0-3.7421875-1.427246094-3.7421875-3.778320312,0-2.446289062,1.775390625-4.569335938,4.486328125-4.569335938,2.110351562,0,3.62109375,1.451171875,3.62109375,3.466308594,0,1.750976562-.982421875,2.854003906-2.278320312,2.854003906-.563476562,0-.971679688-.287597656-1.03125-.923339844h-.024414062c-.37109375,.611816406-.911132812,.923339844-1.546875,.923339844-.779296875,0-1.34375-.575683594-1.34375-1.559082031,0-1.462890625,1.080078125-2.794433594,2.806640625-2.794433594,.52734375,0,1.127929688,.131835938,1.427734375,.299804688l-.359375,2.21875c-.12109375,.708007812-.037109375,1.031738281,.298828125,1.043457031,.515625,.012207031,1.1640625-.647460938,1.1640625-2.026855469,0-1.559082031-1.0078125-2.770507812-2.8671875-2.770507812-1.833984375,0-3.44140625,1.439453125-3.44140625,3.729980469,0,2.002929688,1.283203125,3.142578125,3.0703125,3.142578125,.611328125,0,1.258789062-.132324219,1.73828125-.383789062l.216796875,.6953125Zm-1.068359375-4.953125c-.095703125-.023925781-.21484375-.047851562-.37109375-.047851562-.791992188,0-1.416015625,.779296875-1.416015625,1.703125,0,.455566406,.205078125,.743164062,.599609375,.743164062,.444335938,0,.912109375-.563476562,1.01953125-1.259277344l.16796875-1.139160156Z" fill="#231f20"/><path d="M311.639648438,62.621799045c.323242188,.16796875,1.067382812,.479980469,1.811523438,.479980469,.947265625,0,1.426757812-.456054688,1.426757812-1.043457031,0-.767578125-.767578125-1.115722656-1.571289062-1.115722656h-.744140625v-1.307128906h.708007812c.612304688-.01171875,1.391601562-.239746094,1.391601562-.899414062,0-.467773438-.383789062-.815429688-1.151367188-.815429688-.635742188,0-1.307617188,.275878906-1.631835938,.467773438l-.37109375-1.319335938c.467773438-.299804688,1.40234375-.587890625,2.41015625-.587890625,1.66796875,0,2.590820312,.875488281,2.590820312,1.942871094,0,.827636719-.467773438,1.475585938-1.426757812,1.811035156v.023925781c.935546875,.16796875,1.690429688,.875488281,1.690429688,1.895019531,0,1.379394531-1.2109375,2.38671875-3.190429688,2.38671875-1.006835938,0-1.858398438-.263671875-2.314453125-.551757812l.372070312-1.3671875Z" fill="#231f20"/><path d="M318.071289062,63.437228733c0-.647460938,.443359375-1.115234375,1.079101562-1.115234375s1.067382812,.455566406,1.067382812,1.115234375c0,.635742188-.431640625,1.103515625-1.079101562,1.103515625-.624023438,0-1.067382812-.467773438-1.067382812-1.103515625Z" fill="#231f20"/><path d="M326.852539062,60.474826389c0,2.411132812-.971679688,4.065917969-2.962890625,4.065917969-2.014648438,0-2.90234375-1.811035156-2.9140625-4.017578125,0-2.254882812,.959960938-4.041992188,2.974609375-4.041992188,2.086914062,0,2.90234375,1.858886719,2.90234375,3.993652344Zm-4.041992188,.048339844c-.01171875,1.787109375,.419921875,2.638183594,1.126953125,2.638183594,.708007812,0,1.091796875-.887207031,1.091796875-2.662109375,0-1.727050781-.372070312-2.638671875-1.103515625-2.638671875-.671875,0-1.126953125,.8515625-1.115234375,2.662597656Z" fill="#231f20"/><path d="M327.8515625,63.437228733c0-.647460938,.443359375-1.115234375,1.079101562-1.115234375s1.067382812,.455566406,1.067382812,1.115234375c0,.635742188-.431640625,1.103515625-1.079101562,1.103515625-.624023438,0-1.067382812-.467773438-1.067382812-1.103515625Z" fill="#231f20"/><path d="M336.6328125,60.474826389c0,2.411132812-.971679688,4.065917969-2.962890625,4.065917969-2.014648438,0-2.90234375-1.811035156-2.9140625-4.017578125,0-2.254882812,.958984375-4.041992188,2.974609375-4.041992188,2.086914062,0,2.90234375,1.858886719,2.90234375,3.993652344Zm-4.041992188,.048339844c-.01171875,1.787109375,.419921875,2.638183594,1.126953125,2.638183594,.708007812,0,1.091796875-.887207031,1.091796875-2.662109375,0-1.727050781-.372070312-2.638671875-1.103515625-2.638671875-.671875,0-1.126953125,.8515625-1.115234375,2.662597656Z" fill="#231f20"/></g></g><g><line x1="351" y1="59.722217136" x2="400.143829346" y2="59.722217136" fill="none" stroke="#549445" stroke-miterlimit="10" stroke-width="1.5"/><g><circle cx="399.888259888" cy="59.722220951" r="4.511737823" transform="translate(15.508881936 185.140951119) rotate(-26.56511706)" fill="#fff"/><path d="M399.888244629,64.833941989c-2.818328857,0-5.111694336-2.293365479-5.111694336-5.111724854,0-2.818344116,2.293365479-5.111724854,5.111694336-5.111724854,2.81842041,0,5.111755371,2.293380737,5.111755371,5.111724854,0,2.818359375-2.293334961,5.111724854-5.111755371,5.111724854-2.818328857,0,2.81842041,0,0,0Zm0-9.0234375c-2.15737915,0-3.911682129,1.754302979-3.911682129,3.911712646,0,2.157424927,1.754302979,3.911727905,3.911682129,3.911727905,2.157470703,0,3.911743164-1.754302979,3.911743164-3.911727905,0-2.157409668-1.754272461-3.911712646-3.911743164-3.911712646-2.15737915,0,2.157470703,0,0,0Z" fill="#549445"/></g></g><g><path d="M150.977539062,218.90109592c.50390625-.083984375,1.1640625-.155761719,2.002929688-.155761719,1.032226562,0,1.787109375,.239746094,2.267578125,.671875,.443359375,.383789062,.70703125,.971191406,.70703125,1.690917969,0,.731445312-.215820312,1.307128906-.624023438,1.727050781-.55078125,.587402344-1.451171875,.887695312-2.469726562,.887695312-.3125,0-.600585938-.012207031-.83984375-.072265625v3.23828125h-1.043945312v-7.987792969Zm1.043945312,3.897949219c.227539062,.060058594,.515625,.083984375,.86328125,.083984375,1.259765625,0,2.02734375-.611816406,2.02734375-1.727050781,0-1.067382812-.755859375-1.583007812-1.907226562-1.583007812-.456054688,0-.803710938,.036132812-.983398438,.083984375v3.142089844Z" fill="#231f20"/><path d="M156.942382812,222.043674045c0-.443847656,.299804688-.755859375,.719726562-.755859375,.418945312,0,.6953125,.312011719,.70703125,.755859375,0,.419433594-.275390625,.743652344-.719726562,.743652344-.419921875,0-.70703125-.32421875-.70703125-.743652344Zm0,4.233398438c0-.443847656,.299804688-.755371094,.719726562-.755371094,.418945312,0,.6953125,.311523438,.70703125,.755371094,0,.419921875-.275390625,.743652344-.719726562,.743652344-.419921875,0-.70703125-.323730469-.70703125-.743652344Z" fill="#231f20"/><path d="M161.93359375,224.370334201c-.047851562-1.19921875,.599609375-1.811035156,1.426757812-1.811035156,.50390625,0,.887695312,.155761719,1.69140625,.539550781,.611328125,.288085938,1.055664062,.50390625,1.499023438,.50390625,.431640625,0,.635742188-.34765625,.647460938-1.007324219h.719726562c.060546875,1.343261719-.635742188,1.811035156-1.37890625,1.811035156-.479492188,0-.912109375-.144042969-1.739257812-.527832031-.563476562-.275878906-1.0078125-.527832031-1.439453125-.527832031s-.6953125,.299804688-.719726562,1.01953125h-.70703125Z" fill="#231f20"/><path d="M169.038085938,226.888888889v-.647460938l.827148438-.803710938c1.991210938-1.895019531,2.890625-2.90234375,2.90234375-4.077636719,0-.791503906-.383789062-1.5234375-1.546875-1.5234375-.708007812,0-1.295898438,.359863281-1.655273438,.659667969l-.3359375-.743652344c.540039062-.455566406,1.307617188-.791503906,2.20703125-.791503906,1.678710938,0,2.38671875,1.151367188,2.38671875,2.266601562,0,1.439453125-1.043945312,2.603027344-2.686523438,4.186035156l-.624023438,.575683594v.023925781h3.501953125v.875488281h-4.9765625Z" fill="#231f20"/><path d="M175.278320312,226.265353733c0-.443847656,.299804688-.755859375,.719726562-.755859375,.418945312,0,.70703125,.312011719,.70703125,.755859375,0,.431640625-.275390625,.755371094-.719726562,.755371094-.419921875,0-.70703125-.323730469-.70703125-.755371094Z" fill="#231f20"/><path d="M179.967773438,220.076388889h-.0234375l-1.35546875,.731933594-.204101562-.803710938,1.703125-.911621094h.899414062v7.795898438h-1.01953125v-6.8125Z" fill="#231f20"/><path d="M183.91796875,226.265353733c0-.443847656,.299804688-.755859375,.71875-.755859375,.419921875,0,.708007812,.312011719,.708007812,.755859375,0,.431640625-.275390625,.755371094-.719726562,.755371094-.419921875,0-.70703125-.323730469-.70703125-.755371094Z" fill="#231f20"/><path d="M191.498046875,222.906955295c0,2.650878906-.983398438,4.113769531-2.709960938,4.113769531-1.5234375,0-2.5546875-1.427246094-2.579101562-4.005859375,0-2.614257812,1.127929688-4.053710938,2.7109375-4.053710938,1.642578125,0,2.578125,1.463378906,2.578125,3.945800781Zm-4.233398438,.120117188c0,2.026855469,.624023438,3.178222656,1.583007812,3.178222656,1.079101562,0,1.594726562-1.259277344,1.594726562-3.25,0-1.918945312-.491210938-3.178710938-1.583007812-3.178710938-.922851562,0-1.594726562,1.127441406-1.594726562,3.250488281Z" fill="#231f20"/></g><g><path d="M150.977539062,92.90109592c.50390625-.083984375,1.1640625-.155761719,2.002929688-.155761719,1.032226562,0,1.787109375,.239746094,2.267578125,.671875,.443359375,.383789062,.70703125,.971191406,.70703125,1.690917969,0,.731445312-.215820312,1.307128906-.624023438,1.727050781-.55078125,.587402344-1.451171875,.887695312-2.469726562,.887695312-.3125,0-.600585938-.012207031-.83984375-.072265625v3.23828125h-1.043945312v-7.987792969Zm1.043945312,3.897949219c.227539062,.060058594,.515625,.083984375,.86328125,.083984375,1.259765625,0,2.02734375-.611816406,2.02734375-1.727050781,0-1.067382812-.755859375-1.583007812-1.907226562-1.583007812-.456054688,0-.803710938,.036132812-.983398438,.083984375v3.142089844Z" fill="#231f20"/><path d="M156.942382812,96.043674045c0-.443847656,.299804688-.755859375,.719726562-.755859375,.418945312,0,.6953125,.312011719,.70703125,.755859375,0,.419433594-.275390625,.743652344-.719726562,.743652344-.419921875,0-.70703125-.32421875-.70703125-.743652344Zm0,4.233398438c0-.443847656,.299804688-.755371094,.719726562-.755371094,.418945312,0,.6953125,.311523438,.70703125,.755371094,0,.419921875-.275390625,.743652344-.719726562,.743652344-.419921875,0-.70703125-.323730469-.70703125-.743652344Z" fill="#231f20"/><path d="M161.93359375,98.370334201c-.047851562-1.19921875,.599609375-1.811035156,1.426757812-1.811035156,.50390625,0,.887695312,.155761719,1.69140625,.539550781,.611328125,.288085938,1.055664062,.50390625,1.499023438,.50390625,.431640625,0,.635742188-.34765625,.647460938-1.007324219h.719726562c.060546875,1.343261719-.635742188,1.811035156-1.37890625,1.811035156-.479492188,0-.912109375-.144042969-1.739257812-.527832031-.563476562-.275878906-1.0078125-.527832031-1.439453125-.527832031s-.6953125,.299804688-.719726562,1.01953125h-.70703125Z" fill="#231f20"/><path d="M169.038085938,100.888888889v-.647460938l.827148438-.803710938c1.991210938-1.895019531,2.890625-2.90234375,2.90234375-4.077636719,0-.791503906-.383789062-1.5234375-1.546875-1.5234375-.708007812,0-1.295898438,.359863281-1.655273438,.659667969l-.3359375-.743652344c.540039062-.455566406,1.307617188-.791503906,2.20703125-.791503906,1.678710938,0,2.38671875,1.151367188,2.38671875,2.266601562,0,1.439453125-1.043945312,2.603027344-2.686523438,4.186035156l-.624023438,.575683594v.023925781h3.501953125v.875488281h-4.9765625Z" fill="#231f20"/><path d="M175.278320312,100.265353733c0-.443847656,.299804688-.755859375,.719726562-.755859375,.418945312,0,.70703125,.312011719,.70703125,.755859375,0,.431640625-.275390625,.755371094-.719726562,.755371094-.419921875,0-.70703125-.323730469-.70703125-.755371094Z" fill="#231f20"/><path d="M182.858398438,96.906955295c0,2.650878906-.983398438,4.113769531-2.709960938,4.113769531-1.5234375,0-2.5546875-1.427246094-2.579101562-4.005859375,0-2.614257812,1.127929688-4.053710938,2.7109375-4.053710938,1.642578125,0,2.578125,1.463378906,2.578125,3.945800781Zm-4.233398438,.120117188c0,2.026855469,.623046875,3.178222656,1.583007812,3.178222656,1.079101562,0,1.594726562-1.259277344,1.594726562-3.25,0-1.918945312-.491210938-3.178710938-1.583007812-3.178710938-.922851562,0-1.594726562,1.127441406-1.594726562,3.250488281Z" fill="#231f20"/><path d="M183.91796875,100.265353733c0-.443847656,.299804688-.755859375,.71875-.755859375,.419921875,0,.708007812,.312011719,.708007812,.755859375,0,.431640625-.275390625,.755371094-.719726562,.755371094-.419921875,0-.70703125-.323730469-.70703125-.755371094Z" fill="#231f20"/><path d="M191.498046875,96.906955295c0,2.650878906-.983398438,4.113769531-2.709960938,4.113769531-1.5234375,0-2.5546875-1.427246094-2.579101562-4.005859375,0-2.614257812,1.127929688-4.053710938,2.7109375-4.053710938,1.642578125,0,2.578125,1.463378906,2.578125,3.945800781Zm-4.233398438,.120117188c0,2.026855469,.624023438,3.178222656,1.583007812,3.178222656,1.079101562,0,1.594726562-1.259277344,1.594726562-3.25,0-1.918945312-.491210938-3.178710938-1.583007812-3.178710938-.922851562,0-1.594726562,1.127441406-1.594726562,3.250488281Z" fill="#231f20"/></g><g><path d="M232.21484375,174.076388889c-1.091796875-.288085938-2.159179688-.611816406-3.094726562-.935546875-.16796875-.060058594-.3359375-.120117188-.491210938-.120117188-1.918945312-.071777344-3.5625-1.487304688-3.5625-4.08984375,0-2.590332031,1.583007812-4.257324219,3.765625-4.257324219,2.1953125,0,3.622070312,1.703125,3.622070312,4.089355469,0,2.075195312-.958984375,3.40625-2.302734375,3.874023438v.047851562c.803710938,.204101562,1.6796875,.395996094,2.36328125,.516113281l-.299804688,.875488281Zm-.86328125-5.265136719c0-1.619140625-.83984375-3.286132812-2.5546875-3.286132812-1.763671875,0-2.626953125,1.630859375-2.615234375,3.381835938-.01171875,1.715332031,.935546875,3.262207031,2.56640625,3.262207031,1.66796875,0,2.603515625-1.511230469,2.603515625-3.357910156Z" fill="#231f20"/><path d="M233.526367188,168.043674045c0-.443847656,.299804688-.755859375,.719726562-.755859375,.418945312,0,.6953125,.312011719,.70703125,.755859375,0,.419433594-.275390625,.743652344-.719726562,.743652344-.419921875,0-.70703125-.32421875-.70703125-.743652344Zm0,4.233398438c0-.443847656,.299804688-.755371094,.719726562-.755371094,.418945312,0,.6953125,.311523438,.70703125,.755371094,0,.419921875-.275390625,.743652344-.719726562,.743652344-.419921875,0-.70703125-.323730469-.70703125-.743652344Z" fill="#231f20"/><path d="M238.721679688,171.677463108c.299804688,.191894531,.995117188,.491699219,1.7265625,.491699219,1.35546875,0,1.775390625-.86328125,1.762695312-1.511230469-.01171875-1.091308594-.995117188-1.559082031-2.014648438-1.559082031h-.587890625v-.791503906h.587890625c.767578125,0,1.739257812-.395507812,1.739257812-1.319335938,0-.623535156-.395507812-1.175292969-1.3671875-1.175292969-.624023438,0-1.223632812,.275878906-1.559570312,.515625l-.275390625-.767578125c.407226562-.299804688,1.19921875-.599609375,2.0390625-.599609375,1.53515625,0,2.23046875,.911621094,2.23046875,1.858886719,0,.803710938-.479492188,1.487304688-1.439453125,1.834960938v.024414062c.959960938,.191894531,1.739257812,.911132812,1.739257812,2.002441406,0,1.247558594-.971679688,2.338867188-2.842773438,2.338867188-.875,0-1.642578125-.275878906-2.026367188-.527832031l.288085938-.815429688Z" fill="#231f20"/><path d="M244.709960938,172.265353733c0-.443847656,.299804688-.755859375,.719726562-.755859375,.418945312,0,.70703125,.312011719,.70703125,.755859375,0,.431640625-.275390625,.755371094-.719726562,.755371094-.419921875,0-.70703125-.323730469-.70703125-.755371094Z" fill="#231f20"/><path d="M252.290039062,168.906955295c0,2.650878906-.983398438,4.113769531-2.709960938,4.113769531-1.5234375,0-2.5546875-1.427246094-2.579101562-4.005859375,0-2.614257812,1.127929688-4.053710938,2.7109375-4.053710938,1.642578125,0,2.578125,1.463378906,2.578125,3.945800781Zm-4.233398438,.120117188c0,2.026855469,.623046875,3.178222656,1.583007812,3.178222656,1.079101562,0,1.594726562-1.259277344,1.594726562-3.25,0-1.918945312-.491210938-3.178710938-1.583007812-3.178710938-.922851562,0-1.594726562,1.127441406-1.594726562,3.250488281Z" fill="#231f20"/><path d="M253.349609375,172.265353733c0-.443847656,.299804688-.755859375,.71875-.755859375,.419921875,0,.708007812,.312011719,.708007812,.755859375,0,.431640625-.275390625,.755371094-.719726562,.755371094-.419921875,0-.70703125-.323730469-.70703125-.755371094Z" fill="#231f20"/><path d="M260.9296875,168.906955295c0,2.650878906-.983398438,4.113769531-2.709960938,4.113769531-1.5234375,0-2.5546875-1.427246094-2.579101562-4.005859375,0-2.614257812,1.127929688-4.053710938,2.7109375-4.053710938,1.642578125,0,2.578125,1.463378906,2.578125,3.945800781Zm-4.233398438,.120117188c0,2.026855469,.624023438,3.178222656,1.583007812,3.178222656,1.079101562,0,1.594726562-1.259277344,1.594726562-3.25,0-1.918945312-.491210938-3.178710938-1.583007812-3.178710938-.922851562,0-1.594726562,1.127441406-1.594726562,3.250488281Z" fill="#231f20"/></g><g><path d="M232.21484375,48.076388889c-1.091796875-.288085938-2.159179688-.611816406-3.094726562-.935546875-.16796875-.060058594-.3359375-.120117188-.491210938-.120117188-1.918945312-.071777344-3.5625-1.487304688-3.5625-4.08984375,0-2.590332031,1.583007812-4.257324219,3.765625-4.257324219,2.1953125,0,3.622070312,1.703125,3.622070312,4.089355469,0,2.075195312-.958984375,3.40625-2.302734375,3.874023438v.047851562c.803710938,.204101562,1.6796875,.395996094,2.36328125,.516113281l-.299804688,.875488281Zm-.86328125-5.265136719c0-1.619140625-.83984375-3.286132812-2.5546875-3.286132812-1.763671875,0-2.626953125,1.630859375-2.615234375,3.381835938-.01171875,1.715332031,.935546875,3.262207031,2.56640625,3.262207031,1.66796875,0,2.603515625-1.511230469,2.603515625-3.357910156Z" fill="#231f20"/><path d="M233.526367188,42.043674045c0-.443847656,.299804688-.755859375,.719726562-.755859375,.418945312,0,.6953125,.312011719,.70703125,.755859375,0,.419433594-.275390625,.743652344-.719726562,.743652344-.419921875,0-.70703125-.32421875-.70703125-.743652344Zm0,4.233398438c0-.443847656,.299804688-.755371094,.719726562-.755371094,.418945312,0,.6953125,.311523438,.70703125,.755371094,0,.419921875-.275390625,.743652344-.719726562,.743652344-.419921875,0-.70703125-.323730469-.70703125-.743652344Z" fill="#231f20"/><path d="M238.721679688,45.677463108c.299804688,.191894531,.995117188,.491699219,1.7265625,.491699219,1.35546875,0,1.775390625-.86328125,1.762695312-1.511230469-.01171875-1.091308594-.995117188-1.559082031-2.014648438-1.559082031h-.587890625v-.791503906h.587890625c.767578125,0,1.739257812-.395507812,1.739257812-1.319335938,0-.623535156-.395507812-1.175292969-1.3671875-1.175292969-.624023438,0-1.223632812,.275878906-1.559570312,.515625l-.275390625-.767578125c.407226562-.299804688,1.19921875-.599609375,2.0390625-.599609375,1.53515625,0,2.23046875,.911621094,2.23046875,1.858886719,0,.803710938-.479492188,1.487304688-1.439453125,1.834960938v.024414062c.959960938,.191894531,1.739257812,.911132812,1.739257812,2.002441406,0,1.247558594-.971679688,2.338867188-2.842773438,2.338867188-.875,0-1.642578125-.275878906-2.026367188-.527832031l.288085938-.815429688Z" fill="#231f20"/><path d="M244.709960938,46.265353733c0-.443847656,.299804688-.755859375,.719726562-.755859375,.418945312,0,.70703125,.312011719,.70703125,.755859375,0,.431640625-.275390625,.755371094-.719726562,.755371094-.419921875,0-.70703125-.323730469-.70703125-.755371094Z" fill="#231f20"/><path d="M252.290039062,42.906955295c0,2.650878906-.983398438,4.113769531-2.709960938,4.113769531-1.5234375,0-2.5546875-1.427246094-2.579101562-4.005859375,0-2.614257812,1.127929688-4.053710938,2.7109375-4.053710938,1.642578125,0,2.578125,1.463378906,2.578125,3.945800781Zm-4.233398438,.120117188c0,2.026855469,.623046875,3.178222656,1.583007812,3.178222656,1.079101562,0,1.594726562-1.259277344,1.594726562-3.25,0-1.918945312-.491210938-3.178710938-1.583007812-3.178710938-.922851562,0-1.594726562,1.127441406-1.594726562,3.250488281Z" fill="#231f20"/><path d="M253.349609375,46.265353733c0-.443847656,.299804688-.755859375,.71875-.755859375,.419921875,0,.708007812,.312011719,.708007812,.755859375,0,.431640625-.275390625,.755371094-.719726562,.755371094-.419921875,0-.70703125-.323730469-.70703125-.755371094Z" fill="#231f20"/><path d="M260.9296875,42.906955295c0,2.650878906-.983398438,4.113769531-2.709960938,4.113769531-1.5234375,0-2.5546875-1.427246094-2.579101562-4.005859375,0-2.614257812,1.127929688-4.053710938,2.7109375-4.053710938,1.642578125,0,2.578125,1.463378906,2.578125,3.945800781Zm-4.233398438,.120117188c0,2.026855469,.624023438,3.178222656,1.583007812,3.178222656,1.079101562,0,1.594726562-1.259277344,1.594726562-3.25,0-1.918945312-.491210938-3.178710938-1.583007812-3.178710938-.922851562,0-1.594726562,1.127441406-1.594726562,3.250488281Z" fill="#231f20"/></g></g></g></svg>