<svg version="1.1" viewBox="0 0 431.99998 153" xmlns="http://www.w3.org/2000/svg"><g transform="translate(-27,-1.0556641)"><rect x="27" y="1.0556641" width="432" height="9" fill="none"/><g fill="none" stroke="#929497" stroke-miterlimit="10" stroke-width="2"><line x1="216" x2="216" y1="1.0556641" y2="7.0556641"/><line x1="216" x2="216" y1="19.87384" y2="141.64658" stroke-dasharray="0, 0, 12.8182, 12.8182"/><line x1="216" x2="216" y1="148.05566" y2="154.05566"/></g><path d="m176.33333 67.722336c28.57724 33.951374 87.24714 53.158894 109.67616 59.508224" fill="none" stroke="#3975bb" stroke-miterlimit="10" stroke-width="1.5"/><polygon points="284.80914 123.69331 283.21548 129.58257 295 129.61122" fill="#3975bb"/><line x1="180" x2="270.53101" y1="59.388992" y2="59.388992" fill="none" stroke="#3975bb" stroke-miterlimit="10" stroke-width="1.5"/><polygon points="268.45047 56.33847 268.45047 62.439529 279.83334 59.388992" fill="#3975bb"/><g fill="#231f20"><path d="m353.47754 30.111816c0.50391-0.08398 1.16406-0.155761 2.00293-0.155761 1.03223 0 1.78711 0.239746 2.26758 0.671875 0.44336 0.383789 0.70703 0.971191 0.70703 1.690918 0 0.731445-0.21582 1.307129-0.62403 1.72705-0.55078 0.587403-1.45117 0.887696-2.46972 0.887696-0.3125 0-0.60059-0.01221-0.83985-0.07227v3.238281h-1.04394zm1.04394 3.89795c0.22754 0.06006 0.51563 0.08398 0.86329 0.08398 1.25976 0 2.02734-0.611816 2.02734-1.727051 0-1.067383-0.75586-1.583008-1.90723-1.583008-0.45605 0-0.80371 0.03613-0.9834 0.08398z"/><path d="m359.44238 33.254395c0-0.443848 0.29981-0.75586 0.71973-0.75586 0.41894 0 0.69531 0.312012 0.70703 0.75586 0 0.419433-0.27539 0.743652-0.71973 0.743652-0.41992 0-0.70703-0.324219-0.70703-0.743652zm0 4.233398c0-0.443848 0.29981-0.755371 0.71973-0.755371 0.41894 0 0.69531 0.311523 0.70703 0.755371 0 0.419922-0.27539 0.743652-0.71973 0.743652-0.41992 0-0.70703-0.32373-0.70703-0.743652z"/><path d="m369.43457 35.833008-2.00293-4.653809h-0.0234l-2.00293 4.653809h-0.83984l2.48242-5.529297h0.74414l2.48242 5.529297z"/><path d="m371.53809 38.099609v-0.647461l0.82714-0.803711c1.99122-1.895019 2.89063-2.902343 2.90235-4.077636 0-0.791504-0.38379-1.523438-1.54688-1.523438-0.708 0-1.2959 0.359864-1.65527 0.659668l-0.33594-0.743652c0.54004-0.455567 1.30762-0.791504 2.20703-0.791504 1.67871 0 2.38672 1.151367 2.38672 2.266602 0 1.439453-1.04394 2.603027-2.68652 4.186035l-0.62402 0.575683v0.02393h3.50195v0.875488z"/><path d="m377.77832 37.476074c0-0.443847 0.2998-0.755859 0.71973-0.755859 0.41894 0 0.70703 0.312012 0.70703 0.755859 0 0.431641-0.27539 0.755371-0.71973 0.755371-0.41992 0-0.70703-0.32373-0.70703-0.755371z"/><path d="m385.3584 34.117676c0 2.650879-0.9834 4.113769-2.70996 4.113769-1.52344 0-2.55469-1.427246-2.5791-4.005859 0-2.614258 1.12793-4.053711 2.71093-4.053711 1.64258 0 2.57813 1.463379 2.57813 3.945801zm-4.2334 0.120117c0 2.026855 0.62305 3.178223 1.58301 3.178223 1.0791 0 1.59472-1.259278 1.59472-3.25 0-1.918946-0.49121-3.178711-1.583-3.178711-0.92286 0-1.59473 1.127441-1.59473 3.250488z"/><path d="m386.41797 37.476074c0-0.443847 0.2998-0.755859 0.71875-0.755859 0.41992 0 0.70801 0.312012 0.70801 0.755859 0 0.431641-0.27539 0.755371-0.71973 0.755371-0.41992 0-0.70703-0.32373-0.70703-0.755371z"/><path d="m393.99805 34.117676c0 2.650879-0.9834 4.113769-2.70996 4.113769-1.52344 0-2.55469-1.427246-2.57911-4.005859 0-2.614258 1.12793-4.053711 2.71094-4.053711 1.64258 0 2.57813 1.463379 2.57813 3.945801zm-4.2334 0.120117c0 2.026855 0.62402 3.178223 1.58301 3.178223 1.0791 0 1.59472-1.259278 1.59472-3.25 0-1.918946-0.49121-3.178711-1.58301-3.178711-0.92285 0-1.59472 1.127441-1.59472 3.250488z"/></g><line x1="116.83333" x2="144.41988" y1="59.388992" y2="59.388992" fill="none" stroke="#3975bb" stroke-miterlimit="10" stroke-width="1.5"/><polygon points="142.33936 56.33847 142.33936 62.439529 153.72223 59.388992" fill="#3975bb"/><line x1="351" x2="378.58655" y1="59.388992" y2="59.388992" fill="none" stroke="#3975bb" stroke-miterlimit="10" stroke-width="1.5"/><polygon points="376.50604 56.33847 376.50604 62.439529 387.88889 59.388992" fill="#3975bb"/><line x1="53.111115" x2="80.697662" y1="59.388992" y2="59.388992" fill="none" stroke="#3975bb" stroke-miterlimit="10" stroke-width="1.5"/><polygon points="78.617142 56.33847 78.617142 62.439529 90 59.388992" fill="#3975bb"/><circle cx="103.5" cy="59.555664" r="12.75" fill="#fff"/><path d="m103.5 47.555664c6.61682 0 12 5.383179 12 12s-5.38318 12-12 12c-6.616821 0-12-5.383179-12-12s5.383179-12 12-12m0-1.5c-7.455841 0-13.5 6.044159-13.5 13.5s6.044159 13.5 13.5 13.5c7.45584 0 13.5-6.044159 13.5-13.5s-6.04416-13.5-13.5-13.5z" fill="#231f20"/><path d="m100.66748 55.600098c0.47998-0.09619 1.45117-0.167969 2.36279-0.167969 1.11524 0 1.79883 0.10791 2.38672 0.455566 0.56348 0.299805 0.97119 0.851563 0.97119 1.583496 0 0.719239-0.41943 1.391114-1.33105 1.727051v0.02393c0.92334 0.251953 1.60693 0.947266 1.60693 1.990723 0 0.731445-0.33545 1.307617-0.83935 1.715332-0.58789 0.467773-1.57129 0.731445-3.17823 0.731445-0.89941 0-1.57128-0.06006-1.979-0.120117zm1.81104 3.094238h0.59961c0.95947 0 1.47509-0.395508 1.47509-0.995606 0-0.611328-0.46777-0.935058-1.29492-0.935058-0.396 0-0.62402 0.02393-0.77978 0.04785zm0 3.585937c0.17968 0.02393 0.39599 0.02393 0.70752 0.02393 0.82763 0 1.55908-0.311523 1.55908-1.163086 0-0.815429-0.73145-1.139648-1.64307-1.139648h-0.62353z" fill="#231f20"/><circle cx="40.5" cy="59.555664" r="12.75" fill="#fff"/><path d="m40.5 47.555664c6.616821 0 12 5.383179 12 12s-5.383179 12-12 12-12-5.383179-12-12 5.383179-12 12-12m0-1.5c-7.455841 0-13.5 6.044159-13.5 13.5s6.044159 13.5 13.5 13.5 13.5-6.044159 13.5-13.5-6.044159-13.5-13.5-13.5z" fill="#231f20"/><path d="m39.238281 61.500977-0.575683 2.074707h-1.894532l2.470215-8.083497h2.398926l2.506348 8.083497h-1.966797l-0.623535-2.074707zm2.05127-1.367188-0.503906-1.715332c-0.144043-0.479492-0.287598-1.07959-0.407715-1.559082h-0.02393c-0.120117 0.479492-0.239746 1.091309-0.37207 1.559082l-0.479493 1.715332z" fill="#231f20"/><circle cx="166.5" cy="59.555664" r="12.75" fill="#fff"/><path d="m166.5 47.555664c6.61682 0 12 5.383179 12 12s-5.38318 12-12 12-12-5.383179-12-12 5.38318-12 12-12m0-1.5c-7.45584 0-13.5 6.044159-13.5 13.5s6.04416 13.5 13.5 13.5 13.5-6.044159 13.5-13.5-6.04416-13.5-13.5-13.5z" fill="#231f20"/><path d="m169.65869 63.347656c-0.33594 0.167969-1.0918 0.348145-2.07519 0.348145-2.79444 0-4.2334-1.739258-4.2334-4.041992 0-2.758301 1.96679-4.293457 4.41357-4.293457 0.94727 0 1.66699 0.191894 1.99072 0.359863l-0.37158 1.451172c-0.37207-0.15625-0.88769-0.299805-1.53515-0.299805-1.45118 0-2.57862 0.875488-2.57862 2.674316 0 1.619141 0.95948 2.638672 2.59033 2.638672 0.55176 0 1.16358-0.120117 1.52344-0.26416z" fill="#231f20"/><rect x="270.75" y="109.80566" width="70.5" height="25.5" fill="#fff"/><path d="m340.5 110.55566v24h-69v-24h69m1.5-1.5h-72v27h72z" fill="#231f20"/><g fill="#231f20"><path d="m285.57617 118.6001c0.56348-0.0962 1.35547-0.16797 2.4707-0.16797 1.12696 0 1.93067 0.21582 2.47071 0.64746 0.51562 0.4082 0.86328 1.07959 0.86328 1.87109 0 0.79151-0.26367 1.46338-0.74414 1.91895-0.62305 0.58789-1.54688 0.85156-2.62695 0.85156-0.23926 0-0.45508-0.0117-0.62305-0.0361v2.89062h-1.81055zm1.81055 3.66992c0.15625 0.0361 0.34765 0.0478 0.61133 0.0478 0.97168 0 1.57129-0.4917 1.57129-1.31933 0-0.74317-0.51563-1.18702-1.42676-1.18702-0.37207 0-0.62403 0.0357-0.75586 0.0718z"/><path d="m298.30469 127.39111c-0.72071 0.32373-1.34375 0.43213-2.19532 0.43213-1.99023 0-3.74218-1.42724-3.74218-3.77832 0-2.44629 1.77539-4.56933 4.48633-4.56933 2.11035 0 3.62109 1.45117 3.62109 3.4663 0 1.75098-0.98242 2.85401-2.27832 2.85401-0.56348 0-0.97168-0.2876-1.03125-0.92334h-0.0244c-0.3711 0.61181-0.91114 0.92334-1.54688 0.92334-0.7793 0-1.34375-0.57569-1.34375-1.55908 0-1.46289 1.08008-2.79444 2.80664-2.79444 0.52734 0 1.12793 0.13184 1.42774 0.29981l-0.35938 2.21875c-0.12109 0.70801-0.0371 1.03174 0.29883 1.04345 0.51562 0.0122 1.16406-0.64746 1.16406-2.02685 0-1.55908-1.00781-2.77051-2.86719-2.77051-1.83398 0-3.4414 1.43945-3.4414 3.72998 0 2.00293 1.2832 3.14258 3.07031 3.14258 0.61133 0 1.25879-0.13232 1.73828-0.38379zm-1.06836-4.95312c-0.0957-0.0239-0.21485-0.0478-0.3711-0.0478-0.79199 0-1.41601 0.77929-1.41601 1.70312 0 0.45557 0.20508 0.74317 0.59961 0.74317 0.44433 0 0.91211-0.56348 1.01953-1.25928z"/><path d="m303.82617 120.39893h-0.0234l-1.48828 0.70752-0.29883-1.36719 2.0625-0.95947h1.51075v7.79589h-1.7627z"/><path d="m308.25488 125.604c0-0.64746 0.44336-1.11523 1.0791-1.11523 0.63575 0 1.06739 0.45557 1.06739 1.11523 0 0.63575-0.43164 1.10352-1.0791 1.10352-0.62403 0-1.06739-0.46777-1.06739-1.10352z"/><path d="m311.2793 126.57568v-1.10351l1.00683-0.91162c1.70313-1.52295 2.53125-2.39844 2.55469-3.31006 0-0.63574-0.38379-1.13916-1.2832-1.13916-0.6709 0-1.25879 0.33594-1.667 0.64746l-0.51562-1.30713c0.58789-0.44385 1.49902-0.80371 2.55469-0.80371 1.76269 0 2.73437 1.03174 2.73437 2.44678 0 1.30713-0.94726 2.35058-2.07519 3.35791l-0.71875 0.60009v0.0239h2.9375v1.49902z"/><path d="m318.03516 125.604c0-0.64746 0.44336-1.11523 1.0791-1.11523s1.06738 0.45557 1.06738 1.11523c0 0.63575-0.43164 1.10352-1.0791 1.10352-0.62402 0-1.06738-0.46777-1.06738-1.10352z"/><path d="m321.38281 124.78857c0.32422 0.16797 1.06739 0.47998 1.81153 0.47998 0.94726 0 1.42675-0.45605 1.42675-1.04345 0-0.76758-0.76757-1.11572-1.57031-1.11572h-0.74414v-1.30713h0.70801c0.61133-0.0117 1.39062-0.23975 1.39062-0.89942 0-0.46777-0.38379-0.81543-1.15136-0.81543-0.63575 0-1.30664 0.27588-1.63086 0.46778l-0.37207-1.31934c0.46777-0.2998 1.40332-0.58789 2.41113-0.58789 1.66699 0 2.59082 0.87549 2.59082 1.94287 0 0.82764-0.46777 1.47559-1.42773 1.81104v0.0239c0.93554 0.16797 1.6914 0.87549 1.6914 1.89502 0 1.3794-1.21191 2.38672-3.19043 2.38672-1.00781 0-1.85937-0.26367-2.31445-0.55176z"/></g><rect x="387.75" y="46.805664" width="70.5" height="25.5" fill="#fff"/><path d="m457.5 47.555664v24h-69v-24h69m1.5-1.5h-72v27h72z" fill="#231f20"/><g fill="#cb2026"><path d="m402.57617 55.600098c0.56348-0.09619 1.35547-0.167969 2.4707-0.167969 1.12696 0 1.93067 0.21582 2.47071 0.647461 0.51562 0.408203 0.86328 1.07959 0.86328 1.871094s-0.26367 1.463379-0.74414 1.918945c-0.62305 0.587891-1.54688 0.851562-2.62695 0.851562-0.23926 0-0.45508-0.01172-0.62305-0.03613v2.890625h-1.81055zm1.81055 3.669922c0.15625 0.03613 0.34765 0.04785 0.61133 0.04785 0.97168 0 1.57129-0.491699 1.57129-1.319336 0-0.743164-0.51563-1.187012-1.42676-1.187012-0.37207 0-0.62403 0.03565-0.75586 0.07178z"/><path d="m415.30469 64.391113c-0.72071 0.323731-1.34375 0.432129-2.19532 0.432129-1.99023 0-3.74218-1.427246-3.74218-3.77832 0-2.446289 1.77539-4.569336 4.48633-4.569336 2.11035 0 3.62109 1.451172 3.62109 3.466309 0 1.750976-0.98242 2.854003-2.27832 2.854003-0.56348 0-0.97168-0.287597-1.03125-0.923339h-0.0244c-0.3711 0.611816-0.91114 0.923339-1.54688 0.923339-0.7793 0-1.34375-0.575683-1.34375-1.559082 0-1.46289 1.08008-2.794433 2.80664-2.794433 0.52734 0 1.12793 0.131836 1.42774 0.299805l-0.35938 2.21875c-0.12109 0.708007-0.0371 1.031738 0.29883 1.043457 0.51562 0.01221 1.16406-0.647461 1.16406-2.026856 0-1.559082-1.00781-2.770508-2.86719-2.770508-1.83398 0-3.4414 1.439453-3.4414 3.729981 0 2.002929 1.2832 3.142578 3.07031 3.142578 0.61133 0 1.25879-0.132324 1.73828-0.383789zm-1.06836-4.953125c-0.0957-0.02393-0.21485-0.04785-0.3711-0.04785-0.79199 0-1.41601 0.779297-1.41601 1.703125 0 0.455566 0.20508 0.743164 0.59961 0.743164 0.44433 0 0.91211-0.563477 1.01953-1.259278z"/><path d="m418.5 63.575684v-1.103516l1.00684-0.911621c1.70312-1.522949 2.53027-2.398438 2.55468-3.310059 0-0.635742-0.38379-1.13916-1.2832-1.13916-0.67187 0-1.25977 0.335938-1.66699 0.647461l-0.51563-1.307129c0.58789-0.443847 1.49805-0.803711 2.55469-0.803711 1.7627 0 2.73438 1.031738 2.73438 2.446778 0 1.307128-0.94727 2.350586-2.0752 3.35791l-0.71973 0.600097v0.02393h2.93848v1.499024z"/><path d="m425.25488 62.604004c0-0.647461 0.44336-1.115234 1.0791-1.115234 0.63575 0 1.06739 0.455566 1.06739 1.115234 0 0.635742-0.43164 1.103516-1.0791 1.103516-0.62403 0-1.06739-0.467774-1.06739-1.103516z"/><path d="m430.60547 57.398926h-0.0234l-1.4873 0.707519-0.29981-1.367187 2.0625-0.959473h1.51172v7.795899h-1.76367z"/><path d="m435.03516 62.604004c0-0.647461 0.44336-1.115234 1.0791-1.115234s1.06738 0.455566 1.06738 1.115234c0 0.635742-0.43164 1.103516-1.0791 1.103516-0.62402 0-1.06738-0.467774-1.06738-1.103516z"/><path d="m440.38574 57.398926h-0.0234l-1.4873 0.707519-0.2998-1.367187 2.0625-0.959473h1.51171v7.795899h-1.76367z"/></g><rect x="279.75" y="46.805664" width="70.5" height="25.5" fill="#fff"/><path d="m349.5 47.555664v24h-69v-24h69m1.5-1.5h-72v27h72z" fill="#231f20"/><g fill="#231f20"><path d="m294.50391 55.600098c0.58789-0.09619 1.46289-0.167969 2.43457-0.167969 1.20019 0 2.03906 0.180176 2.61425 0.635742 0.48047 0.383789 0.74414 0.947266 0.74414 1.690918 0 1.031738-0.73144 1.739258-1.42773 1.991211v0.03565c0.56445 0.228027 0.87598 0.767578 1.08008 1.51123 0.25195 0.911621 0.5039 1.966797 0.65918 2.278809h-1.87012c-0.13281-0.228028-0.32422-0.887696-0.56445-1.882813-0.21582-1.007812-0.56348-1.283691-1.30664-1.29541h-0.55274v3.178223h-1.81054zm1.81054 3.478027h0.72071c0.91113 0 1.45117-0.455566 1.45117-1.163086 0-0.743652-0.50391-1.115723-1.34375-1.127441-0.44336 0-0.69531 0.03564-0.82813 0.05957z"/><path d="m307.37695 64.391113c-0.7207 0.323731-1.34375 0.432129-2.19531 0.432129-1.99023 0-3.74219-1.427246-3.74219-3.77832 0-2.446289 1.77539-4.569336 4.48633-4.569336 2.11035 0 3.62109 1.451172 3.62109 3.466309 0 1.750976-0.98242 2.854003-2.27832 2.854003-0.56347 0-0.97168-0.287597-1.03125-0.923339h-0.0244c-0.37109 0.611816-0.91113 0.923339-1.54687 0.923339-0.7793 0-1.34375-0.575683-1.34375-1.559082 0-1.46289 1.08007-2.794433 2.80664-2.794433 0.52734 0 1.12793 0.131836 1.42773 0.299805l-0.35937 2.21875c-0.1211 0.708007-0.0371 1.031738 0.29882 1.043457 0.51563 0.01221 1.16407-0.647461 1.16407-2.026856 0-1.559082-1.00782-2.770508-2.86719-2.770508-1.83399 0-3.44141 1.439453-3.44141 3.729981 0 2.002929 1.28321 3.142578 3.07032 3.142578 0.61132 0 1.25878-0.132324 1.73828-0.383789zm-1.06836-4.953125c-0.0957-0.02393-0.21484-0.04785-0.37109-0.04785-0.79199 0-1.41602 0.779297-1.41602 1.703125 0 0.455566 0.20508 0.743164 0.59961 0.743164 0.44434 0 0.91211-0.563477 1.01953-1.259278z"/><path d="m310.89551 61.788574c0.32324 0.167969 1.06738 0.479981 1.81152 0.479981 0.94727 0 1.42676-0.456055 1.42676-1.043457 0-0.767578-0.76758-1.115723-1.57129-1.115723h-0.74414v-1.307129h0.70801c0.6123-0.01172 1.3916-0.239746 1.3916-0.899414 0-0.467773-0.38379-0.81543-1.15137-0.81543-0.63574 0-1.30762 0.275879-1.63183 0.467774l-0.3711-1.319336c0.46778-0.299805 1.40235-0.587891 2.41016-0.587891 1.66797 0 2.59082 0.875489 2.59082 1.942871 0 0.827637-0.46778 1.475586-1.42676 1.811035v0.02393c0.93555 0.167969 1.69043 0.875489 1.69043 1.89502 0 1.379394-1.21094 2.386719-3.19043 2.386719-1.00684 0-1.8584-0.263672-2.31445-0.551758z"/><path d="m317.32715 62.604004c0-0.647461 0.44336-1.115234 1.0791-1.115234s1.06738 0.455566 1.06738 1.115234c0 0.635742-0.43164 1.103516-1.0791 1.103516-0.62402 0-1.06738-0.467774-1.06738-1.103516z"/><path d="m326.1084 59.641602c0 2.411132-0.97168 4.065918-2.96289 4.065918-2.01465 0-2.90235-1.811036-2.91406-4.017579 0-2.254882 0.95996-4.041992 2.9746-4.041992 2.08692 0 2.90235 1.858887 2.90235 3.993653zm-4.04199 0.04834c-0.0117 1.78711 0.41992 2.638184 1.12695 2.638184 0.70801 0 1.0918-0.887207 1.0918-2.662109 0-1.727051-0.37207-2.638672-1.10352-2.638672-0.67187 0-1.12695 0.851562-1.11523 2.662597z"/><path d="m327.10742 62.604004c0-0.647461 0.44336-1.115234 1.0791-1.115234 0.63575 0 1.06739 0.455566 1.06739 1.115234 0 0.635742-0.43164 1.103516-1.07911 1.103516-0.62402 0-1.06738-0.467774-1.06738-1.103516z"/><path d="m335.88867 59.641602c0 2.411132-0.97168 4.065918-2.96289 4.065918-2.01465 0-2.90234-1.811036-2.91406-4.017579 0-2.254882 0.95898-4.041992 2.97461-4.041992 2.08691 0 2.90234 1.858887 2.90234 3.993653zm-4.04199 0.04834c-0.0117 1.78711 0.41992 2.638184 1.12695 2.638184 0.70801 0 1.0918-0.887207 1.0918-2.662109 0-1.727051-0.37207-2.638672-1.10352-2.638672-0.67187 0-1.12695 0.851562-1.11523 2.662597z"/></g><g fill="#231f20"><path d="m150.97754 92.067871c0.50391-0.08398 1.16406-0.155762 2.00293-0.155762 1.03223 0 1.78711 0.239746 2.26758 0.671875 0.44336 0.383789 0.70703 0.971192 0.70703 1.690918 0 0.731446-0.21582 1.307129-0.62403 1.727051-0.55078 0.587402-1.45117 0.887695-2.46972 0.887695-0.3125 0-0.60059-0.01221-0.83985-0.07226v3.238272h-1.04394zm1.04394 3.897949c0.22754 0.06006 0.51563 0.08399 0.86329 0.08399 1.25976 0 2.02734-0.611817 2.02734-1.727051 0-1.067383-0.75586-1.583008-1.90723-1.583008-0.45605 0-0.80371 0.03613-0.9834 0.08398z"/><path d="m156.94238 95.210449c0-0.443847 0.29981-0.755859 0.71973-0.755859 0.41894 0 0.69531 0.312012 0.70703 0.755859 0 0.419434-0.27539 0.743653-0.71973 0.743653-0.41992 0-0.70703-0.324219-0.70703-0.743653zm0 4.233399c0-0.443848 0.29981-0.755371 0.71973-0.755371 0.41894 0 0.69531 0.311523 0.70703 0.755371 0 0.419922-0.27539 0.743652-0.71973 0.743652-0.41992 0-0.70703-0.32373-0.70703-0.743652z"/><path d="m161.93359 97.537109c-0.0479-1.199218 0.59961-1.811035 1.42676-1.811035 0.50391 0 0.8877 0.155762 1.69141 0.539551 0.61133 0.288086 1.05566 0.503906 1.49902 0.503906 0.43164 0 0.63574-0.347656 0.64746-1.007324h0.71973c0.0606 1.343262-0.63574 1.811035-1.37891 1.811035-0.47949 0-0.91211-0.144043-1.73926-0.527832-0.56347-0.275879-1.00781-0.527832-1.43945-0.527832s-0.69531 0.299805-0.71972 1.019531z"/><path d="m171.32812 93.243164h-0.0234l-1.35547 0.731934-0.2041-0.803711 1.70312-0.911621h0.89942v7.795894h-1.01954z"/><path d="m175.27832 99.432129c0-0.443848 0.2998-0.755859 0.71973-0.755859 0.41894 0 0.70703 0.312011 0.70703 0.755859 0 0.431641-0.27539 0.755371-0.71973 0.755371-0.41992 0-0.70703-0.32373-0.70703-0.755371z"/><path d="m177.67773 100.05566v-0.647457l0.82715-0.803711c1.99121-1.895019 2.89063-2.902344 2.90235-4.077637 0-0.791503-0.38379-1.523437-1.54688-1.523437-0.70801 0-1.2959 0.359863-1.65527 0.659668l-0.33594-0.743652c0.54004-0.455567 1.30762-0.791504 2.20703-0.791504 1.67871 0 2.38672 1.151367 2.38672 2.266601 0 1.439453-1.04394 2.603028-2.68652 4.186035l-0.62403 0.575684v0.02393h3.50196v0.87548z"/><path d="m183.91797 99.432129c0-0.443848 0.2998-0.755859 0.71875-0.755859 0.41992 0 0.70801 0.312011 0.70801 0.755859 0 0.431641-0.27539 0.755371-0.71973 0.755371-0.41992 0-0.70703-0.32373-0.70703-0.755371z"/><path d="m186.56934 98.844238c0.2998 0.191895 0.99511 0.491699 1.72656 0.491699 1.35547 0 1.77539-0.863281 1.76269-1.51123-0.0117-1.091309-0.99511-1.559082-2.01464-1.559082h-0.5879v-0.791504h0.5879c0.76757 0 1.73925-0.395508 1.73925-1.319336 0-0.623535-0.3955-1.175293-1.36718-1.175293-0.62403 0-1.22364 0.275879-1.55957 0.515625l-0.2754-0.767578c0.40723-0.299805 1.19922-0.599609 2.03907-0.599609 1.53515 0 2.23047 0.911621 2.23047 1.858886 0 0.803711-0.4795 1.487305-1.43946 1.834961v0.02441c0.95996 0.191895 1.73926 0.911133 1.73926 2.002442 0 1.247558-0.97168 2.338871-2.84277 2.338871-0.875 0-1.64258-0.275883-2.02637-0.527836z"/></g><g fill="#231f20"><path d="m226.45215 38.080078c0.52832-0.10791 1.2832-0.167969 2.00293-0.167969 1.11523 0 1.83496 0.204102 2.33887 0.659668 0.4082 0.359864 0.63574 0.911621 0.63574 1.535157 0 1.067382-0.67188 1.774902-1.52344 2.062988v0.03564c0.62402 0.216309 0.99609 0.791993 1.1875 1.631348 0.26367 1.127441 0.45605 1.906738 0.62402 2.21875h-1.0791c-0.13281-0.228027-0.3125-0.92334-0.54004-1.931152-0.24023-1.115235-0.67187-1.535157-1.61914-1.570801h-0.9834v3.501953h-1.04394zm1.04394 3.682129h1.06739c1.11523 0 1.82324-0.611816 1.82324-1.535156 0-1.043457-0.75586-1.499512-1.85938-1.511231-0.5039 0-0.86328 0.04785-1.03125 0.0957z"/><path d="m232.62109 41.210449c0-0.443847 0.29981-0.755859 0.71875-0.755859 0.41993 0 0.69629 0.312012 0.70801 0.755859 0 0.419434-0.27539 0.743653-0.71973 0.743653-0.41992 0-0.70703-0.324219-0.70703-0.743653zm0 4.233399c0-0.443848 0.29981-0.755371 0.71875-0.755371 0.41993 0 0.69629 0.311523 0.70801 0.755371 0 0.419922-0.27539 0.743652-0.71973 0.743652-0.41992 0-0.70703-0.32373-0.70703-0.743652z"/><path d="m237.81641 44.844238c0.2998 0.191895 0.99511 0.491699 1.72656 0.491699 1.35547 0 1.77539-0.863281 1.76269-1.51123-0.0117-1.091309-0.99511-1.559082-2.01464-1.559082h-0.5879v-0.791504h0.5879c0.76757 0 1.73925-0.395508 1.73925-1.319336 0-0.623535-0.3955-1.175293-1.36718-1.175293-0.62403 0-1.22364 0.275879-1.55957 0.515625l-0.2754-0.767578c0.40723-0.299805 1.19922-0.599609 2.03907-0.599609 1.53515 0 2.23047 0.911621 2.23047 1.858886 0 0.803711-0.4795 1.487305-1.43946 1.834961v0.02441c0.95996 0.191895 1.73926 0.911133 1.73926 2.002442 0 1.247558-0.97168 2.338867-2.84277 2.338867-0.875 0-1.64258-0.275879-2.02637-0.527832z"/><path d="m243.80469 45.432129c0-0.443848 0.2998-0.755859 0.71875-0.755859 0.41992 0 0.70801 0.312011 0.70801 0.755859 0 0.431641-0.2754 0.755371-0.71973 0.755371-0.41992 0-0.70703-0.32373-0.70703-0.755371z"/><path d="m251.38477 42.07373c0 2.650879-0.9834 4.11377-2.70997 4.11377-1.52343 0-2.55468-1.427246-2.5791-4.005859 0-2.614258 1.12793-4.053711 2.71094-4.053711 1.64258 0 2.57813 1.463379 2.57813 3.9458zm-4.2334 0.120118c0 2.026855 0.62402 3.178222 1.583 3.178222 1.07911 0 1.59473-1.259277 1.59473-3.25 0-1.918945-0.49121-3.178711-1.58301-3.178711-0.92285 0-1.59472 1.127442-1.59472 3.250489z"/><path d="m252.44434 45.432129c0-0.443848 0.2998-0.755859 0.71972-0.755859 0.41895 0 0.70703 0.312011 0.70703 0.755859 0 0.431641-0.27539 0.755371-0.71972 0.755371-0.41992 0-0.70703-0.32373-0.70703-0.755371z"/><path d="m260.02441 42.07373c0 2.650879-0.98339 4.11377-2.70996 4.11377-1.52343 0-2.55468-1.427246-2.5791-4.005859 0-2.614258 1.12793-4.053711 2.71094-4.053711 1.64258 0 2.57812 1.463379 2.57812 3.9458zm-4.23339 0.120118c0 2.026855 0.62304 3.178222 1.583 3.178222 1.0791 0 1.59473-1.259277 1.59473-3.25 0-1.918945-0.49121-3.178711-1.58301-3.178711-0.92285 0-1.59472 1.127442-1.59472 3.250489z"/></g></g></svg>
