<?xml version="1.0" encoding="UTF-8"?><svg xmlns="http://www.w3.org/2000/svg" viewBox="0 0 538.666015625 306"><g id="a"><rect id="b" x="27" y="1.888888889" width="432" height="9" fill="none"/></g><g id="c"><g id="d"><g id="e"><g><line x1="216" y1="1.888888889" x2="216" y2="7.888888889" fill="none" stroke="#929497" stroke-miterlimit="10" stroke-width="2"/><line x1="216" y1="19.555560642" x2="216" y2="107.055560642" fill="none" stroke="#929497" stroke-dasharray="0 0 11.666666985 11.666666985" stroke-miterlimit="10" stroke-width="2"/><line x1="216" y1="112.888888889" x2="216" y2="118.888888889" fill="none" stroke="#929497" stroke-miterlimit="10" stroke-width="2"/></g></g><g><line x1="180" y1="60.222217136" x2="270.531005859" y2="60.222217136" fill="none" stroke="#3975bb" stroke-miterlimit="10" stroke-width="1.5"/><polygon points="268.450469971 63.272754245 279.833343506 60.222217136 268.450469971 57.171695285 268.450469971 63.272754245" fill="#3975bb"/></g><g><path d="M348.568359375,21.609592014c-.875,1.175292969-1.510742188,2.734375-1.510742188,4.905273438,0,2.134765625,.659179688,3.669921875,1.510742188,4.869140625h-.827148438c-.755859375-.995605469-1.571289062-2.530761719-1.571289062-4.869140625,.01171875-2.362792969,.815429688-3.897949219,1.571289062-4.905273438h.827148438Z" fill="#231f20"/><path d="M354.939453125,26.982638889c0,2.146484375-1.487304688,3.08203125-2.890625,3.08203125-1.571289062,0-2.782226562-1.151367188-2.782226562-2.986328125,0-1.942871094,1.270507812-3.08203125,2.877929688-3.08203125,1.666992188,0,2.794921875,1.2109375,2.794921875,2.986328125Zm-4.60546875,.059570312c0,1.271484375,.731445312,2.230957031,1.762695312,2.230957031,1.0078125,0,1.762695312-.947265625,1.762695312-2.254882812,0-.983398438-.491210938-2.23046875-1.73828125-2.23046875-1.248046875,0-1.787109375,1.151367188-1.787109375,2.254394531Z" fill="#231f20"/><path d="M356.274414062,26.023166233c0-.743652344-.024414062-1.343261719-.048828125-1.895019531h.948242188l.047851562,.995117188h.0234375c.431640625-.707519531,1.115234375-1.126953125,2.063476562-1.126953125,1.403320312,0,2.458007812,1.187011719,2.458007812,2.950195312,0,2.086914062-1.270507812,3.118164062-2.638671875,3.118164062-.767578125,0-1.438476562-.3359375-1.786132812-.911621094h-.024414062v3.154296875h-1.04296875v-6.284179688Zm1.04296875,1.546875c0,.155761719,.024414062,.299804688,.047851562,.431640625,.192382812,.731933594,.828125,1.235351562,1.583007812,1.235351562,1.115234375,0,1.763671875-.911132812,1.763671875-2.242675781,0-1.163085938-.612304688-2.158691406-1.727539062-2.158691406-.719726562,0-1.391601562,.515625-1.594726562,1.307128906-.036132812,.131835938-.072265625,.288085938-.072265625,.431640625v.995605469Z" fill="#231f20"/><path d="M364.373046875,22.461154514v1.666992188h1.51171875v.803222656h-1.51171875v3.130371094c0,.719726562,.204101562,1.127441406,.791992188,1.127441406,.275390625,0,.479492188-.036132812,.611328125-.071777344l.047851562,.791503906c-.203125,.083984375-.52734375,.144042969-.935546875,.144042969-.491210938,0-.88671875-.15625-1.138671875-.443847656-.299804688-.312011719-.408203125-.827636719-.408203125-1.511230469v-3.166503906h-.899414062v-.803222656h.899414062v-1.391601562l1.03125-.275390625Z" fill="#231f20"/><path d="M368.249023438,22.496799045c.01171875,.359863281-.251953125,.647949219-.671875,.647949219-.37109375,0-.635742188-.288085938-.635742188-.647949219,0-.371582031,.276367188-.659667969,.66015625-.659667969,.395507812,0,.647460938,.288085938,.647460938,.659667969Zm-1.174804688,7.436035156v-5.8046875h1.0546875v5.8046875h-1.0546875Z" fill="#231f20"/><path d="M375.134765625,26.982638889c0,2.146484375-1.487304688,3.08203125-2.890625,3.08203125-1.571289062,0-2.782226562-1.151367188-2.782226562-2.986328125,0-1.942871094,1.270507812-3.08203125,2.877929688-3.08203125,1.666992188,0,2.794921875,1.2109375,2.794921875,2.986328125Zm-4.60546875,.059570312c0,1.271484375,.731445312,2.230957031,1.762695312,2.230957031,1.0078125,0,1.762695312-.947265625,1.762695312-2.254882812,0-.983398438-.491210938-2.23046875-1.73828125-2.23046875-1.248046875,0-1.787109375,1.151367188-1.787109375,2.254394531Z" fill="#231f20"/><path d="M376.469726562,25.698947483c0-.599609375-.012695312-1.091308594-.048828125-1.570800781h.935546875l.060546875,.959472656h.0234375c.288085938-.551757812,.959960938-1.091308594,1.918945312-1.091308594,.803710938,0,2.05078125,.479492188,2.05078125,2.470214844v3.466308594h-1.0546875v-3.346191406c0-.935546875-.34765625-1.71484375-1.34375-1.71484375-.6953125,0-1.235351562,.491699219-1.415039062,1.079101562-.047851562,.131835938-.072265625,.312011719-.072265625,.491699219v3.490234375h-1.0546875v-4.233886719Z" fill="#231f20"/><path d="M386.34375,29.932834201l-.083984375-.731445312h-.036132812c-.323242188,.455566406-.947265625,.86328125-1.775390625,.86328125-1.174804688,0-1.774414062-.827636719-1.774414062-1.666992188,0-1.403320312,1.247070312-2.170898438,3.490234375-2.158691406v-.120117188c0-.479492188-.131835938-1.343261719-1.319335938-1.343261719-.540039062,0-1.103515625,.16796875-1.51171875,.431640625l-.239257812-.6953125c.479492188-.312011719,1.174804688-.515625,1.90625-.515625,1.775390625,0,2.20703125,1.2109375,2.20703125,2.374511719v2.170898438c0,.503417969,.024414062,.995117188,.095703125,1.391113281h-.958984375Zm-.15625-2.962402344c-1.151367188-.023925781-2.458007812,.180175781-2.458007812,1.307128906,0,.68359375,.455078125,1.0078125,.995117188,1.0078125,.755859375,0,1.235351562-.479980469,1.403320312-.971679688,.036132812-.107910156,.059570312-.228027344,.059570312-.3359375v-1.007324219Z" fill="#231f20"/><path d="M388.9140625,21.417697483h1.0546875v8.515136719h-1.0546875v-8.515136719Z" fill="#231f20"/><path d="M394.290039062,26.023166233c0-.743652344-.024414062-1.343261719-.048828125-1.895019531h.948242188l.047851562,.995117188h.0234375c.431640625-.707519531,1.115234375-1.126953125,2.063476562-1.126953125,1.403320312,0,2.458007812,1.187011719,2.458007812,2.950195312,0,2.086914062-1.270507812,3.118164062-2.638671875,3.118164062-.767578125,0-1.438476562-.3359375-1.786132812-.911621094h-.024414062v3.154296875h-1.04296875v-6.284179688Zm1.04296875,1.546875c0,.155761719,.024414062,.299804688,.047851562,.431640625,.192382812,.731933594,.828125,1.235351562,1.583007812,1.235351562,1.115234375,0,1.763671875-.911132812,1.763671875-2.242675781,0-1.163085938-.612304688-2.158691406-1.727539062-2.158691406-.719726562,0-1.391601562,.515625-1.594726562,1.307128906-.036132812,.131835938-.072265625,.288085938-.072265625,.431640625v.995605469Z" fill="#231f20"/><path d="M401.705078125,27.222384983c.024414062,1.427246094,.935546875,2.014648438,1.991210938,2.014648438,.755859375,0,1.2109375-.131835938,1.607421875-.299804688l.1796875,.755859375c-.372070312,.16796875-1.0078125,.359863281-1.930664062,.359863281-1.787109375,0-2.854492188-1.17578125-2.854492188-2.926757812s1.03125-3.129882812,2.72265625-3.129882812c1.89453125,0,2.3984375,1.666992188,2.3984375,2.734375,0,.215820312-.024414062,.383789062-.036132812,.491699219h-4.078125Zm3.094726562-.755859375c.01171875-.671386719-.276367188-1.71484375-1.462890625-1.71484375-1.067382812,0-1.53515625,.983398438-1.619140625,1.71484375h3.08203125Z" fill="#231f20"/><path d="M407.716796875,27.222384983c.024414062,1.427246094,.935546875,2.014648438,1.991210938,2.014648438,.755859375,0,1.2109375-.131835938,1.607421875-.299804688l.1796875,.755859375c-.372070312,.16796875-1.0078125,.359863281-1.930664062,.359863281-1.787109375,0-2.854492188-1.17578125-2.854492188-2.926757812s1.03125-3.129882812,2.72265625-3.129882812c1.89453125,0,2.3984375,1.666992188,2.3984375,2.734375,0,.215820312-.024414062,.383789062-.036132812,.491699219h-4.078125Zm3.094726562-.755859375c.01171875-.671386719-.276367188-1.71484375-1.462890625-1.71484375-1.067382812,0-1.53515625,.983398438-1.619140625,1.71484375h3.08203125Z" fill="#231f20"/><path d="M413.141601562,25.939181858c0-.68359375-.012695312-1.271484375-.048828125-1.811035156h.923828125l.036132812,1.139160156h.047851562c.263671875-.779296875,.899414062-1.270996094,1.607421875-1.270996094,.120117188,0,.204101562,.01171875,.299804688,.035644531v.995605469c-.108398438-.023925781-.215820312-.036132812-.360351562-.036132812-.743164062,0-1.270507812,.563964844-1.415039062,1.35546875-.0234375,.144042969-.047851562,.311523438-.047851562,.491699219v3.094238281h-1.04296875v-3.993652344Z" fill="#231f20"/><path d="M416.4296875,31.384006076c.8515625-1.1875,1.510742188-2.746582031,1.510742188-4.905273438,0-2.146972656-.647460938-3.682128906-1.510742188-4.869140625h.815429688c.767578125,.983398438,1.571289062,2.518554688,1.571289062,4.881347656,0,2.350585938-.803710938,3.873535156-1.571289062,4.893066406h-.815429688Z" fill="#231f20"/><path d="M362.477539062,36.344943576c.50390625-.083984375,1.1640625-.155761719,2.002929688-.155761719,1.032226562,0,1.787109375,.239746094,2.267578125,.671875,.443359375,.383789062,.70703125,.971191406,.70703125,1.690917969,0,.731445312-.215820312,1.307128906-.624023438,1.727050781-.55078125,.587402344-1.451171875,.887207031-2.469726562,.887207031-.3125,0-.600585938-.01171875-.83984375-.071777344v3.23828125h-1.043945312v-7.987792969Zm1.043945312,3.897949219c.227539062,.060058594,.515625,.083984375,.86328125,.083984375,1.259765625,0,2.02734375-.611816406,2.02734375-1.727050781,0-1.067382812-.755859375-1.583007812-1.907226562-1.583007812-.456054688,0-.803710938,.036132812-.983398438,.083984375v3.142089844Z" fill="#231f20"/><path d="M368.442382812,39.487521701c0-.443847656,.299804688-.755859375,.719726562-.755859375,.418945312,0,.6953125,.312011719,.70703125,.755859375,0,.419433594-.275390625,.743652344-.719726562,.743652344-.419921875,0-.70703125-.32421875-.70703125-.743652344Zm0,4.233398438c0-.443359375,.299804688-.755371094,.719726562-.755371094,.418945312,0,.6953125,.312011719,.70703125,.755371094,0,.419921875-.275390625,.743652344-.719726562,.743652344-.419921875,0-.70703125-.323730469-.70703125-.743652344Z" fill="#231f20"/><path d="M378.434570312,42.066134983l-2.002929688-4.653808594h-.0234375l-2.002929688,4.653808594h-.83984375l2.482421875-5.529296875h.744140625l2.482421875,5.529296875h-.83984375Z" fill="#231f20"/><path d="M380.538085938,44.332736545v-.647460938l.827148438-.803710938c1.991210938-1.895019531,2.890625-2.90234375,2.90234375-4.077636719,0-.791503906-.383789062-1.5234375-1.546875-1.5234375-.708007812,0-1.295898438,.359863281-1.655273438,.659667969l-.3359375-.743652344c.540039062-.455566406,1.307617188-.791503906,2.20703125-.791503906,1.678710938,0,2.38671875,1.151367188,2.38671875,2.267089844,0,1.438964844-1.043945312,2.602539062-2.686523438,4.185546875l-.624023438,.575683594v.023925781h3.501953125v.875488281h-4.9765625Z" fill="#231f20"/><path d="M386.778320312,43.709201389c0-.443847656,.299804688-.755859375,.719726562-.755859375,.418945312,0,.70703125,.312011719,.70703125,.755859375,0,.431640625-.275390625,.755371094-.719726562,.755371094-.419921875,0-.70703125-.323730469-.70703125-.755371094Z" fill="#231f20"/><path d="M394.358398438,40.350802951c0,2.650878906-.983398438,4.113769531-2.709960938,4.113769531-1.5234375,0-2.5546875-1.427246094-2.579101562-4.005859375,0-2.614257812,1.127929688-4.053710938,2.7109375-4.053710938,1.642578125,0,2.578125,1.463378906,2.578125,3.945800781Zm-4.233398438,.120117188c0,2.026855469,.623046875,3.178222656,1.583007812,3.178222656,1.079101562,0,1.594726562-1.259277344,1.594726562-3.250488281,0-1.918945312-.491210938-3.178222656-1.583007812-3.178222656-.922851562,0-1.594726562,1.127441406-1.594726562,3.250488281Z" fill="#231f20"/><path d="M395.41796875,43.709201389c0-.443847656,.299804688-.755859375,.71875-.755859375,.419921875,0,.708007812,.312011719,.708007812,.755859375,0,.431640625-.275390625,.755371094-.719726562,.755371094-.419921875,0-.70703125-.323730469-.70703125-.755371094Z" fill="#231f20"/><path d="M402.998046875,40.350802951c0,2.650878906-.983398438,4.113769531-2.709960938,4.113769531-1.5234375,0-2.5546875-1.427246094-2.579101562-4.005859375,0-2.614257812,1.127929688-4.053710938,2.7109375-4.053710938,1.642578125,0,2.578125,1.463378906,2.578125,3.945800781Zm-4.233398438,.120117188c0,2.026855469,.624023438,3.178222656,1.583007812,3.178222656,1.079101562,0,1.594726562-1.259277344,1.594726562-3.250488281,0-1.918945312-.491210938-3.178222656-1.583007812-3.178222656-.922851562,0-1.594726562,1.127441406-1.594726562,3.250488281Z" fill="#231f20"/></g></g><g id="f"><g><line x1="116.833328247" y1="60.222217136" x2="144.419876099" y2="60.222217136" fill="none" stroke="#3975bb" stroke-miterlimit="10" stroke-width="1.5"/><polygon points="142.339355469 63.272754245 153.722229004 60.222217136 142.339355469 57.171695285 142.339355469 63.272754245" fill="#3975bb"/></g><g><line x1="53.111114502" y1="60.222217136" x2="80.697662354" y2="60.222217136" fill="none" stroke="#3975bb" stroke-miterlimit="10" stroke-width="1.5"/><polygon points="78.617141724 63.272754245 90 60.222217136 78.617141724 57.171695285 78.617141724 63.272754245" fill="#3975bb"/></g><g><g><circle cx="103.5" cy="60.388888889" r="12.75" fill="#fff"/><path d="M103.5,48.388888889c6.616821289,0,12,5.383178711,12,12s-5.383178711,12-12,12-12-5.383178711-12-12,5.383178711-12,12-12m0-1.5c-7.455841064,0-13.5,6.044158936-13.5,13.5s6.044158936,13.5,13.5,13.5,13.5-6.044158936,13.5-13.5-6.044158936-13.5-13.5-13.5h0Z" fill="#231f20"/></g><path d="M100.667480469,56.433322483c.479980469-.096191406,1.451171875-.16796875,2.362792969-.16796875,1.115234375,0,1.798828125,.107910156,2.38671875,.455566406,.563476562,.299804688,.971191406,.8515625,.971191406,1.583496094,0,.719238281-.419433594,1.391113281-1.331054688,1.727050781v.023925781c.923339844,.251953125,1.606933594,.947265625,1.606933594,1.990722656,0,.731445312-.335449219,1.307617188-.839355469,1.715332031-.587890625,.467773438-1.571289062,.731445312-3.178222656,.731445312-.899414062,0-1.571289062-.060058594-1.979003906-.120117188v-7.939453125Zm1.811035156,3.094238281h.599609375c.959472656,0,1.475097656-.395507812,1.475097656-.995605469,0-.611328125-.467773438-.935058594-1.294921875-.935058594-.395996094,0-.624023438,.023925781-.779785156,.047851562v1.8828125Zm0,3.5859375c.1796875,.023925781,.395996094,.023925781,.707519531,.023925781,.827636719,0,1.559082031-.311523438,1.559082031-1.163085938,0-.815429688-.731445312-1.139648438-1.643066406-1.139648438h-.623535156v2.278808594Z" fill="#231f20"/></g><g><g><circle cx="40.5" cy="60.388888889" r="12.75" fill="#fff"/><path d="M40.5,48.388888889c6.616821289,0,12,5.383178711,12,12s-5.383178711,12-12,12-12-5.383178711-12-12,5.383178711-12,12-12m0-1.5c-7.455841064,0-13.5,6.044158936-13.5,13.5s6.044158936,13.5,13.5,13.5,13.5-6.044158936,13.5-13.5-6.044158936-13.5-13.5-13.5h0Z" fill="#231f20"/></g><path d="M39.23828125,62.334201389l-.575683594,2.074707031h-1.89453125l2.470214844-8.083496094h2.398925781l2.506347656,8.083496094h-1.966796875l-.623535156-2.074707031h-2.314941406Zm2.051269531-1.3671875l-.50390625-1.715332031c-.144042969-.479492188-.287597656-1.079589844-.407714844-1.559082031h-.023925781c-.120117188,.479492188-.239746094,1.091308594-.372070312,1.559082031l-.479492188,1.715332031h1.787109375Z" fill="#231f20"/></g><g><g><circle cx="166.5" cy="60.388888889" r="12.75" fill="#fff"/><path d="M166.5,48.388888889c6.616821289,0,12,5.383178711,12,12s-5.383178711,12-12,12-12-5.383178711-12-12,5.383178711-12,12-12m0-1.5c-7.455841064,0-13.5,6.044158936-13.5,13.5s6.044158936,13.5,13.5,13.5,13.5-6.044158936,13.5-13.5-6.044158936-13.5-13.5-13.5h0Z" fill="#231f20"/></g><path d="M169.658691406,64.180881076c-.3359375,.16796875-1.091796875,.348144531-2.075195312,.348144531-2.794433594,0-4.233398438-1.739257812-4.233398438-4.041992188,0-2.758300781,1.966796875-4.293457031,4.413574219-4.293457031,.947265625,0,1.666992188,.191894531,1.990722656,.359863281l-.371582031,1.451171875c-.372070312-.15625-.887695312-.299804688-1.53515625-.299804688-1.451171875,0-2.578613281,.875488281-2.578613281,2.674316406,0,1.619140625,.959472656,2.638671875,2.590332031,2.638671875,.551757812,0,1.163574219-.120117188,1.5234375-.264160156l.275878906,1.427246094Z" fill="#231f20"/></g><g><g><rect x="279.75" y="47.638888889" width="70.5" height="25.5" fill="#fff"/><path d="M349.5,48.388888889v24h-69v-24h69m1.5-1.5h-72v27h72v-27h0Z" fill="#231f20"/></g><g><path d="M294.50390625,56.433322483c.587890625-.096191406,1.462890625-.16796875,2.434570312-.16796875,1.200195312,0,2.0390625,.180175781,2.614257812,.635742188,.48046875,.383789062,.744140625,.947265625,.744140625,1.690917969,0,1.031738281-.731445312,1.739257812-1.427734375,1.991210938v.035644531c.564453125,.228027344,.875976562,.767578125,1.080078125,1.511230469,.251953125,.911621094,.50390625,1.966796875,.659179688,2.278808594h-1.870117188c-.1328125-.228027344-.32421875-.887695312-.564453125-1.8828125-.215820312-1.0078125-.563476562-1.283691406-1.306640625-1.295410156h-.552734375v3.178222656h-1.810546875v-7.975585938Zm1.810546875,3.478027344h.720703125c.911132812,0,1.451171875-.455566406,1.451171875-1.163085938,0-.743652344-.50390625-1.115722656-1.34375-1.127441406-.443359375,0-.6953125,.035644531-.828125,.059570312v2.230957031Z" fill="#231f20"/><path d="M307.376953125,65.224338108c-.720703125,.323730469-1.34375,.432128906-2.1953125,.432128906-1.990234375,0-3.7421875-1.427246094-3.7421875-3.778320312,0-2.446289062,1.775390625-4.569335938,4.486328125-4.569335938,2.110351562,0,3.62109375,1.451171875,3.62109375,3.466308594,0,1.750976562-.982421875,2.854003906-2.278320312,2.854003906-.563476562,0-.971679688-.287597656-1.03125-.923339844h-.024414062c-.37109375,.611816406-.911132812,.923339844-1.546875,.923339844-.779296875,0-1.34375-.575683594-1.34375-1.559082031,0-1.462890625,1.080078125-2.794433594,2.806640625-2.794433594,.52734375,0,1.127929688,.131835938,1.427734375,.299804688l-.359375,2.21875c-.12109375,.708007812-.037109375,1.031738281,.298828125,1.043457031,.515625,.012207031,1.1640625-.647460938,1.1640625-2.026855469,0-1.559082031-1.0078125-2.770507812-2.8671875-2.770507812-1.833984375,0-3.44140625,1.439453125-3.44140625,3.729980469,0,2.002929688,1.283203125,3.142578125,3.0703125,3.142578125,.611328125,0,1.258789062-.132324219,1.73828125-.383789062l.216796875,.6953125Zm-1.068359375-4.953125c-.095703125-.023925781-.21484375-.047851562-.37109375-.047851562-.791992188,0-1.416015625,.779296875-1.416015625,1.703125,0,.455566406,.205078125,.743164062,.599609375,.743164062,.444335938,0,.912109375-.563476562,1.01953125-1.259277344l.16796875-1.139160156Z" fill="#231f20"/><path d="M313.797851562,64.40890842v-1.858886719h-3.454101562v-1.1875l2.950195312-4.749511719h2.231445312v4.569824219h.934570312v1.3671875h-.934570312v1.858886719h-1.727539062Zm0-3.226074219v-1.727050781c0-.467773438,.024414062-.947753906,.059570312-1.451171875h-.047851562c-.250976562,.503417969-.456054688,.959472656-.719726562,1.451171875l-1.04296875,1.703125v.023925781h1.750976562Z" fill="#231f20"/><path d="M317.327148438,63.437228733c0-.647460938,.443359375-1.115234375,1.079101562-1.115234375s1.067382812,.455566406,1.067382812,1.115234375c0,.635742188-.431640625,1.103515625-1.079101562,1.103515625-.624023438,0-1.067382812-.467773438-1.067382812-1.103515625Z" fill="#231f20"/><path d="M326.108398438,60.474826389c0,2.411132812-.971679688,4.065917969-2.962890625,4.065917969-2.014648438,0-2.90234375-1.811035156-2.9140625-4.017578125,0-2.254882812,.959960938-4.041992188,2.974609375-4.041992188,2.086914062,0,2.90234375,1.858886719,2.90234375,3.993652344Zm-4.041992188,.048339844c-.01171875,1.787109375,.419921875,2.638183594,1.126953125,2.638183594,.708007812,0,1.091796875-.887207031,1.091796875-2.662109375,0-1.727050781-.372070312-2.638671875-1.103515625-2.638671875-.671875,0-1.126953125,.8515625-1.115234375,2.662597656Z" fill="#231f20"/><path d="M327.107421875,63.437228733c0-.647460938,.443359375-1.115234375,1.079101562-1.115234375s1.067382812,.455566406,1.067382812,1.115234375c0,.635742188-.431640625,1.103515625-1.079101562,1.103515625-.624023438,0-1.067382812-.467773438-1.067382812-1.103515625Z" fill="#231f20"/><path d="M335.888671875,60.474826389c0,2.411132812-.971679688,4.065917969-2.962890625,4.065917969-2.014648438,0-2.90234375-1.811035156-2.9140625-4.017578125,0-2.254882812,.958984375-4.041992188,2.974609375-4.041992188,2.086914062,0,2.90234375,1.858886719,2.90234375,3.993652344Zm-4.041992188,.048339844c-.01171875,1.787109375,.419921875,2.638183594,1.126953125,2.638183594,.708007812,0,1.091796875-.887207031,1.091796875-2.662109375,0-1.727050781-.372070312-2.638671875-1.103515625-2.638671875-.671875,0-1.126953125,.8515625-1.115234375,2.662597656Z" fill="#231f20"/></g></g><g><line x1="351" y1="59.722217136" x2="400.143829346" y2="59.722217136" fill="none" stroke="#549445" stroke-miterlimit="10" stroke-width="1.5"/><g><circle cx="399.888259888" cy="59.722220951" r="4.511737823" transform="translate(15.508881936 185.140951119) rotate(-26.56511706)" fill="#fff"/><path d="M399.888244629,64.833941989c-2.818328857,0-5.111694336-2.293365479-5.111694336-5.111724854,0-2.818344116,2.293365479-5.111724854,5.111694336-5.111724854,2.81842041,0,5.111755371,2.293380737,5.111755371,5.111724854,0,2.818359375-2.293334961,5.111724854-5.111755371,5.111724854-2.818328857,0,2.81842041,0,0,0Zm0-9.0234375c-2.15737915,0-3.911682129,1.754302979-3.911682129,3.911712646,0,2.157424927,1.754302979,3.911727905,3.911682129,3.911727905,2.157470703,0,3.911743164-1.754302979,3.911743164-3.911727905,0-2.157409668-1.754272461-3.911712646-3.911743164-3.911712646-2.15737915,0,2.157470703,0,0,0Z" fill="#549445"/></g></g><g><path d="M226.452148438,38.913302951c.528320312-.107910156,1.283203125-.16796875,2.002929688-.16796875,1.115234375,0,1.834960938,.204101562,2.338867188,.659667969,.408203125,.359863281,.635742188,.911621094,.635742188,1.53515625,0,1.067382812-.671875,1.774902344-1.5234375,2.062988281v.035644531c.624023438,.216308594,.99609375,.791992188,1.1875,1.631347656,.263671875,1.127441406,.456054688,1.906738281,.624023438,2.21875h-1.079101562c-.1328125-.228027344-.3125-.923339844-.540039062-1.931152344-.240234375-1.115234375-.671875-1.53515625-1.619140625-1.570800781h-.983398438v3.501953125h-1.043945312v-7.975585938Zm1.043945312,3.682128906h1.067382812c1.115234375,0,1.823242188-.611816406,1.823242188-1.53515625,0-1.043457031-.755859375-1.499511719-1.859375-1.511230469-.50390625,0-.86328125,.047851562-1.03125,.095703125v2.950683594Z" fill="#231f20"/><path d="M232.62109375,42.043674045c0-.443847656,.299804688-.755859375,.71875-.755859375,.419921875,0,.696289062,.312011719,.708007812,.755859375,0,.419433594-.275390625,.743652344-.719726562,.743652344-.419921875,0-.70703125-.32421875-.70703125-.743652344Zm0,4.233398438c0-.443847656,.299804688-.755371094,.71875-.755371094,.419921875,0,.696289062,.311523438,.708007812,.755371094,0,.419921875-.275390625,.743652344-.719726562,.743652344-.419921875,0-.70703125-.323730469-.70703125-.743652344Z" fill="#231f20"/><path d="M240.826171875,46.888888889v-2.123046875h-3.622070312v-.6953125l3.478515625-4.977539062h1.139648438v4.845703125h1.090820312v.827148438h-1.090820312v2.123046875h-.99609375Zm0-2.950195312v-2.602539062c0-.408203125,.01171875-.815917969,.036132812-1.223632812h-.036132812c-.239257812,.456054688-.431640625,.791503906-.647460938,1.151367188l-1.907226562,2.650390625v.024414062h2.5546875Z" fill="#231f20"/><path d="M243.8046875,46.265353733c0-.443847656,.299804688-.755859375,.71875-.755859375,.419921875,0,.708007812,.312011719,.708007812,.755859375,0,.431640625-.275390625,.755371094-.719726562,.755371094-.419921875,0-.70703125-.323730469-.70703125-.755371094Z" fill="#231f20"/><path d="M251.384765625,42.906955295c0,2.650878906-.983398438,4.113769531-2.709960938,4.113769531-1.5234375,0-2.5546875-1.427246094-2.579101562-4.005859375,0-2.614257812,1.127929688-4.053710938,2.7109375-4.053710938,1.642578125,0,2.578125,1.463378906,2.578125,3.945800781Zm-4.233398438,.120117188c0,2.026855469,.624023438,3.178222656,1.583007812,3.178222656,1.079101562,0,1.594726562-1.259277344,1.594726562-3.25,0-1.918945312-.491210938-3.178710938-1.583007812-3.178710938-.922851562,0-1.594726562,1.127441406-1.594726562,3.250488281Z" fill="#231f20"/><path d="M252.444335938,46.265353733c0-.443847656,.299804688-.755859375,.719726562-.755859375,.418945312,0,.70703125,.312011719,.70703125,.755859375,0,.431640625-.275390625,.755371094-.719726562,.755371094-.419921875,0-.70703125-.323730469-.70703125-.755371094Z" fill="#231f20"/><path d="M260.024414062,42.906955295c0,2.650878906-.983398438,4.113769531-2.709960938,4.113769531-1.5234375,0-2.5546875-1.427246094-2.579101562-4.005859375,0-2.614257812,1.127929688-4.053710938,2.7109375-4.053710938,1.642578125,0,2.578125,1.463378906,2.578125,3.945800781Zm-4.233398438,.120117188c0,2.026855469,.623046875,3.178222656,1.583007812,3.178222656,1.079101562,0,1.594726562-1.259277344,1.594726562-3.25,0-1.918945312-.491210938-3.178710938-1.583007812-3.178710938-.922851562,0-1.594726562,1.127441406-1.594726562,3.250488281Z" fill="#231f20"/></g></g></g></svg>