<svg version="1.1" viewBox="0 0 431.99998 225" xmlns="http://www.w3.org/2000/svg"><g transform="translate(-27,-1.0556641)"><rect x="27" y="1.0556641" width="432" height="9" fill="none"/><g fill="none" stroke="#929497" stroke-miterlimit="10" stroke-width="2"><line x1="91.333336" x2="91.333336" y1="1.0556641" y2="7.0556641"/><line x1="91.333336" x2="91.333336" y1="19.585083" y2="213.79095" stroke-dasharray="0, 0, 12.5294, 12.5294"/><line x1="91.333336" x2="91.333336" y1="220.05566" y2="226.05566"/></g><line x1="50.666664" x2="110.51167" y1="114.72234" y2="65.000366" fill="none" stroke="#3975bb" stroke-miterlimit="10" stroke-width="1.5"/><polygon points="106.96194 63.983582 110.86087 68.676285 117.66667 59.055664" fill="#3975bb"/><line x1="49.333336" x2="109.60648" y1="131.72234" y2="177.74371" fill="none" stroke="#3975bb" stroke-miterlimit="10" stroke-width="1.5"/><polygon points="109.80415 174.05652 106.10161 178.90567 117 183.38901" fill="#3975bb"/><line x1="187.88889" x2="244.36432" y1="185.05566" y2="185.05566" fill="none" stroke="#3975bb" stroke-miterlimit="10" stroke-width="1.5"/><polygon points="242.28381 182.00513 242.28381 188.1062 253.66666 185.05566" fill="#3975bb"/><path d="m163 71.277893c18.29626 25.790222 54.78864 41.002927 71.5957 46.915767" fill="none" stroke="#3975bb" stroke-miterlimit="10" stroke-width="1.5"/><polygon points="233.57785 114.61162 231.67764 120.40923 243.44446 121.05566" fill="#3975bb"/><line x1="188.33333" x2="243.53101" y1="59.388992" y2="59.388992" fill="none" stroke="#3975bb" stroke-miterlimit="10" stroke-width="1.5"/><polygon points="241.45047 56.33847 241.45047 62.439529 252.83334 59.388992" fill="#3975bb"/><path d="m372.83334 58.222336c-3.58014 55.881104-82.31961 4.620178-92.70608 41.59494" fill="none" stroke="#549445" stroke-miterlimit="10" stroke-width="1.5"/><polygon points="283.5965 98.204514 277.55414 97.360168 279 109.05566" fill="#549445"/><g fill="#231f20"><path d="m321.56836 20.776367c-0.875 1.175293-1.51074 2.734375-1.51074 4.905274 0 2.134765 0.65918 3.669922 1.51074 4.86914h-0.82715c-0.75586-0.995605-1.57129-2.530761-1.57129-4.86914 0.0117-2.362793 0.81543-3.89795 1.57129-4.905274z"/><path d="m327.93945 26.149414c0 2.146484-1.4873 3.082031-2.89062 3.082031-1.57129 0-2.78223-1.151367-2.78223-2.986328 0-1.942871 1.27051-3.082031 2.87793-3.082031 1.66699 0 2.79492 1.210937 2.79492 2.986328zm-4.60547 0.05957c0 1.271485 0.73145 2.230957 1.7627 2.230957 1.00781 0 1.76269-0.947265 1.76269-2.254882 0-0.983399-0.49121-2.230469-1.73828-2.230469-1.24804 0-1.78711 1.151367-1.78711 2.254394z"/><path d="m329.27441 25.189941c0-0.743652-0.0244-1.343261-0.0488-1.895019h0.94824l0.0478 0.995117h0.0234c0.43164-0.707519 1.11523-1.126953 2.06347-1.126953 1.40332 0 2.45801 1.187012 2.45801 2.950195 0 2.086914-1.27051 3.118164-2.63867 3.118164-0.76758 0-1.43848-0.335937-1.78613-0.911621h-0.0244v3.154297h-1.04297zm1.04297 1.546875c0 0.155762 0.0244 0.299805 0.0478 0.431641 0.19239 0.731934 0.82813 1.235352 1.58301 1.235352 1.11524 0 1.76367-0.911133 1.76367-2.242676 0-1.163086-0.6123-2.158692-1.72754-2.158692-0.71972 0-1.3916 0.515625-1.59472 1.307129-0.0361 0.131836-0.0723 0.288086-0.0723 0.431641z"/><path d="m337.37305 21.62793v1.666992h1.51172v0.803223h-1.51172v3.130371c0 0.719726 0.2041 1.127441 0.79199 1.127441 0.27539 0 0.47949-0.03613 0.61133-0.07178l0.0479 0.791504c-0.20313 0.08398-0.52735 0.144043-0.93555 0.144043-0.49121 0-0.88672-0.15625-1.13867-0.443848-0.2998-0.312012-0.4082-0.827637-0.4082-1.511231v-3.166503h-0.89942v-0.803223h0.89942v-1.391599z"/><path d="m341.24902 21.663574c0.0117 0.359863-0.25195 0.647949-0.67187 0.647949-0.3711 0-0.63574-0.288085-0.63574-0.647949 0-0.371582 0.27636-0.659668 0.66015-0.659668 0.39551 0 0.64746 0.288086 0.64746 0.659668zm-1.1748 7.436035v-5.804687h1.05469v5.804687z"/><path d="m348.13477 26.149414c0 2.146484-1.48731 3.082031-2.89063 3.082031-1.57129 0-2.78223-1.151367-2.78223-2.986328 0-1.942871 1.27051-3.082031 2.87793-3.082031 1.667 0 2.79493 1.210937 2.79493 2.986328zm-4.60547 0.05957c0 1.271485 0.73144 2.230957 1.76269 2.230957 1.00781 0 1.7627-0.947265 1.7627-2.254882 0-0.983399-0.49121-2.230469-1.73828-2.230469-1.24805 0-1.78711 1.151367-1.78711 2.254394z"/><path d="m349.46973 24.865723c0-0.59961-0.0127-1.091309-0.0488-1.570801h0.93555l0.0605 0.959473h0.0234c0.28809-0.551758 0.95996-1.091309 1.91894-1.091309 0.80372 0 2.05079 0.479492 2.05079 2.470215v3.466308h-1.05469v-3.346191c0-0.935547-0.34766-1.714844-1.34375-1.714844-0.69531 0-1.23535 0.491699-1.41504 1.079102-0.0478 0.131836-0.0723 0.312012-0.0723 0.491699v3.490234h-1.05468z"/><path d="m359.34375 29.099609-0.084-0.731445h-0.0361c-0.32324 0.455566-0.94726 0.863281-1.77539 0.863281-1.1748 0-1.77441-0.827636-1.77441-1.666992 0-1.40332 1.24707-2.170898 3.49023-2.158691v-0.120117c0-0.479493-0.13183-1.343262-1.31933-1.343262-0.54004 0-1.10352 0.167969-1.51172 0.43164l-0.23926-0.695312c0.47949-0.312012 1.1748-0.515625 1.90625-0.515625 1.77539 0 2.20703 1.210937 2.20703 2.374512v2.170898c0 0.503418 0.0244 0.995117 0.0957 1.391113zm-0.15625-2.962402c-1.15137-0.02393-2.45801 0.180176-2.45801 1.307129 0 0.683594 0.45508 1.007812 0.99512 1.007812 0.75586 0 1.23535-0.47998 1.40332-0.971679 0.0361-0.10791 0.0596-0.228028 0.0596-0.335938z"/><path d="m361.91406 20.584473h1.05469v8.515136h-1.05469z"/><path d="m367.29004 25.189941c0-0.743652-0.0244-1.343261-0.0488-1.895019h0.94824l0.0478 0.995117h0.0234c0.43164-0.707519 1.11524-1.126953 2.06348-1.126953 1.40332 0 2.45801 1.187012 2.45801 2.950195 0 2.086914-1.27051 3.118164-2.63868 3.118164-0.76757 0-1.43847-0.335937-1.78613-0.911621h-0.0244v3.154297h-1.04297zm1.04297 1.546875c0 0.155762 0.0244 0.299805 0.0478 0.431641 0.19238 0.731934 0.82812 1.235352 1.58301 1.235352 1.11523 0 1.76367-0.911133 1.76367-2.242676 0-1.163086-0.61231-2.158692-1.72754-2.158692-0.71973 0-1.3916 0.515625-1.59473 1.307129-0.0361 0.131836-0.0723 0.288086-0.0723 0.431641z"/><path d="m374.70508 26.38916c0.0244 1.427246 0.93554 2.014649 1.99121 2.014649 0.75586 0 1.21094-0.131836 1.60742-0.299805l0.17969 0.755859c-0.37207 0.167969-1.00781 0.359864-1.93067 0.359864-1.7871 0-2.85449-1.175782-2.85449-2.926758 0-1.750977 1.03125-3.129883 2.72266-3.129883 1.89453 0 2.39844 1.666992 2.39844 2.734375 0 0.21582-0.0244 0.383789-0.0361 0.491699zm3.09472-0.755859c0.0117-0.671387-0.27636-1.714844-1.46289-1.714844-1.06738 0-1.53515 0.983398-1.61914 1.714844z"/><path d="m380.7168 26.38916c0.0244 1.427246 0.93554 2.014649 1.99121 2.014649 0.75586 0 1.21094-0.131836 1.60742-0.299805l0.17969 0.755859c-0.37207 0.167969-1.00782 0.359864-1.93067 0.359864-1.78711 0-2.85449-1.175782-2.85449-2.926758 0-1.750977 1.03125-3.129883 2.72266-3.129883 1.89453 0 2.39843 1.666992 2.39843 2.734375 0 0.21582-0.0244 0.383789-0.0361 0.491699zm3.09472-0.755859c0.0117-0.671387-0.27636-1.714844-1.46289-1.714844-1.06738 0-1.53515 0.983398-1.61914 1.714844z"/><path d="m386.1416 25.105957c0-0.683594-0.0127-1.271484-0.0488-1.811035h0.92383l0.0361 1.13916h0.0479c0.26367-0.779297 0.89941-1.270996 1.60742-1.270996 0.12011 0 0.2041 0.01172 0.2998 0.03564v0.995606c-0.1084-0.02393-0.21582-0.03613-0.36035-0.03613-0.74316 0-1.27051 0.563965-1.41504 1.355469-0.0234 0.144043-0.0478 0.311523-0.0478 0.491699v3.094238h-1.04297z"/><path d="m389.42969 30.550781c0.85156-1.1875 1.51074-2.746582 1.51074-4.905273 0-2.146973-0.64746-3.682129-1.51074-4.869141h0.81543c0.76758 0.983399 1.57129 2.518555 1.57129 4.881348 0 2.350586-0.80371 3.873535-1.57129 4.893066z"/><path d="m335.47754 35.511719c0.50391-0.08398 1.16406-0.155762 2.00293-0.155762 1.03223 0 1.78711 0.239746 2.26758 0.671875 0.44336 0.383789 0.70703 0.971191 0.70703 1.690918 0 0.731445-0.21582 1.307129-0.62403 1.727051-0.55078 0.587402-1.45117 0.887207-2.46972 0.887207-0.3125 0-0.60059-0.01172-0.83985-0.07178v3.238282h-1.04394zm1.04394 3.897949c0.22754 0.06006 0.51563 0.08398 0.86329 0.08398 1.25976 0 2.02734-0.611816 2.02734-1.72705 0-1.067383-0.75586-1.583008-1.90723-1.583008-0.45605 0-0.80371 0.03613-0.9834 0.08398z"/><path d="m341.44238 38.654297c0-0.443848 0.29981-0.75586 0.71973-0.75586 0.41894 0 0.69531 0.312012 0.70703 0.75586 0 0.419433-0.27539 0.743652-0.71973 0.743652-0.41992 0-0.70703-0.324219-0.70703-0.743652zm0 4.233398c0-0.443359 0.29981-0.755371 0.71973-0.755371 0.41894 0 0.69531 0.312012 0.70703 0.755371 0 0.419922-0.27539 0.743653-0.71973 0.743653-0.41992 0-0.70703-0.323731-0.70703-0.743653z"/><path d="m351.43457 41.23291-2.00293-4.653808h-0.0234l-2.00293 4.653808h-0.83984l2.48242-5.529297h0.74414l2.48242 5.529297z"/><path d="m353.53809 43.499512v-0.647461l0.82714-0.803711c1.99122-1.89502 2.89063-2.902344 2.90235-4.077637 0-0.791504-0.38379-1.523437-1.54688-1.523437-0.708 0-1.2959 0.359863-1.65527 0.659668l-0.33594-0.743653c0.54004-0.455566 1.30762-0.791504 2.20703-0.791504 1.67871 0 2.38672 1.151368 2.38672 2.26709 0 1.438965-1.04394 2.602539-2.68652 4.185547l-0.62402 0.575684v0.02392h3.50195v0.875489z"/><path d="m359.77832 42.875977c0-0.443848 0.2998-0.75586 0.71973-0.75586 0.41894 0 0.70703 0.312012 0.70703 0.75586 0 0.43164-0.27539 0.755371-0.71973 0.755371-0.41992 0-0.70703-0.323731-0.70703-0.755371z"/><path d="m367.3584 39.517578c0 2.650879-0.9834 4.11377-2.70996 4.11377-1.52344 0-2.55469-1.427246-2.5791-4.00586 0-2.614258 1.12793-4.053711 2.71093-4.053711 1.64258 0 2.57813 1.463379 2.57813 3.945801zm-4.2334 0.120117c0 2.026856 0.62305 3.178223 1.58301 3.178223 1.0791 0 1.59472-1.259277 1.59472-3.250488 0-1.918946-0.49121-3.178223-1.583-3.178223-0.92286 0-1.59473 1.127441-1.59473 3.250488z"/><path d="m368.41797 42.875977c0-0.443848 0.2998-0.75586 0.71875-0.75586 0.41992 0 0.70801 0.312012 0.70801 0.75586 0 0.43164-0.27539 0.755371-0.71973 0.755371-0.41992 0-0.70703-0.323731-0.70703-0.755371z"/><path d="m375.99805 39.517578c0 2.650879-0.9834 4.11377-2.70996 4.11377-1.52344 0-2.55469-1.427246-2.57911-4.00586 0-2.614258 1.12793-4.053711 2.71094-4.053711 1.64258 0 2.57813 1.463379 2.57813 3.945801zm-4.2334 0.120117c0 2.026856 0.62402 3.178223 1.58301 3.178223 1.0791 0 1.59472-1.259277 1.59472-3.250488 0-1.918946-0.49121-3.178223-1.58301-3.178223-0.92285 0-1.59472 1.127441-1.59472 3.250488z"/></g><g fill="#231f20"><path d="m321.56836 146.77637c-0.875 1.17529-1.51074 2.73437-1.51074 4.90527 0 2.13477 0.65918 3.66992 1.51074 4.86914h-0.82715c-0.75586-0.9956-1.57129-2.53076-1.57129-4.86914 0.0117-2.36279 0.81543-3.89795 1.57129-4.90527z"/><path d="m327.93945 152.14941c0 2.14649-1.4873 3.08204-2.89062 3.08204-1.57129 0-2.78223-1.15137-2.78223-2.98633 0-1.94287 1.27051-3.08203 2.87793-3.08203 1.66699 0 2.79492 1.21093 2.79492 2.98632zm-4.60547 0.0596c0 1.27149 0.73145 2.23096 1.7627 2.23096 1.00781 0 1.76269-0.94726 1.76269-2.25488 0-0.9834-0.49121-2.23047-1.73828-2.23047-1.24804 0-1.78711 1.15137-1.78711 2.25439z"/><path d="m329.27441 151.18994c0-0.74365-0.0244-1.34326-0.0488-1.89502h0.94824l0.0478 0.99512h0.0234c0.43164-0.70752 1.11523-1.12695 2.06347-1.12695 1.40332 0 2.45801 1.18701 2.45801 2.95019 0 2.08692-1.27051 3.11817-2.63867 3.11817-0.76758 0-1.43848-0.33594-1.78613-0.91163h-0.0244v3.1543h-1.04297zm1.04297 1.54688c0 0.15576 0.0244 0.2998 0.0478 0.43164 0.19239 0.73193 0.82813 1.23535 1.58301 1.23535 1.11524 0 1.76367-0.91113 1.76367-2.24268 0-1.16308-0.6123-2.15869-1.72754-2.15869-0.71972 0-1.3916 0.51563-1.59472 1.30713-0.0361 0.13184-0.0723 0.28809-0.0723 0.43164z"/><path d="m337.37305 147.62793v1.66699h1.51172v0.80322h-1.51172v3.13038c0 0.71972 0.2041 1.12744 0.79199 1.12744 0.27539 0 0.47949-0.0361 0.61133-0.0718l0.0479 0.7915c-0.20313 0.084-0.52735 0.14405-0.93555 0.14405-0.49121 0-0.88672-0.15625-1.13867-0.44385-0.2998-0.31201-0.4082-0.82764-0.4082-1.51123v-3.16651h-0.89942v-0.80322h0.89942v-1.3916z"/><path d="m341.24902 147.66357c0.0117 0.35987-0.25195 0.64795-0.67187 0.64795-0.3711 0-0.63574-0.28808-0.63574-0.64795 0-0.37158 0.27636-0.65966 0.66015-0.65966 0.39551 0 0.64746 0.28808 0.64746 0.65966zm-1.1748 7.43604v-5.80469h1.05469v5.80469z"/><path d="m348.13477 152.14941c0 2.14649-1.48731 3.08204-2.89063 3.08204-1.57129 0-2.78223-1.15137-2.78223-2.98633 0-1.94287 1.27051-3.08203 2.87793-3.08203 1.667 0 2.79493 1.21093 2.79493 2.98632zm-4.60547 0.0596c0 1.27149 0.73144 2.23096 1.76269 2.23096 1.00781 0 1.7627-0.94726 1.7627-2.25488 0-0.9834-0.49121-2.23047-1.73828-2.23047-1.24805 0-1.78711 1.15137-1.78711 2.25439z"/><path d="m349.46973 150.86572c0-0.59961-0.0127-1.09131-0.0488-1.5708h0.93555l0.0605 0.95947h0.0234c0.28809-0.55175 0.95996-1.0913 1.91894-1.0913 0.80372 0 2.05079 0.47949 2.05079 2.47021v3.46631h-1.05469v-3.34619c0-0.93555-0.34766-1.71485-1.34375-1.71485-0.69531 0-1.23535 0.4917-1.41504 1.07911-0.0478 0.13183-0.0723 0.31201-0.0723 0.49169v3.49024h-1.05468z"/><path d="m359.34375 155.09961-0.084-0.73145h-0.0361c-0.32324 0.45557-0.94726 0.86329-1.77539 0.86329-1.1748 0-1.77441-0.82764-1.77441-1.667 0-1.40332 1.24707-2.1709 3.49023-2.15869v-0.12012c0-0.47949-0.13183-1.34326-1.31933-1.34326-0.54004 0-1.10352 0.16797-1.51172 0.43164l-0.23926-0.69531c0.47949-0.31201 1.1748-0.51562 1.90625-0.51562 1.77539 0 2.20703 1.21093 2.20703 2.37451v2.1709c0 0.50341 0.0244 0.99511 0.0957 1.39111zm-0.15625-2.9624c-1.15137-0.0239-2.45801 0.18017-2.45801 1.30713 0 0.68359 0.45508 1.00781 0.99512 1.00781 0.75586 0 1.23535-0.47998 1.40332-0.97168 0.0361-0.10791 0.0596-0.22803 0.0596-0.33594z"/><path d="m361.91406 146.58447h1.05469v8.51514h-1.05469z"/><path d="m367.29004 151.18994c0-0.74365-0.0244-1.34326-0.0488-1.89502h0.94824l0.0478 0.99512h0.0234c0.43164-0.70752 1.11524-1.12695 2.06348-1.12695 1.40332 0 2.45801 1.18701 2.45801 2.95019 0 2.08692-1.27051 3.11817-2.63868 3.11817-0.76757 0-1.43847-0.33594-1.78613-0.91163h-0.0244v3.1543h-1.04297zm1.04297 1.54688c0 0.15576 0.0244 0.2998 0.0478 0.43164 0.19238 0.73193 0.82812 1.23535 1.58301 1.23535 1.11523 0 1.76367-0.91113 1.76367-2.24268 0-1.16308-0.61231-2.15869-1.72754-2.15869-0.71973 0-1.3916 0.51563-1.59473 1.30713-0.0361 0.13184-0.0723 0.28809-0.0723 0.43164z"/><path d="m374.70508 152.38916c0.0244 1.42725 0.93554 2.01465 1.99121 2.01465 0.75586 0 1.21094-0.13184 1.60742-0.29981l0.17969 0.75586c-0.37207 0.16797-1.00781 0.35987-1.93067 0.35987-1.7871 0-2.85449-1.17578-2.85449-2.92676s1.03125-3.12988 2.72266-3.12988c1.89453 0 2.39844 1.66699 2.39844 2.73437 0 0.21582-0.0244 0.38379-0.0361 0.4917zm3.09472-0.75586c0.0117-0.67139-0.27636-1.71484-1.46289-1.71484-1.06738 0-1.53515 0.9834-1.61914 1.71484z"/><path d="m380.7168 152.38916c0.0244 1.42725 0.93554 2.01465 1.99121 2.01465 0.75586 0 1.21094-0.13184 1.60742-0.29981l0.17969 0.75586c-0.37207 0.16797-1.00782 0.35987-1.93067 0.35987-1.78711 0-2.85449-1.17578-2.85449-2.92676s1.03125-3.12988 2.72266-3.12988c1.89453 0 2.39843 1.66699 2.39843 2.73437 0 0.21582-0.0244 0.38379-0.0361 0.4917zm3.09472-0.75586c0.0117-0.67139-0.27636-1.71484-1.46289-1.71484-1.06738 0-1.53515 0.9834-1.61914 1.71484z"/><path d="m386.1416 151.10596c0-0.6836-0.0127-1.27149-0.0488-1.81104h0.92383l0.0361 1.13916h0.0479c0.26367-0.77929 0.89941-1.27099 1.60742-1.27099 0.12011 0 0.2041 0.0117 0.2998 0.0356v0.99561c-0.1084-0.0239-0.21582-0.0361-0.36035-0.0361-0.74316 0-1.27051 0.56397-1.41504 1.35547-0.0234 0.14404-0.0478 0.31153-0.0478 0.4917v3.09424h-1.04297z"/><path d="m389.42969 156.55078c0.85156-1.1875 1.51074-2.74658 1.51074-4.90527 0-2.14697-0.64746-3.68213-1.51074-4.86914h0.81543c0.76758 0.9834 1.57129 2.51855 1.57129 4.88134 0 2.35059-0.80371 3.87354-1.57129 4.89307z"/><path d="m335.47754 161.51172c0.50391-0.084 1.16406-0.15576 2.00293-0.15576 1.03223 0 1.78711 0.23974 2.26758 0.67187 0.44336 0.38379 0.70703 0.97119 0.70703 1.69092 0 0.73145-0.21582 1.30713-0.62403 1.72705-0.55078 0.5874-1.45117 0.88721-2.46972 0.88721-0.3125 0-0.60059-0.0117-0.83985-0.0718v3.23828h-1.04394zm1.04394 3.89795c0.22754 0.0601 0.51563 0.084 0.86329 0.084 1.25976 0 2.02734-0.61181 2.02734-1.72705 0-1.06738-0.75586-1.58301-1.90723-1.58301-0.45605 0-0.80371 0.0361-0.9834 0.084z"/><path d="m341.44238 164.6543c0-0.44385 0.29981-0.75586 0.71973-0.75586 0.41894 0 0.69531 0.31201 0.70703 0.75586 0 0.41943-0.27539 0.74365-0.71973 0.74365-0.41992 0-0.70703-0.32422-0.70703-0.74365zm0 4.2334c0-0.44336 0.29981-0.75538 0.71973-0.75538 0.41894 0 0.69531 0.31202 0.70703 0.75538 0 0.41992-0.27539 0.74365-0.71973 0.74365-0.41992 0-0.70703-0.32373-0.70703-0.74365z"/><path d="m351.43457 167.23291-2.00293-4.65381h-0.0234l-2.00293 4.65381h-0.83984l2.48242-5.5293h0.74414l2.48242 5.5293z"/><path d="m353.53809 169.49951v-0.64746l0.82714-0.80371c1.99122-1.89502 2.89063-2.90234 2.90235-4.07764 0-0.7915-0.38379-1.52343-1.54688-1.52343-0.708 0-1.2959 0.35986-1.65527 0.65966l-0.33594-0.74365c0.54004-0.45557 1.30762-0.7915 2.20703-0.7915 1.67871 0 2.38672 1.15136 2.38672 2.26709 0 1.43896-1.04394 2.60254-2.68652 4.18554l-0.62402 0.57569v0.0239h3.50195v0.87549z"/><path d="m359.77832 168.87598c0-0.44385 0.2998-0.75586 0.71973-0.75586 0.41894 0 0.70703 0.31201 0.70703 0.75586 0 0.43164-0.27539 0.75537-0.71973 0.75537-0.41992 0-0.70703-0.32373-0.70703-0.75537z"/><path d="m367.3584 165.51758c0 2.65088-0.9834 4.11377-2.70996 4.11377-1.52344 0-2.55469-1.42725-2.5791-4.00586 0-2.61426 1.12793-4.05371 2.71093-4.05371 1.64258 0 2.57813 1.46338 2.57813 3.9458zm-4.2334 0.12012c0 2.02685 0.62305 3.17822 1.58301 3.17822 1.0791 0 1.59472-1.25928 1.59472-3.25049 0-1.91895-0.49121-3.17822-1.583-3.17822-0.92286 0-1.59473 1.12744-1.59473 3.25049z"/><path d="m368.41797 168.87598c0-0.44385 0.2998-0.75586 0.71875-0.75586 0.41992 0 0.70801 0.31201 0.70801 0.75586 0 0.43164-0.27539 0.75537-0.71973 0.75537-0.41992 0-0.70703-0.32373-0.70703-0.75537z"/><path d="m375.99805 165.51758c0 2.65088-0.9834 4.11377-2.70996 4.11377-1.52344 0-2.55469-1.42725-2.57911-4.00586 0-2.61426 1.12793-4.05371 2.71094-4.05371 1.64258 0 2.57813 1.46338 2.57813 3.9458zm-4.2334 0.12012c0 2.02685 0.62402 3.17822 1.58301 3.17822 1.0791 0 1.59472-1.25928 1.59472-3.25049 0-1.91895-0.49121-3.17822-1.58301-3.17822-0.92285 0-1.59472 1.12744-1.59472 3.25049z"/></g><line x1="324" x2="373.14383" y1="184.88901" y2="184.88901" fill="none" stroke="#549445" stroke-miterlimit="10" stroke-width="1.5"/><circle transform="rotate(-58.282545,372.88826,184.889)" cx="372.88828" cy="184.88901" r="4.5117464" fill="#fff"/><path d="m372.88824 190.00073c-2.81832 0-5.11169-2.29336-5.11169-5.11172s2.29337-5.11173 5.11169-5.11173c2.81843 0 5.11176 2.29337 5.11176 5.11173s-2.29333 5.11172-5.11176 5.11172c-2.81832 0 2.81843 0 0 0zm0-9.02347c-2.15737 0-3.91168 1.75431-3.91168 3.91175 0 2.15741 1.75431 3.91171 3.91168 3.91171 2.15748 0 3.91175-1.7543 3.91175-3.91171 0-2.15744-1.75427-3.91175-3.91175-3.91175-2.15737 0 2.15748 0 0 0z" fill="#549445"/><line x1="332.77777" x2="373.14383" y1="58.888992" y2="58.888992" fill="none" stroke="#549445" stroke-miterlimit="10" stroke-width="1.5"/><circle transform="rotate(-26.565117,372.88826,58.888996)" cx="372.88828" cy="58.888996" r="4.5117378" fill="#fff"/><path d="m372.88824 64.000717c-2.81832 0-5.11169-2.293365-5.11169-5.111725 0-2.818344 2.29337-5.111725 5.11169-5.111725 2.81843 0 5.11176 2.293381 5.11176 5.111725 0 2.81836-2.29333 5.111725-5.11176 5.111725-2.81832 0 2.81843 0 0 0zm0-9.023437c-2.15737 0-3.91168 1.754303-3.91168 3.911712 0 2.157425 1.75431 3.911728 3.91168 3.911728 2.15748 0 3.91175-1.754303 3.91175-3.911728 0-2.157409-1.75427-3.911712-3.91175-3.911712-2.15737 0 2.15748 0 0 0z" fill="#549445"/><circle cx="40.5" cy="122.55566" r="12.75" fill="#fff"/><path d="m40.5 110.55566c6.616821 0 12 5.38318 12 12 0 6.61683-5.383179 12-12 12s-12-5.38317-12-12c0-6.61682 5.383179-12 12-12m0-1.5c-7.455841 0-13.5 6.04416-13.5 13.5 0 7.45585 6.044159 13.5 13.5 13.5s13.5-6.04415 13.5-13.5c0-7.45584-6.044159-13.5-13.5-13.5z" fill="#231f20"/><path d="m39.238281 124.50098-0.575683 2.0747h-1.894532l2.470215-8.08349h2.398926l2.506348 8.08349h-1.966797l-0.623535-2.0747zm2.05127-1.36719-0.503906-1.71533c-0.144043-0.4795-0.287598-1.07959-0.407715-1.55908h-0.02393c-0.120117 0.47949-0.239746 1.0913-0.37207 1.55908l-0.479493 1.71533z" fill="#231f20"/><rect x="252.75" y="172.80566" width="79.5" height="25.5" fill="#fff"/><path d="m331.5 173.55566v24h-78v-24h78m1.5-1.5h-81v27h81z" fill="#231f20"/><g fill="#cb2026"><path d="m281.7832 181.6001c0.58789-0.0962 1.46387-0.16797 2.43555-0.16797 1.19922 0 2.03906 0.18017 2.61426 0.63574 0.47949 0.38379 0.74316 0.94727 0.74316 1.69092 0 1.03174-0.73144 1.73926-1.42676 1.99121v0.0356c0.56348 0.22803 0.87598 0.76758 1.07911 1.51124 0.25195 0.91162 0.5039 1.96679 0.66015 2.2788h-1.87109c-0.13184-0.22802-0.32422-0.88769-0.56446-1.88281-0.21484-1.00781-0.5625-1.28369-1.30664-1.29541h-0.55175v3.17822h-1.81153zm1.81153 3.47802h0.71972c0.91211 0 1.45117-0.45556 1.45117-1.16308 0-0.74365-0.5039-1.11572-1.34375-1.12744-0.44335 0-0.69531 0.0356-0.82714 0.0596z"/><path d="m294.65625 190.39111c-0.71973 0.32373-1.34277 0.43213-2.19434 0.43213-1.99121 0-3.74218-1.42724-3.74218-3.77832 0-2.44629 1.77441-4.56933 4.48535-4.56933 2.11133 0 3.62207 1.45117 3.62207 3.4663 0 1.75098-0.9834 2.85401-2.27832 2.85401-0.56446 0-0.97168-0.2876-1.03223-0.92334h-0.0234c-0.37207 0.61181-0.91211 0.92334-1.54785 0.92334-0.77929 0-1.34277-0.57569-1.34277-1.55908 0-1.46289 1.0791-2.79444 2.80664-2.79444 0.52734 0 1.12695 0.13184 1.42676 0.29981l-0.35938 2.21875c-0.12011 0.70801-0.0361 1.03174 0.29981 1.04345 0.51562 0.0122 1.16308-0.64746 1.16308-2.02685 0-1.55908-1.00683-2.77051-2.86621-2.77051-1.83496 0-3.44238 1.43945-3.44238 3.72998 0 2.00293 1.2832 3.14258 3.07031 3.14258 0.61231 0 1.25977-0.13232 1.73926-0.38379zm-1.06738-4.95312c-0.0957-0.0239-0.21582-0.0479-0.37207-0.0479-0.79102 0-1.41504 0.77929-1.41504 1.70312 0 0.45557 0.2041 0.74317 0.59961 0.74317 0.44433 0 0.91211-0.56348 1.01953-1.25928z"/><path d="m301.07715 189.57568v-1.85888h-3.4541v-1.1875l2.95117-4.74951h2.23047v4.56982h0.93554v1.36719h-0.93554v1.85888zm0-3.22607v-1.72705c0-0.46777 0.0244-0.94776 0.0605-1.45117h-0.0479c-0.25195 0.50341-0.45605 0.95947-0.71972 1.45117l-1.04395 1.70312v0.0239z"/></g><rect x="243.75" y="109.80566" width="70.5" height="25.5" fill="#fff"/><path d="m313.5 110.55566v24h-69v-24h69m1.5-1.5h-72v27h72z" fill="#231f20"/><g fill="#231f20"><path d="m258.57568 118.6001c0.56397-0.0962 1.35547-0.16797 2.47071-0.16797 1.12744 0 1.93115 0.21582 2.4707 0.64746 0.51562 0.4082 0.86328 1.07959 0.86328 1.87109 0 0.79151-0.26367 1.46338-0.74365 1.91895-0.62354 0.58789-1.54688 0.85156-2.62647 0.85156-0.23974 0-0.45556-0.0117-0.62353-0.0361v2.89062h-1.81104zm1.81104 3.66992c0.15576 0.0361 0.34765 0.0478 0.61182 0.0478 0.97119 0 1.5708-0.4917 1.5708-1.31933 0-0.74317-0.51563-1.18702-1.42676-1.18702-0.37207 0-0.62403 0.0357-0.75586 0.0718z"/><path d="m271.30469 127.39111c-0.72022 0.32373-1.34375 0.43213-2.19532 0.43213-1.99072 0-3.74169-1.42724-3.74169-3.77832 0-2.44629 1.7749-4.56933 4.48535-4.56933 2.11084 0 3.62158 1.45117 3.62158 3.4663 0 1.75098-0.98242 2.85401-2.27832 2.85401-0.56348 0-0.97168-0.2876-1.03125-0.92334h-0.0239c-0.37207 0.61181-0.91162 0.92334-1.54736 0.92334-0.77979 0-1.34326-0.57569-1.34326-1.55908 0-1.46289 1.07959-2.79444 2.80664-2.79444 0.52734 0 1.12744 0.13184 1.42724 0.29981l-0.35937 2.21875c-0.12109 0.70801-0.0371 1.03174 0.29883 1.04345 0.51562 0.0122 1.16406-0.64746 1.16406-2.02685 0-1.55908-1.00781-2.77051-2.8667-2.77051-1.83496 0-3.44238 1.43945-3.44238 3.72998 0 2.00293 1.28369 3.14258 3.07031 3.14258 0.61182 0 1.25928-0.13232 1.73877-0.38379zm-1.06787-4.95312c-0.0957-0.0239-0.21582-0.0478-0.37159-0.0478-0.79199 0-1.41552 0.77929-1.41552 1.70312 0 0.45557 0.2041 0.74317 0.59961 0.74317 0.44384 0 0.91162-0.56348 1.01953-1.25928z"/><path d="m274.5 126.57568v-1.10351l1.00684-0.91162c1.70312-1.52295 2.53027-2.39844 2.55468-3.31006 0-0.63574-0.38379-1.13916-1.2832-1.13916-0.67187 0-1.25977 0.33594-1.66699 0.64746l-0.51563-1.30713c0.58789-0.44385 1.49805-0.80371 2.55469-0.80371 1.7627 0 2.73438 1.03174 2.73438 2.44678 0 1.30713-0.94727 2.35058-2.0752 3.35791l-0.71973 0.60009v0.0239h2.93848v1.49902z"/><path d="m281.25488 125.604c0-0.64746 0.44336-1.11523 1.0791-1.11523 0.63575 0 1.06739 0.45557 1.06739 1.11523 0 0.63575-0.43164 1.10352-1.0791 1.10352-0.62403 0-1.06739-0.46777-1.06739-1.10352z"/><path d="m290.03613 122.6416c0 2.41113-0.97168 4.06592-2.96289 4.06592-2.01465 0-2.90234-1.81104-2.91406-4.01758 0-2.25488 0.95996-4.04199 2.97461-4.04199 2.08691 0 2.90234 1.85889 2.90234 3.99365zm-4.04199 0.0483c-0.0117 1.78711 0.41992 2.63819 1.12695 2.63819 0.70801 0 1.0918-0.88721 1.0918-2.66211 0-1.72706-0.37207-2.63868-1.10352-2.63868-0.67187 0-1.12695 0.85157-1.11523 2.6626z"/><path d="m291.03516 125.604c0-0.64746 0.44336-1.11523 1.0791-1.11523s1.06738 0.45557 1.06738 1.11523c0 0.63575-0.43164 1.10352-1.0791 1.10352-0.62402 0-1.06738-0.46777-1.06738-1.10352z"/><path d="m294.38281 124.78857c0.32422 0.16797 1.06739 0.47998 1.81153 0.47998 0.94726 0 1.42675-0.45605 1.42675-1.04345 0-0.76758-0.76757-1.11572-1.57031-1.11572h-0.74414v-1.30713h0.70801c0.61133-0.0117 1.39062-0.23975 1.39062-0.89942 0-0.46777-0.38379-0.81543-1.15136-0.81543-0.63575 0-1.30664 0.27588-1.63086 0.46778l-0.37207-1.31934c0.46777-0.2998 1.40332-0.58789 2.41113-0.58789 1.66699 0 2.59082 0.87549 2.59082 1.94287 0 0.82764-0.46777 1.47559-1.42773 1.81104v0.0239c0.93554 0.16797 1.6914 0.87549 1.6914 1.89502 0 1.3794-1.21191 2.38672-3.19043 2.38672-1.00781 0-1.85937-0.26367-2.31445-0.55176z"/></g><rect x="117.75" y="46.805664" width="70.5" height="25.5" fill="#fff"/><path d="m187.5 47.555664v24h-69v-24h69m1.5-1.5h-72v27h72z" fill="#231f20"/><g fill="#231f20"><path d="m132.88184 61.692871c0.4917 0.251465 1.24707 0.503418 2.02685 0.503418 0.83936 0 1.2832-0.347656 1.2832-0.875488 0-0.503418-0.38378-0.791504-1.35498-1.13916-1.34326-0.467774-2.21875-1.211426-2.21875-2.386719 0-1.379395 1.15137-2.43457 3.05811-2.43457 0.91162 0 1.58301 0.191894 2.06299 0.407714l-0.40772 1.475098c-0.32422-0.155762-0.8999-0.383789-1.6914-0.383789-0.79151 0-1.1753 0.359863-1.1753 0.779785 0 0.515625 0.45606 0.743164 1.49903 1.13916 1.42724 0.527832 2.09912 1.271485 2.09912 2.410645 0 1.355469-1.04346 2.506836-3.26221 2.506836-0.92334 0-1.83496-0.240235-2.29101-0.491699z"/><path d="m145.05859 64.391113c-0.71972 0.323731-1.34326 0.432129-2.19482 0.432129-1.99072 0-3.7417-1.427246-3.7417-3.77832 0-2.446289 1.7749-4.569336 4.48535-4.569336 2.11084 0 3.62207 1.451172 3.62207 3.466309 0 1.750976-0.9834 2.854003-2.27881 2.854003-0.56347 0-0.97119-0.287597-1.03125-0.923339h-0.0239c-0.37207 0.611816-0.91162 0.923339-1.54737 0.923339-0.77978 0-1.34326-0.575683-1.34326-1.559082 0-1.46289 1.07959-2.794433 2.80664-2.794433 0.52735 0 1.12696 0.131836 1.42725 0.299805l-0.35986 2.21875c-0.12012 0.708007-0.0361 1.031738 0.2998 1.043457 0.51563 0.01221 1.16309-0.647461 1.16309-2.026856 0-1.559082-1.00733-2.770508-2.86621-2.770508-1.83497 0-3.44239 1.439453-3.44239 3.729981 0 2.002929 1.28369 3.142578 3.07032 3.142578 0.61181 0 1.25976-0.132324 1.73925-0.383789zm-1.06738-4.953125c-0.0957-0.02393-0.21582-0.04785-0.37158-0.04785-0.7915 0-1.41553 0.779297-1.41553 1.703125 0 0.455566 0.2041 0.743164 0.59961 0.743164 0.44385 0 0.91162-0.563477 1.01953-1.259278z"/><path d="m148.25391 63.575684v-1.103516l1.00732-0.911621c1.70313-1.522949 2.53076-2.398438 2.55469-3.310059 0-0.635742-0.38379-1.13916-1.28369-1.13916-0.67139 0-1.25928 0.335938-1.667 0.647461l-0.51562-1.307129c0.58789-0.443847 1.49902-0.803711 2.55469-0.803711 1.76318 0 2.73437 1.031738 2.73437 2.446778 0 1.307128-0.94726 2.350586-2.07471 3.35791l-0.71972 0.600097v0.02393h2.93847v1.499024z"/><path d="m155.00977 62.604004c0-0.647461 0.44335-1.115234 1.0791-1.115234 0.63574 0 1.06738 0.455566 1.06738 1.115234 0 0.635742-0.43164 1.103516-1.0791 1.103516-0.62403 0-1.06738-0.467774-1.06738-1.103516z"/><path d="m163.79102 59.641602c0 2.411132-0.97168 4.065918-2.9629 4.065918-2.01464 0-2.90234-1.811036-2.91406-4.017579 0-2.254882 0.95899-4.041992 2.97461-4.041992 2.08692 0 2.90235 1.858887 2.90235 3.993653zm-4.042 0.04834c-0.0117 1.78711 0.41993 2.638184 1.12696 2.638184 0.708 0 1.09179-0.887207 1.09179-2.662109 0-1.727051-0.37207-2.638672-1.10351-2.638672-0.67188 0-1.12696 0.851562-1.11524 2.662597z"/><path d="m164.79004 62.604004c0-0.647461 0.44336-1.115234 1.0791-1.115234s1.06738 0.455566 1.06738 1.115234c0 0.635742-0.43164 1.103516-1.0791 1.103516-0.62402 0-1.06738-0.467774-1.06738-1.103516z"/><path d="m173.57129 59.641602c0 2.411132-0.97168 4.065918-2.96289 4.065918-2.01465 0-2.90235-1.811036-2.91406-4.017579 0-2.254882 0.95996-4.041992 2.97461-4.041992 2.08691 0 2.90234 1.858887 2.90234 3.993653zm-4.04199 0.04834c-0.0117 1.78711 0.41992 2.638184 1.12695 2.638184 0.70801 0 1.0918-0.887207 1.0918-2.662109 0-1.727051-0.37207-2.638672-1.10352-2.638672-0.67187 0-1.12695 0.851562-1.11523 2.662597z"/></g><rect x="117.75" y="172.80566" width="70.5" height="25.5" fill="#fff"/><path d="m187.5 173.55566v24h-69v-24h69m1.5-1.5h-72v27h72z" fill="#231f20"/><g fill="#231f20"><path d="m134.33301 183.02734h-2.1709v-1.53515h6.21289v1.53515h-2.20703v6.54834h-1.83496z"/><path d="m145.10645 190.39111c-0.71973 0.32373-1.34327 0.43213-2.19483 0.43213-1.99072 0-3.7417-1.42724-3.7417-3.77832 0-2.44629 1.7749-4.56933 4.48535-4.56933 2.11084 0 3.62207 1.45117 3.62207 3.4663 0 1.75098-0.98339 2.85401-2.2788 2.85401-0.56348 0-0.9712-0.2876-1.03125-0.92334h-0.0239c-0.37207 0.61181-0.91162 0.92334-1.54736 0.92334-0.77979 0-1.34327-0.57569-1.34327-1.55908 0-1.46289 1.07959-2.79444 2.80664-2.79444 0.52735 0 1.12696 0.13184 1.42725 0.29981l-0.35986 2.21875c-0.12012 0.70801-0.0361 1.03174 0.2998 1.04345 0.51563 0.0122 1.16309-0.64746 1.16309-2.02685 0-1.55908-1.00733-2.77051-2.86621-2.77051-1.83496 0-3.44239 1.43945-3.44239 3.72998 0 2.00293 1.2837 3.14258 3.07032 3.14258 0.61181 0 1.25976-0.13232 1.73925-0.38379zm-1.06739-4.95312c-0.0957-0.0239-0.21582-0.0479-0.37158-0.0479-0.7915 0-1.41553 0.77929-1.41553 1.70312 0 0.45557 0.2041 0.74317 0.59961 0.74317 0.44385 0 0.91162-0.56348 1.01953-1.25928z"/><path d="m148.30176 189.57568v-1.10351l1.00732-0.91162c1.70313-1.52295 2.53076-2.39844 2.55469-3.31006 0-0.63574-0.38379-1.13916-1.28369-1.13916-0.67139 0-1.25928 0.33594-1.66699 0.64746l-0.51563-1.30713c0.58789-0.44385 1.49902-0.80371 2.55469-0.80371 1.76318 0 2.73437 1.03174 2.73437 2.44678 0 1.30713-0.94726 2.35058-2.0747 3.35791l-0.71973 0.60009v0.0239h2.93848v1.49902z"/><path d="m155.05762 188.604c0-0.64746 0.44336-1.11523 1.0791-1.11523s1.06738 0.45557 1.06738 1.11523c0 0.63575-0.43164 1.10352-1.0791 1.10352-0.62402 0-1.06738-0.46777-1.06738-1.10352z"/><path d="m163.83887 185.6416c0 2.41113-0.97168 4.06592-2.96289 4.06592-2.01465 0-2.90235-1.81104-2.91407-4.01758 0-2.25488 0.95997-4.04199 2.97461-4.04199 2.08692 0 2.90235 1.85889 2.90235 3.99365zm-4.042 0.0483c-0.0117 1.78711 0.41993 2.63818 1.12696 2.63818 0.70801 0 1.09179-0.8872 1.09179-2.6621 0-1.72706-0.37207-2.63868-1.10351-2.63868-0.67188 0-1.12695 0.85157-1.11524 2.6626z"/><path d="m164.83789 188.604c0-0.64746 0.44336-1.11523 1.0791-1.11523s1.06738 0.45557 1.06738 1.11523c0 0.63575-0.43164 1.10352-1.0791 1.10352-0.62402 0-1.06738-0.46777-1.06738-1.10352z"/><path d="m173.61914 185.6416c0 2.41113-0.97168 4.06592-2.96289 4.06592-2.01465 0-2.90234-1.81104-2.91406-4.01758 0-2.25488 0.95898-4.04199 2.97461-4.04199 2.08691 0 2.90234 1.85889 2.90234 3.99365zm-4.04199 0.0483c-0.0117 1.78711 0.41992 2.63818 1.12695 2.63818 0.70801 0 1.0918-0.8872 1.0918-2.6621 0-1.72706-0.37207-2.63868-1.10352-2.63868-0.67187 0-1.12695 0.85157-1.11523 2.6626z"/></g><rect x="252.75" y="46.805664" width="79.5" height="25.5" fill="#fff"/><path d="m331.5 47.555664v24h-78v-24h78m1.5-1.5h-81v27h81z" fill="#231f20"/><g fill="#231f20"><path d="m262.18799 55.600098c0.58789-0.09619 1.46338-0.167969 2.43457-0.167969 1.19971 0 2.03906 0.180176 2.61474 0.635742 0.4795 0.383789 0.74366 0.947266 0.74366 1.690918 0 1.031738-0.73194 1.739258-1.42725 1.991211v0.03565c0.56348 0.228027 0.87549 0.767578 1.0791 1.51123 0.25196 0.911621 0.50391 1.966797 0.65967 2.278809h-1.87061c-0.13183-0.228028-0.32421-0.887696-0.56396-1.882813-0.21582-1.007812-0.56348-1.283691-1.30713-1.29541h-0.55176v3.178223h-1.81103zm1.81103 3.478027h0.71973c0.91162 0 1.45117-0.455566 1.45117-1.163086 0-0.743652-0.5039-1.115723-1.34326-1.127441-0.44385 0-0.6958 0.03564-0.82764 0.05957z"/><path d="m275.06055 64.391113c-0.71973 0.323731-1.34375 0.432129-2.19532 0.432129-1.99023 0-3.74121-1.427246-3.74121-3.77832 0-2.446289 1.77491-4.569336 4.48535-4.569336 2.11133 0 3.62208 1.451172 3.62208 3.466309 0 1.750976-0.9834 2.854003-2.27833 2.854003-0.56445 0-0.97167-0.287597-1.03125-0.923339h-0.0244c-0.37207 0.611816-0.91113 0.923339-1.54785 0.923339-0.7793 0-1.34277-0.575683-1.34277-1.559082 0-1.46289 1.0791-2.794433 2.80664-2.794433 0.52734 0 1.12695 0.131836 1.42675 0.299805l-0.35937 2.21875c-0.12012 0.708007-0.0361 1.031738 0.2998 1.043457 0.51563 0.01221 1.16309-0.647461 1.16309-2.026856 0-1.559082-1.00781-2.770508-2.86621-2.770508-1.83496 0-3.44238 1.439453-3.44238 3.729981 0 2.002929 1.2832 3.142578 3.07031 3.142578 0.61133 0 1.25976-0.132324 1.73926-0.383789zm-1.06739-4.953125c-0.0957-0.02393-0.21582-0.04785-0.37207-0.04785-0.79101 0-1.41504 0.779297-1.41504 1.703125 0 0.455566 0.20411 0.743164 0.59961 0.743164 0.44434 0 0.91114-0.563477 1.01954-1.259278z"/><path d="m281.48242 63.575684v-1.858887h-3.45508v-1.1875l2.95118-4.749512h2.23046v4.569824h0.93555v1.367188h-0.93555v1.858887zm0-3.226075v-1.72705c0-0.467774 0.0234-0.947754 0.0596-1.451172h-0.0478c-0.25195 0.503418-0.45605 0.959472-0.71973 1.451172l-1.04394 1.703125v0.02392z"/><path d="m290.40918 64.475098v0.599609h-5.99707v-0.599609z"/><path d="m291.2041 55.600098c0.56348-0.09619 1.35449-0.167969 2.46973-0.167969 1.12793 0 1.93164 0.21582 2.4707 0.647461 0.5166 0.408203 0.86426 1.07959 0.86426 1.871094s-0.26465 1.463379-0.74414 1.918945c-0.62305 0.587891-1.54688 0.851562-2.62598 0.851562-0.24023 0-0.45605-0.01172-0.62402-0.03613v2.890625h-1.81055zm1.81055 3.669922c0.15625 0.03613 0.34765 0.04785 0.61133 0.04785 0.97168 0 1.57129-0.491699 1.57129-1.319336 0-0.743164-0.51563-1.187012-1.42676-1.187012-0.37207 0-0.62403 0.03565-0.75586 0.07178z"/><path d="m297.8877 63.575684v-1.103516l1.00683-0.911621c1.70313-1.522949 2.53125-2.398438 2.55469-3.310059 0-0.635742-0.38379-1.13916-1.2832-1.13916-0.67188 0-1.25879 0.335938-1.667 0.647461l-0.51562-1.307129c0.58789-0.443847 1.49902-0.803711 2.55469-0.803711 1.76269 0 2.73437 1.031738 2.73437 2.446778 0 1.307128-0.94726 2.350586-2.07519 3.35791l-0.71875 0.600097v0.02393h2.9375v1.499024z"/><path d="m304.64355 62.604004c0-0.647461 0.44336-1.115234 1.07911-1.115234 0.63574 0 1.06738 0.455566 1.06738 1.115234 0 0.635742-0.43164 1.103516-1.0791 1.103516-0.62403 0-1.06739-0.467774-1.06739-1.103516z"/><path d="m313.4248 59.641602c0 2.411132-0.97168 4.065918-2.96289 4.065918-2.01464 0-2.90234-1.811036-2.91406-4.017579 0-2.254882 0.95996-4.041992 2.97461-4.041992 2.08691 0 2.90234 1.858887 2.90234 3.993653zm-4.04199 0.04834c-0.0117 1.78711 0.41992 2.638184 1.12696 2.638184 0.708 0 1.09179-0.887207 1.09179-2.662109 0-1.727051-0.37207-2.638672-1.10351-2.638672-0.67188 0-1.12696 0.851562-1.11524 2.662597z"/><path d="m314.42383 62.604004c0-0.647461 0.44336-1.115234 1.0791-1.115234s1.06738 0.455566 1.06738 1.115234c0 0.635742-0.43164 1.103516-1.0791 1.103516-0.62402 0-1.06738-0.467774-1.06738-1.103516z"/><path d="m317.77148 61.788574c0.32422 0.167969 1.06739 0.479981 1.81153 0.479981 0.94726 0 1.42676-0.456055 1.42676-1.043457 0-0.767578-0.76758-1.115723-1.57032-1.115723h-0.74414v-1.307129h0.70801c0.61133-0.01172 1.39063-0.239746 1.39063-0.899414 0-0.467773-0.38379-0.81543-1.15137-0.81543-0.63574 0-1.30664 0.275879-1.63086 0.467774l-0.37207-1.319336c0.46777-0.299805 1.40332-0.587891 2.41113-0.587891 1.66699 0 2.59082 0.875489 2.59082 1.942871 0 0.827637-0.46777 1.475586-1.42773 1.811035v0.02393c0.93554 0.167969 1.6914 0.875489 1.6914 1.89502 0 1.379394-1.21191 2.386719-3.19043 2.386719-1.00781 0-1.85937-0.263672-2.31445-0.551758z"/></g><g fill="#231f20"><path d="m150.19971 104.06787c0.5039-0.084 1.16406-0.15576 2.00293-0.15576 1.03222 0 1.78711 0.23975 2.26757 0.67187 0.44336 0.38379 0.70704 0.9712 0.70704 1.69092 0 0.73145-0.21582 1.30713-0.62403 1.72705-0.55078 0.58741-1.45117 0.8877-2.46972 0.8877-0.3125 0-0.60059-0.0122-0.83985-0.0723v3.23828h-1.04394zm1.04394 3.89795c0.22754 0.0601 0.51563 0.084 0.86328 0.084 1.25977 0 2.02735-0.61181 2.02735-1.72705 0-1.06738-0.75586-1.583-1.90723-1.583-0.45605 0-0.80371 0.0361-0.9834 0.084z"/><path d="m156.16455 107.21045c0-0.44385 0.29981-0.75586 0.71973-0.75586 0.41894 0 0.69531 0.31201 0.70703 0.75586 0 0.41943-0.27539 0.74365-0.71973 0.74365-0.41992 0-0.70703-0.32422-0.70703-0.74365zm0 4.2334c0-0.44385 0.29981-0.75537 0.71973-0.75537 0.41894 0 0.69531 0.31152 0.70703 0.75537 0 0.41992-0.27539 0.74365-0.71973 0.74365-0.41992 0-0.70703-0.32373-0.70703-0.74365z"/><path d="m161.15576 109.53711c-0.0478-1.19922 0.59961-1.81104 1.42676-1.81104 0.50391 0 0.88769 0.15577 1.69141 0.53956 0.61132 0.28808 1.05566 0.5039 1.49902 0.5039 0.43164 0 0.63574-0.34765 0.64746-1.00732h0.71973c0.0605 1.34326-0.63575 1.81103-1.37891 1.81103-0.47949 0-0.91211-0.14404-1.73926-0.52783-0.56347-0.27588-1.00781-0.52783-1.43945-0.52783s-0.69531 0.2998-0.71973 1.01953z"/><path d="m168.26025 112.05566v-0.64746l0.82715-0.80371c1.99121-1.89502 2.89063-2.90234 2.90235-4.07763 0-0.79151-0.38379-1.52344-1.54688-1.52344-0.70801 0-1.2959 0.35986-1.65527 0.65967l-0.33594-0.74366c0.54004-0.45556 1.30762-0.7915 2.20703-0.7915 1.67871 0 2.38672 1.15137 2.38672 2.2666 0 1.43945-1.04395 2.60303-2.68652 4.18604l-0.62403 0.57568v0.0239h3.50196v0.87548z"/><path d="m174.50049 111.43213c0-0.44385 0.2998-0.75586 0.71972-0.75586 0.41895 0 0.70704 0.31201 0.70704 0.75586 0 0.43164-0.27539 0.75537-0.71973 0.75537-0.41992 0-0.70703-0.32373-0.70703-0.75537z"/><path d="m182.08057 108.07373c0 2.65088-0.9834 4.11377-2.70996 4.11377-1.52344 0-2.55469-1.42725-2.57911-4.00586 0-2.61426 1.12793-4.05371 2.71094-4.05371 1.64258 0 2.57813 1.46338 2.57813 3.9458zm-4.2334 0.12012c0 2.02685 0.62304 3.17822 1.58301 3.17822 1.0791 0 1.59472-1.25928 1.59472-3.25 0-1.91894-0.49121-3.17871-1.58301-3.17871-0.92285 0-1.59472 1.12744-1.59472 3.25049z"/><path d="m183.14014 111.43213c0-0.44385 0.2998-0.75586 0.71875-0.75586 0.41992 0 0.708 0.31201 0.708 0.75586 0 0.43164-0.27539 0.75537-0.71972 0.75537-0.41992 0-0.70703-0.32373-0.70703-0.75537z"/><path d="m190.72021 108.07373c0 2.65088-0.98339 4.11377-2.70996 4.11377-1.52343 0-2.55468-1.42725-2.5791-4.00586 0-2.61426 1.12793-4.05371 2.71094-4.05371 1.64258 0 2.57812 1.46338 2.57812 3.9458zm-4.23339 0.12012c0 2.02685 0.62402 3.17822 1.583 3.17822 1.07911 0 1.59473-1.25928 1.59473-3.25 0-1.91894-0.49121-3.17871-1.58301-3.17871-0.92285 0-1.59472 1.12744-1.59472 3.25049z"/></g><g fill="#231f20"><path d="m202.11865 164.08008c0.52832-0.10791 1.28321-0.16797 2.00293-0.16797 1.11524 0 1.83496 0.2041 2.33887 0.65967 0.4082 0.35986 0.63574 0.91162 0.63574 1.53515 0 1.06739-0.67187 1.77491-1.52344 2.06299v0.0357c0.62403 0.2163 0.9961 0.79199 1.1875 1.63134 0.26368 1.12745 0.45606 1.90674 0.62403 2.21875h-1.0791c-0.13282-0.22802-0.3125-0.92334-0.54004-1.93115-0.24024-1.11523-0.67188-1.53515-1.61914-1.5708h-0.9834v3.50195h-1.04395zm1.04395 3.68213h1.06738c1.11523 0 1.82324-0.61182 1.82324-1.53516 0-1.04346-0.75586-1.49951-1.85937-1.51123-0.50391 0-0.86328 0.0478-1.03125 0.0957z"/><path d="m208.2876 167.21045c0-0.44385 0.2998-0.75586 0.71875-0.75586 0.41992 0 0.69629 0.31201 0.70801 0.75586 0 0.41943-0.2754 0.74365-0.71973 0.74365-0.41992 0-0.70703-0.32422-0.70703-0.74365zm0 4.2334c0-0.44385 0.2998-0.75537 0.71875-0.75537 0.41992 0 0.69629 0.31152 0.70801 0.75537 0 0.41992-0.2754 0.74365-0.71973 0.74365-0.41992 0-0.70703-0.32373-0.70703-0.74365z"/><path d="m216.49268 172.05566v-2.12304h-3.62207v-0.69532l3.47851-4.97753h1.13965v4.8457h1.09082v0.82715h-1.09082v2.12304zm0-2.95019v-2.60254c0-0.4082 0.0117-0.81592 0.0361-1.22363h-0.0361c-0.23926 0.45605-0.43164 0.7915-0.64747 1.15136l-1.90722 2.65039v0.0244z"/><path d="m219.47119 171.43213c0-0.44385 0.29981-0.75586 0.71875-0.75586 0.41992 0 0.70801 0.31201 0.70801 0.75586 0 0.43164-0.27539 0.75537-0.71973 0.75537-0.41992 0-0.70703-0.32373-0.70703-0.75537z"/><path d="m227.05127 168.07373c0 2.65088-0.9834 4.11377-2.70996 4.11377-1.52344 0-2.55469-1.42725-2.5791-4.00586 0-2.61426 1.12793-4.05371 2.71093-4.05371 1.64258 0 2.57813 1.46338 2.57813 3.9458zm-4.2334 0.12012c0 2.02685 0.62402 3.17822 1.58301 3.17822 1.0791 0 1.59473-1.25928 1.59473-3.25 0-1.91894-0.49122-3.17871-1.58301-3.17871-0.92285 0-1.59473 1.12744-1.59473 3.25049z"/><path d="m228.11084 171.43213c0-0.44385 0.2998-0.75586 0.71973-0.75586 0.41894 0 0.70703 0.31201 0.70703 0.75586 0 0.43164-0.27539 0.75537-0.71973 0.75537-0.41992 0-0.70703-0.32373-0.70703-0.75537z"/><path d="m235.69092 168.07373c0 2.65088-0.9834 4.11377-2.70996 4.11377-1.52344 0-2.55469-1.42725-2.5791-4.00586 0-2.61426 1.12793-4.05371 2.71093-4.05371 1.64258 0 2.57813 1.46338 2.57813 3.9458zm-4.2334 0.12012c0 2.02685 0.62305 3.17822 1.58301 3.17822 1.0791 0 1.59472-1.25928 1.59472-3.25 0-1.91894-0.49121-3.17871-1.583-3.17871-0.92286 0-1.59473 1.12744-1.59473 3.25049z"/></g><g fill="#231f20"><path d="m202.11865 38.080078c0.52832-0.10791 1.28321-0.167969 2.00293-0.167969 1.11524 0 1.83496 0.204102 2.33887 0.659668 0.4082 0.359864 0.63574 0.911621 0.63574 1.535157 0 1.067382-0.67187 1.774902-1.52344 2.062988v0.03564c0.62403 0.216309 0.9961 0.791993 1.1875 1.631348 0.26368 1.127441 0.45606 1.906738 0.62403 2.21875h-1.0791c-0.13282-0.228027-0.3125-0.92334-0.54004-1.931152-0.24024-1.115235-0.67188-1.535157-1.61914-1.570801h-0.9834v3.501953h-1.04395zm1.04395 3.682129h1.06738c1.11523 0 1.82324-0.611816 1.82324-1.535156 0-1.043457-0.75586-1.499512-1.85937-1.511231-0.50391 0-0.86328 0.04785-1.03125 0.0957z"/><path d="m208.2876 41.210449c0-0.443847 0.2998-0.755859 0.71875-0.755859 0.41992 0 0.69629 0.312012 0.70801 0.755859 0 0.419434-0.2754 0.743653-0.71973 0.743653-0.41992 0-0.70703-0.324219-0.70703-0.743653zm0 4.233399c0-0.443848 0.2998-0.755371 0.71875-0.755371 0.41992 0 0.69629 0.311523 0.70801 0.755371 0 0.419922-0.2754 0.743652-0.71973 0.743652-0.41992 0-0.70703-0.32373-0.70703-0.743652z"/><path d="m216.49268 46.055664v-2.123047h-3.62207v-0.695312l3.47851-4.977539h1.13965v4.845703h1.09082v0.827148h-1.09082v2.123047zm0-2.950195v-2.602539c0-0.408203 0.0117-0.815918 0.0361-1.223633h-0.0361c-0.23926 0.456055-0.43164 0.791504-0.64747 1.151367l-1.90722 2.650391v0.02441z"/><path d="m219.47119 45.432129c0-0.443848 0.29981-0.755859 0.71875-0.755859 0.41992 0 0.70801 0.312011 0.70801 0.755859 0 0.431641-0.27539 0.755371-0.71973 0.755371-0.41992 0-0.70703-0.32373-0.70703-0.755371z"/><path d="m227.05127 42.07373c0 2.650879-0.9834 4.11377-2.70996 4.11377-1.52344 0-2.55469-1.427246-2.5791-4.005859 0-2.614258 1.12793-4.053711 2.71093-4.053711 1.64258 0 2.57813 1.463379 2.57813 3.9458zm-4.2334 0.120118c0 2.026855 0.62402 3.178222 1.58301 3.178222 1.0791 0 1.59473-1.259277 1.59473-3.25 0-1.918945-0.49122-3.178711-1.58301-3.178711-0.92285 0-1.59473 1.127442-1.59473 3.250489z"/><path d="m228.11084 45.432129c0-0.443848 0.2998-0.755859 0.71973-0.755859 0.41894 0 0.70703 0.312011 0.70703 0.755859 0 0.431641-0.27539 0.755371-0.71973 0.755371-0.41992 0-0.70703-0.32373-0.70703-0.755371z"/><path d="m235.69092 42.07373c0 2.650879-0.9834 4.11377-2.70996 4.11377-1.52344 0-2.55469-1.427246-2.5791-4.005859 0-2.614258 1.12793-4.053711 2.71093-4.053711 1.64258 0 2.57813 1.463379 2.57813 3.9458zm-4.2334 0.120118c0 2.026855 0.62305 3.178222 1.58301 3.178222 1.0791 0 1.59472-1.259277 1.59472-3.25 0-1.918945-0.49121-3.178711-1.583-3.178711-0.92286 0-1.59473 1.127442-1.59473 3.250489z"/></g></g></svg>
