<?xml version="1.0" encoding="UTF-8"?><svg xmlns="http://www.w3.org/2000/svg" viewBox="0 0 538.666015625 306"><g id="a"><rect id="b" x="27" y="1.888888889" width="432" height="9" fill="none"/></g><g id="c"><g id="d"><g id="e"><g><line x1="216" y1="1.888888889" x2="216" y2="7.888888889" fill="none" stroke="#929497" stroke-miterlimit="10" stroke-width="2"/><line x1="216" y1="20.707065158" x2="216" y2="142.479800754" fill="none" stroke="#929497" stroke-dasharray="0 0 12.818181992 12.818181992" stroke-miterlimit="10" stroke-width="2"/><line x1="216" y1="148.888888889" x2="216" y2="154.888888889" fill="none" stroke="#929497" stroke-miterlimit="10" stroke-width="2"/></g></g><g><path d="M176.333328247,68.555560642c28.57723999,33.951370239,87.247146606,53.158889771,109.67616272,59.508224487" fill="none" stroke="#3975bb" stroke-miterlimit="10" stroke-width="1.5"/><polygon points="283.215484619 130.415790134 295 130.44444614 284.809143066 124.526538425 283.215484619 130.415790134" fill="#3975bb"/></g><g><line x1="180" y1="60.222217136" x2="270.531005859" y2="60.222217136" fill="none" stroke="#3975bb" stroke-miterlimit="10" stroke-width="1.5"/><polygon points="268.450469971 63.272754245 279.833343506 60.222217136 268.450469971 57.171695285 268.450469971 63.272754245" fill="#3975bb"/></g><g><path d="M353.477539062,30.945041233c.50390625-.083984375,1.1640625-.155761719,2.002929688-.155761719,1.032226562,0,1.787109375,.239746094,2.267578125,.671875,.443359375,.383789062,.70703125,.971191406,.70703125,1.690917969,0,.731445312-.215820312,1.307128906-.624023438,1.727050781-.55078125,.587402344-1.451171875,.887695312-2.469726562,.887695312-.3125,0-.600585938-.012207031-.83984375-.072265625v3.23828125h-1.043945312v-7.987792969Zm1.043945312,3.897949219c.227539062,.060058594,.515625,.083984375,.86328125,.083984375,1.259765625,0,2.02734375-.611816406,2.02734375-1.727050781,0-1.067382812-.755859375-1.583007812-1.907226562-1.583007812-.456054688,0-.803710938,.036132812-.983398438,.083984375v3.142089844Z" fill="#231f20"/><path d="M359.442382812,34.087619358c0-.443847656,.299804688-.755859375,.719726562-.755859375,.418945312,0,.6953125,.312011719,.70703125,.755859375,0,.419433594-.275390625,.743652344-.719726562,.743652344-.419921875,0-.70703125-.32421875-.70703125-.743652344Zm0,4.233398438c0-.443847656,.299804688-.755371094,.719726562-.755371094,.418945312,0,.6953125,.311523438,.70703125,.755371094,0,.419921875-.275390625,.743652344-.719726562,.743652344-.419921875,0-.70703125-.323730469-.70703125-.743652344Z" fill="#231f20"/><path d="M369.434570312,36.666232639l-2.002929688-4.653808594h-.0234375l-2.002929688,4.653808594h-.83984375l2.482421875-5.529296875h.744140625l2.482421875,5.529296875h-.83984375Z" fill="#231f20"/><path d="M371.538085938,38.932834201v-.647460938l.827148438-.803710938c1.991210938-1.895019531,2.890625-2.90234375,2.90234375-4.077636719,0-.791503906-.383789062-1.5234375-1.546875-1.5234375-.708007812,0-1.295898438,.359863281-1.655273438,.659667969l-.3359375-.743652344c.540039062-.455566406,1.307617188-.791503906,2.20703125-.791503906,1.678710938,0,2.38671875,1.151367188,2.38671875,2.266601562,0,1.439453125-1.043945312,2.603027344-2.686523438,4.186035156l-.624023438,.575683594v.023925781h3.501953125v.875488281h-4.9765625Z" fill="#231f20"/><path d="M377.778320312,38.309299045c0-.443847656,.299804688-.755859375,.719726562-.755859375,.418945312,0,.70703125,.312011719,.70703125,.755859375,0,.431640625-.275390625,.755371094-.719726562,.755371094-.419921875,0-.70703125-.323730469-.70703125-.755371094Z" fill="#231f20"/><path d="M385.358398438,34.950900608c0,2.650878906-.983398438,4.113769531-2.709960938,4.113769531-1.5234375,0-2.5546875-1.427246094-2.579101562-4.005859375,0-2.614257812,1.127929688-4.053710938,2.7109375-4.053710938,1.642578125,0,2.578125,1.463378906,2.578125,3.945800781Zm-4.233398438,.120117188c0,2.026855469,.623046875,3.178222656,1.583007812,3.178222656,1.079101562,0,1.594726562-1.259277344,1.594726562-3.25,0-1.918945312-.491210938-3.178710938-1.583007812-3.178710938-.922851562,0-1.594726562,1.127441406-1.594726562,3.250488281Z" fill="#231f20"/><path d="M386.41796875,38.309299045c0-.443847656,.299804688-.755859375,.71875-.755859375,.419921875,0,.708007812,.312011719,.708007812,.755859375,0,.431640625-.275390625,.755371094-.719726562,.755371094-.419921875,0-.70703125-.323730469-.70703125-.755371094Z" fill="#231f20"/><path d="M393.998046875,34.950900608c0,2.650878906-.983398438,4.113769531-2.709960938,4.113769531-1.5234375,0-2.5546875-1.427246094-2.579101562-4.005859375,0-2.614257812,1.127929688-4.053710938,2.7109375-4.053710938,1.642578125,0,2.578125,1.463378906,2.578125,3.945800781Zm-4.233398438,.120117188c0,2.026855469,.624023438,3.178222656,1.583007812,3.178222656,1.079101562,0,1.594726562-1.259277344,1.594726562-3.25,0-1.918945312-.491210938-3.178710938-1.583007812-3.178710938-.922851562,0-1.594726562,1.127441406-1.594726562,3.250488281Z" fill="#231f20"/></g></g><g id="f"><g><line x1="116.833328247" y1="60.222217136" x2="144.419876099" y2="60.222217136" fill="none" stroke="#3975bb" stroke-miterlimit="10" stroke-width="1.5"/><polygon points="142.339355469 63.272754245 153.722229004 60.222217136 142.339355469 57.171695285 142.339355469 63.272754245" fill="#3975bb"/></g><g><line x1="351" y1="60.222217136" x2="378.586547852" y2="60.222217136" fill="none" stroke="#3975bb" stroke-miterlimit="10" stroke-width="1.5"/><polygon points="376.50604248 63.272754245 387.888885498 60.222217136 376.50604248 57.171695285 376.50604248 63.272754245" fill="#3975bb"/></g><g><line x1="53.111114502" y1="60.222217136" x2="80.697662354" y2="60.222217136" fill="none" stroke="#3975bb" stroke-miterlimit="10" stroke-width="1.5"/><polygon points="78.617141724 63.272754245 90 60.222217136 78.617141724 57.171695285 78.617141724 63.272754245" fill="#3975bb"/></g><g><g><circle cx="103.5" cy="60.388888889" r="12.75" fill="#fff"/><path d="M103.5,48.388888889c6.616821289,0,12,5.383178711,12,12s-5.383178711,12-12,12-12-5.383178711-12-12,5.383178711-12,12-12m0-1.5c-7.455841064,0-13.5,6.044158936-13.5,13.5s6.044158936,13.5,13.5,13.5,13.5-6.044158936,13.5-13.5-6.044158936-13.5-13.5-13.5h0Z" fill="#231f20"/></g><path d="M100.667480469,56.433322483c.479980469-.096191406,1.451171875-.16796875,2.362792969-.16796875,1.115234375,0,1.798828125,.107910156,2.38671875,.455566406,.563476562,.299804688,.971191406,.8515625,.971191406,1.583496094,0,.719238281-.419433594,1.391113281-1.331054688,1.727050781v.023925781c.923339844,.251953125,1.606933594,.947265625,1.606933594,1.990722656,0,.731445312-.335449219,1.307617188-.839355469,1.715332031-.587890625,.467773438-1.571289062,.731445312-3.178222656,.731445312-.899414062,0-1.571289062-.060058594-1.979003906-.120117188v-7.939453125Zm1.811035156,3.094238281h.599609375c.959472656,0,1.475097656-.395507812,1.475097656-.995605469,0-.611328125-.467773438-.935058594-1.294921875-.935058594-.395996094,0-.624023438,.023925781-.779785156,.047851562v1.8828125Zm0,3.5859375c.1796875,.023925781,.395996094,.023925781,.707519531,.023925781,.827636719,0,1.559082031-.311523438,1.559082031-1.163085938,0-.815429688-.731445312-1.139648438-1.643066406-1.139648438h-.623535156v2.278808594Z" fill="#231f20"/></g><g><g><circle cx="40.5" cy="60.388888889" r="12.75" fill="#fff"/><path d="M40.5,48.388888889c6.616821289,0,12,5.383178711,12,12s-5.383178711,12-12,12-12-5.383178711-12-12,5.383178711-12,12-12m0-1.5c-7.455841064,0-13.5,6.044158936-13.5,13.5s6.044158936,13.5,13.5,13.5,13.5-6.044158936,13.5-13.5-6.044158936-13.5-13.5-13.5h0Z" fill="#231f20"/></g><path d="M39.23828125,62.334201389l-.575683594,2.074707031h-1.89453125l2.470214844-8.083496094h2.398925781l2.506347656,8.083496094h-1.966796875l-.623535156-2.074707031h-2.314941406Zm2.051269531-1.3671875l-.50390625-1.715332031c-.144042969-.479492188-.287597656-1.079589844-.407714844-1.559082031h-.023925781c-.120117188,.479492188-.239746094,1.091308594-.372070312,1.559082031l-.479492188,1.715332031h1.787109375Z" fill="#231f20"/></g><g><g><circle cx="166.5" cy="60.388888889" r="12.75" fill="#fff"/><path d="M166.5,48.388888889c6.616821289,0,12,5.383178711,12,12s-5.383178711,12-12,12-12-5.383178711-12-12,5.383178711-12,12-12m0-1.5c-7.455841064,0-13.5,6.044158936-13.5,13.5s6.044158936,13.5,13.5,13.5,13.5-6.044158936,13.5-13.5-6.044158936-13.5-13.5-13.5h0Z" fill="#231f20"/></g><path d="M169.658691406,64.180881076c-.3359375,.16796875-1.091796875,.348144531-2.075195312,.348144531-2.794433594,0-4.233398438-1.739257812-4.233398438-4.041992188,0-2.758300781,1.966796875-4.293457031,4.413574219-4.293457031,.947265625,0,1.666992188,.191894531,1.990722656,.359863281l-.371582031,1.451171875c-.372070312-.15625-.887695312-.299804688-1.53515625-.299804688-1.451171875,0-2.578613281,.875488281-2.578613281,2.674316406,0,1.619140625,.959472656,2.638671875,2.590332031,2.638671875,.551757812,0,1.163574219-.120117188,1.5234375-.264160156l.275878906,1.427246094Z" fill="#231f20"/></g><g><g><rect x="270.75" y="110.638888889" width="70.5" height="25.5" fill="#fff"/><path d="M340.5,111.388888889v24h-69v-24h69m1.5-1.5h-72v27h72v-27h0Z" fill="#231f20"/></g><g><path d="M285.576171875,119.433322483c.563476562-.096191406,1.35546875-.16796875,2.470703125-.16796875,1.126953125,0,1.930664062,.215820312,2.470703125,.647460938,.515625,.408203125,.86328125,1.079589844,.86328125,1.87109375s-.263671875,1.463378906-.744140625,1.918945312c-.623046875,.587890625-1.546875,.8515625-2.626953125,.8515625-.239257812,0-.455078125-.01171875-.623046875-.036132812v2.890625h-1.810546875v-7.975585938Zm1.810546875,3.669921875c.15625,.036132812,.34765625,.047851562,.611328125,.047851562,.971679688,0,1.571289062-.491699219,1.571289062-1.319335938,0-.743164062-.515625-1.187011719-1.426757812-1.187011719-.372070312,0-.624023438,.035644531-.755859375,.071777344v2.38671875Z" fill="#231f20"/><path d="M298.3046875,128.224338108c-.720703125,.323730469-1.34375,.432128906-2.1953125,.432128906-1.990234375,0-3.7421875-1.427246094-3.7421875-3.778320312,0-2.446289062,1.775390625-4.569335938,4.486328125-4.569335938,2.110351562,0,3.62109375,1.451171875,3.62109375,3.466308594,0,1.750976562-.982421875,2.854003906-2.278320312,2.854003906-.563476562,0-.971679688-.287597656-1.03125-.923339844h-.024414062c-.37109375,.611816406-.911132812,.923339844-1.546875,.923339844-.779296875,0-1.34375-.575683594-1.34375-1.559082031,0-1.462890625,1.080078125-2.794433594,2.806640625-2.794433594,.52734375,0,1.127929688,.131835938,1.427734375,.299804688l-.359375,2.21875c-.12109375,.708007812-.037109375,1.031738281,.298828125,1.043457031,.515625,.012207031,1.1640625-.647460938,1.1640625-2.026855469,0-1.559082031-1.0078125-2.770507812-2.8671875-2.770507812-1.833984375,0-3.44140625,1.439453125-3.44140625,3.729980469,0,2.002929688,1.283203125,3.142578125,3.0703125,3.142578125,.611328125,0,1.258789062-.132324219,1.73828125-.383789062l.216796875,.6953125Zm-1.068359375-4.953125c-.095703125-.023925781-.21484375-.047851562-.37109375-.047851562-.791992188,0-1.416015625,.779296875-1.416015625,1.703125,0,.455566406,.205078125,.743164062,.599609375,.743164062,.444335938,0,.912109375-.563476562,1.01953125-1.259277344l.16796875-1.139160156Z" fill="#231f20"/><path d="M303.826171875,121.232150608h-.0234375l-1.48828125,.707519531-.298828125-1.3671875,2.0625-.959472656h1.510742188v7.795898438h-1.762695312v-6.176757812Z" fill="#231f20"/><path d="M308.254882812,126.437228733c0-.647460938,.443359375-1.115234375,1.079101562-1.115234375s1.067382812,.455566406,1.067382812,1.115234375c0,.635742188-.431640625,1.103515625-1.079101562,1.103515625-.624023438,0-1.067382812-.467773438-1.067382812-1.103515625Z" fill="#231f20"/><path d="M311.279296875,127.40890842v-1.103515625l1.006835938-.911621094c1.703125-1.522949219,2.53125-2.3984375,2.5546875-3.310058594,0-.635742188-.383789062-1.139160156-1.283203125-1.139160156-.670898438,0-1.258789062,.3359375-1.666992188,.647460938l-.515625-1.307128906c.587890625-.443847656,1.499023438-.803710938,2.5546875-.803710938,1.762695312,0,2.734375,1.031738281,2.734375,2.446777344,0,1.307128906-.947265625,2.350585938-2.075195312,3.357910156l-.71875,.600097656v.023925781h2.9375v1.499023438h-5.528320312Z" fill="#231f20"/><path d="M318.03515625,126.437228733c0-.647460938,.443359375-1.115234375,1.079101562-1.115234375s1.067382812,.455566406,1.067382812,1.115234375c0,.635742188-.431640625,1.103515625-1.079101562,1.103515625-.624023438,0-1.067382812-.467773438-1.067382812-1.103515625Z" fill="#231f20"/><path d="M321.3828125,125.621799045c.32421875,.16796875,1.067382812,.479980469,1.811523438,.479980469,.947265625,0,1.426757812-.456054688,1.426757812-1.043457031,0-.767578125-.767578125-1.115722656-1.5703125-1.115722656h-.744140625v-1.307128906h.708007812c.611328125-.01171875,1.390625-.239746094,1.390625-.899414062,0-.467773438-.383789062-.815429688-1.151367188-.815429688-.635742188,0-1.306640625,.275878906-1.630859375,.467773438l-.372070312-1.319335938c.467773438-.299804688,1.403320312-.587890625,2.411132812-.587890625,1.666992188,0,2.590820312,.875488281,2.590820312,1.942871094,0,.827636719-.467773438,1.475585938-1.427734375,1.811035156v.023925781c.935546875,.16796875,1.69140625,.875488281,1.69140625,1.895019531,0,1.379394531-1.211914062,2.38671875-3.190429688,2.38671875-1.0078125,0-1.859375-.263671875-2.314453125-.551757812l.37109375-1.3671875Z" fill="#231f20"/></g></g><g><g><rect x="387.75" y="47.638888889" width="70.5" height="25.5" fill="#fff"/><path d="M457.5,48.388888889v24h-69v-24h69m1.5-1.5h-72v27h72v-27h0Z" fill="#231f20"/></g><g><path d="M402.576171875,56.433322483c.563476562-.096191406,1.35546875-.16796875,2.470703125-.16796875,1.126953125,0,1.930664062,.215820312,2.470703125,.647460938,.515625,.408203125,.86328125,1.079589844,.86328125,1.87109375s-.263671875,1.463378906-.744140625,1.918945312c-.623046875,.587890625-1.546875,.8515625-2.626953125,.8515625-.239257812,0-.455078125-.01171875-.623046875-.036132812v2.890625h-1.810546875v-7.975585938Zm1.810546875,3.669921875c.15625,.036132812,.34765625,.047851562,.611328125,.047851562,.971679688,0,1.571289062-.491699219,1.571289062-1.319335938,0-.743164062-.515625-1.187011719-1.426757812-1.187011719-.372070312,0-.624023438,.035644531-.755859375,.071777344v2.38671875Z" fill="#cb2026"/><path d="M415.3046875,65.224338108c-.720703125,.323730469-1.34375,.432128906-2.1953125,.432128906-1.990234375,0-3.7421875-1.427246094-3.7421875-3.778320312,0-2.446289062,1.775390625-4.569335938,4.486328125-4.569335938,2.110351562,0,3.62109375,1.451171875,3.62109375,3.466308594,0,1.750976562-.982421875,2.854003906-2.278320312,2.854003906-.563476562,0-.971679688-.287597656-1.03125-.923339844h-.024414062c-.37109375,.611816406-.911132812,.923339844-1.546875,.923339844-.779296875,0-1.34375-.575683594-1.34375-1.559082031,0-1.462890625,1.080078125-2.794433594,2.806640625-2.794433594,.52734375,0,1.127929688,.131835938,1.427734375,.299804688l-.359375,2.21875c-.12109375,.708007812-.037109375,1.031738281,.298828125,1.043457031,.515625,.012207031,1.1640625-.647460938,1.1640625-2.026855469,0-1.559082031-1.0078125-2.770507812-2.8671875-2.770507812-1.833984375,0-3.44140625,1.439453125-3.44140625,3.729980469,0,2.002929688,1.283203125,3.142578125,3.0703125,3.142578125,.611328125,0,1.258789062-.132324219,1.73828125-.383789062l.216796875,.6953125Zm-1.068359375-4.953125c-.095703125-.023925781-.21484375-.047851562-.37109375-.047851562-.791992188,0-1.416015625,.779296875-1.416015625,1.703125,0,.455566406,.205078125,.743164062,.599609375,.743164062,.444335938,0,.912109375-.563476562,1.01953125-1.259277344l.16796875-1.139160156Z" fill="#cb2026"/><path d="M418.5,64.40890842v-1.103515625l1.006835938-.911621094c1.703125-1.522949219,2.530273438-2.3984375,2.5546875-3.310058594,0-.635742188-.383789062-1.139160156-1.283203125-1.139160156-.671875,0-1.259765625,.3359375-1.666992188,.647460938l-.515625-1.307128906c.587890625-.443847656,1.498046875-.803710938,2.5546875-.803710938,1.762695312,0,2.734375,1.031738281,2.734375,2.446777344,0,1.307128906-.947265625,2.350585938-2.075195312,3.357910156l-.719726562,.600097656v.023925781h2.938476562v1.499023438h-5.528320312Z" fill="#cb2026"/><path d="M425.254882812,63.437228733c0-.647460938,.443359375-1.115234375,1.079101562-1.115234375s1.067382812,.455566406,1.067382812,1.115234375c0,.635742188-.431640625,1.103515625-1.079101562,1.103515625-.624023438,0-1.067382812-.467773438-1.067382812-1.103515625Z" fill="#cb2026"/><path d="M434.036132812,60.474826389c0,2.411132812-.971679688,4.065917969-2.962890625,4.065917969-2.014648438,0-2.90234375-1.811035156-2.9140625-4.017578125,0-2.254882812,.959960938-4.041992188,2.974609375-4.041992188,2.086914062,0,2.90234375,1.858886719,2.90234375,3.993652344Zm-4.041992188,.048339844c-.01171875,1.787109375,.419921875,2.638183594,1.126953125,2.638183594,.708007812,0,1.091796875-.887207031,1.091796875-2.662109375,0-1.727050781-.372070312-2.638671875-1.103515625-2.638671875-.671875,0-1.126953125,.8515625-1.115234375,2.662597656Z" fill="#cb2026"/><path d="M435.03515625,63.437228733c0-.647460938,.443359375-1.115234375,1.079101562-1.115234375s1.067382812,.455566406,1.067382812,1.115234375c0,.635742188-.431640625,1.103515625-1.079101562,1.103515625-.624023438,0-1.067382812-.467773438-1.067382812-1.103515625Z" fill="#cb2026"/><path d="M438.3828125,62.621799045c.32421875,.16796875,1.067382812,.479980469,1.811523438,.479980469,.947265625,0,1.426757812-.456054688,1.426757812-1.043457031,0-.767578125-.767578125-1.115722656-1.5703125-1.115722656h-.744140625v-1.307128906h.708007812c.611328125-.01171875,1.390625-.239746094,1.390625-.899414062,0-.467773438-.383789062-.815429688-1.151367188-.815429688-.635742188,0-1.306640625,.275878906-1.630859375,.467773438l-.372070312-1.319335938c.467773438-.299804688,1.403320312-.587890625,2.411132812-.587890625,1.666992188,0,2.590820312,.875488281,2.590820312,1.942871094,0,.827636719-.467773438,1.475585938-1.427734375,1.811035156v.023925781c.935546875,.16796875,1.69140625,.875488281,1.69140625,1.895019531,0,1.379394531-1.211914062,2.38671875-3.190429688,2.38671875-1.0078125,0-1.859375-.263671875-2.314453125-.551757812l.37109375-1.3671875Z" fill="#cb2026"/></g></g><g><g><rect x="279.75" y="47.638888889" width="70.5" height="25.5" fill="#fff"/><path d="M349.5,48.388888889v24h-69v-24h69m1.5-1.5h-72v27h72v-27h0Z" fill="#231f20"/></g><g><path d="M294.50390625,56.433322483c.587890625-.096191406,1.462890625-.16796875,2.434570312-.16796875,1.200195312,0,2.0390625,.180175781,2.614257812,.635742188,.48046875,.383789062,.744140625,.947265625,.744140625,1.690917969,0,1.031738281-.731445312,1.739257812-1.427734375,1.991210938v.035644531c.564453125,.228027344,.875976562,.767578125,1.080078125,1.511230469,.251953125,.911621094,.50390625,1.966796875,.659179688,2.278808594h-1.870117188c-.1328125-.228027344-.32421875-.887695312-.564453125-1.8828125-.215820312-1.0078125-.563476562-1.283691406-1.306640625-1.295410156h-.552734375v3.178222656h-1.810546875v-7.975585938Zm1.810546875,3.478027344h.720703125c.911132812,0,1.451171875-.455566406,1.451171875-1.163085938,0-.743652344-.50390625-1.115722656-1.34375-1.127441406-.443359375,0-.6953125,.035644531-.828125,.059570312v2.230957031Z" fill="#231f20"/><path d="M307.376953125,65.224338108c-.720703125,.323730469-1.34375,.432128906-2.1953125,.432128906-1.990234375,0-3.7421875-1.427246094-3.7421875-3.778320312,0-2.446289062,1.775390625-4.569335938,4.486328125-4.569335938,2.110351562,0,3.62109375,1.451171875,3.62109375,3.466308594,0,1.750976562-.982421875,2.854003906-2.278320312,2.854003906-.563476562,0-.971679688-.287597656-1.03125-.923339844h-.024414062c-.37109375,.611816406-.911132812,.923339844-1.546875,.923339844-.779296875,0-1.34375-.575683594-1.34375-1.559082031,0-1.462890625,1.080078125-2.794433594,2.806640625-2.794433594,.52734375,0,1.127929688,.131835938,1.427734375,.299804688l-.359375,2.21875c-.12109375,.708007812-.037109375,1.031738281,.298828125,1.043457031,.515625,.012207031,1.1640625-.647460938,1.1640625-2.026855469,0-1.559082031-1.0078125-2.770507812-2.8671875-2.770507812-1.833984375,0-3.44140625,1.439453125-3.44140625,3.729980469,0,2.002929688,1.283203125,3.142578125,3.0703125,3.142578125,.611328125,0,1.258789062-.132324219,1.73828125-.383789062l.216796875,.6953125Zm-1.068359375-4.953125c-.095703125-.023925781-.21484375-.047851562-.37109375-.047851562-.791992188,0-1.416015625,.779296875-1.416015625,1.703125,0,.455566406,.205078125,.743164062,.599609375,.743164062,.444335938,0,.912109375-.563476562,1.01953125-1.259277344l.16796875-1.139160156Z" fill="#231f20"/><path d="M310.895507812,62.621799045c.323242188,.16796875,1.067382812,.479980469,1.811523438,.479980469,.947265625,0,1.426757812-.456054688,1.426757812-1.043457031,0-.767578125-.767578125-1.115722656-1.571289062-1.115722656h-.744140625v-1.307128906h.708007812c.612304688-.01171875,1.391601562-.239746094,1.391601562-.899414062,0-.467773438-.383789062-.815429688-1.151367188-.815429688-.635742188,0-1.307617188,.275878906-1.631835938,.467773438l-.37109375-1.319335938c.467773438-.299804688,1.40234375-.587890625,2.41015625-.587890625,1.66796875,0,2.590820312,.875488281,2.590820312,1.942871094,0,.827636719-.467773438,1.475585938-1.426757812,1.811035156v.023925781c.935546875,.16796875,1.690429688,.875488281,1.690429688,1.895019531,0,1.379394531-1.2109375,2.38671875-3.190429688,2.38671875-1.006835938,0-1.858398438-.263671875-2.314453125-.551757812l.372070312-1.3671875Z" fill="#231f20"/><path d="M317.327148438,63.437228733c0-.647460938,.443359375-1.115234375,1.079101562-1.115234375s1.067382812,.455566406,1.067382812,1.115234375c0,.635742188-.431640625,1.103515625-1.079101562,1.103515625-.624023438,0-1.067382812-.467773438-1.067382812-1.103515625Z" fill="#231f20"/><path d="M326.108398438,60.474826389c0,2.411132812-.971679688,4.065917969-2.962890625,4.065917969-2.014648438,0-2.90234375-1.811035156-2.9140625-4.017578125,0-2.254882812,.959960938-4.041992188,2.974609375-4.041992188,2.086914062,0,2.90234375,1.858886719,2.90234375,3.993652344Zm-4.041992188,.048339844c-.01171875,1.787109375,.419921875,2.638183594,1.126953125,2.638183594,.708007812,0,1.091796875-.887207031,1.091796875-2.662109375,0-1.727050781-.372070312-2.638671875-1.103515625-2.638671875-.671875,0-1.126953125,.8515625-1.115234375,2.662597656Z" fill="#231f20"/><path d="M327.107421875,63.437228733c0-.647460938,.443359375-1.115234375,1.079101562-1.115234375s1.067382812,.455566406,1.067382812,1.115234375c0,.635742188-.431640625,1.103515625-1.079101562,1.103515625-.624023438,0-1.067382812-.467773438-1.067382812-1.103515625Z" fill="#231f20"/><path d="M335.888671875,60.474826389c0,2.411132812-.971679688,4.065917969-2.962890625,4.065917969-2.014648438,0-2.90234375-1.811035156-2.9140625-4.017578125,0-2.254882812,.958984375-4.041992188,2.974609375-4.041992188,2.086914062,0,2.90234375,1.858886719,2.90234375,3.993652344Zm-4.041992188,.048339844c-.01171875,1.787109375,.419921875,2.638183594,1.126953125,2.638183594,.708007812,0,1.091796875-.887207031,1.091796875-2.662109375,0-1.727050781-.372070312-2.638671875-1.103515625-2.638671875-.671875,0-1.126953125,.8515625-1.115234375,2.662597656Z" fill="#231f20"/></g></g><g><path d="M150.977539062,92.90109592c.50390625-.083984375,1.1640625-.155761719,2.002929688-.155761719,1.032226562,0,1.787109375,.239746094,2.267578125,.671875,.443359375,.383789062,.70703125,.971191406,.70703125,1.690917969,0,.731445312-.215820312,1.307128906-.624023438,1.727050781-.55078125,.587402344-1.451171875,.887695312-2.469726562,.887695312-.3125,0-.600585938-.012207031-.83984375-.072265625v3.23828125h-1.043945312v-7.987792969Zm1.043945312,3.897949219c.227539062,.060058594,.515625,.083984375,.86328125,.083984375,1.259765625,0,2.02734375-.611816406,2.02734375-1.727050781,0-1.067382812-.755859375-1.583007812-1.907226562-1.583007812-.456054688,0-.803710938,.036132812-.983398438,.083984375v3.142089844Z" fill="#231f20"/><path d="M156.942382812,96.043674045c0-.443847656,.299804688-.755859375,.719726562-.755859375,.418945312,0,.6953125,.312011719,.70703125,.755859375,0,.419433594-.275390625,.743652344-.719726562,.743652344-.419921875,0-.70703125-.32421875-.70703125-.743652344Zm0,4.233398438c0-.443847656,.299804688-.755371094,.719726562-.755371094,.418945312,0,.6953125,.311523438,.70703125,.755371094,0,.419921875-.275390625,.743652344-.719726562,.743652344-.419921875,0-.70703125-.323730469-.70703125-.743652344Z" fill="#231f20"/><path d="M161.93359375,98.370334201c-.047851562-1.19921875,.599609375-1.811035156,1.426757812-1.811035156,.50390625,0,.887695312,.155761719,1.69140625,.539550781,.611328125,.288085938,1.055664062,.50390625,1.499023438,.50390625,.431640625,0,.635742188-.34765625,.647460938-1.007324219h.719726562c.060546875,1.343261719-.635742188,1.811035156-1.37890625,1.811035156-.479492188,0-.912109375-.144042969-1.739257812-.527832031-.563476562-.275878906-1.0078125-.527832031-1.439453125-.527832031s-.6953125,.299804688-.719726562,1.01953125h-.70703125Z" fill="#231f20"/><path d="M171.328125,94.076388889h-.0234375l-1.35546875,.731933594-.204101562-.803710938,1.703125-.911621094h.899414062v7.795898438h-1.01953125v-6.8125Z" fill="#231f20"/><path d="M175.278320312,100.265353733c0-.443847656,.299804688-.755859375,.719726562-.755859375,.418945312,0,.70703125,.312011719,.70703125,.755859375,0,.431640625-.275390625,.755371094-.719726562,.755371094-.419921875,0-.70703125-.323730469-.70703125-.755371094Z" fill="#231f20"/><path d="M182.858398438,96.906955295c0,2.650878906-.983398438,4.113769531-2.709960938,4.113769531-1.5234375,0-2.5546875-1.427246094-2.579101562-4.005859375,0-2.614257812,1.127929688-4.053710938,2.7109375-4.053710938,1.642578125,0,2.578125,1.463378906,2.578125,3.945800781Zm-4.233398438,.120117188c0,2.026855469,.623046875,3.178222656,1.583007812,3.178222656,1.079101562,0,1.594726562-1.259277344,1.594726562-3.25,0-1.918945312-.491210938-3.178710938-1.583007812-3.178710938-.922851562,0-1.594726562,1.127441406-1.594726562,3.250488281Z" fill="#231f20"/><path d="M183.91796875,100.265353733c0-.443847656,.299804688-.755859375,.71875-.755859375,.419921875,0,.708007812,.312011719,.708007812,.755859375,0,.431640625-.275390625,.755371094-.719726562,.755371094-.419921875,0-.70703125-.323730469-.70703125-.755371094Z" fill="#231f20"/><path d="M191.498046875,96.906955295c0,2.650878906-.983398438,4.113769531-2.709960938,4.113769531-1.5234375,0-2.5546875-1.427246094-2.579101562-4.005859375,0-2.614257812,1.127929688-4.053710938,2.7109375-4.053710938,1.642578125,0,2.578125,1.463378906,2.578125,3.945800781Zm-4.233398438,.120117188c0,2.026855469,.624023438,3.178222656,1.583007812,3.178222656,1.079101562,0,1.594726562-1.259277344,1.594726562-3.25,0-1.918945312-.491210938-3.178710938-1.583007812-3.178710938-.922851562,0-1.594726562,1.127441406-1.594726562,3.250488281Z" fill="#231f20"/></g><g><path d="M226.452148438,38.913302951c.528320312-.107910156,1.283203125-.16796875,2.002929688-.16796875,1.115234375,0,1.834960938,.204101562,2.338867188,.659667969,.408203125,.359863281,.635742188,.911621094,.635742188,1.53515625,0,1.067382812-.671875,1.774902344-1.5234375,2.062988281v.035644531c.624023438,.216308594,.99609375,.791992188,1.1875,1.631347656,.263671875,1.127441406,.456054688,1.906738281,.624023438,2.21875h-1.079101562c-.1328125-.228027344-.3125-.923339844-.540039062-1.931152344-.240234375-1.115234375-.671875-1.53515625-1.619140625-1.570800781h-.983398438v3.501953125h-1.043945312v-7.975585938Zm1.043945312,3.682128906h1.067382812c1.115234375,0,1.823242188-.611816406,1.823242188-1.53515625,0-1.043457031-.755859375-1.499511719-1.859375-1.511230469-.50390625,0-.86328125,.047851562-1.03125,.095703125v2.950683594Z" fill="#231f20"/><path d="M232.62109375,42.043674045c0-.443847656,.299804688-.755859375,.71875-.755859375,.419921875,0,.696289062,.312011719,.708007812,.755859375,0,.419433594-.275390625,.743652344-.719726562,.743652344-.419921875,0-.70703125-.32421875-.70703125-.743652344Zm0,4.233398438c0-.443847656,.299804688-.755371094,.71875-.755371094,.419921875,0,.696289062,.311523438,.708007812,.755371094,0,.419921875-.275390625,.743652344-.719726562,.743652344-.419921875,0-.70703125-.323730469-.70703125-.743652344Z" fill="#231f20"/><path d="M237.81640625,45.677463108c.299804688,.191894531,.995117188,.491699219,1.7265625,.491699219,1.35546875,0,1.775390625-.86328125,1.762695312-1.511230469-.01171875-1.091308594-.995117188-1.559082031-2.014648438-1.559082031h-.587890625v-.791503906h.587890625c.767578125,0,1.739257812-.395507812,1.739257812-1.319335938,0-.623535156-.395507812-1.175292969-1.3671875-1.175292969-.624023438,0-1.223632812,.275878906-1.559570312,.515625l-.275390625-.767578125c.407226562-.299804688,1.19921875-.599609375,2.0390625-.599609375,1.53515625,0,2.23046875,.911621094,2.23046875,1.858886719,0,.803710938-.479492188,1.487304688-1.439453125,1.834960938v.024414062c.959960938,.191894531,1.739257812,.911132812,1.739257812,2.002441406,0,1.247558594-.971679688,2.338867188-2.842773438,2.338867188-.875,0-1.642578125-.275878906-2.026367188-.527832031l.288085938-.815429688Z" fill="#231f20"/><path d="M243.8046875,46.265353733c0-.443847656,.299804688-.755859375,.71875-.755859375,.419921875,0,.708007812,.312011719,.708007812,.755859375,0,.431640625-.275390625,.755371094-.719726562,.755371094-.419921875,0-.70703125-.323730469-.70703125-.755371094Z" fill="#231f20"/><path d="M251.384765625,42.906955295c0,2.650878906-.983398438,4.113769531-2.709960938,4.113769531-1.5234375,0-2.5546875-1.427246094-2.579101562-4.005859375,0-2.614257812,1.127929688-4.053710938,2.7109375-4.053710938,1.642578125,0,2.578125,1.463378906,2.578125,3.945800781Zm-4.233398438,.120117188c0,2.026855469,.624023438,3.178222656,1.583007812,3.178222656,1.079101562,0,1.594726562-1.259277344,1.594726562-3.25,0-1.918945312-.491210938-3.178710938-1.583007812-3.178710938-.922851562,0-1.594726562,1.127441406-1.594726562,3.250488281Z" fill="#231f20"/><path d="M252.444335938,46.265353733c0-.443847656,.299804688-.755859375,.719726562-.755859375,.418945312,0,.70703125,.312011719,.70703125,.755859375,0,.431640625-.275390625,.755371094-.719726562,.755371094-.419921875,0-.70703125-.323730469-.70703125-.755371094Z" fill="#231f20"/><path d="M260.024414062,42.906955295c0,2.650878906-.983398438,4.113769531-2.709960938,4.113769531-1.5234375,0-2.5546875-1.427246094-2.579101562-4.005859375,0-2.614257812,1.127929688-4.053710938,2.7109375-4.053710938,1.642578125,0,2.578125,1.463378906,2.578125,3.945800781Zm-4.233398438,.120117188c0,2.026855469,.623046875,3.178222656,1.583007812,3.178222656,1.079101562,0,1.594726562-1.259277344,1.594726562-3.25,0-1.918945312-.491210938-3.178710938-1.583007812-3.178710938-.922851562,0-1.594726562,1.127441406-1.594726562,3.250488281Z" fill="#231f20"/></g></g></g></svg>