<svg version="1.1" viewBox="0 0 549 307.11111" xmlns="http://www.w3.org/2000/svg"><rect width="549" height="9" fill="none"/><line x1="153.11111" x2="153.11111" y1="1.11111" y2="307.11111" fill="#fff"/><g fill="none" stroke-miterlimit="10"><g stroke="#929497" stroke-width="2"><line x1="153.11111" x2="153.11111" y1="1.11111" y2="7.1111102"/><line x1="153.11111" x2="153.11111" y1="18.871111" y2="295.23111" stroke-dasharray="11.76, 11.76"/><line x1="153.11111" x2="153.11111" y1="301.11111" y2="307.11111"/></g><line x1="26.16667" x2="63.030998" y1="40.5" y2="40.5" stroke="#3975bb" stroke-width="1.5"/></g><polygon points="60.95 37.449 60.95 43.551 72.333 40.5" fill="#3975bb"/><line x1="98.5" x2="161.69766" y1="40.5" y2="40.5" fill="none" stroke="#3975bb" stroke-miterlimit="10" stroke-width="1.5"/><polygon points="159.617 37.449 159.617 43.551 171 40.5" fill="#3975bb"/><line x1="234" x2="252.36432" y1="40.5" y2="40.5" fill="none" stroke="#3975bb" stroke-miterlimit="10" stroke-width="1.5"/><polygon points="250.284 37.449 250.284 43.551 261.667 40.5" fill="#3975bb"/><line x1="350.16666" x2="378.36432" y1="40.5" y2="40.5" fill="none" stroke="#3975bb" stroke-miterlimit="10" stroke-width="1.5"/><polygon points="376.284 37.449 376.284 43.551 387.667 40.5" fill="#3975bb"/><path d="m204.66667 53c12.41222 24.04868 127.08391 30.33194 173.659 37.13583" fill="none" stroke="#3975bb" stroke-miterlimit="10" stroke-width="1.5"/><polygon points="376.755 86.826 375.775 92.848 387.5 91.667" fill="#3975bb"/><path d="m496 46c0.20111 32.78581-59.49472 6.12978-77.74426 27.06029" fill="none" stroke="#549445" stroke-miterlimit="10" stroke-width="1.5"/><polygon points="422.146 72.818 416.796 69.885 414 81.333" fill="#549445"/><path d="m521.33331 36.33333c-16.74389 103.0475-84.06015 59.18532-104.01638 91.10881" fill="none" stroke="#549445" stroke-miterlimit="10" stroke-width="1.5"/><polygon points="421.089 126.846 415.517 124.362 413.667 136" fill="#549445"/><line x1="476.33334" x2="501" y1="46.833328" y2="46.833328" fill="#fff"/><line x1="476.33331" x2="496.1438" y1="46.833328" y2="46.833328" fill="none" stroke="#549445" stroke-miterlimit="10" stroke-width="1.5"/><path d="m495.88824 51.34506a4.51173 4.51173 0 1 0-4.51165-4.51173 4.51219 4.51219 0 0 0 4.51165 4.51173z" fill="#fff"/><path d="m495.88824 51.94505a5.11173 5.11173 0 1 1 5.11176-5.11172 5.11785 5.11785 0 0 1-5.11176 5.11172zm0-9.02343a3.91172 3.91172 0 1 0 3.91176 3.91171 3.91549 3.91549 0 0 0-3.91175-3.91171z" fill="#549445"/><line x1="476.33334" x2="527" y1="35.5" y2="35.5" fill="#fff"/><line x1="476.33331" x2="522.1438" y1="35.5" y2="35.5" fill="none" stroke="#549445" stroke-miterlimit="10" stroke-width="1.5"/><path d="m521.88824 40.01172a4.51172 4.51172 0 1 0-4.51165-4.51172 4.51218 4.51218 0 0 0 4.51165 4.51172z" fill="#fff"/><path d="m521.88824 40.61172a5.11172 5.11172 0 1 1 5.11176-5.11172 5.11785 5.11785 0 0 1-5.11176 5.11172zm0-9.02345a3.91173 3.91173 0 1 0 3.91176 3.91173 3.9155 3.9155 0 0 0-3.91175-3.91173z" fill="#549445"/><line x1="124.83333" x2="227.69766" y1="157.16666" y2="157.16666" fill="none" stroke="#3975bb" stroke-miterlimit="10" stroke-width="1.5"/><polygon points="225.617 154.116 225.617 160.217 237 157.167" fill="#3975bb"/><path d="m93.66667 49.33333c53.18175 86.7473 157.13524-0.0912 286.07057 87.96182" fill="none" stroke="#3975bb" stroke-miterlimit="10" stroke-width="1.5"/><polygon points="379.709 133.68 376.237 138.697 387.333 142.667" fill="#3975bb"/><path d="m24.83333 114.16667c184.4516 19.84912 267.80861-3.68753 354.31 32.11614" fill="none" stroke="#3975bb" stroke-miterlimit="10" stroke-width="1.5"/><polygon points="378.426 142.687 376.007 148.288 387.667 150" fill="#3975bb"/><line x1="25.33333" x2="252.36432" y1="220.5" y2="220.5" fill="none" stroke="#3975bb" stroke-miterlimit="10" stroke-width="1.5"/><polygon points="250.284 217.449 250.284 223.551 261.667 220.5" fill="#3975bb"/><line x1="350.16666" x2="378.36432" y1="220.5" y2="220.5" fill="none" stroke="#3975bb" stroke-miterlimit="10" stroke-width="1.5"/><polygon points="376.284 217.449 376.284 223.551 387.667 220.5" fill="#3975bb"/><path d="m496 226c0.20111 32.7858-59.49472 6.12976-77.74426 27.0603" fill="none" stroke="#549445" stroke-miterlimit="10" stroke-width="1.5"/><polygon points="422.146 252.818 416.796 249.885 414 261.333" fill="#549445"/><line x1="476.33334" x2="501" y1="226.83333" y2="226.83333" fill="#fff"/><line x1="476.33331" x2="496.1438" y1="226.83334" y2="226.83334" fill="none" stroke="#549445" stroke-miterlimit="10" stroke-width="1.5"/><path d="m495.88824 231.34506a4.51174 4.51174 0 1 0-4.51165-4.51172 4.51219 4.51219 0 0 0 4.51165 4.51172z" fill="#fff"/><path d="m495.88824 231.94507a5.11173 5.11173 0 1 1 5.11176-5.11173 5.11786 5.11786 0 0 1-5.11176 5.11173zm0-9.02347a3.91173 3.91173 0 1 0 3.91176 3.91174 3.9155 3.9155 0 0 0-3.91175-3.91174z" fill="#549445"/><line x1="476.33334" x2="527" y1="215.5" y2="215.5" fill="#fff"/><line x1="476.33331" x2="522.1438" y1="215.5" y2="215.5" fill="none" stroke="#549445" stroke-miterlimit="10" stroke-width="1.5"/><path d="m521.88824 220.01172a4.51172 4.51172 0 1 0-4.51165-4.51172 4.51219 4.51219 0 0 0 4.51165 4.51172z" fill="#fff"/><path d="m521.88824 220.61172a5.11172 5.11172 0 1 1 5.11176-5.11172 5.11785 5.11785 0 0 1-5.11176 5.11172zm0-9.02343a3.91171 3.91171 0 1 0 3.91176 3.91171 3.91549 3.91549 0 0 0-3.91175-3.91171z" fill="#549445"/><path d="m23.33333 228c74.76721 47.87726 168.258 40.72092 354.70137 46.05881" fill="none" stroke="#3975bb" stroke-miterlimit="10" stroke-width="1.5"/><polygon points="376.022 271.027 375.885 277.127 387.333 274.333" fill="#3975bb"/><g fill="#fff"><rect transform="rotate(-11.80766)" x="74.580795" y="135.91791" width="4.68714" height="7.0216398"/><rect transform="rotate(-11.80766)" x="73.117065" y="99.344498" width="4.68714" height="7.0216398"/><rect transform="rotate(41.78154)" x="86.11068" y="14.363881" width="4.68714" height="7.0216398"/></g><line x1="86.666656" x2="107.29424" y1="52.666672" y2="134.9767" fill="none" stroke="#3975bb" stroke-miterlimit="10" stroke-width="1.5"/><polygon points="109.748 132.217 103.829 133.7 109.556 144" fill="#3975bb"/><line x1="23.66667" x2="69.567223" y1="104" y2="56.052921" fill="none" stroke="#3975bb" stroke-miterlimit="10" stroke-width="1.5"/><polygon points="65.925 55.446 70.332 59.665 76 49.333" fill="#3975bb"/><line x1="22" x2="93.237694" y1="212.44446" y2="167.62073" fill="none" stroke="#3975bb" stroke-miterlimit="10" stroke-width="1.5"/><polygon points="89.852 166.147 93.101 171.311 101.111 162.667" fill="#3975bb"/><circle cx="13.5" cy="112.5" r="12.75" fill="#fff"/><path d="m13.5 100.5a12 12 0 1 1-12 12 12.01359 12.01359 0 0 1 12-12m0-1.5a13.5 13.5 0 1 0 13.5 13.5 13.5 13.5 0 0 0-13.5-13.5z" fill="#231f20"/><path d="m10.66748 108.54443a14.53729 14.53729 0 0 1 2.36279-0.168 4.46756 4.46756 0 0 1 2.38672 0.45557 1.75981 1.75981 0 0 1 0.97119 1.5835 1.82685 1.82685 0 0 1-1.331 1.72705v0.0239a2.02253 2.02253 0 0 1 1.60693 1.99073 2.15359 2.15359 0 0 1-0.83935 1.71533 5.10334 5.10334 0 0 1-3.17823 0.73144 14.12365 14.12365 0 0 1-1.979-0.12011zm1.811 3.09424h0.5996c0.95948 0 1.4751-0.39551 1.4751-0.9956 0-0.61133-0.46777-0.93506-1.29492-0.93506a5.00292 5.00292 0 0 0-0.77978 0.0479zm0 3.58594a5.77985 5.77985 0 0 0 0.70752 0.0239c0.82763 0 1.55908-0.31153 1.55908-1.16309 0-0.81543-0.73145-1.13965-1.64307-1.13965h-0.62353z" fill="#231f20"/><circle cx="13.5" cy="40.5" r="12.75" fill="#fff"/><path d="m13.5 28.5a12 12 0 1 1-12 12 12.01359 12.01359 0 0 1 12-12m0-1.5a13.5 13.5 0 1 0 13.5 13.5 13.5 13.5 0 0 0-13.5-13.5z" fill="#231f20"/><path d="m12.23828 42.44531-0.57568 2.07469h-1.89453l2.47021-8.0835h2.39893l2.50634 8.0835h-1.96679l-0.62354-2.07471zm2.05127-1.36719-0.50391-1.71533c-0.144-0.47949-0.28759-1.07959-0.40771-1.55908h-0.02393c-0.12011 0.47949-0.23974 1.09131-0.37207 1.55908l-0.47949 1.71533z" fill="#231f20"/><circle cx="85.5" cy="40.5" r="12.75" fill="#fff"/><path d="m85.5 28.5a12 12 0 1 1-12 12 12.01359 12.01359 0 0 1 12-12m0-1.5a13.5 13.5 0 1 0 13.5 13.5 13.5 13.5 0 0 0-13.5-13.5z" fill="#231f20"/><path d="m82.11572 36.54443a16.32516 16.32516 0 0 1 2.47071-0.168 5.19793 5.19793 0 0 1 3.31005 0.86377 3.57527 3.57527 0 0 1 1.36719 3.0459 4.09945 4.09945 0 0 1-1.34326 3.27442 5.80328 5.80328 0 0 1-3.73 1.04345 15.803 15.803 0 0 1-2.07471-0.12011zm1.835 6.59619a3.34837 3.34837 0 0 0 0.63575 0.0361 2.50568 2.50568 0 0 0 2.73437-2.83057 2.31807 2.31807 0 0 0-2.54248-2.5664 3.82735 3.82735 0 0 0-0.82764 0.0718z" fill="#231f20"/><circle cx="112.5" cy="157.5" r="12.75" fill="#fff"/><path d="m112.5 145.5a12 12 0 1 1-12 12 12.01359 12.01359 0 0 1 12-12m0-1.5a13.5 13.5 0 1 0 13.5 13.5 13.5 13.5 0 0 0-13.5-13.5z" fill="#231f20"/><path d="m114.897 158.10205h-2.97461v1.91895h3.32227v1.499h-5.15726v-8.0835h4.98926v1.499h-3.1543v1.6792h2.97464z" fill="#231f20"/><rect x="387.75" y="81.75" width="43.5" height="25.5" fill="#fff"/><g fill="#231f20"><path d="m430.5 82.5v24h-42v-24h42m1.5-1.5h-45v27h45z"/><path d="m404.10156 95.42578c-0.0351-0.97168-0.0723-2.147-0.0723-3.32226h-0.0352c-0.252 1.03125-0.58789 2.18261-0.89941 3.13037l-0.9834 3.15429h-1.42774l-0.86328-3.13037c-0.26367-0.94726-0.53906-2.09863-0.73144-3.15429h-0.0244c-0.0479 1.0913-0.084 2.33886-0.14355 3.34619l-0.14356 3.07031h-1.6914l0.51562-8.0835h2.43457l0.792 2.69825c0.252 0.93554 0.50391 1.94335 0.6836 2.89062h0.0352c0.22851-0.93555 0.5039-2.00293 0.76757-2.90234l0.86328-2.68653h2.38672l0.44434 8.0835h-1.78711z"/><path d="m413.17383 99.33545a4.9187 4.9187 0 0 1-2.19434 0.43213 3.643 3.643 0 0 1-3.74121-3.77832 4.4288 4.4288 0 0 1 4.48438-4.56934 3.42027 3.42027 0 0 1 3.623 3.46631c0 1.751-0.98437 2.854-2.27929 2.854a0.94017 0.94017 0 0 1-1.03125-0.92334h-0.0234a1.76245 1.76245 0 0 1-1.54785 0.92334 1.37017 1.37017 0 0 1-1.34278-1.55908 2.73894 2.73894 0 0 1 2.80664-2.79443 3.364 3.364 0 0 1 1.42676 0.2998l-0.36035 2.21875c-0.11914 0.708-0.0352 1.03174 0.30078 1.04346 0.51563 0.0122 1.16211-0.64746 1.16211-2.02685a2.64385 2.64385 0 0 0-2.86523-2.77051 3.495 3.495 0 0 0-3.44336 3.73 2.90367 2.90367 0 0 0 3.07031 3.14258 3.9117 3.9117 0 0 0 1.74023-0.38379zm-1.06641-4.95313a1.4848 1.4848 0 0 0-0.37207-0.0478 1.5827 1.5827 0 0 0-1.415 1.70313c0 0.45556 0.20313 0.74316 0.59961 0.74316 0.44336 0 0.91113-0.56347 1.01953-1.25928z"/><path d="m418.69629 92.34326h-0.0244l-1.48633 0.70752-0.30078-1.36719 2.06347-0.95947h1.51075v7.79588h-1.76269z"/></g><rect x="387.75" y="135.75" width="43.5" height="25.5" fill="#fff"/><g fill="#231f20"><path d="m430.5 136.5v24h-42v-24h42m1.5-1.5h-45v27h45z"/><path d="m398.20117 152.52v-8.0835h2.13477l1.67968 2.96241a23.55446 23.55446 0 0 1 1.31934 2.7705h0.0361a29.95168 29.95168 0 0 1-0.15625-3.37011v-2.3628h1.67969v8.0835h-1.91992l-1.72656-3.11816a30.07065 30.07065 0 0 1-1.40332-2.8545l-0.0361 0.0117c0.0488 1.06787 0.0723 2.207 0.0723 3.52637v2.43459z"/><path d="m412.23828 153.33545a4.92563 4.92563 0 0 1-2.19531 0.43213 3.64356 3.64356 0 0 1-3.74121-3.77832 4.429 4.429 0 0 1 4.48535-4.56934 3.41945 3.41945 0 0 1 3.62207 3.46631c0 1.751-0.9834 2.854-2.27832 2.854a0.93967 0.93967 0 0 1-1.03125-0.92334h-0.0244a1.76024 1.76024 0 0 1-1.54786 0.92334 1.37068 1.37068 0 0 1-1.34277-1.55908 2.73893 2.73893 0 0 1 2.80664-2.79443 3.36409 3.36409 0 0 1 1.42676 0.2998l-0.35938 2.21875c-0.12011 0.708-0.0361 1.03174 0.29981 1.04346 0.51562 0.0122 1.16308-0.64746 1.16308-2.02685a2.64465 2.64465 0 0 0-2.86621-2.77051 3.49483 3.49483 0 0 0-3.44238 3.73 2.90319 2.90319 0 0 0 3.07031 3.14258 3.90747 3.90747 0 0 0 1.73926-0.38379zm-1.06738-4.95313a1.4783 1.4783 0 0 0-0.37207-0.0478 1.58337 1.58337 0 0 0-1.415 1.70313c0 0.45556 0.2041 0.74316 0.59961 0.74316 0.44433 0 0.91113-0.56347 1.01953-1.25928z"/><path d="m415.43359 152.52v-1.1035l1.00782-0.91162c1.70312-1.523 2.53027-2.39843 2.55468-3.31006 0-0.63574-0.38476-1.13916-1.28418-1.13916a2.82957 2.82957 0 0 0-1.667 0.64746l-0.51562-1.30712a4.31542 4.31542 0 0 1 2.55468-0.80371 2.42264 2.42264 0 0 1 2.73438 2.44677c0 1.30713-0.94727 2.35059-2.07422 3.35791l-0.7207 0.6001v0.0239h2.93945v1.499z"/></g><rect x="236.75" y="144.75" width="43.5" height="25.5" fill="#fff"/><g fill="#231f20"><path d="m279.5 145.5v24h-42v-24h42m1.5-1.5h-45v27h45z"/><path d="m247.20166 161.52v-8.0835h2.13477l1.67919 2.96241a23.47677 23.47677 0 0 1 1.31934 2.7705h0.0361a29.95168 29.95168 0 0 1-0.15625-3.37011v-2.3628h1.6792v8.0835h-1.91894l-1.72705-3.11816a30.18875 30.18875 0 0 1-1.40332-2.8545l-0.0361 0.0117c0.0483 1.06787 0.0723 2.207 0.0723 3.52637v2.43459z"/><path d="m261.23828 162.33545a4.9235 4.9235 0 0 1-2.19482 0.43213 3.64367 3.64367 0 0 1-3.7417-3.77832 4.42931 4.42931 0 0 1 4.48535-4.56934 3.41973 3.41973 0 0 1 3.62207 3.46631c0 1.751-0.9834 2.854-2.27881 2.854a0.94042 0.94042 0 0 1-1.03125-0.92334h-0.0239a1.76062 1.76062 0 0 1-1.54737 0.92334 1.37076 1.37076 0 0 1-1.34326-1.55908 2.73923 2.73923 0 0 1 2.80664-2.79443 3.36822 3.36822 0 0 1 1.42725 0.2998l-0.35987 2.21875c-0.12011 0.708-0.0361 1.03174 0.29981 1.04346 0.51562 0.0122 1.16308-0.64746 1.16308-2.02685a2.64439 2.64439 0 0 0-2.86621-2.77051 3.49483 3.49483 0 0 0-3.44238 3.73 2.90343 2.90343 0 0 0 3.07031 3.14258 3.906 3.906 0 0 0 1.73926-0.38379zm-1.06738-4.95313a1.47724 1.47724 0 0 0-0.37158-0.0478 1.58339 1.58339 0 0 0-1.41553 1.70313c0 0.45556 0.2041 0.74316 0.59961 0.74316 0.44385 0 0.91162-0.56347 1.01953-1.25928z"/><path d="m264.75732 159.73291a4.29588 4.29588 0 0 0 1.811 0.48c0.94726 0 1.42725-0.45605 1.42725-1.04346 0-0.76757-0.76758-1.11572-1.57129-1.11572h-0.74366v-1.30713h0.70752c0.61182-0.0117 1.39161-0.23974 1.39161-0.89941 0-0.46778-0.38379-0.81543-1.15137-0.81543a3.5593 3.5593 0 0 0-1.63135 0.46777l-0.37158-1.31933a4.88492 4.88492 0 0 1 2.41064-0.58789c1.667 0 2.59033 0.87548 2.59033 1.94287a1.86719 1.86719 0 0 1-1.42724 1.811v0.0239a1.93727 1.93727 0 0 1 1.6914 1.895c0 1.37939-1.21142 2.38672-3.19042 2.38672a4.6051 4.6051 0 0 1-2.315-0.55176z"/></g><rect x="171.88721" y="27.887211" width="61.22559" height="25.22559" fill="#fff"/><g fill="#231f20"><path d="m232.22519 28.77483v23.45034h-59.45036v-23.45034h59.45036m1.77481-1.77483h-63v27h63z"/><path d="m183.98877 36.43652h1.82323v5.10938c0 2.30273-1.10351 3.106-2.87842 3.106a4.75438 4.75438 0 0 1-1.33154-0.1919l0.2041-1.4751a3.006 3.006 0 0 0 0.93555 0.144c0.76758 0 1.24707-0.34815 1.24707-1.60743z"/><path d="m193.09473 45.33545a4.92354 4.92354 0 0 1-2.19483 0.43213 3.64368 3.64368 0 0 1-3.7417-3.77832 4.42932 4.42932 0 0 1 4.48535-4.56934 3.41973 3.41973 0 0 1 3.62207 3.46631c0 1.751-0.98339 2.854-2.2788 2.854a0.94042 0.94042 0 0 1-1.03125-0.92334h-0.0239a1.76059 1.76059 0 0 1-1.54736 0.92334 1.37076 1.37076 0 0 1-1.34326-1.55908 2.73923 2.73923 0 0 1 2.80664-2.79443 3.36813 3.36813 0 0 1 1.42724 0.2998l-0.35986 2.21875c-0.12012 0.708-0.0361 1.03174 0.2998 1.04346 0.51563 0.0122 1.16309-0.64746 1.16309-2.02685a2.64439 2.64439 0 0 0-2.86621-2.77051 3.49483 3.49483 0 0 0-3.44238 3.73 2.90343 2.90343 0 0 0 3.07031 3.14258 3.906 3.906 0 0 0 1.73926-0.38379zm-1.06739-4.95313a1.47724 1.47724 0 0 0-0.37158-0.0478 1.5834 1.5834 0 0 0-1.41553 1.70313c0 0.45556 0.20411 0.74316 0.59961 0.74316 0.44385 0 0.91162-0.56347 1.01954-1.25928z"/><path d="m198.6167 38.34326h-0.0239l-1.4873 0.70752-0.29981-1.36719 2.063-0.95947h1.51074v7.79588h-1.7627z"/><path d="m208.44287 45.41943v0.59961h-5.99658v-0.59961z"/><path d="m209.23779 44.52v-8.0835h2.13477l1.6792 2.96241a23.47829 23.47829 0 0 1 1.31933 2.7705h0.0361a29.94932 29.94932 0 0 1-0.15625-3.37011v-2.3628h1.6792v8.0835h-1.91895l-1.72705-3.11816a30.19359 30.19359 0 0 1-1.40332-2.8545l-0.0361 0.0117c0.0483 1.06787 0.0723 2.207 0.0723 3.52637v2.43459z"/><path d="m217.22949 44.52v-1.1035l1.00781-0.91162c1.70313-1.523 2.53028-2.39843 2.55469-3.31006 0-0.63574-0.38379-1.13916-1.2832-1.13916a2.82439 2.82439 0 0 0-1.667 0.64746l-0.51563-1.30712a4.31228 4.31228 0 0 1 2.55371-0.80371 2.42346 2.42346 0 0 1 2.73535 2.44677c0 1.30713-0.94824 2.35059-2.07519 3.35791l-0.71973 0.6001v0.0239h2.93848v1.499z"/></g><rect x="261.75" y="27.75" width="88.5" height="25.5" fill="#fff"/><g fill="#231f20"><path d="m349.5 28.5v24h-87v-24h87m1.5-1.5h-90v27h90z"/><path d="m273.28174 36.43652h1.811v3.57422h0.0361c0.17968-0.312 0.37158-0.6001 0.55175-0.88769l1.835-2.68653h2.24268l-2.6748 3.4419 2.81884 4.6416h-2.13476l-1.979-3.49023-0.6958 0.85156v2.63865h-1.811z"/><path d="m286.40625 45.33545a4.91868 4.91868 0 0 1-2.19434 0.43213 3.643 3.643 0 0 1-3.74121-3.77832 4.4288 4.4288 0 0 1 4.48438-4.56934 3.42027 3.42027 0 0 1 3.623 3.46631c0 1.751-0.98437 2.854-2.27929 2.854a0.94017 0.94017 0 0 1-1.03125-0.92334h-0.0234a1.76245 1.76245 0 0 1-1.54785 0.92334 1.37017 1.37017 0 0 1-1.34277-1.55908 2.73893 2.73893 0 0 1 2.80664-2.79443 3.364 3.364 0 0 1 1.42675 0.2998l-0.36035 2.21875c-0.11914 0.708-0.0351 1.03174 0.30078 1.04346 0.51563 0.0122 1.16211-0.64746 1.16211-2.02685a2.64385 2.64385 0 0 0-2.86523-2.77051 3.495 3.495 0 0 0-3.44336 3.73 2.90367 2.90367 0 0 0 3.07031 3.14258 3.91174 3.91174 0 0 0 1.74024-0.38379zm-1.06641-4.95313a1.48474 1.48474 0 0 0-0.37207-0.0478 1.5827 1.5827 0 0 0-1.415 1.70313c0 0.45556 0.20313 0.74316 0.59961 0.74316 0.44336 0 0.91114-0.56347 1.01954-1.25928z"/><path d="m291.92871 38.34326h-0.0244l-1.48633 0.70752-0.30078-1.36719 2.06347-0.95947h1.51075v7.79588h-1.7627z"/><path d="m301.75488 45.41943v0.59961h-5.99707v-0.59961z"/><path d="m309.38574 41.42578c-0.0361-0.97168-0.0723-2.147-0.0723-3.32226h-0.0361c-0.25195 1.03125-0.58691 2.18261-0.89941 3.13037l-0.9834 3.15429h-1.42676l-0.86425-3.13037c-0.26368-0.94726-0.53907-2.09863-0.73145-3.15429h-0.0234c-0.0479 1.0913-0.084 2.33886-0.14453 3.34619l-0.14355 3.07031h-1.69141l0.51563-8.0835h2.43554l0.791 2.69825c0.25195 0.93554 0.5039 1.94335 0.68359 2.89062h0.0361c0.22754-0.93555 0.50391-2.00293 0.76758-2.90234l0.86328-2.68653h2.38672l0.44434 8.0835h-1.78711z"/><path d="m314.74023 38.34326h-0.0234l-1.48731 0.70752-0.2998-1.36719 2.0625-0.95947h1.51172v7.79588h-1.76368z"/><path d="m324.56738 45.41943v0.59961h-5.99707v-0.59961z"/><path d="m325.3623 44.52v-8.0835h2.13477l1.67871 2.96241a23.55605 23.55605 0 0 1 1.31934 2.7705h0.0361a29.94932 29.94932 0 0 1-0.15622-3.37011v-2.3628h1.67969v8.0835h-1.91992l-1.72657-3.11816a30.07545 30.07545 0 0 1-1.40332-2.8545l-0.0361 0.0117c0.0478 1.06787 0.0723 2.207 0.0723 3.52637v2.43459z"/><path d="m333.35449 44.52v-1.1035l1.00684-0.91162c1.70312-1.523 2.53125-2.39843 2.55469-3.31006 0-0.63574-0.38379-1.13916-1.28321-1.13916a2.827 2.827 0 0 0-1.667 0.64746l-0.51562-1.30712a4.31542 4.31542 0 0 1 2.55468-0.80371 2.42313 2.42313 0 0 1 2.73438 2.44677c0 1.30713-0.94727 2.35059-2.0752 3.35791l-0.71875 0.6001v0.0239h2.9375v1.499z"/></g><rect x="387.75" y="27.75" width="88.5" height="25.5" fill="#fff"/><g fill="#231f20"><path d="m475.5 28.5v24h-87v-24h87m1.5-1.5h-90v27h90z"/><path d="m399.90039 36.43652h1.834v6.54834h3.21484v1.53514h-5.04883z"/><path d="m411.78906 45.33545a4.92832 4.92832 0 0 1-2.19531 0.43213 3.64434 3.64434 0 0 1-3.74219-3.77832 4.42983 4.42983 0 0 1 4.48633-4.56934 3.41918 3.41918 0 0 1 3.62109 3.46631c0 1.751-0.98242 2.854-2.27832 2.854a0.94018 0.94018 0 0 1-1.03125-0.92334h-0.0244a1.75874 1.75874 0 0 1-1.54688 0.92334 1.37135 1.37135 0 0 1-1.34374-1.55908 2.73952 2.73952 0 0 1 2.80664-2.79443 3.36881 3.36881 0 0 1 1.42773 0.2998l-0.35937 2.21875c-0.1211 0.708-0.0371 1.03174 0.29882 1.04346 0.51563 0.0122 1.16407-0.64746 1.16407-2.02685a2.64494 2.64494 0 0 0-2.86719-2.77051 3.49466 3.49466 0 0 0-3.44141 3.73 2.90319 2.90319 0 0 0 3.07031 3.14258 3.90328 3.90328 0 0 0 1.73829-0.38379zm-1.06836-4.95313a1.4697 1.4697 0 0 0-0.37109-0.0478 1.58342 1.58342 0 0 0-1.416 1.70313c0 0.45556 0.20508 0.74316 0.59961 0.74316 0.44434 0 0.91211-0.56347 1.01953-1.25928z"/><path d="m417.31055 38.34326h-0.0234l-1.48828 0.70752-0.29883-1.36719 2.0625-0.95947h1.51074v7.79588h-1.76269z"/><path d="m427.13672 45.41943v0.59961h-5.99707v-0.59961z"/><path d="m434.76758 41.42578c-0.0361-0.97168-0.0723-2.147-0.0723-3.32226h-0.0361c-0.25195 1.03125-0.58691 2.18261-0.89941 3.13037l-0.9834 3.15429h-1.42676l-0.86426-3.13037c-0.26367-0.94726-0.53906-2.09863-0.73144-3.15429h-0.0234c-0.0479 1.0913-0.084 2.33886-0.14453 3.34619l-0.14356 3.07031h-1.69142l0.51562-8.0835h2.43555l0.791 2.69825c0.252 0.93554 0.50391 1.94335 0.6836 2.89062h0.0361c0.22754-0.93555 0.50391-2.00293 0.76758-2.90234l0.86328-2.68653h2.38672l0.44433 8.0835h-1.7871z"/><path d="m440.12207 38.34326h-0.0234l-1.4873 0.70752-0.29981-1.36719 2.0625-0.95947h1.51172v7.79588h-1.76367z"/><path d="m449.94922 45.41943v0.59961h-5.99707v-0.59961z"/><path d="m450.74414 44.52v-8.0835h2.13477l1.67871 2.96241a23.4011 23.4011 0 0 1 1.31933 2.7705h0.0361a29.94932 29.94932 0 0 1-0.15625-3.37011v-2.3628h1.67871v8.0835h-1.918l-1.72751-3.11814a30.07545 30.07545 0 0 1-1.40332-2.8545l-0.0361 0.0117c0.0478 1.06787 0.0723 2.207 0.0723 3.52637v2.43457z"/><path d="m458.73633 44.52v-1.1035l1.00683-0.91162c1.70313-1.523 2.53125-2.39843 2.55469-3.31006 0-0.63574-0.38379-1.13916-1.2832-1.13916a2.82954 2.82954 0 0 0-1.667 0.64746l-0.51565-1.30712a4.31543 4.31543 0 0 1 2.55469-0.80371 2.42313 2.42313 0 0 1 2.73437 2.44677c0 1.30713-0.94726 2.35059-2.07519 3.35791l-0.71875 0.6001v0.0239h2.9375v1.499z"/></g><circle cx="13.5" cy="220.5" r="12.75" fill="#fff"/><path d="m13.5 208.5a12 12 0 1 1-12 12 12.01359 12.01359 0 0 1 12-12m0-1.5a13.5 13.5 0 1 0 13.5 13.5 13.5 13.5 0 0 0-13.5-13.5z" fill="#231f20"/><path d="m16.65869 224.292a5.21031 5.21031 0 0 1-2.07519 0.34815c-2.79444 0-4.2334-1.73926-4.2334-4.042a4.12079 4.12079 0 0 1 4.41357-4.29345 4.76436 4.76436 0 0 1 1.99072 0.35986l-0.37158 1.45117a3.94336 3.94336 0 0 0-1.53515-0.2998 2.6575 2.6575 0 0 0 0.01172 5.313 4.56536 4.56536 0 0 0 1.52343-0.26416z" fill="#231f20"/><rect x="387.75" y="261.75" width="43.5" height="25.5" fill="#fff"/><g fill="#231f20"><path d="m430.5 262.5v24h-42v-24h42m1.5-1.5h-45v27h45z"/><path d="m404.10156 275.42578c-0.0351-0.97168-0.0723-2.147-0.0723-3.32226h-0.0352c-0.252 1.03125-0.58789 2.18261-0.89941 3.13037l-0.9834 3.15429h-1.42774l-0.86328-3.13037c-0.26367-0.94726-0.53906-2.09863-0.73144-3.15429h-0.0244c-0.0479 1.0913-0.084 2.33886-0.14355 3.34619l-0.14356 3.07031h-1.6914l0.51562-8.0835h2.43457l0.792 2.69825c0.252 0.93554 0.50391 1.94335 0.6836 2.89062h0.0352c0.22851-0.93555 0.5039-2.00293 0.76757-2.90234l0.86328-2.68653h2.38672l0.44434 8.0835h-1.78711z"/><path d="m413.17383 279.33545a4.9187 4.9187 0 0 1-2.19434 0.43213 3.643 3.643 0 0 1-3.74121-3.77832 4.4288 4.4288 0 0 1 4.48438-4.56934 3.42027 3.42027 0 0 1 3.623 3.46631c0 1.751-0.98437 2.854-2.27929 2.854a0.94017 0.94017 0 0 1-1.03125-0.92334h-0.0234a1.76245 1.76245 0 0 1-1.54785 0.92334 1.37017 1.37017 0 0 1-1.34278-1.55908 2.73894 2.73894 0 0 1 2.80664-2.79443 3.364 3.364 0 0 1 1.42676 0.2998l-0.36035 2.21875c-0.11914 0.708-0.0352 1.03174 0.30078 1.04346 0.51563 0.0122 1.16211-0.64746 1.16211-2.02685a2.64385 2.64385 0 0 0-2.86523-2.77051 3.495 3.495 0 0 0-3.44336 3.73 2.90367 2.90367 0 0 0 3.07031 3.14258 3.9117 3.9117 0 0 0 1.74023-0.38379zm-1.06641-4.95313a1.4848 1.4848 0 0 0-0.37207-0.0478 1.5827 1.5827 0 0 0-1.415 1.70313c0 0.45556 0.20313 0.74316 0.59961 0.74316 0.44336 0 0.91113-0.56347 1.01953-1.25928z"/><path d="m418.69629 272.34326h-0.0244l-1.48633 0.70752-0.30078-1.36719 2.06347-0.95947h1.51075v7.79588h-1.76269z"/></g><rect x="261.75" y="207.75" width="88.5" height="25.5" fill="#fff"/><g fill="#231f20"><path d="m349.5 208.5v24h-87v-24h87m1.5-1.5h-90v27h90z"/><path d="m283.752 216.43652h1.81055v3.57422h0.0361c0.17969-0.312 0.37207-0.6001 0.55176-0.88769l1.835-2.68653h2.24317l-2.67579 3.4419 2.81934 4.6416h-2.13486l-1.97949-3.49023-0.69531 0.85156v2.63865h-1.8105z"/><path d="m296.877 225.33545a4.92832 4.92832 0 0 1-2.19531 0.43213 3.64434 3.64434 0 0 1-3.74219-3.77832 4.42983 4.42983 0 0 1 4.48633-4.56934 3.41919 3.41919 0 0 1 3.6211 3.46631c0 1.751-0.9834 2.854-2.27833 2.854a0.94018 0.94018 0 0 1-1.03125-0.92334h-0.0244a1.75873 1.75873 0 0 1-1.54687 0.92334 1.37135 1.37135 0 0 1-1.34375-1.55908 2.73952 2.73952 0 0 1 2.80664-2.79443 3.36881 3.36881 0 0 1 1.42773 0.2998l-0.35937 2.21875c-0.1211 0.708-0.0371 1.03174 0.29882 1.04346 0.51563 0.0122 1.16407-0.64746 1.16407-2.02685a2.64494 2.64494 0 0 0-2.86719-2.77051 3.49466 3.49466 0 0 0-3.44141 3.73 2.9032 2.9032 0 0 0 3.07032 3.14258 3.90327 3.90327 0 0 0 1.73828-0.38379zm-1.06836-4.95313a1.4697 1.4697 0 0 0-0.37109-0.0478 1.58342 1.58342 0 0 0-1.416 1.70313c0 0.45556 0.20508 0.74316 0.59961 0.74316 0.44434 0 0.91211-0.56347 1.01953-1.25928z"/><path d="m302.39844 218.34326h-0.0234l-1.4873 0.70752-0.29981-1.36719 2.0625-0.95947h1.51172v7.79588h-1.76367z"/><path d="m312.22559 225.41943v0.59961h-5.99707v-0.59961z"/><path d="m319.85645 221.42578c-0.0361-0.97168-0.0723-2.147-0.0723-3.32226h-0.0361c-0.252 1.03125-0.58692 2.18261-0.89942 3.13037l-0.9834 3.15429h-1.42675l-0.86426-3.13037c-0.26367-0.94726-0.53906-2.09863-0.73145-3.15429h-0.0234c-0.0479 1.0913-0.084 2.33886-0.14454 3.34619l-0.14355 3.07031h-1.69141l0.51563-8.0835h2.43553l0.791 2.69825c0.252 0.93554 0.50391 1.94335 0.68359 2.89062h0.0361c0.22754-0.93555 0.5039-2.00293 0.76758-2.90234l0.86328-2.68653h2.38672l0.44433 8.0835h-1.78711z"/><path d="m325.21094 218.34326h-0.0234l-1.4873 0.70752-0.29981-1.36719 2.0625-0.95947h1.51172v7.79588h-1.76367z"/></g><rect x="387.75" y="207.75" width="88.5" height="25.5" fill="#fff"/><g fill="#231f20"><path d="m475.5 208.5v24h-87v-24h87m1.5-1.5h-90v27h90z"/><path d="m410.36914 216.43652h1.83594v6.54834h3.21392v1.53514h-5.04981z"/><path d="m422.25781 225.33545a4.91866 4.91866 0 0 1-2.19433 0.43213 3.643 3.643 0 0 1-3.74121-3.77832 4.42879 4.42879 0 0 1 4.48437-4.56934 3.41945 3.41945 0 0 1 3.62207 3.46631c0 1.751-0.9834 2.854-2.27832 2.854a0.94017 0.94017 0 0 1-1.03125-0.92334h-0.0234a1.76243 1.76243 0 0 1-1.54785 0.92334 1.37017 1.37017 0 0 1-1.34277-1.55908 2.73893 2.73893 0 0 1 2.80664-2.79443 3.36409 3.36409 0 0 1 1.42676 0.2998l-0.36036 2.21875c-0.11914 0.708-0.0351 1.03174 0.30079 1.04346 0.51562 0.0122 1.16211-0.64746 1.16211-2.02685a2.64386 2.64386 0 0 0-2.86524-2.77051 3.495 3.495 0 0 0-3.44336 3.73 2.90367 2.90367 0 0 0 3.07031 3.14258 3.91174 3.91174 0 0 0 1.74024-0.38379zm-1.0664-4.95313a1.48487 1.48487 0 0 0-0.37207-0.0478 1.58269 1.58269 0 0 0-1.415 1.70313c0 0.45556 0.20312 0.74316 0.59961 0.74316 0.44336 0 0.91113-0.56347 1.01953-1.25928z"/><path d="m427.78027 218.34326h-0.0234l-1.48731 0.70752-0.2998-1.36719 2.0625-0.95947h1.51174v7.79588h-1.76368z"/><path d="m437.60742 225.41943v0.59961h-5.99707v-0.59961z"/><path d="m445.23828 221.42578c-0.0361-0.97168-0.0723-2.147-0.0723-3.32226h-0.0361c-0.252 1.03125-0.58691 2.18261-0.89941 3.13037l-0.9834 3.15429h-1.42676l-0.86426-3.13037c-0.26367-0.94726-0.53906-2.09863-0.73144-3.15429h-0.0234c-0.0478 1.0913-0.084 2.33886-0.14453 3.34619l-0.14355 3.07031h-1.69141l0.51562-8.0835h2.43555l0.791 2.69825c0.252 0.93554 0.5039 1.94335 0.68359 2.89062h0.0361c0.22754-0.93555 0.50391-2.00293 0.76758-2.90234l0.86328-2.68653h2.38672l0.44434 8.0835h-1.78709z"/><path d="m450.59277 218.34326h-0.0234l-1.48731 0.70752-0.2998-1.36719 2.0625-0.95947h1.51172v7.79588h-1.76368z"/><path d="m460.05273 66.44287a7.91209 7.91209 0 0 0-1.51074 4.90527 8.0817 8.0817 0 0 0 1.51074 4.86915h-0.82714a7.75128 7.75128 0 0 1-1.57129-4.86915 7.91216 7.91216 0 0 1 1.57129-4.90527z"/><path d="m461.1709 70.85645c0-0.74366-0.0244-1.34327-0.0488-1.895h0.94824l0.0478 0.99511h0.0234a2.28194 2.28194 0 0 1 2.06348-1.12695c1.40332 0 2.458 1.187 2.458 2.9502 0 2.08691-1.27051 3.11816-2.63868 3.11816a2.034 2.034 0 0 1-1.78613-0.91162h-0.0244v3.15429h-1.043zm1.043 1.54687a2.42588 2.42588 0 0 0 0.0478 0.43164 1.62906 1.62906 0 0 0 1.583 1.23535c1.11523 0 1.76367-0.91113 1.76367-2.24267 0-1.16309-0.61231-2.15869-1.72754-2.15869a1.68283 1.68283 0 0 0-1.59473 1.30712 1.70636 1.70636 0 0 0-0.0723 0.43164z"/><path d="m468.58594 72.05566a1.85972 1.85972 0 0 0 1.99121 2.01465 3.8187 3.8187 0 0 0 1.60742-0.2998l0.17969 0.75586a4.70239 4.70239 0 0 1-1.93067 0.35986 2.69593 2.69593 0 0 1-2.85449-2.92676c0-1.751 1.03125-3.12988 2.72266-3.12988a2.45929 2.45929 0 0 1 2.39844 2.73437 4.0289 4.0289 0 0 1-0.0361 0.4917zm3.09472-0.75586a1.503 1.503 0 0 0-1.46289-1.71484 1.74916 1.74916 0 0 0-1.61914 1.71484z"/><path d="m474.59766 72.05566a1.85972 1.85972 0 0 0 1.99121 2.01465 3.81874 3.81874 0 0 0 1.60742-0.2998l0.17969 0.75586a4.70242 4.70242 0 0 1-1.93067 0.35986 2.69593 2.69593 0 0 1-2.85449-2.92676c0-1.751 1.03125-3.12988 2.72266-3.12988a2.45928 2.45928 0 0 1 2.39843 2.73437 4.02933 4.02933 0 0 1-0.0361 0.4917zm3.09472-0.75586a1.503 1.503 0 0 0-1.46289-1.71484 1.74916 1.74916 0 0 0-1.61914 1.71484z"/><path d="m480.02246 70.77246c0-0.68359-0.0127-1.27148-0.0488-1.811h0.92383l0.0361 1.13916h0.0479a1.74145 1.74145 0 0 1 1.60742-1.271 1.14778 1.14778 0 0 1 0.2998 0.0356v0.99561a1.5922 1.5922 0 0 0-0.36035-0.0361 1.48066 1.48066 0 0 0-1.415 1.35547 3.02925 3.02925 0 0 0-0.0478 0.4917v3.09423h-1.043z"/><path d="m483.31055 76.21729a8.11717 8.11717 0 0 0 1.51074-4.90528 7.95021 7.95021 0 0 0-1.51074-4.86914h0.81543a7.63837 7.63837 0 0 1 1.57129 4.88135 7.78489 7.78489 0 0 1-1.57129 4.89307z"/><path d="m456.77539 85.61572c-0.0596-1.127-0.13184-2.48242-0.12012-3.48974h-0.0361c-0.27539 0.94726-0.61133 1.95459-1.01855 3.07031l-1.42774 3.92187h-0.791l-1.30762-3.85009c-0.38379-1.13916-0.708-2.18262-0.93555-3.14209h-0.0244c-0.0234 1.00732-0.084 2.36279-0.15528 3.57373l-0.21582 3.46631h-0.99609l0.56445-8.0835h1.33106l1.3789 3.90967c0.33594 0.9956 0.61133 1.8833 0.81543 2.72265h0.0361c0.2041-0.81543 0.49218-1.70312 0.85156-2.72265l1.43945-3.90967h1.33106l0.5039 8.0835h-1.01953z"/><path d="m459.32324 84.3208a0.71457 0.71457 0 1 1 1.42676 0 0.714 0.714 0 1 1-1.42676 0zm0 4.2334a0.71455 0.71455 0 1 1 1.42676 0 0.714 0.714 0 1 1-1.42676 0z"/><path d="m469.31543 86.89941-2.00293-4.6538h-0.0234l-2.00293 4.6538h-0.83984l2.48242-5.52929h0.74414l2.48242 5.52929z"/><path d="m473.709 82.354h-0.0234l-1.35547 0.73145-0.2041-0.80371 1.70312-0.91162h0.89942v7.7959h-1.01957z"/><path d="m477.65918 88.54248a0.70907 0.70907 0 0 1 0.71875-0.75586 0.75692 0.75692 0 1 1-0.71875 0.75586z"/><path d="m485.23926 85.18408c0 2.65088-0.9834 4.11377-2.71 4.11377-1.52344 0-2.55469-1.42724-2.5791-4.00586 0-2.61426 1.12792-4.05371 2.71093-4.05371 1.64262 0 2.57817 1.46338 2.57817 3.9458zm-4.2334 0.12012c0 2.02685 0.624 3.17822 1.583 3.17822 1.0791 0 1.59472-1.25928 1.59472-3.25049 0-1.91894-0.49121-3.17822-1.583-3.17822-0.92285 0-1.59472 1.12744-1.59472 3.25049z"/><path d="m486.29883 88.54248a0.70928 0.70928 0 0 1 0.71972-0.75586 0.75689 0.75689 0 1 1-0.71972 0.75586z"/><path d="m493.87891 85.18408c0 2.65088-0.9834 4.11377-2.71 4.11377-1.52344 0-2.55469-1.42724-2.57911-4.00586 0-2.61426 1.12793-4.05371 2.71094-4.05371 1.64262 0 2.57817 1.46338 2.57817 3.9458zm-4.2334 0.12012c0 2.02685 0.623 3.17822 1.583 3.17822 1.0791 0 1.59472-1.25928 1.59472-3.25049 0-1.91894-0.49121-3.17822-1.583-3.17822-0.92285 0-1.59472 1.12744-1.59472 3.25049z"/><path d="m460.05273 249.77637a7.91207 7.91207 0 0 0-1.51074 4.90527 8.08167 8.08167 0 0 0 1.51074 4.86914h-0.82714a7.75122 7.75122 0 0 1-1.57129-4.86914 7.91214 7.91214 0 0 1 1.57129-4.90527z"/><path d="m461.1709 254.18994c0-0.74365-0.0244-1.34326-0.0488-1.895h0.94824l0.0478 0.99512h0.0234a2.28194 2.28194 0 0 1 2.06348-1.12695c1.40332 0 2.458 1.187 2.458 2.95019 0 2.08692-1.27051 3.11817-2.63868 3.11817a2.034 2.034 0 0 1-1.78613-0.91163h-0.0244v3.1543h-1.043zm1.043 1.54688a2.42588 2.42588 0 0 0 0.0478 0.43164 1.62906 1.62906 0 0 0 1.583 1.23535c1.11523 0 1.76367-0.91113 1.76367-2.24268 0-1.16308-0.61231-2.15869-1.72754-2.15869a1.68284 1.68284 0 0 0-1.59473 1.30713 1.70636 1.70636 0 0 0-0.0723 0.43164z"/><path d="m468.58594 255.38916a1.85972 1.85972 0 0 0 1.99121 2.01465 3.81868 3.81868 0 0 0 1.60742-0.29981l0.17969 0.75586a4.70235 4.70235 0 0 1-1.93067 0.35987 2.69593 2.69593 0 0 1-2.85449-2.92676c0-1.751 1.03125-3.12988 2.72266-3.12988a2.45929 2.45929 0 0 1 2.39844 2.73437 4.02907 4.02907 0 0 1-0.0361 0.4917zm3.09472-0.75586a1.503 1.503 0 0 0-1.46289-1.71484 1.74916 1.74916 0 0 0-1.61914 1.71484z"/><path d="m474.59766 255.38916a1.85972 1.85972 0 0 0 1.99121 2.01465 3.81872 3.81872 0 0 0 1.60742-0.29981l0.17969 0.75586a4.70239 4.70239 0 0 1-1.93067 0.35987 2.69593 2.69593 0 0 1-2.85449-2.92676c0-1.751 1.03125-3.12988 2.72266-3.12988a2.45928 2.45928 0 0 1 2.39843 2.73437 4.0295 4.0295 0 0 1-0.0361 0.4917zm3.09472-0.75586a1.503 1.503 0 0 0-1.46289-1.71484 1.74916 1.74916 0 0 0-1.61914 1.71484z"/><path d="m480.02246 254.106c0-0.6836-0.0127-1.27149-0.0488-1.811h0.92383l0.0361 1.13916h0.0479a1.74145 1.74145 0 0 1 1.60742-1.271 1.14736 1.14736 0 0 1 0.2998 0.0356v0.99561a1.59215 1.59215 0 0 0-0.36035-0.0361 1.48067 1.48067 0 0 0-1.415 1.35547 3.02937 3.02937 0 0 0-0.0478 0.4917v3.09424h-1.043z"/><path d="m483.31055 259.55078a8.11714 8.11714 0 0 0 1.51074-4.90527 7.95021 7.95021 0 0 0-1.51074-4.86914h0.81543a7.63834 7.63834 0 0 1 1.57129 4.88134 7.78484 7.78484 0 0 1-1.57129 4.89307z"/><path d="m456.77539 268.94922c-0.0596-1.127-0.13184-2.48242-0.12012-3.48975h-0.0361c-0.27539 0.94727-0.61133 1.95459-1.01855 3.07032l-1.42774 3.92187h-0.791l-1.30762-3.8501c-0.38379-1.13916-0.708-2.18261-0.93555-3.14209h-0.0244c-0.0234 1.00733-0.084 2.3628-0.15528 3.57373l-0.21582 3.46631h-0.99609l0.56445-8.08349h1.33106l1.3789 3.90966c0.33594 0.99561 0.61133 1.8833 0.81543 2.72266h0.0361c0.2041-0.81543 0.49218-1.70313 0.85156-2.72266l1.43945-3.90966h1.33106l0.5039 8.08349h-1.01953z"/><path d="m459.32324 267.6543a0.71457 0.71457 0 1 1 1.42676 0 0.714 0.714 0 1 1-1.42676 0zm0 4.2334a0.71455 0.71455 0 1 1 1.42676 0 0.714 0.714 0 1 1-1.42676 0z"/><path d="m469.31543 270.23291-2.00293-4.65381h-0.0234l-2.00293 4.65381h-0.83984l2.48242-5.5293h0.74414l2.48242 5.5293z"/><path d="m473.709 265.6875h-0.0234l-1.35547 0.73145-0.2041-0.80372 1.70312-0.91162h0.89942v7.7959h-1.01957z"/><path d="m477.65918 271.876a0.70907 0.70907 0 0 1 0.71875-0.75586 0.75692 0.75692 0 1 1-0.71875 0.75586z"/><path d="m485.23926 268.51758c0 2.65088-0.9834 4.11377-2.71 4.11377-1.52344 0-2.55469-1.42725-2.5791-4.00586 0-2.61426 1.12792-4.05371 2.71093-4.05371 1.64262 0 2.57817 1.46338 2.57817 3.9458zm-4.2334 0.12012c0 2.02685 0.624 3.17822 1.583 3.17822 1.0791 0 1.59472-1.25928 1.59472-3.25049 0-1.91895-0.49121-3.17822-1.583-3.17822-0.92285 0-1.59472 1.12744-1.59472 3.25049z"/><path d="m486.29883 271.876a0.70928 0.70928 0 0 1 0.71972-0.75586 0.75689 0.75689 0 1 1-0.71972 0.75586z"/><path d="m493.87891 268.51758c0 2.65088-0.9834 4.11377-2.71 4.11377-1.52344 0-2.55469-1.42725-2.57911-4.00586 0-2.61426 1.12793-4.05371 2.71094-4.05371 1.64262 0 2.57817 1.46338 2.57817 3.9458zm-4.2334 0.12012c0 2.02685 0.623 3.17822 1.583 3.17822 1.0791 0 1.59472-1.25928 1.59472-3.25049 0-1.91895-0.49121-3.17822-1.583-3.17822-0.92285 0-1.59472 1.12744-1.59472 3.25049z"/><path d="m468.418 0.665a7.91207 7.91207 0 0 0-1.51074 4.90527 8.08167 8.08167 0 0 0 1.51074 4.86914h-0.82715a7.75122 7.75122 0 0 1-1.57129-4.86914 7.91214 7.91214 0 0 1 1.57129-4.90527z"/><path d="m474.78906 6.03809a2.837 2.837 0 0 1-2.89062 3.082 2.75949 2.75949 0 0 1-2.78223-2.98633 2.83373 2.83373 0 0 1 2.87793-3.082 2.749 2.749 0 0 1 2.79492 2.98633zm-4.60547 0.0596c0 1.27148 0.73145 2.23095 1.7627 2.23095 1.00781 0 1.76269-0.94726 1.76269-2.25488 0-0.9834-0.49121-2.23047-1.73828-2.23047-1.24804 0-1.78711 1.15137-1.78711 2.2544z"/><path d="m476.124 5.07861c0-0.74365-0.0244-1.34326-0.0488-1.895h0.94824l0.0479 0.99512h0.0234a2.28192 2.28192 0 0 1 2.06347-1.12695c1.40332 0 2.458 1.187 2.458 2.95019 0 2.08692-1.27051 3.11817-2.63867 3.11817a2.034 2.034 0 0 1-1.78613-0.91162h-0.0244v3.15429h-1.043zm1.043 1.54688a2.4268 2.4268 0 0 0 0.0479 0.43164 1.62907 1.62907 0 0 0 1.583 1.23535c1.11524 0 1.76367-0.91113 1.76367-2.24268 0-1.16308-0.6123-2.15869-1.72754-2.15869a1.68283 1.68283 0 0 0-1.59472 1.30713 1.70592 1.70592 0 0 0-0.0723 0.43164z"/><path d="m484.22266 1.5166v1.667h1.51172v0.80323h-1.51172v3.13037c0 0.71972 0.2041 1.12744 0.792 1.12744a2.36332 2.36332 0 0 0 0.61133-0.0718l0.0479 0.79151a2.57832 2.57832 0 0 1-0.93555 0.144 1.46277 1.46277 0 0 1-1.13867-0.44385 2.15109 2.15109 0 0 1-0.4082-1.51123v-3.1665h-0.89947v-0.80323h0.89942v-1.39154z"/><path d="m488.09863 1.55225a0.65383 0.65383 0 0 1-1.30761 0 0.64367 0.64367 0 0 1 0.66015-0.65967 0.6266 0.6266 0 0 1 0.64746 0.65967zm-1.1748 7.436v-5.80469h1.05469v5.80469z"/><path d="m494.98438 6.03809a2.837 2.837 0 0 1-2.89063 3.082 2.75949 2.75949 0 0 1-2.78223-2.98633 2.83373 2.83373 0 0 1 2.87793-3.082 2.749 2.749 0 0 1 2.79493 2.98633zm-4.60547 0.0596c0 1.27148 0.73144 2.23095 1.76269 2.23095 1.00781 0 1.7627-0.94726 1.7627-2.25488 0-0.9834-0.49121-2.23047-1.73828-2.23047-1.24802 0-1.78711 1.15137-1.78711 2.2544z"/><path d="m496.31934 4.75439c0-0.5996-0.0127-1.0913-0.0488-1.5708h0.93554l0.0606 0.95948h0.0234a2.13531 2.13531 0 0 1 1.91894-1.09131c0.80372 0 2.05079 0.47949 2.05079 2.47021v3.46631h-1.05469v-3.34619c0-0.93555-0.34766-1.71484-1.34375-1.71484a1.49941 1.49941 0 0 0-1.415 1.0791 1.52081 1.52081 0 0 0-0.0723 0.4917v3.49023h-1.05468z"/><path d="m506.19336 8.98828-0.084-0.73144h-0.0361a2.16149 2.16149 0 0 1-1.77539 0.86328 1.65362 1.65362 0 0 1-1.77441-1.667c0-1.40332 1.24707-2.17089 3.49023-2.15869v-0.12011a1.1967 1.1967 0 0 0-1.31933-1.34327 2.89593 2.89593 0 0 0-1.51172 0.43165l-0.23926-0.69532a3.59811 3.59811 0 0 1 1.90625-0.51562c1.77539 0 2.207 1.21094 2.207 2.37451v2.1709a8.24659 8.24659 0 0 0 0.0957 1.39111zm-0.15625-2.9624c-1.15137-0.0239-2.458 0.18017-2.458 1.30713a0.93387 0.93387 0 0 0 0.99512 1.00781 1.44436 1.44436 0 0 0 1.40332-0.97168 1.09716 1.09716 0 0 0 0.0596-0.33594z"/><path d="m508.76367 0.47314h1.05469v8.51514h-1.05469z"/><path d="m514.13965 5.07861c0-0.74365-0.0244-1.34326-0.0488-1.895h0.94824l0.0479 0.99512h0.0234a2.28194 2.28194 0 0 1 2.06348-1.12695c1.40332 0 2.458 1.187 2.458 2.95019 0 2.08692-1.27051 3.11817-2.63868 3.11817a2.034 2.034 0 0 1-1.78613-0.91162h-0.0244v3.15429h-1.043zm1.043 1.54688a2.42588 2.42588 0 0 0 0.0479 0.43164 1.62906 1.62906 0 0 0 1.583 1.23535c1.11523 0 1.76367-0.91113 1.76367-2.24268 0-1.16308-0.61231-2.15869-1.72754-2.15869a1.68284 1.68284 0 0 0-1.59473 1.30713 1.70636 1.70636 0 0 0-0.0723 0.43164z"/><path d="m521.55469 6.27783a1.85972 1.85972 0 0 0 1.99121 2.01465 3.81886 3.81886 0 0 0 1.60742-0.2998l0.17969 0.75586a4.70255 4.70255 0 0 1-1.93067 0.35986 2.69593 2.69593 0 0 1-2.85449-2.92676c0-1.751 1.03125-3.12988 2.72266-3.12988a2.45929 2.45929 0 0 1 2.39844 2.73437 4.02907 4.02907 0 0 1-0.0361 0.4917zm3.09472-0.75586a1.503 1.503 0 0 0-1.46289-1.71484 1.74916 1.74916 0 0 0-1.61914 1.71484z"/><path d="m527.56641 6.27783a1.85972 1.85972 0 0 0 1.99121 2.01465 3.8189 3.8189 0 0 0 1.60742-0.2998l0.17969 0.75586a4.70259 4.70259 0 0 1-1.93067 0.35986 2.69593 2.69593 0 0 1-2.85449-2.92676c0-1.751 1.03125-3.12988 2.72266-3.12988a2.45928 2.45928 0 0 1 2.39843 2.73437 4.0295 4.0295 0 0 1-0.0361 0.4917zm3.09472-0.75586a1.503 1.503 0 0 0-1.46289-1.71484 1.74916 1.74916 0 0 0-1.61914 1.71484z"/><path d="m532.99121 4.99463c0-0.68359-0.0127-1.27149-0.0488-1.811h0.92383l0.0361 1.13916h0.0479a1.74145 1.74145 0 0 1 1.60742-1.271 1.14256 1.14256 0 0 1 0.2998 0.0356v0.99561a1.5922 1.5922 0 0 0-0.36035-0.0361 1.48139 1.48139 0 0 0-1.415 1.35546 3.02948 3.02948 0 0 0-0.0479 0.4917v3.09424h-1.043z"/><path d="m536.2793 10.43945a8.11714 8.11714 0 0 0 1.51074-4.90527 7.95021 7.95021 0 0 0-1.51074-4.86914h0.81543a7.63835 7.63835 0 0 1 1.57129 4.88135 7.78483 7.78483 0 0 1-1.57129 4.89306z"/><path d="m481.50586 23.38818v-8.08349h1.13965l2.59082 4.08984a22.865 22.865 0 0 1 1.45117 2.62647l0.0234-0.0122c-0.0957-1.0791-0.11914-2.0625-0.11914-3.32227v-3.38183h0.9834v8.08349h-1.05567l-2.56641-4.10156a25.82707 25.82707 0 0 1-1.51171-2.69873l-0.0361 0.0122c0.0606 1.019 0.084 1.99072 0.084 3.334v3.4541z"/><path d="m489.11426 18.543a0.71458 0.71458 0 1 1 1.42676 0 0.714 0.714 0 1 1-1.42676 0zm0 4.2334a0.71455 0.71455 0 1 1 1.42676 0 0.714 0.714 0 1 1-1.42676 0z"/><path d="m499.10645 21.12158-2.00293-4.65381h-0.0234l-2.00293 4.65381h-0.83985l2.48243-5.52929h0.74414l2.48242 5.52929z"/><path d="m501.21 23.38818v-0.64746l0.82715-0.80371c1.99121-1.895 2.89062-2.90234 2.90234-4.07763a1.39092 1.39092 0 0 0-1.54687-1.52344 2.65354 2.65354 0 0 0-1.65528 0.65967l-0.33593-0.74366a3.42322 3.42322 0 0 1 2.207-0.7915 2.19382 2.19382 0 0 1 2.38672 2.26709c0 1.439-1.04395 2.60254-2.68653 4.18555l-0.624 0.57568v0.0239h3.50195v0.87548z"/><path d="m507.4502 22.76465a0.70928 0.70928 0 0 1 0.71972-0.75586 0.75689 0.75689 0 1 1-0.71972 0.75586z"/><path d="m515.03027 19.40625c0 2.65088-0.98339 4.11377-2.71 4.11377-1.52343 0-2.55469-1.42725-2.5791-4.00586 0-2.61426 1.12793-4.05371 2.71094-4.05371 1.64262 0 2.57816 1.46338 2.57816 3.9458zm-4.23339 0.12012c0 2.02685 0.623 3.17822 1.583 3.17822 1.0791 0 1.59473-1.25928 1.59473-3.25049 0-1.91894-0.49121-3.17822-1.583-3.17822-0.92286 0-1.59473 1.12744-1.59473 3.25049z"/><path d="m516.08984 22.76465a0.70908 0.70908 0 0 1 0.71875-0.75586 0.75692 0.75692 0 1 1-0.71875 0.75586z"/><path d="m523.66992 19.40625c0 2.65088-0.9834 4.11377-2.71 4.11377-1.52344 0-2.55469-1.42725-2.5791-4.00586 0-2.61426 1.12793-4.05371 2.71094-4.05371 1.64262 0 2.57816 1.46338 2.57816 3.9458zm-4.2334 0.12012c0 2.02685 0.624 3.17822 1.583 3.17822 1.0791 0 1.59473-1.25928 1.59473-3.25049 0-1.91894-0.49121-3.17822-1.583-3.17822-0.92285 0-1.59473 1.12744-1.59473 3.25049z"/><path d="m468.418 181.332a7.91209 7.91209 0 0 0-1.51074 4.90527 8.0817 8.0817 0 0 0 1.51074 4.86915h-0.82715a7.75128 7.75128 0 0 1-1.57129-4.86915 7.91216 7.91216 0 0 1 1.57129-4.90527z"/><path d="m474.78906 186.70508a2.837 2.837 0 0 1-2.89062 3.082 2.75949 2.75949 0 0 1-2.78223-2.98633 2.83373 2.83373 0 0 1 2.87793-3.082 2.749 2.749 0 0 1 2.79492 2.98633zm-4.60547 0.0596c0 1.27148 0.73145 2.231 1.7627 2.231 1.00781 0 1.76269-0.94727 1.76269-2.25489 0-0.9834-0.49121-2.23047-1.73828-2.23047-1.24804-4e-5 -1.78711 1.15133-1.78711 2.25436z"/><path d="m476.124 185.74561c0-0.74366-0.0244-1.34327-0.0488-1.895h0.94824l0.0479 0.99511h0.0234a2.28192 2.28192 0 0 1 2.06347-1.127c1.40332 0 2.458 1.187 2.458 2.9502 0 2.08691-1.27051 3.11816-2.63867 3.11816a2.034 2.034 0 0 1-1.78613-0.91162h-0.0244v3.1543h-1.043zm1.043 1.54687a2.4267 2.4267 0 0 0 0.0479 0.43164 1.62907 1.62907 0 0 0 1.583 1.23535c1.11524 0 1.76367-0.91113 1.76367-2.24267 0-1.16309-0.6123-2.15869-1.72754-2.15869a1.68282 1.68282 0 0 0-1.59472 1.30712 1.70592 1.70592 0 0 0-0.0723 0.43165z"/><path d="m484.22266 182.18359v1.667h1.51172v0.80322h-1.51172v3.13037c0 0.71973 0.2041 1.12744 0.792 1.12744a2.36332 2.36332 0 0 0 0.61133-0.0718l0.0479 0.79151a2.57832 2.57832 0 0 1-0.93555 0.144 1.46277 1.46277 0 0 1-1.13867-0.44385 2.15108 2.15108 0 0 1-0.4082-1.51123v-3.1665h-0.89947v-0.80322h0.89942v-1.39153z"/><path d="m488.09863 182.21924a0.65383 0.65383 0 0 1-1.30761 0 0.64368 0.64368 0 0 1 0.66015-0.65967 0.62661 0.62661 0 0 1 0.64746 0.65967zm-1.1748 7.436v-5.80468h1.05469v5.80468z"/><path d="m494.98438 186.70508a2.837 2.837 0 0 1-2.89063 3.082 2.75949 2.75949 0 0 1-2.78223-2.98633 2.83373 2.83373 0 0 1 2.87793-3.082 2.749 2.749 0 0 1 2.79493 2.98633zm-4.60547 0.0596c0 1.27148 0.73144 2.231 1.76269 2.231 1.00781 0 1.7627-0.94727 1.7627-2.25489 0-0.9834-0.49121-2.23047-1.73828-2.23047-1.24802-4e-5 -1.78711 1.15133-1.78711 2.25436z"/><path d="m496.31934 185.42139c0-0.59961-0.0127-1.09131-0.0488-1.5708h0.93554l0.0606 0.95947h0.0234a2.13531 2.13531 0 0 1 1.91894-1.09131c0.80372 0 2.05079 0.47949 2.05079 2.47021v3.46631h-1.05469v-3.34619c0-0.93554-0.34766-1.71484-1.34375-1.71484a1.49941 1.49941 0 0 0-1.415 1.0791 1.52085 1.52085 0 0 0-0.0723 0.4917v3.49023h-1.05468z"/><path d="m506.19336 189.65527-0.084-0.73144h-0.0361a2.16149 2.16149 0 0 1-1.77539 0.86328 1.65362 1.65362 0 0 1-1.77441-1.667c0-1.40332 1.24707-2.1709 3.49023-2.15869v-0.12012a1.19669 1.19669 0 0 0-1.31933-1.34326 2.896 2.896 0 0 0-1.51172 0.43164l-0.23926-0.69531a3.598 3.598 0 0 1 1.90625-0.51563c1.77539 0 2.207 1.21094 2.207 2.37451v2.1709a8.24659 8.24659 0 0 0 0.0957 1.39111zm-0.15625-2.9624c-1.15137-0.0239-2.458 0.18018-2.458 1.30713a0.93387 0.93387 0 0 0 0.99512 1.00781 1.44436 1.44436 0 0 0 1.40332-0.97168 1.09709 1.09709 0 0 0 0.0596-0.33593z"/><path d="m508.76367 181.14014h1.05469v8.51513h-1.05469z"/><path d="m514.13965 185.74561c0-0.74366-0.0244-1.34327-0.0488-1.895h0.94824l0.0479 0.99511h0.0234a2.28194 2.28194 0 0 1 2.06348-1.127c1.40332 0 2.458 1.187 2.458 2.9502 0 2.08691-1.27051 3.11816-2.63868 3.11816a2.034 2.034 0 0 1-1.78613-0.91162h-0.0244v3.1543h-1.043zm1.043 1.54687a2.42577 2.42577 0 0 0 0.0479 0.43164 1.62906 1.62906 0 0 0 1.583 1.23535c1.11523 0 1.76367-0.91113 1.76367-2.24267 0-1.16309-0.61231-2.15869-1.72754-2.15869a1.68283 1.68283 0 0 0-1.59473 1.30712 1.70636 1.70636 0 0 0-0.0723 0.43165z"/><path d="m521.55469 186.94482a1.85972 1.85972 0 0 0 1.99121 2.01465 3.8187 3.8187 0 0 0 1.60742-0.2998l0.17969 0.75586a4.70239 4.70239 0 0 1-1.93067 0.35986 2.69593 2.69593 0 0 1-2.85449-2.92676c0-1.751 1.03125-3.12988 2.72266-3.12988a2.45929 2.45929 0 0 1 2.39844 2.73437 4.0289 4.0289 0 0 1-0.0361 0.4917zm3.09472-0.75586a1.503 1.503 0 0 0-1.46289-1.71484 1.74916 1.74916 0 0 0-1.61914 1.71484z"/><path d="m527.56641 186.94482a1.85972 1.85972 0 0 0 1.99121 2.01465 3.81874 3.81874 0 0 0 1.60742-0.2998l0.17969 0.75586a4.70242 4.70242 0 0 1-1.93067 0.35986 2.69593 2.69593 0 0 1-2.85449-2.92676c0-1.751 1.03125-3.12988 2.72266-3.12988a2.45928 2.45928 0 0 1 2.39843 2.73437 4.02933 4.02933 0 0 1-0.0361 0.4917zm3.09472-0.75586a1.503 1.503 0 0 0-1.46289-1.71484 1.74916 1.74916 0 0 0-1.61914 1.71484z"/><path d="m532.99121 185.66162c0-0.68359-0.0127-1.27148-0.0488-1.811h0.92383l0.0361 1.13916h0.0479a1.74145 1.74145 0 0 1 1.60742-1.271 1.14256 1.14256 0 0 1 0.2998 0.0356v0.99562a1.5922 1.5922 0 0 0-0.36035-0.0361 1.48139 1.48139 0 0 0-1.415 1.35547 3.02925 3.02925 0 0 0-0.0479 0.4917v3.09423h-1.043z"/><path d="m536.2793 191.10645a8.11717 8.11717 0 0 0 1.51074-4.90528 7.95021 7.95021 0 0 0-1.51074-4.86914h0.81543a7.63837 7.63837 0 0 1 1.57129 4.88135 7.78489 7.78489 0 0 1-1.57129 4.89307z"/><path d="m481.50586 204.05518v-8.0835h1.13965l2.59082 4.08984a22.865 22.865 0 0 1 1.45117 2.62647l0.0234-0.0122c-0.0957-1.0791-0.11914-2.0625-0.11914-3.32226v-3.38184h0.9834v8.0835h-1.05567l-2.56641-4.10157a25.82707 25.82707 0 0 1-1.51171-2.69873l-0.0361 0.0122c0.0606 1.019 0.084 1.99072 0.084 3.334v3.45411z"/><path d="m489.11426 199.21a0.71458 0.71458 0 1 1 1.42676 0 0.714 0.714 0 1 1-1.42676 0zm0 4.2334a0.71455 0.71455 0 1 1 1.42676 0 0.714 0.714 0 1 1-1.42676 0z"/><path d="m499.10645 201.78857-2.00293-4.6538h-0.0234l-2.00293 4.6538h-0.83985l2.48243-5.52929h0.74414l2.48242 5.52929z"/><path d="m501.21 204.05518v-0.64747l0.82715-0.80371c1.99121-1.895 2.89062-2.90234 2.90234-4.07763a1.39092 1.39092 0 0 0-1.54687-1.52344 2.65354 2.65354 0 0 0-1.65528 0.65967l-0.33593-0.74365a3.42317 3.42317 0 0 1 2.207-0.79151 2.19382 2.19382 0 0 1 2.38672 2.26709c0 1.439-1.04395 2.60254-2.68653 4.18555l-0.624 0.57568v0.0239h3.50195v0.87549z"/><path d="m507.4502 203.43164a0.70928 0.70928 0 0 1 0.71972-0.75586 0.75689 0.75689 0 1 1-0.71972 0.75586z"/><path d="m515.03027 200.07324c0 2.65088-0.98339 4.11377-2.71 4.11377-1.52343 0-2.55469-1.42724-2.5791-4.00586 0-2.61426 1.12793-4.05371 2.71094-4.05371 1.64262 0 2.57816 1.46338 2.57816 3.9458zm-4.23339 0.12012c0 2.02685 0.623 3.17822 1.583 3.17822 1.0791 0 1.59473-1.25928 1.59473-3.25049 0-1.91894-0.49121-3.17822-1.583-3.17822-0.92286 0-1.59473 1.12744-1.59473 3.25049z"/><path d="m516.08984 203.43164a0.70908 0.70908 0 0 1 0.71875-0.75586 0.75692 0.75692 0 1 1-0.71875 0.75586z"/><path d="m523.66992 200.07324c0 2.65088-0.9834 4.11377-2.71 4.11377-1.52344 0-2.55469-1.42724-2.5791-4.00586 0-2.61426 1.12793-4.05371 2.71094-4.05371 1.64262 0 2.57816 1.46338 2.57816 3.9458zm-4.2334 0.12012c0 2.02685 0.624 3.17822 1.583 3.17822 1.0791 0 1.59473-1.25928 1.59473-3.25049 0-1.91894-0.49121-3.17822-1.583-3.17822-0.92285 0-1.59473 1.12744-1.59473 3.25049z"/><path d="m227.21924 10.083h1.04394v3.898h0.0361c0.21582-0.312 0.43164-0.59961 0.63574-0.86377l2.4707-3.03418h1.29492l-2.92675 3.43017 3.15429 4.65332h-1.23535l-2.66211-3.96972-0.76758 0.8872v3.08252h-1.04394z"/><path d="m233.69971 13.32129a0.71457 0.71457 0 1 1 1.42675 0 0.714 0.714 0 1 1-1.42675 0zm0 4.2334a0.71454 0.71454 0 1 1 1.42675 0 0.714 0.714 0 1 1-1.42675 0z"/><path d="m243.69189 15.8999-2.00293-4.65381h-0.0234l-2.00293 4.65381h-0.83985l2.48243-5.52929h0.74414l2.48242 5.52929z"/><path d="m248.08545 11.354h-0.0234l-1.35547 0.73194-0.2041-0.80371 1.70313-0.91162h0.89941v7.79589h-1.01953z"/><path d="m252.03564 17.543a0.70908 0.70908 0 0 1 0.71875-0.75586 0.75692 0.75692 0 1 1-0.71875 0.75586z"/><path d="m259.61572 14.18457c0 2.65088-0.9834 4.11377-2.71 4.11377-1.52344 0-2.55469-1.42725-2.5791-4.00586 0-2.61426 1.12793-4.05371 2.71094-4.05371 1.64262 0 2.57816 1.46338 2.57816 3.9458zm-4.2334 0.12012c0 2.02685 0.624 3.17822 1.583 3.17822 1.0791 0 1.59473-1.25928 1.59473-3.25 0-1.91895-0.49121-3.17871-1.583-3.17871-0.92285 0-1.59473 1.12744-1.59473 3.25049z"/><path d="m260.67529 17.543a0.70929 0.70929 0 0 1 0.71973-0.75586 0.75689 0.75689 0 1 1-0.71973 0.75586z"/><path d="m268.25537 14.18457c0 2.65088-0.9834 4.11377-2.71 4.11377-1.52344 0-2.55469-1.42725-2.5791-4.00586 0-2.61426 1.12793-4.05371 2.71094-4.05371 1.64261 0 2.57816 1.46338 2.57816 3.9458zm-4.2334 0.12012c0 2.02685 0.623 3.17822 1.583 3.17822 1.0791 0 1.59473-1.25928 1.59473-3.25 0-1.91895-0.49121-3.17871-1.583-3.17871-0.92285 0-1.5947 1.12744-1.5947 3.25049z"/><path d="m94.60889 246.83887c-0.0596-1.12744-0.13184-2.48291-0.12012-3.49024h-0.0361c-0.27539 0.94727-0.61133 1.95508-1.01856 3.07032l-1.42773 3.92187h-0.791l-1.30762-3.8501c-0.38378-1.13916-0.708-2.18261-0.93554-3.14209h-0.0244c-0.0234 1.00733-0.084 2.3628-0.15527 3.57373l-0.21582 3.46631h-0.99609l0.56445-8.08349h1.33105l1.37891 3.90966c0.33594 0.99561 0.61133 1.8833 0.81543 2.72266h0.0361c0.2041-0.81543 0.49219-1.70312 0.85157-2.72266l1.43945-3.90966h1.33105l0.50391 8.08349h-1.01956z"/><path d="m97.15674 245.54346a0.71457 0.71457 0 1 1 1.42676 0 0.714 0.714 0 1 1-1.42676 0zm0 4.2334a0.71455 0.71455 0 1 1 1.42676 0 0.714 0.714 0 1 1-1.42676 0z"/><path d="m102.14893 247.87012c-0.0479-1.19922 0.59961-1.811 1.42675-1.811a3.77115 3.77115 0 0 1 1.69141 0.53955 3.78563 3.78563 0 0 0 1.499 0.50391c0.43164 0 0.63575-0.34766 0.64746-1.00733h0.71973c0.0605 1.34327-0.63574 1.811-1.37891 1.811a4.04982 4.04982 0 0 1-1.73925-0.52783 3.66681 3.66681 0 0 0-1.43946-0.52783c-0.43164 0-0.69531 0.2998-0.71972 1.01953z"/><path d="m111.54248 243.57617h-0.0235l-1.35547 0.73194-0.2041-0.80372 1.70313-0.91162h0.89941v7.7959h-1.01953z"/><path d="m115.49268 249.76514a0.70907 0.70907 0 0 1 0.71875-0.75586 0.75692 0.75692 0 1 1-0.71875 0.75586z"/><path d="m123.07275 246.40674c0 2.65088-0.98339 4.11377-2.71 4.11377-1.52343 0-2.55468-1.42725-2.5791-4.00586 0-2.61426 1.12793-4.05371 2.71094-4.05371 1.64262 0 2.57816 1.46338 2.57816 3.9458zm-4.23339 0.12012c0 2.02685 0.624 3.17822 1.583 3.17822 1.0791 0 1.59473-1.25928 1.59473-3.25 0-1.91895-0.49121-3.17871-1.583-3.17871-0.92286 0-1.59473 1.12744-1.59473 3.25049z"/><path d="m124.13232 249.76514a0.70929 0.70929 0 0 1 0.71973-0.75586 0.75689 0.75689 0 1 1-0.71973 0.75586z"/><path d="m131.7124 246.40674c0 2.65088-0.9834 4.11377-2.71 4.11377-1.52344 0-2.55469-1.42725-2.5791-4.00586 0-2.61426 1.12793-4.05371 2.71094-4.05371 1.64262 0 2.57816 1.46338 2.57816 3.9458zm-4.2334 0.12012c0 2.02685 0.623 3.17822 1.583 3.17822 1.0791 0 1.59473-1.25928 1.59473-3.25 0-1.91895-0.49121-3.17871-1.583-3.17871-0.92285 0-1.59473 1.12744-1.59473 3.25049z"/><path d="m302.6084 72.17236c-0.0596-1.12744-0.13184-2.48291-0.12012-3.49023h-0.0361c-0.27539 0.94726-0.61133 1.95508-1.01856 3.07031l-1.42773 3.92188h-0.791l-1.30761-3.8501c-0.38379-1.13916-0.708-2.18262-0.93555-3.14209h-0.0244c-0.0234 1.00732-0.084 2.36279-0.15528 3.57373l-0.21582 3.46631h-0.99609l0.56445-8.0835h1.33106l1.3789 3.90967c0.33594 0.99561 0.61133 1.8833 0.81543 2.72266h0.0361c0.20411-0.81543 0.49219-1.70313 0.85157-2.72266l1.43945-3.90967h1.33105l0.50391 8.0835h-1.01955z"/><path d="m305.15625 70.877a0.71457 0.71457 0 1 1 1.42676 0 0.714 0.714 0 1 1-1.42676 0zm0 4.2334a0.71455 0.71455 0 1 1 1.42676 0 0.714 0.714 0 1 1-1.42676 0z"/><path d="m310.14844 73.20361c-0.0478-1.19922 0.59961-1.811 1.42676-1.811a3.77116 3.77116 0 0 1 1.6914 0.53955 3.78584 3.78584 0 0 0 1.499 0.50391c0.43165 0 0.63575-0.34766 0.64747-1.00733h0.71972c0.0605 1.34326-0.63574 1.811-1.3789 1.811a4.04986 4.04986 0 0 1-1.73926-0.52784 3.66693 3.66693 0 0 0-1.43945-0.52783c-0.43165 0-0.69532 0.29981-0.71973 1.01953z"/><path d="m319.542 68.90967h-0.0234l-1.35546 0.73193-0.20411-0.80371 1.70313-0.91162h0.89941v7.7959h-1.01957z"/><path d="m323.49219 75.09863a0.70908 0.70908 0 0 1 0.71875-0.75586 0.75692 0.75692 0 1 1-0.71875 0.75586z"/><path d="m331.07227 71.74023c0 2.65088-0.9834 4.11377-2.71 4.11377-1.52343 0-2.55468-1.42724-2.5791-4.00586 0-2.61425 1.12793-4.05371 2.71094-4.05371 1.64261 0 2.57816 1.46338 2.57816 3.9458zm-4.2334 0.12012c0 2.02686 0.624 3.17822 1.583 3.17822 1.0791 0 1.59472-1.25927 1.59472-3.25 0-1.91894-0.49121-3.17871-1.583-3.17871-0.92285 0-1.59472 1.12744-1.59472 3.25049z"/><path d="m332.13184 75.09863a0.70928 0.70928 0 0 1 0.71972-0.75586 0.75689 0.75689 0 1 1-0.71972 0.75586z"/><path d="m339.71191 71.74023c0 2.65088-0.98339 4.11377-2.71 4.11377-1.52343 0-2.55468-1.42724-2.5791-4.00586 0-2.61425 1.12793-4.05371 2.71094-4.05371 1.64262 0 2.57816 1.46338 2.57816 3.9458zm-4.23339 0.12012c0 2.02686 0.623 3.17822 1.583 3.17822 1.0791 0 1.59473-1.25927 1.59473-3.25 0-1.91894-0.49121-3.17871-1.583-3.17871-0.92286 0-1.59473 1.12744-1.59473 3.25049z"/><path d="m167.11719 151.333v-8.0835h1.13965l2.59082 4.08985a22.86413 22.86413 0 0 1 1.45117 2.62646l0.0234-0.0122c-0.0957-1.0791-0.11915-2.0625-0.11915-3.32177v-3.38233h0.9834v8.0835h-1.05566l-2.56641-4.10156a25.83016 25.83016 0 0 1-1.51172-2.69874l-0.0361 0.0122c0.0605 1.019 0.084 1.99072 0.084 3.334v3.4541z"/><path d="m174.72559 146.48779a0.71457 0.71457 0 1 1 1.42675 0 0.714 0.714 0 1 1-1.42675 0zm0 4.2334a0.71454 0.71454 0 1 1 1.42675 0 0.714 0.714 0 1 1-1.42675 0z"/><path d="m184.71875 149.06641-2.00293-4.65381h-0.0234l-2.00293 4.65381h-0.83984l2.48242-5.5293h0.74414l2.48242 5.5293z"/><path d="m187.07324 150.12158a3.52594 3.52594 0 0 0 1.72656 0.4917c1.35547 0 1.7754-0.86328 1.7627-1.51123-0.0117-1.09131-0.99512-1.55908-2.01465-1.55908h-0.58785v-0.79151h0.58789c0.76758 0 1.73926-0.3955 1.73926-1.31933 0-0.62354-0.39551-1.17529-1.36719-1.17529a2.8651 2.8651 0 0 0-1.55957 0.51562l-0.27539-0.76758a3.70447 3.70447 0 0 1 2.03906-0.59961c1.53516 0 2.23047 0.91162 2.23047 1.85889a1.93523 1.93523 0 0 1-1.43945 1.835v0.0244a2.03 2.03 0 0 1 1.73926 2.00244c0 1.24756-0.97168 2.33886-2.84278 2.33886a3.96108 3.96108 0 0 1-2.02636-0.52783z"/><path d="m193.06152 150.70947a0.70929 0.70929 0 0 1 0.71973-0.75586 0.75689 0.75689 0 1 1-0.71973 0.75586z"/><path d="m200.6416 147.35107c0 2.65088-0.9834 4.11377-2.71 4.11377-1.52344 0-2.55469-1.42724-2.5791-4.00586 0-2.61425 1.12793-4.05371 2.71094-4.05371 1.64261 0 2.57816 1.46338 2.57816 3.9458zm-4.2334 0.12012c0 2.02686 0.62305 3.17822 1.583 3.17822 1.0791 0 1.59473-1.25927 1.59473-3.25 0-1.91894-0.49121-3.17871-1.583-3.17871-0.92285 0-1.59473 1.12744-1.59473 3.25049z"/><path d="m201.70117 150.70947a0.70908 0.70908 0 0 1 0.71875-0.75586 0.75692 0.75692 0 1 1-0.71875 0.75586z"/><path d="m209.28125 147.35107c0 2.65088-0.9834 4.11377-2.71 4.11377-1.52344 0-2.55469-1.42724-2.5791-4.00586 0-2.61425 1.12793-4.05371 2.71093-4.05371 1.64262 0 2.57817 1.46338 2.57817 3.9458zm-4.2334 0.12012c0 2.02686 0.624 3.17822 1.583 3.17822 1.0791 0 1.59473-1.25927 1.59473-3.25 0-1.91894-0.49121-3.17871-1.583-3.17871-0.92285 0-1.59473 1.12744-1.59473 3.25049z"/><path d="m89.27539 207.9165h1.04395v3.898h0.0361c0.21582-0.312 0.43164-0.59961 0.63574-0.86377l2.4707-3.03418h1.29493l-2.92676 3.43018 3.1543 4.65327h-1.23535l-2.66211-3.96973-0.76757 0.88721v3.08252h-1.04395z"/><path d="m95.75586 211.15479a0.71458 0.71458 0 1 1 1.42676 0 0.714 0.714 0 1 1-1.42676 0zm0 4.23339a0.71455 0.71455 0 1 1 1.42676 0 0.714 0.714 0 1 1-1.42676 0z"/><path d="m105.749 213.7334-2.00293-4.65381h-0.0234l-2.00293 4.65381h-0.83985l2.48242-5.5293h0.74415l2.48242 5.5293z"/><path d="m110.1416 209.1875h-0.0234l-1.35546 0.73193-0.20411-0.80371 1.70313-0.91162h0.89941v7.7959h-1.01953z"/><path d="m114.0918 215.37646a0.70928 0.70928 0 0 1 0.71972-0.75585 0.75689 0.75689 0 1 1-0.71972 0.75585z"/><path d="m121.67188 212.01807c0 2.65088-0.9834 4.11377-2.71 4.11377-1.52343 0-2.55468-1.42725-2.5791-4.00586 0-2.61426 1.12793-4.05371 2.71094-4.05371 1.64261 0 2.57816 1.46337 2.57816 3.9458zm-4.2334 0.12011c0 2.02686 0.623 3.17823 1.583 3.17823 1.07911 0 1.59473-1.25928 1.59473-3.25 0-1.91895-0.49121-3.17871-1.583-3.17871-0.92286 0-1.59473 1.12744-1.59473 3.25048z"/><path d="m122.73145 215.37646a0.70907 0.70907 0 0 1 0.71875-0.75585 0.75692 0.75692 0 1 1-0.71875 0.75585z"/><path d="m130.31152 212.01807c0 2.65088-0.9834 4.11377-2.71 4.11377-1.52344 0-2.55468-1.42725-2.5791-4.00586 0-2.61426 1.12793-4.05371 2.71094-4.05371 1.64264 0 2.57816 1.46337 2.57816 3.9458zm-4.2334 0.12011c0 2.02686 0.624 3.17823 1.583 3.17823 1.0791 0 1.59473-1.25928 1.59473-3.25 0-1.91895-0.49121-3.17871-1.583-3.17871-0.92285 0-1.59473 1.12744-1.59473 3.25048z"/><path d="m105.20605 25.4165h1.04395v5.40918c0 2.14649-1.05566 2.80616-2.44727 2.80616a3.37776 3.37776 0 0 1-1.11523-0.1919l0.15625-0.85156a2.48474 2.48474 0 0 0 0.875 0.15625c0.93555 0 1.4873-0.41992 1.4873-2.00293z"/><path d="m107.70312 28.65479a0.71458 0.71458 0 1 1 1.42676 0 0.714 0.714 0 1 1-1.42676 0zm0 4.23339a0.71455 0.71455 0 1 1 1.42676 0 0.714 0.714 0 1 1-1.42676 0z"/><path d="m117.69629 31.2334-2.00293-4.65381h-0.0234l-2.00292 4.65381h-0.83984l2.48242-5.5293h0.74414l2.48242 5.5293z"/><path d="m122.08887 26.6875h-0.0234l-1.35547 0.73193-0.2041-0.80371 1.70312-0.91162h0.89942v7.7959h-1.01953z"/><path d="m126.03906 32.87646a0.70928 0.70928 0 0 1 0.71973-0.75585 0.75689 0.75689 0 1 1-0.71973 0.75585z"/><path d="m133.61914 29.51807c0 2.65088-0.9834 4.11377-2.71 4.11377-1.52344 0-2.55469-1.42725-2.5791-4.00586 0-2.61426 1.12793-4.05371 2.71094-4.05371 1.64261 0 2.57816 1.46337 2.57816 3.9458zm-4.2334 0.12011c0 2.02686 0.62305 3.17823 1.583 3.17823 1.0791 0 1.59473-1.25928 1.59473-3.25 0-1.91895-0.49121-3.17871-1.583-3.17871-0.92285 0-1.59473 1.12744-1.59473 3.25048z"/><path d="m134.67871 32.87646a0.70908 0.70908 0 0 1 0.71875-0.75585 0.75692 0.75692 0 1 1-0.71875 0.75585z"/><path d="m142.25879 29.51807c0 2.65088-0.9834 4.11377-2.71 4.11377-1.52344 0-2.55469-1.42725-2.5791-4.00586 0-2.61426 1.12793-4.05371 2.71093-4.05371 1.64262 0 2.57817 1.46337 2.57817 3.9458zm-4.2334 0.12011c0 2.02686 0.624 3.17823 1.583 3.17823 1.0791 0 1.59472-1.25928 1.59472-3.25 0-1.91895-0.49121-3.17871-1.583-3.17871-0.92284 0-1.59472 1.12744-1.59472 3.25048z"/><path d="m167.11719 117.27783v-8.08349h1.13965l2.59082 4.08984a22.8658 22.8658 0 0 1 1.45117 2.62646l0.0234-0.0122c-0.0957-1.0791-0.11915-2.0625-0.11915-3.32178v-3.38232h0.9834v8.08349h-1.05566l-2.56641-4.10156a25.829 25.829 0 0 1-1.51172-2.69873l-0.0361 0.0122c0.0605 1.019 0.084 1.99072 0.084 3.334v3.4541z"/><path d="m174.72559 112.43262a0.71457 0.71457 0 1 1 1.42675 0 0.714 0.714 0 1 1-1.42675 0zm0 4.2334a0.71454 0.71454 0 1 1 1.42675 0 0.714 0.714 0 1 1-1.42675 0z"/><path d="m184.71875 115.01123-2.00293-4.65381h-0.0234l-2.00293 4.65381h-0.83984l2.48242-5.5293h0.74414l2.48242 5.5293z"/><path d="m186.82129 117.27783v-0.64746l0.82715-0.80371c1.99121-1.895 2.89062-2.90234 2.90234-4.07764a1.39091 1.39091 0 0 0-1.54687-1.52343 2.65359 2.65359 0 0 0-1.65528 0.65966l-0.33593-0.74365a3.4232 3.4232 0 0 1 2.207-0.7915 2.1937 2.1937 0 0 1 2.38672 2.2666c0 1.43945-1.04395 2.603-2.68653 4.186l-0.624 0.57569v0.0239h3.502v0.87549z"/><path d="m193.06152 116.6543a0.70929 0.70929 0 0 1 0.71973-0.75586 0.75689 0.75689 0 1 1-0.71973 0.75586z"/><path d="m200.6416 113.2959c0 2.65088-0.9834 4.11377-2.71 4.11377-1.52344 0-2.55469-1.42725-2.5791-4.00586 0-2.61426 1.12793-4.05371 2.71094-4.05371 1.64261 0 2.57816 1.46338 2.57816 3.9458zm-4.2334 0.12012c0 2.02685 0.62305 3.17822 1.583 3.17822 1.0791 0 1.59473-1.25928 1.59473-3.25 0-1.919-0.49121-3.17871-1.583-3.17871-0.92285 0-1.59473 1.12747-1.59473 3.25047z"/><path d="m201.70117 116.6543a0.70908 0.70908 0 0 1 0.71875-0.75586 0.75692 0.75692 0 1 1-0.71875 0.75586z"/><path d="m209.28125 113.2959c0 2.65088-0.9834 4.11377-2.71 4.11377-1.52344 0-2.55469-1.42725-2.5791-4.00586 0-2.61426 1.12793-4.05371 2.71093-4.05371 1.64262 0 2.57817 1.46338 2.57817 3.9458zm-4.2334 0.12012c0 2.02685 0.624 3.17822 1.583 3.17822 1.0791 0 1.59473-1.25928 1.59473-3.25 0-1.919-0.49121-3.17871-1.583-3.17871-0.92285 0-1.59473 1.12747-1.59473 3.25047z"/><path d="m167.11719 85.27783v-8.08349h1.13965l2.59082 4.08984a22.8658 22.8658 0 0 1 1.45117 2.62646l0.0234-0.0122c-0.0957-1.0791-0.11915-2.0625-0.11915-3.32178v-3.38232h0.9834v8.08349h-1.05566l-2.56641-4.10156a25.829 25.829 0 0 1-1.51172-2.69873l-0.0361 0.0122c0.0605 1.019 0.084 1.99072 0.084 3.334v3.4541z"/><path d="m174.72559 80.43262a0.71457 0.71457 0 1 1 1.42675 0 0.714 0.714 0 1 1-1.42675 0zm0 4.2334a0.71454 0.71454 0 1 1 1.42675 0 0.714 0.714 0 1 1-1.42675 0z"/><path d="m184.71875 83.01123-2.00293-4.65381h-0.0234l-2.00293 4.65381h-0.83984l2.48242-5.5293h0.74414l2.48242 5.5293z"/><path d="m186.82129 85.27783v-0.64746l0.82715-0.80371c1.99121-1.895 2.89062-2.90234 2.90234-4.07764a1.39091 1.39091 0 0 0-1.54687-1.52343 2.65359 2.65359 0 0 0-1.65528 0.65966l-0.33593-0.74365a3.4232 3.4232 0 0 1 2.207-0.7915 2.1937 2.1937 0 0 1 2.38672 2.2666c0 1.43945-1.04395 2.603-2.68653 4.186l-0.624 0.57569v0.0239h3.502v0.87549z"/><path d="m193.06152 84.6543a0.70929 0.70929 0 0 1 0.71973-0.75586 0.75689 0.75689 0 1 1-0.71973 0.75586z"/><path d="m200.6416 81.2959c0 2.65088-0.9834 4.11377-2.71 4.11377-1.52344 0-2.55469-1.42725-2.5791-4.00586 0-2.61426 1.12793-4.05371 2.71094-4.05371 1.64261 0 2.57816 1.46338 2.57816 3.9458zm-4.2334 0.12012c0 2.02685 0.62305 3.17822 1.583 3.17822 1.0791 0 1.59473-1.25928 1.59473-3.25 0-1.919-0.49121-3.17871-1.583-3.17871-0.92285 0-1.59473 1.12747-1.59473 3.25047z"/><path d="m201.70117 84.6543a0.70908 0.70908 0 0 1 0.71875-0.75586 0.75692 0.75692 0 1 1-0.71875 0.75586z"/><path d="m209.28125 81.2959c0 2.65088-0.9834 4.11377-2.71 4.11377-1.52344 0-2.55469-1.42725-2.5791-4.00586 0-2.61426 1.12793-4.05371 2.71093-4.05371 1.64262 0 2.57817 1.46338 2.57817 3.9458zm-4.2334 0.12012c0 2.02685 0.624 3.17822 1.583 3.17822 1.0791 0 1.59473-1.25928 1.59473-3.25 0-1.919-0.49121-3.17871-1.583-3.17871-0.92285 0-1.59473 1.12747-1.59473 3.25047z"/><path d="m349.27148 10.083h1.04395v7.208h3.4541v0.87548h-4.498z"/><path d="m354.64844 13.32129a0.71458 0.71458 0 1 1 1.42676 0 0.714 0.714 0 1 1-1.42676 0zm0 4.2334a0.71455 0.71455 0 1 1 1.42676 0 0.714 0.714 0 1 1-1.42676 0z"/><path d="m364.64062 15.8999-2.00292-4.65381h-0.0234l-2.00293 4.65381h-0.83985l2.48243-5.52929h0.74414l2.48242 5.52929z"/><path d="m369.03418 11.354h-0.0234l-1.35547 0.73194-0.2041-0.80371 1.70313-0.91162h0.89941v7.79589h-1.01953z"/><path d="m372.98438 17.543a0.70928 0.70928 0 0 1 0.71972-0.75586 0.75689 0.75689 0 1 1-0.71972 0.75586z"/><path d="m380.56445 14.18457c0 2.65088-0.9834 4.11377-2.71 4.11377-1.52344 0-2.55469-1.42725-2.5791-4.00586 0-2.61426 1.12793-4.05371 2.71094-4.05371 1.64262 0 2.57816 1.46338 2.57816 3.9458zm-4.2334 0.12012c0 2.02685 0.623 3.17822 1.583 3.17822 1.0791 0 1.59473-1.25928 1.59473-3.25 0-1.91895-0.49121-3.17871-1.583-3.17871-0.92285 0-1.59473 1.12744-1.59473 3.25049z"/><path d="m381.624 17.543a0.70908 0.70908 0 0 1 0.71875-0.75586 0.75692 0.75692 0 1 1-0.71875 0.75586z"/><path d="m389.2041 14.18457c0 2.65088-0.9834 4.11377-2.71 4.11377-1.52344 0-2.55469-1.42725-2.5791-4.00586 0-2.61426 1.12793-4.05371 2.71094-4.05371 1.64261 0 2.57816 1.46338 2.57816 3.9458zm-4.2334 0.12012c0 2.02685 0.624 3.17822 1.583 3.17822 1.0791 0 1.59473-1.25928 1.59473-3.25 0-1.91895-0.49121-3.17871-1.583-3.17871-0.92285 0-1.59473 1.12744-1.59473 3.25049z"/><path d="m347.12109 194.30518h1.04391v7.208h3.4541v0.87549h-4.49805z"/><path d="m352.49805 197.54346a0.71457 0.71457 0 1 1 1.42675 0 0.714 0.714 0 1 1-1.42675 0zm0 4.2334a0.71454 0.71454 0 1 1 1.42675 0 0.714 0.714 0 1 1-1.42675 0z"/><path d="m362.49023 200.12207-2.00293-4.65381h-0.0234l-2.00293 4.65381h-0.83985l2.48243-5.5293h0.74414l2.48242 5.5293z"/><path d="m366.88379 195.57617h-0.0234l-1.35547 0.73194-0.2041-0.80372 1.70313-0.91162h0.89941v7.7959h-1.01953z"/><path d="m370.833 201.76514a0.70928 0.70928 0 0 1 0.71972-0.75586 0.75689 0.75689 0 1 1-0.71972 0.75586z"/><path d="m378.41406 198.40674c0 2.65088-0.9834 4.11377-2.71 4.11377-1.52344 0-2.55469-1.42725-2.5791-4.00586 0-2.61426 1.12793-4.05371 2.71094-4.05371 1.64262 0 2.57816 1.46338 2.57816 3.9458zm-4.2334 0.12012c0 2.02685 0.624 3.17822 1.583 3.17822 1.0791 0 1.59473-1.25928 1.59473-3.25 0-1.91895-0.49121-3.17871-1.583-3.17871-0.92285 0-1.59473 1.12744-1.59473 3.25049z"/><path d="m379.47266 201.76514a0.70907 0.70907 0 0 1 0.71875-0.75586 0.75692 0.75692 0 1 1-0.71875 0.75586z"/><path d="m387.05371 198.40674c0 2.65088-0.9834 4.11377-2.71 4.11377-1.52344 0-2.55469-1.42725-2.5791-4.00586 0-2.61426 1.12793-4.05371 2.71094-4.05371 1.64261 0 2.57816 1.46338 2.57816 3.9458zm-4.2334 0.12012c0 2.02685 0.623 3.17822 1.583 3.17822 1.0791 0 1.59473-1.25928 1.59473-3.25 0-1.91895-0.49121-3.17871-1.583-3.17871-0.92285 0-1.59473 1.12744-1.59473 3.25049z"/></g></svg>
