<svg version="1.1" viewBox="0 0 431.99998 126" xmlns="http://www.w3.org/2000/svg"><g transform="translate(-27,-1.0556641)"><rect x="27" y="1.0556641" width="432" height="9" fill="none"/><g fill="none" stroke="#929497" stroke-miterlimit="10" stroke-width="2"><line x1="126" x2="126" y1="1.0556641" y2="7.0556641"/><line x1="126" x2="126" y1="19.722336" y2="114.72234" stroke-dasharray="0, 0, 12.6667, 12.6667"/><line x1="126" x2="126" y1="121.05566" y2="127.05566"/></g><path d="m43 53.500107c3.419022 14.256943 10.509201 23.970444 15.89785 29.638458" fill="none" stroke="#3975bb" stroke-miterlimit="10" stroke-width="1.5"/><polygon points="59.492371 79.380417 55.400162 83.905563 65.888885 89.277893" fill="#3975bb"/><path d="m89.222221 96.166779c22.826239 0 44.218929-11.058793 109.78857-41.630021" fill="none" stroke="#3975bb" stroke-miterlimit="10" stroke-width="1.5"/><polygon points="195.83929 52.659607 198.41891 58.188492 207.44444 50.611221" fill="#3975bb"/><line x1="54" x2="198.58655" y1="41.388992" y2="41.388992" fill="none" stroke="#3975bb" stroke-miterlimit="10" stroke-width="1.5"/><polygon points="196.50603 38.33847 196.50603 44.439529 207.88889 41.388992" fill="#3975bb"/><circle cx="76.5" cy="95.555664" r="12.75" fill="#fff"/><path d="m76.5 83.555664c6.616821 0 12 5.383179 12 12 0 6.616826-5.383179 11.999996-12 11.999996s-12-5.38317-12-11.999996c0-6.616821 5.383179-12 12-12m0-1.5c-7.455841 0-13.5 6.044159-13.5 13.5 0 7.455846 6.044159 13.499996 13.5 13.499996s13.5-6.04415 13.5-13.499996c0-7.455841-6.044159-13.5-13.5-13.5z" fill="#231f20"/><path d="m73.66748 91.600098c0.479981-0.09619 1.451172-0.167969 2.362793-0.167969 1.115235 0 1.798829 0.10791 2.386719 0.455566 0.563477 0.299805 0.971192 0.851563 0.971192 1.583496 0 0.719239-0.419434 1.391114-1.331055 1.727051v0.02393c0.92334 0.251953 1.606933 0.947266 1.606933 1.990723 0 0.731445-0.335449 1.307617-0.839355 1.715332-0.587891 0.467773-1.571289 0.731445-3.178223 0.731445-0.899414 0-1.571289-0.06006-1.979004-0.120117zm1.811036 3.094238h0.599609c0.959473 0 1.475098-0.395508 1.475098-0.995606 0-0.611328-0.467774-0.935058-1.294922-0.935058-0.395996 0-0.624024 0.02393-0.779785 0.04785zm0 3.585937c0.179687 0.02393 0.395996 0.02393 0.707519 0.02393 0.827637 0 1.559082-0.311523 1.559082-1.163086 0-0.815429-0.731445-1.139648-1.643066-1.139648h-0.623535z" fill="#231f20"/><circle cx="40.5" cy="41.555664" r="12.75" fill="#fff"/><path d="m40.5 29.555664c6.616821 0 12 5.383179 12 12s-5.383179 12-12 12-12-5.383179-12-12 5.383179-12 12-12m0-1.5c-7.455841 0-13.5 6.044159-13.5 13.5s6.044159 13.5 13.5 13.5 13.5-6.044159 13.5-13.5-6.044159-13.5-13.5-13.5z" fill="#231f20"/><path d="m39.238281 43.500977-0.575683 2.074707h-1.894532l2.470215-8.083497h2.398926l2.506348 8.083497h-1.966797l-0.623535-2.074707zm2.05127-1.367188-0.503906-1.715332c-0.144043-0.479492-0.287598-1.07959-0.407715-1.559082h-0.02393c-0.120117 0.479492-0.239746 1.091309-0.37207 1.559082l-0.479493 1.715332z" fill="#231f20"/><rect x="207.75" y="28.805664" width="70.5" height="25.5" fill="#fff"/><path d="m277.5 29.555664v24h-69v-24h69m1.5-1.5h-72v27h72z" fill="#231f20"/><g fill="#231f20"><path d="m222.57568 37.600098c0.56397-0.09619 1.35547-0.167969 2.47071-0.167969 1.12744 0 1.93115 0.21582 2.4707 0.647461 0.51562 0.408203 0.86328 1.07959 0.86328 1.871094s-0.26367 1.463379-0.74365 1.918945c-0.62354 0.587891-1.54688 0.851562-2.62647 0.851562-0.23974 0-0.45556-0.01172-0.62353-0.03613v2.890625h-1.81104zm1.81104 3.669922c0.15576 0.03613 0.34765 0.04785 0.61182 0.04785 0.97119 0 1.5708-0.491699 1.5708-1.319336 0-0.743164-0.51563-1.187012-1.42676-1.187012-0.37207 0-0.62403 0.03565-0.75586 0.07178z"/><path d="m235.3042 46.391113c-0.71973 0.323731-1.34326 0.432129-2.19483 0.432129-1.99072 0-3.74169-1.427246-3.74169-3.77832 0-2.446289 1.7749-4.569336 4.48535-4.569336 2.11084 0 3.62207 1.451172 3.62207 3.466309 0 1.750976-0.9834 2.854003-2.27881 2.854003-0.56348 0-0.97168-0.287597-1.03125-0.923339h-0.0239c-0.37207 0.611816-0.91162 0.923339-1.54736 0.923339-0.77979 0-1.34326-0.575683-1.34326-1.559082 0-1.46289 1.07959-2.794433 2.80664-2.794433 0.52734 0 1.12744 0.131836 1.42724 0.299805l-0.35986 2.21875c-0.12012 0.708007-0.0361 1.031738 0.29981 1.043457 0.51562 0.01221 1.16308-0.647461 1.16308-2.026856 0-1.559082-1.00732-2.770508-2.86621-2.770508-1.83496 0-3.44238 1.439453-3.44238 3.729981 0 2.002929 1.28369 3.142578 3.07031 3.142578 0.61182 0 1.25928-0.132324 1.73926-0.383789zm-1.06738-4.953125c-0.0957-0.02393-0.21582-0.04785-0.37159-0.04785-0.79199 0-1.41552 0.779297-1.41552 1.703125 0 0.455566 0.2041 0.743164 0.59961 0.743164 0.44384 0 0.91162-0.563477 1.01953-1.259278z"/><path d="m238.49951 45.575684v-1.103516l1.00733-0.911621c1.70312-1.522949 2.53076-2.398438 2.55468-3.310059 0-0.635742-0.38379-1.13916-1.2832-1.13916-0.67187 0-1.25977 0.335938-1.66748 0.647461l-0.51563-1.307129c0.5879-0.443847 1.49903-0.803711 2.55469-0.803711 1.76319 0 2.73438 1.031738 2.73438 2.446778 0 1.307128-0.94727 2.350586-2.07471 3.35791l-0.71973 0.600097v0.02393h2.93848v1.499024z"/><path d="m245.25488 44.604004c0-0.647461 0.44336-1.115234 1.0791-1.115234 0.63575 0 1.06739 0.455566 1.06739 1.115234 0 0.635742-0.43164 1.103516-1.0791 1.103516-0.62403 0-1.06739-0.467774-1.06739-1.103516z"/><path d="m254.03613 41.641602c0 2.411132-0.97168 4.065918-2.96289 4.065918-2.01465 0-2.90234-1.811036-2.91406-4.017579 0-2.254882 0.95996-4.041992 2.97461-4.041992 2.08691 0 2.90234 1.858887 2.90234 3.993653zm-4.04199 0.04834c-0.0117 1.78711 0.41992 2.638184 1.12695 2.638184 0.70801 0 1.0918-0.887207 1.0918-2.662109 0-1.727051-0.37207-2.638672-1.10352-2.638672-0.67187 0-1.12695 0.851562-1.11523 2.662597z"/><path d="m255.03516 44.604004c0-0.647461 0.44336-1.115234 1.0791-1.115234s1.06738 0.455566 1.06738 1.115234c0 0.635742-0.43164 1.103516-1.0791 1.103516-0.62402 0-1.06738-0.467774-1.06738-1.103516z"/><path d="m258.38281 43.788574c0.32422 0.167969 1.06739 0.479981 1.81153 0.479981 0.94726 0 1.42675-0.456055 1.42675-1.043457 0-0.767578-0.76757-1.115723-1.57031-1.115723h-0.74414v-1.307129h0.70801c0.61133-0.01172 1.39062-0.239746 1.39062-0.899414 0-0.467773-0.38379-0.81543-1.15136-0.81543-0.63575 0-1.30664 0.275879-1.63086 0.467774l-0.37207-1.319336c0.46777-0.299805 1.40332-0.587891 2.41113-0.587891 1.66699 0 2.59082 0.875489 2.59082 1.942871 0 0.827637-0.46777 1.475586-1.42773 1.811035v0.02393c0.93554 0.167969 1.6914 0.875489 1.6914 1.89502 0 1.379394-1.21191 2.386719-3.19043 2.386719-1.00781 0-1.85937-0.263672-2.31445-0.551758z"/></g><g fill="#231f20"><path d="m134.08887 27.290039c0.5039-0.08398 1.16406-0.155762 2.00293-0.155762 1.03222 0 1.78711 0.239746 2.26758 0.671875 0.44335 0.383789 0.70703 0.971192 0.70703 1.690918 0 0.731446-0.21582 1.307129-0.62403 1.727051-0.55078 0.587402-1.45117 0.887695-2.46972 0.887695-0.3125 0-0.60059-0.01221-0.83985-0.07226v3.238281h-1.04394zm1.04394 3.897949c0.22754 0.06006 0.51563 0.08398 0.86328 0.08398 1.25977 0 2.02735-0.611817 2.02735-1.727051 0-1.067383-0.75586-1.583008-1.90723-1.583008-0.45605 0-0.80371 0.03613-0.9834 0.08398z"/><path d="m140.05371 30.432617c0-0.443847 0.29981-0.755859 0.71973-0.755859 0.41894 0 0.69531 0.312012 0.70703 0.755859 0 0.419434-0.27539 0.743653-0.71973 0.743653-0.41992 0-0.70703-0.324219-0.70703-0.743653zm0 4.233399c0-0.443848 0.29981-0.755371 0.71973-0.755371 0.41894 0 0.69531 0.311523 0.70703 0.755371 0 0.419922-0.27539 0.743652-0.71973 0.743652-0.41992 0-0.70703-0.32373-0.70703-0.743652z"/><path d="m145.04492 32.759277c-0.0478-1.199218 0.59961-1.811035 1.42676-1.811035 0.50391 0 0.88769 0.155762 1.69141 0.539551 0.61132 0.288086 1.05566 0.503906 1.49902 0.503906 0.43164 0 0.63574-0.347656 0.64746-1.007324h0.71973c0.0605 1.343262-0.63575 1.811035-1.37891 1.811035-0.47949 0-0.91211-0.144043-1.73926-0.527832-0.56347-0.275879-1.00781-0.527832-1.43945-0.527832s-0.69531 0.299805-0.71973 1.019531z"/><path d="m152.14941 35.277832v-0.647461l0.82715-0.803711c1.99121-1.895019 2.89063-2.902344 2.90235-4.077637 0-0.791503-0.38379-1.523437-1.54688-1.523437-0.70801 0-1.2959 0.359863-1.65527 0.659668l-0.33594-0.743652c0.54004-0.455567 1.30762-0.791504 2.20703-0.791504 1.67871 0 2.38672 1.151367 2.38672 2.266601 0 1.439453-1.04395 2.603028-2.68652 4.186035l-0.62403 0.575684v0.02393h3.50196v0.875488z"/><path d="m158.38965 34.654297c0-0.443848 0.2998-0.75586 0.71972-0.75586 0.41895 0 0.70704 0.312012 0.70704 0.75586 0 0.43164-0.27539 0.755371-0.71973 0.755371-0.41992 0-0.70703-0.323731-0.70703-0.755371z"/><path d="m165.96973 31.295898c0 2.650879-0.9834 4.11377-2.70996 4.11377-1.52344 0-2.55469-1.427246-2.57911-4.005859 0-2.614258 1.12793-4.053711 2.71094-4.053711 1.64258 0 2.57813 1.463379 2.57813 3.9458zm-4.2334 0.120118c0 2.026855 0.62304 3.178222 1.58301 3.178222 1.0791 0 1.59472-1.259277 1.59472-3.25 0-1.918945-0.49121-3.178711-1.58301-3.178711-0.92285 0-1.59472 1.127442-1.59472 3.250489z"/><path d="m167.0293 34.654297c0-0.443848 0.2998-0.75586 0.71875-0.75586 0.41992 0 0.708 0.312012 0.708 0.75586 0 0.43164-0.27539 0.755371-0.71972 0.755371-0.41992 0-0.70703-0.323731-0.70703-0.755371z"/><path d="m171.71875 28.465332h-0.0234l-1.35547 0.731934-0.2041-0.803711 1.70313-0.911621h0.89941v7.795898h-1.01953z"/></g><g fill="#231f20"><path d="m151.0332 84.179199c0.50391-0.08398 1.16407-0.155762 2.00293-0.155762 1.03223 0 1.78711 0.239747 2.26758 0.671875 0.44336 0.38379 0.70703 0.971192 0.70703 1.690918 0 0.731446-0.21582 1.307129-0.62402 1.727051-0.55078 0.587403-1.45117 0.887696-2.46973 0.887696-0.3125 0-0.60058-0.01221-0.83984-0.07227v3.238281h-1.04395zm1.04395 3.897949c0.22754 0.06006 0.51562 0.08399 0.86328 0.08399 1.25977 0 2.02734-0.611817 2.02734-1.727051 0-1.067383-0.75586-1.583008-1.90722-1.583008-0.45606 0-0.80371 0.03613-0.9834 0.08398z"/><path d="m156.99805 87.321777c0-0.443847 0.2998-0.755859 0.71972-0.755859 0.41895 0 0.69532 0.312012 0.70703 0.755859 0 0.419434-0.27539 0.743653-0.71972 0.743653-0.41992 0-0.70703-0.324219-0.70703-0.743653zm0 4.233399c0-0.443848 0.2998-0.755371 0.71972-0.755371 0.41895 0 0.69532 0.311523 0.70703 0.755371 0 0.419922-0.27539 0.743652-0.71972 0.743652-0.41992 0-0.70703-0.32373-0.70703-0.743652z"/><path d="m161.98926 89.648437c-0.0479-1.199218 0.59961-1.811035 1.42676-1.811035 0.5039 0 0.88769 0.155762 1.6914 0.539551 0.61133 0.288086 1.05567 0.503906 1.49903 0.503906 0.43164 0 0.63574-0.347656 0.64746-1.007324h0.71972c0.0605 1.343262-0.63574 1.811035-1.3789 1.811035-0.4795 0-0.91211-0.144043-1.73926-0.527832-0.56348-0.275879-1.00781-0.527832-1.43945-0.527832-0.43165 0-0.69532 0.299805-0.71973 1.019531z"/><path d="m169.09375 92.166992v-0.647461l0.82715-0.803711c1.99121-1.895019 2.89062-2.902343 2.90234-4.077636 0-0.791504-0.38379-1.523438-1.54687-1.523438-0.70801 0-1.2959 0.359863-1.65528 0.659668l-0.33593-0.743652c0.54004-0.455567 1.30761-0.791504 2.20703-0.791504 1.67871 0 2.38672 1.151367 2.38672 2.266601 0 1.439453-1.04395 2.603028-2.68653 4.186036l-0.62402 0.575683v0.02393h3.50195v0.875488z"/><path d="m175.33398 91.543457c0-0.443848 0.29981-0.755859 0.71973-0.755859 0.41895 0 0.70703 0.312011 0.70703 0.755859 0 0.431641-0.27539 0.755371-0.71972 0.755371-0.41993 0-0.70704-0.32373-0.70704-0.755371z"/><path d="m182.91406 88.185059c0 2.650878-0.9834 4.113769-2.70996 4.113769-1.52344 0-2.55469-1.427246-2.5791-4.005859 0-2.614258 1.12793-4.053711 2.71094-4.053711 1.64258 0 2.57812 1.463379 2.57812 3.945801zm-4.2334 0.120117c0 2.026855 0.62305 3.178222 1.58301 3.178222 1.0791 0 1.59473-1.259277 1.59473-3.25 0-1.918945-0.49121-3.178711-1.58301-3.178711-0.92285 0-1.59473 1.127442-1.59473 3.250489z"/><path d="m183.97363 91.543457c0-0.443848 0.29981-0.755859 0.71875-0.755859 0.41992 0 0.70801 0.312011 0.70801 0.755859 0 0.431641-0.27539 0.755371-0.71973 0.755371-0.41992 0-0.70703-0.32373-0.70703-0.755371z"/><path d="m186.37305 92.166992v-0.647461l0.82715-0.803711c1.99121-1.895019 2.89062-2.902343 2.90234-4.077636 0-0.791504-0.38379-1.523438-1.54688-1.523438-0.708 0-1.29589 0.359863-1.65527 0.659668l-0.33594-0.743652c0.54004-0.455567 1.30762-0.791504 2.20703-0.791504 1.67872 0 2.38672 1.151367 2.38672 2.266601 0 1.439453-1.04394 2.603028-2.68652 4.186036l-0.62402 0.575683v0.02393h3.50195v0.875488z"/></g></g></svg>
