<?xml version="1.0" encoding="UTF-8"?><svg xmlns="http://www.w3.org/2000/svg" viewBox="0 0 560.849283854 308.166778564"><g id="a"><rect id="b" x="27" y="1.055664062" width="432" height="9" fill="none"/></g><g id="c"><g id="d"><g id="e"><g><line x1="91.333335876" y1="1.055664062" x2="91.333335876" y2="7.055664062" fill="none" stroke="#929497" stroke-miterlimit="10" stroke-width="2"/><line x1="91.333335876" y1="18.664352417" x2="91.333335876" y2="268.251312256" fill="none" stroke="#929497" stroke-dasharray="0 0 11.608695984 11.608695984" stroke-miterlimit="10" stroke-width="2"/><line x1="91.333335876" y1="274.055664062" x2="91.333335876" y2="280.055664062" fill="none" stroke="#929497" stroke-miterlimit="10" stroke-width="2"/></g></g><g><line x1="50.666664124" y1="114.722335815" x2="110.511672974" y2="65.000366211" fill="none" stroke="#3975bb" stroke-miterlimit="10" stroke-width="1.5"/><polygon points="110.860870361 68.67628479 117.666671753 59.055664062 106.96194458 63.983581543 110.860870361 68.67628479" fill="#3975bb"/></g><g><line x1="49.333335876" y1="131.722335815" x2="109.60647583" y2="177.743713379" fill="none" stroke="#3975bb" stroke-miterlimit="10" stroke-width="1.5"/><polygon points="106.101608276 178.905670166 117 183.389007568 109.804153442 174.056518555 106.101608276 178.905670166" fill="#3975bb"/></g><g><path d="M163,71.277893066c18.296264648,25.790222168,54.788635254,41.002929688,71.595703125,46.915771484" fill="none" stroke="#3975bb" stroke-miterlimit="10" stroke-width="1.5"/><polygon points="231.677642822 120.409225464 243.444458008 121.055664062 233.577850342 114.611618042 231.677642822 120.409225464" fill="#3975bb"/></g><g><line x1="188.333328247" y1="59.38899231" x2="243.531005859" y2="59.38899231" fill="none" stroke="#3975bb" stroke-miterlimit="10" stroke-width="1.5"/><polygon points="241.450469971 62.439529419 252.833343506 59.38899231 241.450469971 56.338470459 241.450469971 62.439529419" fill="#3975bb"/></g><g><path d="M372.833343506,58.222335815c-3.58013916,55.881103516-82.319610596,4.620178223-92.706085205,41.594940186" fill="none" stroke="#549445" stroke-miterlimit="10" stroke-width="1.5"/><polygon points="277.554138184 97.360168457 279 109.055664062 283.596496582 98.20451355 277.554138184 97.360168457" fill="#549445"/></g><g><path d="M343.870117188,20.776367188c-.875,1.175292969-1.510742188,2.734375-1.510742188,4.905273438,0,2.134765625,.659179688,3.669921875,1.510742188,4.869140625h-.827148438c-.755859375-.995605469-1.571289062-2.530761719-1.571289062-4.869140625,.01171875-2.362792969,.815429688-3.897949219,1.571289062-4.905273438h.827148438Z" fill="#231f20"/><path d="M344.98828125,25.189941406c0-.743652344-.024414062-1.343261719-.048828125-1.895019531h.948242188l.047851562,.995117188h.0234375c.431640625-.707519531,1.115234375-1.126953125,2.063476562-1.126953125,1.403320312,0,2.458007812,1.187011719,2.458007812,2.950195312,0,2.086914062-1.270507812,3.118164062-2.638671875,3.118164062-.767578125,0-1.438476562-.3359375-1.786132812-.911621094h-.024414062v3.154296875h-1.04296875v-6.284179688Zm1.04296875,1.546875c0,.155761719,.024414062,.299804688,.047851562,.431640625,.192382812,.731933594,.828125,1.235351562,1.583007812,1.235351562,1.115234375,0,1.763671875-.911132812,1.763671875-2.242675781,0-1.163085938-.612304688-2.158691406-1.727539062-2.158691406-.719726562,0-1.391601562,.515625-1.594726562,1.307128906-.036132812,.131835938-.072265625,.288085938-.072265625,.431640625v.995605469Z" fill="#231f20"/><path d="M352.403320312,26.389160156c.024414062,1.427246094,.935546875,2.014648438,1.991210938,2.014648438,.755859375,0,1.2109375-.131835938,1.607421875-.299804688l.1796875,.755859375c-.372070312,.16796875-1.0078125,.359863281-1.930664062,.359863281-1.787109375,0-2.854492188-1.17578125-2.854492188-2.926757812s1.03125-3.129882812,2.72265625-3.129882812c1.89453125,0,2.3984375,1.666992188,2.3984375,2.734375,0,.215820312-.024414062,.383789062-.036132812,.491699219h-4.078125Zm3.094726562-.755859375c.01171875-.671386719-.276367188-1.71484375-1.462890625-1.71484375-1.067382812,0-1.53515625,.983398438-1.619140625,1.71484375h3.08203125Z" fill="#231f20"/><path d="M358.415039062,26.389160156c.024414062,1.427246094,.935546875,2.014648438,1.991210938,2.014648438,.755859375,0,1.2109375-.131835938,1.607421875-.299804688l.1796875,.755859375c-.372070312,.16796875-1.0078125,.359863281-1.930664062,.359863281-1.787109375,0-2.854492188-1.17578125-2.854492188-2.926757812s1.03125-3.129882812,2.72265625-3.129882812c1.89453125,0,2.3984375,1.666992188,2.3984375,2.734375,0,.215820312-.024414062,.383789062-.036132812,.491699219h-4.078125Zm3.094726562-.755859375c.01171875-.671386719-.276367188-1.71484375-1.462890625-1.71484375-1.067382812,0-1.53515625,.983398438-1.619140625,1.71484375h3.08203125Z" fill="#231f20"/><path d="M363.83984375,25.105957031c0-.68359375-.012695312-1.271484375-.048828125-1.811035156h.923828125l.036132812,1.139160156h.047851562c.263671875-.779296875,.899414062-1.270996094,1.607421875-1.270996094,.120117188,0,.203125,.01171875,.299804688,.035644531v.995605469c-.108398438-.023925781-.215820312-.036132812-.360351562-.036132812-.743164062,0-1.271484375,.563964844-1.415039062,1.35546875-.0234375,.144042969-.047851562,.311523438-.047851562,.491699219v3.094238281h-1.04296875v-3.993652344Z" fill="#231f20"/><path d="M367.127929688,30.55078125c.8515625-1.1875,1.510742188-2.746582031,1.510742188-4.905273438,0-2.146972656-.647460938-3.682128906-1.510742188-4.869140625h.815429688c.767578125,.983398438,1.571289062,2.518554688,1.571289062,4.881347656,0,2.350585938-.803710938,3.873535156-1.571289062,4.893066406h-.815429688Z" fill="#231f20"/><path d="M335.477539062,35.51171875c.50390625-.083984375,1.1640625-.155761719,2.002929688-.155761719,1.032226562,0,1.787109375,.239746094,2.267578125,.671875,.443359375,.383789062,.70703125,.971191406,.70703125,1.690917969,0,.731445312-.215820312,1.307128906-.624023438,1.727050781-.55078125,.587402344-1.451171875,.887207031-2.469726562,.887207031-.3125,0-.600585938-.01171875-.83984375-.071777344v3.23828125h-1.043945312v-7.987792969Zm1.043945312,3.897949219c.227539062,.060058594,.515625,.083984375,.86328125,.083984375,1.259765625,0,2.02734375-.611816406,2.02734375-1.727050781,0-1.067382812-.755859375-1.583007812-1.907226562-1.583007812-.456054688,0-.803710938,.036132812-.983398438,.083984375v3.142089844Z" fill="#231f20"/><path d="M341.442382812,38.654296875c0-.443847656,.299804688-.755859375,.719726562-.755859375,.418945312,0,.6953125,.312011719,.70703125,.755859375,0,.419433594-.275390625,.743652344-.719726562,.743652344-.419921875,0-.70703125-.32421875-.70703125-.743652344Zm0,4.233398438c0-.443359375,.299804688-.755371094,.719726562-.755371094,.418945312,0,.6953125,.312011719,.70703125,.755371094,0,.419921875-.275390625,.743652344-.719726562,.743652344-.419921875,0-.70703125-.323730469-.70703125-.743652344Z" fill="#231f20"/><path d="M351.434570312,41.232910156l-2.002929688-4.653808594h-.0234375l-2.002929688,4.653808594h-.83984375l2.482421875-5.529296875h.744140625l2.482421875,5.529296875h-.83984375Z" fill="#231f20"/><path d="M353.538085938,43.499511719v-.647460938l.827148438-.803710938c1.991210938-1.895019531,2.890625-2.90234375,2.90234375-4.077636719,0-.791503906-.383789062-1.5234375-1.546875-1.5234375-.708007812,0-1.295898438,.359863281-1.655273438,.659667969l-.3359375-.743652344c.540039062-.455566406,1.307617188-.791503906,2.20703125-.791503906,1.678710938,0,2.38671875,1.151367188,2.38671875,2.267089844,0,1.438964844-1.043945312,2.602539062-2.686523438,4.185546875l-.624023438,.575683594v.023925781h3.501953125v.875488281h-4.9765625Z" fill="#231f20"/><path d="M359.778320312,42.875976562c0-.443847656,.299804688-.755859375,.719726562-.755859375,.418945312,0,.70703125,.312011719,.70703125,.755859375,0,.431640625-.275390625,.755371094-.719726562,.755371094-.419921875,0-.70703125-.323730469-.70703125-.755371094Z" fill="#231f20"/><path d="M367.358398438,39.517578125c0,2.650878906-.983398438,4.113769531-2.709960938,4.113769531-1.5234375,0-2.5546875-1.427246094-2.579101562-4.005859375,0-2.614257812,1.127929688-4.053710938,2.7109375-4.053710938,1.642578125,0,2.578125,1.463378906,2.578125,3.945800781Zm-4.233398438,.120117188c0,2.026855469,.623046875,3.178222656,1.583007812,3.178222656,1.079101562,0,1.594726562-1.259277344,1.594726562-3.250488281,0-1.918945312-.491210938-3.178222656-1.583007812-3.178222656-.922851562,0-1.594726562,1.127441406-1.594726562,3.250488281Z" fill="#231f20"/><path d="M368.41796875,42.875976562c0-.443847656,.299804688-.755859375,.71875-.755859375,.419921875,0,.708007812,.312011719,.708007812,.755859375,0,.431640625-.275390625,.755371094-.719726562,.755371094-.419921875,0-.70703125-.323730469-.70703125-.755371094Z" fill="#231f20"/><path d="M375.998046875,39.517578125c0,2.650878906-.983398438,4.113769531-2.709960938,4.113769531-1.5234375,0-2.5546875-1.427246094-2.579101562-4.005859375,0-2.614257812,1.127929688-4.053710938,2.7109375-4.053710938,1.642578125,0,2.578125,1.463378906,2.578125,3.945800781Zm-4.233398438,.120117188c0,2.026855469,.624023438,3.178222656,1.583007812,3.178222656,1.079101562,0,1.594726562-1.259277344,1.594726562-3.250488281,0-1.918945312-.491210938-3.178222656-1.583007812-3.178222656-.922851562,0-1.594726562,1.127441406-1.594726562,3.250488281Z" fill="#231f20"/></g><g><line x1="332.777770996" y1="58.88899231" x2="373.143829346" y2="58.88899231" fill="none" stroke="#549445" stroke-miterlimit="10" stroke-width="1.5"/><g><circle cx="372.888259888" cy="58.888996124" r="4.511737823" transform="translate(13.031032536 172.978189957) rotate(-26.56511706)" fill="#fff"/><path d="M372.888244629,64.000717163c-2.818328857,0-5.111694336-2.293365479-5.111694336-5.111724854,0-2.818344116,2.293365479-5.111724854,5.111694336-5.111724854,2.81842041,0,5.111755371,2.293380737,5.111755371,5.111724854,0,2.818359375-2.293334961,5.111724854-5.111755371,5.111724854-2.818328857,0,2.81842041,0,0,0Zm0-9.0234375c-2.15737915,0-3.911682129,1.754302979-3.911682129,3.911712646,0,2.157424927,1.754302979,3.911727905,3.911682129,3.911727905,2.157470703,0,3.911743164-1.754302979,3.911743164-3.911727905,0-2.157409668-1.754272461-3.911712646-3.911743164-3.911712646-2.15737915,0,2.157470703,0,0,0Z" fill="#549445"/></g></g><g><path d="M163,197.277893066c18.296264648,25.790222168,54.788635254,41.002929688,71.595703125,46.915771484" fill="none" stroke="#3975bb" stroke-miterlimit="10" stroke-width="1.5"/><polygon points="231.677642822 246.409225464 243.444458008 247.055664062 233.577850342 240.611618042 231.677642822 246.409225464" fill="#3975bb"/></g><g><line x1="188.333328247" y1="185.38899231" x2="243.531005859" y2="185.38899231" fill="none" stroke="#3975bb" stroke-miterlimit="10" stroke-width="1.5"/><polygon points="241.450469971 188.439529419 252.833343506 185.38899231 241.450469971 182.338470459 241.450469971 188.439529419" fill="#3975bb"/></g><g><path d="M372.833343506,184.222335815c-3.58013916,55.881103516-82.319610596,4.620178223-92.706085205,41.594940186" fill="none" stroke="#549445" stroke-miterlimit="10" stroke-width="1.5"/><polygon points="277.554138184 223.360168457 279 235.055664062 283.596496582 224.20451355 277.554138184 223.360168457" fill="#549445"/></g><g><path d="M343.870117188,146.776367188c-.875,1.175292969-1.510742188,2.734375-1.510742188,4.905273438,0,2.134765625,.659179688,3.669921875,1.510742188,4.869140625h-.827148438c-.755859375-.995605469-1.571289062-2.530761719-1.571289062-4.869140625,.01171875-2.362792969,.815429688-3.897949219,1.571289062-4.905273438h.827148438Z" fill="#231f20"/><path d="M344.98828125,151.189941406c0-.743652344-.024414062-1.343261719-.048828125-1.895019531h.948242188l.047851562,.995117188h.0234375c.431640625-.707519531,1.115234375-1.126953125,2.063476562-1.126953125,1.403320312,0,2.458007812,1.187011719,2.458007812,2.950195312,0,2.086914062-1.270507812,3.118164062-2.638671875,3.118164062-.767578125,0-1.438476562-.3359375-1.786132812-.911621094h-.024414062v3.154296875h-1.04296875v-6.284179688Zm1.04296875,1.546875c0,.155761719,.024414062,.299804688,.047851562,.431640625,.192382812,.731933594,.828125,1.235351562,1.583007812,1.235351562,1.115234375,0,1.763671875-.911132812,1.763671875-2.242675781,0-1.163085938-.612304688-2.158691406-1.727539062-2.158691406-.719726562,0-1.391601562,.515625-1.594726562,1.307128906-.036132812,.131835938-.072265625,.288085938-.072265625,.431640625v.995605469Z" fill="#231f20"/><path d="M352.403320312,152.389160156c.024414062,1.427246094,.935546875,2.014648438,1.991210938,2.014648438,.755859375,0,1.2109375-.131835938,1.607421875-.299804688l.1796875,.755859375c-.372070312,.16796875-1.0078125,.359863281-1.930664062,.359863281-1.787109375,0-2.854492188-1.17578125-2.854492188-2.926757812s1.03125-3.129882812,2.72265625-3.129882812c1.89453125,0,2.3984375,1.666992188,2.3984375,2.734375,0,.215820312-.024414062,.383789062-.036132812,.491699219h-4.078125Zm3.094726562-.755859375c.01171875-.671386719-.276367188-1.71484375-1.462890625-1.71484375-1.067382812,0-1.53515625,.983398438-1.619140625,1.71484375h3.08203125Z" fill="#231f20"/><path d="M358.415039062,152.389160156c.024414062,1.427246094,.935546875,2.014648438,1.991210938,2.014648438,.755859375,0,1.2109375-.131835938,1.607421875-.299804688l.1796875,.755859375c-.372070312,.16796875-1.0078125,.359863281-1.930664062,.359863281-1.787109375,0-2.854492188-1.17578125-2.854492188-2.926757812s1.03125-3.129882812,2.72265625-3.129882812c1.89453125,0,2.3984375,1.666992188,2.3984375,2.734375,0,.215820312-.024414062,.383789062-.036132812,.491699219h-4.078125Zm3.094726562-.755859375c.01171875-.671386719-.276367188-1.71484375-1.462890625-1.71484375-1.067382812,0-1.53515625,.983398438-1.619140625,1.71484375h3.08203125Z" fill="#231f20"/><path d="M363.83984375,151.105957031c0-.68359375-.012695312-1.271484375-.048828125-1.811035156h.923828125l.036132812,1.139160156h.047851562c.263671875-.779296875,.899414062-1.270996094,1.607421875-1.270996094,.120117188,0,.203125,.01171875,.299804688,.035644531v.995605469c-.108398438-.023925781-.215820312-.036132812-.360351562-.036132812-.743164062,0-1.271484375,.563964844-1.415039062,1.35546875-.0234375,.144042969-.047851562,.311523438-.047851562,.491699219v3.094238281h-1.04296875v-3.993652344Z" fill="#231f20"/><path d="M367.127929688,156.55078125c.8515625-1.1875,1.510742188-2.746582031,1.510742188-4.905273438,0-2.146972656-.647460938-3.682128906-1.510742188-4.869140625h.815429688c.767578125,.983398438,1.571289062,2.518554688,1.571289062,4.881347656,0,2.350585938-.803710938,3.873535156-1.571289062,4.893066406h-.815429688Z" fill="#231f20"/><path d="M335.477539062,161.51171875c.50390625-.083984375,1.1640625-.155761719,2.002929688-.155761719,1.032226562,0,1.787109375,.239746094,2.267578125,.671875,.443359375,.383789062,.70703125,.971191406,.70703125,1.690917969,0,.731445312-.215820312,1.307128906-.624023438,1.727050781-.55078125,.587402344-1.451171875,.887207031-2.469726562,.887207031-.3125,0-.600585938-.01171875-.83984375-.071777344v3.23828125h-1.043945312v-7.987792969Zm1.043945312,3.897949219c.227539062,.060058594,.515625,.083984375,.86328125,.083984375,1.259765625,0,2.02734375-.611816406,2.02734375-1.727050781,0-1.067382812-.755859375-1.583007812-1.907226562-1.583007812-.456054688,0-.803710938,.036132812-.983398438,.083984375v3.142089844Z" fill="#231f20"/><path d="M341.442382812,164.654296875c0-.443847656,.299804688-.755859375,.719726562-.755859375,.418945312,0,.6953125,.312011719,.70703125,.755859375,0,.419433594-.275390625,.743652344-.719726562,.743652344-.419921875,0-.70703125-.32421875-.70703125-.743652344Zm0,4.233398438c0-.443359375,.299804688-.755371094,.719726562-.755371094,.418945312,0,.6953125,.312011719,.70703125,.755371094,0,.419921875-.275390625,.743652344-.719726562,.743652344-.419921875,0-.70703125-.323730469-.70703125-.743652344Z" fill="#231f20"/><path d="M351.434570312,167.232910156l-2.002929688-4.653808594h-.0234375l-2.002929688,4.653808594h-.83984375l2.482421875-5.529296875h.744140625l2.482421875,5.529296875h-.83984375Z" fill="#231f20"/><path d="M353.538085938,169.499511719v-.647460938l.827148438-.803710938c1.991210938-1.895019531,2.890625-2.90234375,2.90234375-4.077636719,0-.791503906-.383789062-1.5234375-1.546875-1.5234375-.708007812,0-1.295898438,.359863281-1.655273438,.659667969l-.3359375-.743652344c.540039062-.455566406,1.307617188-.791503906,2.20703125-.791503906,1.678710938,0,2.38671875,1.151367188,2.38671875,2.267089844,0,1.438964844-1.043945312,2.602539062-2.686523438,4.185546875l-.624023438,.575683594v.023925781h3.501953125v.875488281h-4.9765625Z" fill="#231f20"/><path d="M359.778320312,168.875976562c0-.443847656,.299804688-.755859375,.719726562-.755859375,.418945312,0,.70703125,.312011719,.70703125,.755859375,0,.431640625-.275390625,.755371094-.719726562,.755371094-.419921875,0-.70703125-.323730469-.70703125-.755371094Z" fill="#231f20"/><path d="M367.358398438,165.517578125c0,2.650878906-.983398438,4.113769531-2.709960938,4.113769531-1.5234375,0-2.5546875-1.427246094-2.579101562-4.005859375,0-2.614257812,1.127929688-4.053710938,2.7109375-4.053710938,1.642578125,0,2.578125,1.463378906,2.578125,3.945800781Zm-4.233398438,.120117188c0,2.026855469,.623046875,3.178222656,1.583007812,3.178222656,1.079101562,0,1.594726562-1.259277344,1.594726562-3.250488281,0-1.918945312-.491210938-3.178222656-1.583007812-3.178222656-.922851562,0-1.594726562,1.127441406-1.594726562,3.250488281Z" fill="#231f20"/><path d="M368.41796875,168.875976562c0-.443847656,.299804688-.755859375,.71875-.755859375,.419921875,0,.708007812,.312011719,.708007812,.755859375,0,.431640625-.275390625,.755371094-.719726562,.755371094-.419921875,0-.70703125-.323730469-.70703125-.755371094Z" fill="#231f20"/><path d="M375.998046875,165.517578125c0,2.650878906-.983398438,4.113769531-2.709960938,4.113769531-1.5234375,0-2.5546875-1.427246094-2.579101562-4.005859375,0-2.614257812,1.127929688-4.053710938,2.7109375-4.053710938,1.642578125,0,2.578125,1.463378906,2.578125,3.945800781Zm-4.233398438,.120117188c0,2.026855469,.624023438,3.178222656,1.583007812,3.178222656,1.079101562,0,1.594726562-1.259277344,1.594726562-3.250488281,0-1.918945312-.491210938-3.178222656-1.583007812-3.178222656-.922851562,0-1.594726562,1.127441406-1.594726562,3.250488281Z" fill="#231f20"/></g><g><line x1="332.777770996" y1="184.88899231" x2="373.143829346" y2="184.88899231" fill="none" stroke="#549445" stroke-miterlimit="10" stroke-width="1.5"/><g><circle cx="372.888259888" cy="184.888996124" r="4.511737823" transform="translate(-43.318010086 186.280428686) rotate(-26.56511706)" fill="#fff"/><path d="M372.888244629,190.000717163c-2.818328857,0-5.111694336-2.293365479-5.111694336-5.111724854,0-2.818344116,2.293365479-5.111724854,5.111694336-5.111724854,2.81842041,0,5.111755371,2.293380737,5.111755371,5.111724854,0,2.818359375-2.293334961,5.111724854-5.111755371,5.111724854-2.818328857,0,2.81842041,0,0,0Zm0-9.0234375c-2.15737915,0-3.911682129,1.754302979-3.911682129,3.911712646,0,2.157424927,1.754302979,3.911727905,3.911682129,3.911727905,2.157470703,0,3.911743164-1.754302979,3.911743164-3.911727905,0-2.157409668-1.754272461-3.911712646-3.911743164-3.911712646-2.15737915,0,2.157470703,0,0,0Z" fill="#549445"/></g></g></g><g id="f"><g><g><circle cx="40.5" cy="122.555664062" r="12.75" fill="#fff"/><path d="M40.5,110.555664062c6.616821289,0,12,5.383178711,12,12s-5.383178711,12-12,12-12-5.383178711-12-12,5.383178711-12,12-12m0-1.5c-7.455841064,0-13.5,6.044158936-13.5,13.5s6.044158936,13.5,13.5,13.5,13.5-6.044158936,13.5-13.5-6.044158936-13.5-13.5-13.5h0Z" fill="#231f20"/></g><path d="M39.23828125,124.500976562l-.575683594,2.074707031h-1.89453125l2.470214844-8.083496094h2.398925781l2.506347656,8.083496094h-1.966796875l-.623535156-2.074707031h-2.314941406Zm2.051269531-1.3671875l-.50390625-1.715332031c-.144042969-.479492188-.287597656-1.079589844-.407714844-1.559082031h-.023925781c-.120117188,.479492188-.239746094,1.091308594-.372070312,1.559082031l-.479492188,1.715332031h1.787109375Z" fill="#231f20"/></g><g><g><rect x="243.75" y="109.805664062" width="70.5" height="25.5" fill="#fff"/><path d="M313.5,110.555664062v24h-69v-24h69m1.5-1.5h-72v27h72v-27h0Z" fill="#231f20"/></g><g><path d="M258.575683594,118.600097656c.563964844-.096191406,1.35546875-.16796875,2.470703125-.16796875,1.127441406,0,1.931152344,.215820312,2.470703125,.647460938,.515625,.408203125,.86328125,1.079589844,.86328125,1.87109375s-.263671875,1.463378906-.743652344,1.918945312c-.623535156,.587890625-1.546875,.8515625-2.626464844,.8515625-.239746094,0-.455566406-.01171875-.623535156-.036132812v2.890625h-1.811035156v-7.975585938Zm1.811035156,3.669921875c.155761719,.036132812,.34765625,.047851562,.611816406,.047851562,.971191406,0,1.570800781-.491699219,1.570800781-1.319335938,0-.743164062-.515625-1.187011719-1.426757812-1.187011719-.372070312,0-.624023438,.035644531-.755859375,.071777344v2.38671875Z" fill="#231f20"/><path d="M271.3046875,127.391113281c-.720214844,.323730469-1.34375,.432128906-2.1953125,.432128906-1.990722656,0-3.741699219-1.427246094-3.741699219-3.778320312,0-2.446289062,1.774902344-4.569335938,4.485351562-4.569335938,2.110839844,0,3.621582031,1.451171875,3.621582031,3.466308594,0,1.750976562-.982421875,2.854003906-2.278320312,2.854003906-.563476562,0-.971679688-.287597656-1.03125-.923339844h-.023925781c-.372070312,.611816406-.911621094,.923339844-1.547363281,.923339844-.779785156,0-1.343261719-.575683594-1.343261719-1.559082031,0-1.462890625,1.079589844-2.794433594,2.806640625-2.794433594,.52734375,0,1.127441406,.131835938,1.427246094,.299804688l-.359375,2.21875c-.12109375,.708007812-.037109375,1.031738281,.298828125,1.043457031,.515625,.012207031,1.1640625-.647460938,1.1640625-2.026855469,0-1.559082031-1.0078125-2.770507812-2.866699219-2.770507812-1.834960938,0-3.442382812,1.439453125-3.442382812,3.729980469,0,2.002929688,1.283691406,3.142578125,3.0703125,3.142578125,.611816406,0,1.259277344-.132324219,1.738769531-.383789062l.216796875,.6953125Zm-1.067871094-4.953125c-.095703125-.023925781-.215820312-.047851562-.371582031-.047851562-.791992188,0-1.415527344,.779296875-1.415527344,1.703125,0,.455566406,.204101562,.743164062,.599609375,.743164062,.443847656,0,.911621094-.563476562,1.01953125-1.259277344l.16796875-1.139160156Z" fill="#231f20"/><path d="M274.5,126.575683594v-1.103515625l1.006835938-.911621094c1.703125-1.522949219,2.530273438-2.3984375,2.5546875-3.310058594,0-.635742188-.383789062-1.139160156-1.283203125-1.139160156-.671875,0-1.259765625,.3359375-1.666992188,.647460938l-.515625-1.307128906c.587890625-.443847656,1.498046875-.803710938,2.5546875-.803710938,1.762695312,0,2.734375,1.031738281,2.734375,2.446777344,0,1.307128906-.947265625,2.350585938-2.075195312,3.357910156l-.719726562,.600097656v.023925781h2.938476562v1.499023438h-5.528320312Z" fill="#231f20"/><path d="M281.254882812,125.604003906c0-.647460938,.443359375-1.115234375,1.079101562-1.115234375s1.067382812,.455566406,1.067382812,1.115234375c0,.635742188-.431640625,1.103515625-1.079101562,1.103515625-.624023438,0-1.067382812-.467773438-1.067382812-1.103515625Z" fill="#231f20"/><path d="M290.036132812,122.641601562c0,2.411132812-.971679688,4.065917969-2.962890625,4.065917969-2.014648438,0-2.90234375-1.811035156-2.9140625-4.017578125,0-2.254882812,.959960938-4.041992188,2.974609375-4.041992188,2.086914062,0,2.90234375,1.858886719,2.90234375,3.993652344Zm-4.041992188,.048339844c-.01171875,1.787109375,.419921875,2.638183594,1.126953125,2.638183594,.708007812,0,1.091796875-.887207031,1.091796875-2.662109375,0-1.727050781-.372070312-2.638671875-1.103515625-2.638671875-.671875,0-1.126953125,.8515625-1.115234375,2.662597656Z" fill="#231f20"/><path d="M291.03515625,125.604003906c0-.647460938,.443359375-1.115234375,1.079101562-1.115234375s1.067382812,.455566406,1.067382812,1.115234375c0,.635742188-.431640625,1.103515625-1.079101562,1.103515625-.624023438,0-1.067382812-.467773438-1.067382812-1.103515625Z" fill="#231f20"/><path d="M294.3828125,124.788574219c.32421875,.16796875,1.067382812,.479980469,1.811523438,.479980469,.947265625,0,1.426757812-.456054688,1.426757812-1.043457031,0-.767578125-.767578125-1.115722656-1.5703125-1.115722656h-.744140625v-1.307128906h.708007812c.611328125-.01171875,1.390625-.239746094,1.390625-.899414062,0-.467773438-.383789062-.815429688-1.151367188-.815429688-.635742188,0-1.306640625,.275878906-1.630859375,.467773438l-.372070312-1.319335938c.467773438-.299804688,1.403320312-.587890625,2.411132812-.587890625,1.666992188,0,2.590820312,.875488281,2.590820312,1.942871094,0,.827636719-.467773438,1.475585938-1.427734375,1.811035156v.023925781c.935546875,.16796875,1.69140625,.875488281,1.69140625,1.895019531,0,1.379394531-1.211914062,2.38671875-3.190429688,2.38671875-1.0078125,0-1.859375-.263671875-2.314453125-.551757812l.37109375-1.3671875Z" fill="#231f20"/></g></g><g><g><rect x="117.75" y="46.805664062" width="70.5" height="25.5" fill="#fff"/><path d="M187.5,47.555664062v24H118.5v-24h69m1.5-1.5H117v27h72v-27h0Z" fill="#231f20"/></g><g><path d="M132.881835938,61.692871094c.491699219,.251464844,1.247070312,.503417969,2.026855469,.503417969,.839355469,0,1.283203125-.34765625,1.283203125-.875488281,0-.503417969-.383789062-.791503906-1.354980469-1.139160156-1.343261719-.467773438-2.21875-1.211425781-2.21875-2.38671875,0-1.379394531,1.151367188-2.434570312,3.058105469-2.434570312,.911621094,0,1.583007812,.191894531,2.062988281,.407714844l-.407714844,1.475097656c-.32421875-.155761719-.899902344-.383789062-1.69140625-.383789062s-1.175292969,.359863281-1.175292969,.779785156c0,.515625,.456054688,.743164062,1.499023438,1.139160156,1.427246094,.527832031,2.099121094,1.271484375,2.099121094,2.410644531,0,1.35546875-1.043457031,2.506835938-3.262207031,2.506835938-.923339844,0-1.834960938-.240234375-2.291015625-.491699219l.372070312-1.511230469Z" fill="#231f20"/><path d="M145.05859375,64.391113281c-.719726562,.323730469-1.343261719,.432128906-2.194824219,.432128906-1.990722656,0-3.741699219-1.427246094-3.741699219-3.778320312,0-2.446289062,1.774902344-4.569335938,4.485351562-4.569335938,2.110839844,0,3.622070312,1.451171875,3.622070312,3.466308594,0,1.750976562-.983398438,2.854003906-2.278808594,2.854003906-.563476562,0-.971191406-.287597656-1.03125-.923339844h-.023925781c-.372070312,.611816406-.911621094,.923339844-1.547363281,.923339844-.779785156,0-1.343261719-.575683594-1.343261719-1.559082031,0-1.462890625,1.079589844-2.794433594,2.806640625-2.794433594,.52734375,0,1.126953125,.131835938,1.427246094,.299804688l-.359863281,2.21875c-.120117188,.708007812-.036132812,1.031738281,.299804688,1.043457031,.515625,.012207031,1.163085938-.647460938,1.163085938-2.026855469,0-1.559082031-1.007324219-2.770507812-2.866210938-2.770507812-1.834960938,0-3.442382812,1.439453125-3.442382812,3.729980469,0,2.002929688,1.283691406,3.142578125,3.0703125,3.142578125,.611816406,0,1.259765625-.132324219,1.739257812-.383789062l.215820312,.6953125Zm-1.067382812-4.953125c-.095703125-.023925781-.215820312-.047851562-.371582031-.047851562-.791503906,0-1.415527344,.779296875-1.415527344,1.703125,0,.455566406,.204101562,.743164062,.599609375,.743164062,.443847656,0,.911621094-.563476562,1.01953125-1.259277344l.16796875-1.139160156Z" fill="#231f20"/><path d="M150.580566406,57.398925781h-.023925781l-1.487304688,.707519531-.299804688-1.3671875,2.062988281-.959472656h1.510742188v7.795898438h-1.762695312v-6.176757812Z" fill="#231f20"/><path d="M155.009765625,62.604003906c0-.647460938,.443359375-1.115234375,1.079101562-1.115234375s1.067382812,.455566406,1.067382812,1.115234375c0,.635742188-.431640625,1.103515625-1.079101562,1.103515625-.624023438,0-1.067382812-.467773438-1.067382812-1.103515625Z" fill="#231f20"/><path d="M163.791015625,59.641601562c0,2.411132812-.971679688,4.065917969-2.962890625,4.065917969-2.014648438,0-2.90234375-1.811035156-2.9140625-4.017578125,0-2.254882812,.958984375-4.041992188,2.974609375-4.041992188,2.086914062,0,2.90234375,1.858886719,2.90234375,3.993652344Zm-4.041992188,.048339844c-.01171875,1.787109375,.419921875,2.638183594,1.126953125,2.638183594,.708007812,0,1.091796875-.887207031,1.091796875-2.662109375,0-1.727050781-.372070312-2.638671875-1.103515625-2.638671875-.671875,0-1.126953125,.8515625-1.115234375,2.662597656Z" fill="#231f20"/><path d="M164.790039062,62.604003906c0-.647460938,.443359375-1.115234375,1.079101562-1.115234375s1.067382812,.455566406,1.067382812,1.115234375c0,.635742188-.431640625,1.103515625-1.079101562,1.103515625-.624023438,0-1.067382812-.467773438-1.067382812-1.103515625Z" fill="#231f20"/><path d="M173.571289062,59.641601562c0,2.411132812-.971679688,4.065917969-2.962890625,4.065917969-2.014648438,0-2.90234375-1.811035156-2.9140625-4.017578125,0-2.254882812,.959960938-4.041992188,2.974609375-4.041992188,2.086914062,0,2.90234375,1.858886719,2.90234375,3.993652344Zm-4.041992188,.048339844c-.01171875,1.787109375,.419921875,2.638183594,1.126953125,2.638183594,.708007812,0,1.091796875-.887207031,1.091796875-2.662109375,0-1.727050781-.372070312-2.638671875-1.103515625-2.638671875-.671875,0-1.126953125,.8515625-1.115234375,2.662597656Z" fill="#231f20"/></g></g><g><g><rect x="117.75" y="172.805664062" width="70.5" height="25.5" fill="#fff"/><path d="M187.5,173.555664062v24H118.5v-24h69m1.5-1.5H117v27h72v-27h0Z" fill="#231f20"/></g><g><path d="M134.333007812,183.02734375h-2.170898438v-1.53515625h6.212890625v1.53515625h-2.20703125v6.548339844h-1.834960938v-6.548339844Z" fill="#231f20"/><path d="M145.106445312,190.391113281c-.719726562,.323730469-1.343261719,.432128906-2.194824219,.432128906-1.990722656,0-3.741699219-1.427246094-3.741699219-3.778320312,0-2.446289062,1.774902344-4.569335938,4.485351562-4.569335938,2.110839844,0,3.622070312,1.451171875,3.622070312,3.466308594,0,1.750976562-.983398438,2.854003906-2.278808594,2.854003906-.563476562,0-.971191406-.287597656-1.03125-.923339844h-.023925781c-.372070312,.611816406-.911621094,.923339844-1.547363281,.923339844-.779785156,0-1.343261719-.575683594-1.343261719-1.559082031,0-1.462890625,1.079589844-2.794433594,2.806640625-2.794433594,.52734375,0,1.126953125,.131835938,1.427246094,.299804688l-.359863281,2.21875c-.120117188,.708007812-.036132812,1.031738281,.299804688,1.043457031,.515625,.012207031,1.163085938-.647460938,1.163085938-2.026855469,0-1.559082031-1.007324219-2.770507812-2.866210938-2.770507812-1.834960938,0-3.442382812,1.439453125-3.442382812,3.729980469,0,2.002929688,1.283691406,3.142578125,3.0703125,3.142578125,.611816406,0,1.259765625-.132324219,1.739257812-.383789062l.215820312,.6953125Zm-1.067382812-4.953125c-.095703125-.023925781-.215820312-.047851562-.371582031-.047851562-.791503906,0-1.415527344,.779296875-1.415527344,1.703125,0,.455566406,.204101562,.743164062,.599609375,.743164062,.443847656,0,.911621094-.563476562,1.01953125-1.259277344l.16796875-1.139160156Z" fill="#231f20"/><path d="M150.628417969,183.398925781h-.023925781l-1.487304688,.707519531-.299804688-1.3671875,2.062988281-.959472656h1.510742188v7.795898438h-1.762695312v-6.176757812Z" fill="#231f20"/><path d="M155.057617188,188.604003906c0-.647460938,.443359375-1.115234375,1.079101562-1.115234375s1.067382812,.455566406,1.067382812,1.115234375c0,.635742188-.431640625,1.103515625-1.079101562,1.103515625-.624023438,0-1.067382812-.467773438-1.067382812-1.103515625Z" fill="#231f20"/><path d="M163.838867188,185.641601562c0,2.411132812-.971679688,4.065917969-2.962890625,4.065917969-2.014648438,0-2.90234375-1.811035156-2.9140625-4.017578125,0-2.254882812,.959960938-4.041992188,2.974609375-4.041992188,2.086914062,0,2.90234375,1.858886719,2.90234375,3.993652344Zm-4.041992188,.048339844c-.01171875,1.787109375,.419921875,2.638183594,1.126953125,2.638183594,.708007812,0,1.091796875-.887207031,1.091796875-2.662109375,0-1.727050781-.372070312-2.638671875-1.103515625-2.638671875-.671875,0-1.126953125,.8515625-1.115234375,2.662597656Z" fill="#231f20"/><path d="M164.837890625,188.604003906c0-.647460938,.443359375-1.115234375,1.079101562-1.115234375s1.067382812,.455566406,1.067382812,1.115234375c0,.635742188-.431640625,1.103515625-1.079101562,1.103515625-.624023438,0-1.067382812-.467773438-1.067382812-1.103515625Z" fill="#231f20"/><path d="M173.619140625,185.641601562c0,2.411132812-.971679688,4.065917969-2.962890625,4.065917969-2.014648438,0-2.90234375-1.811035156-2.9140625-4.017578125,0-2.254882812,.958984375-4.041992188,2.974609375-4.041992188,2.086914062,0,2.90234375,1.858886719,2.90234375,3.993652344Zm-4.041992188,.048339844c-.01171875,1.787109375,.419921875,2.638183594,1.126953125,2.638183594,.708007812,0,1.091796875-.887207031,1.091796875-2.662109375,0-1.727050781-.372070312-2.638671875-1.103515625-2.638671875-.671875,0-1.126953125,.8515625-1.115234375,2.662597656Z" fill="#231f20"/></g></g><g><g><rect x="252.75" y="46.805664062" width="79.5" height="25.5" fill="#fff"/><path d="M331.5,47.555664062v24h-78v-24h78m1.5-1.5h-81v27h81v-27h0Z" fill="#231f20"/></g><g><path d="M268.352050781,64.966796875c-1.151367188-.3359375-2.110839844-.68359375-3.189941406-1.139160156-.180175781-.072265625-.372070312-.107910156-.563964844-.120117188-1.822753906-.119628906-3.525878906-1.462890625-3.525878906-4.1015625,0-2.422851562,1.53515625-4.245605469,3.945800781-4.245605469,2.470703125,0,3.825683594,1.870605469,3.825683594,4.077636719,0,1.834960938-.8515625,3.130371094-1.918945312,3.609863281v.047851562c.623535156,.180175781,1.319335938,.32421875,1.955078125,.456054688l-.527832031,1.415039062Zm-1.438964844-5.45703125c0-1.475097656-.695800781-2.698242188-1.943359375-2.698242188-1.247070312,0-1.966796875,1.223144531-1.966796875,2.734375-.01171875,1.53515625,.731933594,2.710449219,1.955078125,2.710449219,1.235351562,0,1.955078125-1.163085938,1.955078125-2.746582031Z" fill="#231f20"/><path d="M275.8046875,64.391113281c-.719726562,.323730469-1.34375,.432128906-2.1953125,.432128906-1.990234375,0-3.741210938-1.427246094-3.741210938-3.778320312,0-2.446289062,1.774414062-4.569335938,4.485351562-4.569335938,2.111328125,0,3.622070312,1.451171875,3.622070312,3.466308594,0,1.750976562-.983398438,2.854003906-2.278320312,2.854003906-.564453125,0-.971679688-.287597656-1.03125-.923339844h-.024414062c-.372070312,.611816406-.911132812,.923339844-1.547851562,.923339844-.779296875,0-1.342773438-.575683594-1.342773438-1.559082031,0-1.462890625,1.079101562-2.794433594,2.806640625-2.794433594,.52734375,0,1.126953125,.131835938,1.426757812,.299804688l-.359375,2.21875c-.120117188,.708007812-.036132812,1.031738281,.299804688,1.043457031,.515625,.012207031,1.163085938-.647460938,1.163085938-2.026855469,0-1.559082031-1.0078125-2.770507812-2.866210938-2.770507812-1.834960938,0-3.442382812,1.439453125-3.442382812,3.729980469,0,2.002929688,1.283203125,3.142578125,3.0703125,3.142578125,.611328125,0,1.259765625-.132324219,1.739257812-.383789062l.215820312,.6953125Zm-1.067382812-4.953125c-.095703125-.023925781-.215820312-.047851562-.372070312-.047851562-.791015625,0-1.415039062,.779296875-1.415039062,1.703125,0,.455566406,.204101562,.743164062,.599609375,.743164062,.444335938,0,.911132812-.563476562,1.01953125-1.259277344l.16796875-1.139160156Z" fill="#231f20"/><path d="M279.32421875,61.788574219c.323242188,.16796875,1.06640625,.479980469,1.810546875,.479980469,.947265625,0,1.427734375-.456054688,1.427734375-1.043457031,0-.767578125-.767578125-1.115722656-1.572265625-1.115722656h-.743164062v-1.307128906h.708007812c.611328125-.01171875,1.390625-.239746094,1.390625-.899414062,0-.467773438-.3828125-.815429688-1.150390625-.815429688-.63671875,0-1.30859375,.275878906-1.631835938,.467773438l-.372070312-1.319335938c.46875-.299804688,1.403320312-.587890625,2.411132812-.587890625,1.666992188,0,2.590820312,.875488281,2.590820312,1.942871094,0,.827636719-.46875,1.475585938-1.427734375,1.811035156v.023925781c.935546875,.16796875,1.69140625,.875488281,1.69140625,1.895019531,0,1.379394531-1.2109375,2.38671875-3.190429688,2.38671875-1.006835938,0-1.858398438-.263671875-2.315429688-.551757812l.373046875-1.3671875Z" fill="#231f20"/><path d="M291.153320312,64.475097656v.599609375h-5.997070312v-.599609375h5.997070312Z" fill="#231f20"/><path d="M291.948242188,55.600097656c.563476562-.096191406,1.354492188-.16796875,2.469726562-.16796875,1.127929688,0,1.931640625,.215820312,2.470703125,.647460938,.516601562,.408203125,.864257812,1.079589844,.864257812,1.87109375s-.264648438,1.463378906-.744140625,1.918945312c-.623046875,.587890625-1.546875,.8515625-2.625976562,.8515625-.240234375,0-.456054688-.01171875-.624023438-.036132812v2.890625h-1.810546875v-7.975585938Zm1.810546875,3.669921875c.15625,.036132812,.34765625,.047851562,.611328125,.047851562,.971679688,0,1.571289062-.491699219,1.571289062-1.319335938,0-.743164062-.515625-1.187011719-1.426757812-1.187011719-.372070312,0-.624023438,.035644531-.755859375,.071777344v2.38671875Z" fill="#231f20"/><path d="M298.631835938,63.575683594v-1.103515625l1.006835938-.911621094c1.703125-1.522949219,2.53125-2.3984375,2.5546875-3.310058594,0-.635742188-.383789062-1.139160156-1.283203125-1.139160156-.671875,0-1.258789062,.3359375-1.666992188,.647460938l-.515625-1.307128906c.587890625-.443847656,1.499023438-.803710938,2.5546875-.803710938,1.762695312,0,2.734375,1.031738281,2.734375,2.446777344,0,1.307128906-.947265625,2.350585938-2.075195312,3.357910156l-.71875,.600097656v.023925781h2.9375v1.499023438h-5.528320312Z" fill="#231f20"/><path d="M305.387695312,62.604003906c0-.647460938,.443359375-1.115234375,1.079101562-1.115234375s1.067382812,.455566406,1.067382812,1.115234375c0,.635742188-.431640625,1.103515625-1.079101562,1.103515625-.624023438,0-1.067382812-.467773438-1.067382812-1.103515625Z" fill="#231f20"/><path d="M314.168945312,59.641601562c0,2.411132812-.971679688,4.065917969-2.962890625,4.065917969-2.014648438,0-2.90234375-1.811035156-2.9140625-4.017578125,0-2.254882812,.959960938-4.041992188,2.974609375-4.041992188,2.086914062,0,2.90234375,1.858886719,2.90234375,3.993652344Zm-4.041992188,.048339844c-.01171875,1.787109375,.419921875,2.638183594,1.126953125,2.638183594,.708007812,0,1.091796875-.887207031,1.091796875-2.662109375,0-1.727050781-.372070312-2.638671875-1.103515625-2.638671875-.671875,0-1.126953125,.8515625-1.115234375,2.662597656Z" fill="#231f20"/><path d="M315.16796875,62.604003906c0-.647460938,.443359375-1.115234375,1.079101562-1.115234375s1.067382812,.455566406,1.067382812,1.115234375c0,.635742188-.431640625,1.103515625-1.079101562,1.103515625-.624023438,0-1.067382812-.467773438-1.067382812-1.103515625Z" fill="#231f20"/><path d="M318.515625,61.788574219c.32421875,.16796875,1.067382812,.479980469,1.811523438,.479980469,.947265625,0,1.426757812-.456054688,1.426757812-1.043457031,0-.767578125-.767578125-1.115722656-1.5703125-1.115722656h-.744140625v-1.307128906h.708007812c.611328125-.01171875,1.390625-.239746094,1.390625-.899414062,0-.467773438-.383789062-.815429688-1.151367188-.815429688-.635742188,0-1.306640625,.275878906-1.630859375,.467773438l-.372070312-1.319335938c.467773438-.299804688,1.403320312-.587890625,2.411132812-.587890625,1.666992188,0,2.590820312,.875488281,2.590820312,1.942871094,0,.827636719-.467773438,1.475585938-1.427734375,1.811035156v.023925781c.935546875,.16796875,1.69140625,.875488281,1.69140625,1.895019531,0,1.379394531-1.211914062,2.38671875-3.190429688,2.38671875-1.0078125,0-1.859375-.263671875-2.314453125-.551757812l.37109375-1.3671875Z" fill="#231f20"/></g></g><g><path d="M150.199707031,104.067871094c.50390625-.083984375,1.1640625-.155761719,2.002929688-.155761719,1.032226562,0,1.787109375,.239746094,2.267578125,.671875,.443359375,.383789062,.70703125,.971191406,.70703125,1.690917969,0,.731445312-.215820312,1.307128906-.624023438,1.727050781-.55078125,.587402344-1.451171875,.887695312-2.469726562,.887695312-.3125,0-.600585938-.012207031-.83984375-.072265625v3.23828125h-1.043945312v-7.987792969Zm1.043945312,3.897949219c.227539062,.060058594,.515625,.083984375,.86328125,.083984375,1.259765625,0,2.02734375-.611816406,2.02734375-1.727050781,0-1.067382812-.755859375-1.583007812-1.907226562-1.583007812-.456054688,0-.803710938,.036132812-.983398438,.083984375v3.142089844Z" fill="#231f20"/><path d="M156.164550781,107.210449219c0-.443847656,.299804688-.755859375,.719726562-.755859375,.418945312,0,.6953125,.312011719,.70703125,.755859375,0,.419433594-.275390625,.743652344-.719726562,.743652344-.419921875,0-.70703125-.32421875-.70703125-.743652344Zm0,4.233398438c0-.443847656,.299804688-.755371094,.719726562-.755371094,.418945312,0,.6953125,.311523438,.70703125,.755371094,0,.419921875-.275390625,.743652344-.719726562,.743652344-.419921875,0-.70703125-.323730469-.70703125-.743652344Z" fill="#231f20"/><path d="M161.155761719,109.537109375c-.047851562-1.19921875,.599609375-1.811035156,1.426757812-1.811035156,.50390625,0,.887695312,.155761719,1.69140625,.539550781,.611328125,.288085938,1.055664062,.50390625,1.499023438,.50390625,.431640625,0,.635742188-.34765625,.647460938-1.007324219h.719726562c.060546875,1.343261719-.635742188,1.811035156-1.37890625,1.811035156-.479492188,0-.912109375-.144042969-1.739257812-.527832031-.563476562-.275878906-1.0078125-.527832031-1.439453125-.527832031s-.6953125,.299804688-.719726562,1.01953125h-.70703125Z" fill="#231f20"/><path d="M168.260253906,112.055664062v-.647460938l.827148438-.803710938c1.991210938-1.895019531,2.890625-2.90234375,2.90234375-4.077636719,0-.791503906-.383789062-1.5234375-1.546875-1.5234375-.708007812,0-1.295898438,.359863281-1.655273438,.659667969l-.3359375-.743652344c.540039062-.455566406,1.307617188-.791503906,2.20703125-.791503906,1.678710938,0,2.38671875,1.151367188,2.38671875,2.266601562,0,1.439453125-1.043945312,2.603027344-2.686523438,4.186035156l-.624023438,.575683594v.023925781h3.501953125v.875488281h-4.9765625Z" fill="#231f20"/><path d="M174.500488281,111.432128906c0-.443847656,.299804688-.755859375,.719726562-.755859375,.418945312,0,.70703125,.312011719,.70703125,.755859375,0,.431640625-.275390625,.755371094-.719726562,.755371094-.419921875,0-.70703125-.323730469-.70703125-.755371094Z" fill="#231f20"/><path d="M182.080566406,108.073730469c0,2.650878906-.983398438,4.113769531-2.709960938,4.113769531-1.5234375,0-2.5546875-1.427246094-2.579101562-4.005859375,0-2.614257812,1.127929688-4.053710938,2.7109375-4.053710938,1.642578125,0,2.578125,1.463378906,2.578125,3.945800781Zm-4.233398438,.120117188c0,2.026855469,.623046875,3.178222656,1.583007812,3.178222656,1.079101562,0,1.594726562-1.259277344,1.594726562-3.25,0-1.918945312-.491210938-3.178710938-1.583007812-3.178710938-.922851562,0-1.594726562,1.127441406-1.594726562,3.250488281Z" fill="#231f20"/><path d="M183.140136719,111.432128906c0-.443847656,.299804688-.755859375,.71875-.755859375,.419921875,0,.708007812,.312011719,.708007812,.755859375,0,.431640625-.275390625,.755371094-.719726562,.755371094-.419921875,0-.70703125-.323730469-.70703125-.755371094Z" fill="#231f20"/><path d="M190.720214844,108.073730469c0,2.650878906-.983398438,4.113769531-2.709960938,4.113769531-1.5234375,0-2.5546875-1.427246094-2.579101562-4.005859375,0-2.614257812,1.127929688-4.053710938,2.7109375-4.053710938,1.642578125,0,2.578125,1.463378906,2.578125,3.945800781Zm-4.233398438,.120117188c0,2.026855469,.624023438,3.178222656,1.583007812,3.178222656,1.079101562,0,1.594726562-1.259277344,1.594726562-3.25,0-1.918945312-.491210938-3.178710938-1.583007812-3.178710938-.922851562,0-1.594726562,1.127441406-1.594726562,3.250488281Z" fill="#231f20"/></g><g><path d="M207.881347656,47.243164062c-1.091796875-.288085938-2.159179688-.611816406-3.094726562-.935546875-.16796875-.060058594-.3359375-.120117188-.491210938-.120117188-1.918945312-.071777344-3.5625-1.487304688-3.5625-4.08984375,0-2.590332031,1.583007812-4.257324219,3.765625-4.257324219,2.1953125,0,3.622070312,1.703125,3.622070312,4.089355469,0,2.075195312-.958984375,3.40625-2.302734375,3.874023438v.047851562c.803710938,.204101562,1.6796875,.395996094,2.36328125,.516113281l-.299804688,.875488281Zm-.86328125-5.265136719c0-1.619140625-.83984375-3.286132812-2.5546875-3.286132812-1.763671875,0-2.626953125,1.630859375-2.615234375,3.381835938-.01171875,1.715332031,.935546875,3.262207031,2.56640625,3.262207031,1.66796875,0,2.603515625-1.511230469,2.603515625-3.357910156Z" fill="#231f20"/><path d="M209.192871094,41.210449219c0-.443847656,.299804688-.755859375,.719726562-.755859375,.418945312,0,.6953125,.312011719,.70703125,.755859375,0,.419433594-.275390625,.743652344-.719726562,.743652344-.419921875,0-.70703125-.32421875-.70703125-.743652344Zm0,4.233398438c0-.443847656,.299804688-.755371094,.719726562-.755371094,.418945312,0,.6953125,.311523438,.70703125,.755371094,0,.419921875-.275390625,.743652344-.719726562,.743652344-.419921875,0-.70703125-.323730469-.70703125-.743652344Z" fill="#231f20"/><path d="M214.388183594,44.844238281c.299804688,.191894531,.995117188,.491699219,1.7265625,.491699219,1.35546875,0,1.775390625-.86328125,1.762695312-1.511230469-.01171875-1.091308594-.995117188-1.559082031-2.014648438-1.559082031h-.587890625v-.791503906h.587890625c.767578125,0,1.739257812-.395507812,1.739257812-1.319335938,0-.623535156-.395507812-1.175292969-1.3671875-1.175292969-.624023438,0-1.223632812,.275878906-1.559570312,.515625l-.275390625-.767578125c.407226562-.299804688,1.19921875-.599609375,2.0390625-.599609375,1.53515625,0,2.23046875,.911621094,2.23046875,1.858886719,0,.803710938-.479492188,1.487304688-1.439453125,1.834960938v.024414062c.959960938,.191894531,1.739257812,.911132812,1.739257812,2.002441406,0,1.247558594-.971679688,2.338867188-2.842773438,2.338867188-.875,0-1.642578125-.275878906-2.026367188-.527832031l.288085938-.815429688Z" fill="#231f20"/><path d="M220.376464844,45.432128906c0-.443847656,.299804688-.755859375,.719726562-.755859375,.418945312,0,.70703125,.312011719,.70703125,.755859375,0,.431640625-.275390625,.755371094-.719726562,.755371094-.419921875,0-.70703125-.323730469-.70703125-.755371094Z" fill="#231f20"/><path d="M227.956542969,42.073730469c0,2.650878906-.983398438,4.113769531-2.709960938,4.113769531-1.5234375,0-2.5546875-1.427246094-2.579101562-4.005859375,0-2.614257812,1.127929688-4.053710938,2.7109375-4.053710938,1.642578125,0,2.578125,1.463378906,2.578125,3.945800781Zm-4.233398438,.120117188c0,2.026855469,.623046875,3.178222656,1.583007812,3.178222656,1.079101562,0,1.594726562-1.259277344,1.594726562-3.25,0-1.918945312-.491210938-3.178710938-1.583007812-3.178710938-.922851562,0-1.594726562,1.127441406-1.594726562,3.250488281Z" fill="#231f20"/><path d="M229.016113281,45.432128906c0-.443847656,.299804688-.755859375,.71875-.755859375,.419921875,0,.708007812,.312011719,.708007812,.755859375,0,.431640625-.275390625,.755371094-.719726562,.755371094-.419921875,0-.70703125-.323730469-.70703125-.755371094Z" fill="#231f20"/><path d="M236.596191406,42.073730469c0,2.650878906-.983398438,4.113769531-2.709960938,4.113769531-1.5234375,0-2.5546875-1.427246094-2.579101562-4.005859375,0-2.614257812,1.127929688-4.053710938,2.7109375-4.053710938,1.642578125,0,2.578125,1.463378906,2.578125,3.945800781Zm-4.233398438,.120117188c0,2.026855469,.624023438,3.178222656,1.583007812,3.178222656,1.079101562,0,1.594726562-1.259277344,1.594726562-3.25,0-1.918945312-.491210938-3.178710938-1.583007812-3.178710938-.922851562,0-1.594726562,1.127441406-1.594726562,3.250488281Z" fill="#231f20"/></g><g><g><rect x="243.75" y="235.805664062" width="70.5" height="25.5" fill="#fff"/><path d="M313.5,236.555664062v24h-69v-24h69m1.5-1.5h-72v27h72v-27h0Z" fill="#231f20"/></g><g><path d="M258.575683594,244.600097656c.563964844-.096191406,1.35546875-.16796875,2.470703125-.16796875,1.127441406,0,1.931152344,.215820312,2.470703125,.647460938,.515625,.408203125,.86328125,1.079589844,.86328125,1.87109375s-.263671875,1.463378906-.743652344,1.918945312c-.623535156,.587890625-1.546875,.8515625-2.626464844,.8515625-.239746094,0-.455566406-.01171875-.623535156-.036132812v2.890625h-1.811035156v-7.975585938Zm1.811035156,3.669921875c.155761719,.036132812,.34765625,.047851562,.611816406,.047851562,.971191406,0,1.570800781-.491699219,1.570800781-1.319335938,0-.743164062-.515625-1.187011719-1.426757812-1.187011719-.372070312,0-.624023438,.035644531-.755859375,.071777344v2.38671875Z" fill="#231f20"/><path d="M271.3046875,253.391113281c-.720214844,.323730469-1.34375,.432128906-2.1953125,.432128906-1.990722656,0-3.741699219-1.427246094-3.741699219-3.778320312,0-2.446289062,1.774902344-4.569335938,4.485351562-4.569335938,2.110839844,0,3.621582031,1.451171875,3.621582031,3.466308594,0,1.750976562-.982421875,2.854003906-2.278320312,2.854003906-.563476562,0-.971679688-.287597656-1.03125-.923339844h-.023925781c-.372070312,.611816406-.911621094,.923339844-1.547363281,.923339844-.779785156,0-1.343261719-.575683594-1.343261719-1.559082031,0-1.462890625,1.079589844-2.794433594,2.806640625-2.794433594,.52734375,0,1.127441406,.131835938,1.427246094,.299804688l-.359375,2.21875c-.12109375,.708007812-.037109375,1.031738281,.298828125,1.043457031,.515625,.012207031,1.1640625-.647460938,1.1640625-2.026855469,0-1.559082031-1.0078125-2.770507812-2.866699219-2.770507812-1.834960938,0-3.442382812,1.439453125-3.442382812,3.729980469,0,2.002929688,1.283691406,3.142578125,3.0703125,3.142578125,.611816406,0,1.259277344-.132324219,1.738769531-.383789062l.216796875,.6953125Zm-1.067871094-4.953125c-.095703125-.023925781-.215820312-.047851562-.371582031-.047851562-.791992188,0-1.415527344,.779296875-1.415527344,1.703125,0,.455566406,.204101562,.743164062,.599609375,.743164062,.443847656,0,.911621094-.563476562,1.01953125-1.259277344l.16796875-1.139160156Z" fill="#231f20"/><path d="M274.5,252.575683594v-1.103515625l1.006835938-.911621094c1.703125-1.522949219,2.530273438-2.3984375,2.5546875-3.310058594,0-.635742188-.383789062-1.139160156-1.283203125-1.139160156-.671875,0-1.259765625,.3359375-1.666992188,.647460938l-.515625-1.307128906c.587890625-.443847656,1.498046875-.803710938,2.5546875-.803710938,1.762695312,0,2.734375,1.031738281,2.734375,2.446777344,0,1.307128906-.947265625,2.350585938-2.075195312,3.357910156l-.719726562,.600097656v.023925781h2.938476562v1.499023438h-5.528320312Z" fill="#231f20"/><path d="M281.254882812,251.604003906c0-.647460938,.443359375-1.115234375,1.079101562-1.115234375s1.067382812,.455566406,1.067382812,1.115234375c0,.635742188-.431640625,1.103515625-1.079101562,1.103515625-.624023438,0-1.067382812-.467773438-1.067382812-1.103515625Z" fill="#231f20"/><path d="M286.60546875,246.398925781h-.0234375l-1.487304688,.707519531-.299804688-1.3671875,2.0625-.959472656h1.51171875v7.795898438h-1.763671875v-6.176757812Z" fill="#231f20"/><path d="M291.03515625,251.604003906c0-.647460938,.443359375-1.115234375,1.079101562-1.115234375s1.067382812,.455566406,1.067382812,1.115234375c0,.635742188-.431640625,1.103515625-1.079101562,1.103515625-.624023438,0-1.067382812-.467773438-1.067382812-1.103515625Z" fill="#231f20"/><path d="M296.385742188,246.398925781h-.0234375l-1.487304688,.707519531-.299804688-1.3671875,2.0625-.959472656h1.51171875v7.795898438h-1.763671875v-6.176757812Z" fill="#231f20"/></g></g><g><g><rect x="252.75" y="172.805664062" width="79.5" height="25.5" fill="#fff"/><path d="M331.5,173.555664062v24h-78v-24h78m1.5-1.5h-81v27h81v-27h0Z" fill="#231f20"/></g><g><path d="M268.352050781,190.966796875c-1.151367188-.3359375-2.110839844-.68359375-3.189941406-1.139160156-.180175781-.072265625-.372070312-.107910156-.563964844-.120117188-1.822753906-.119628906-3.525878906-1.462890625-3.525878906-4.1015625,0-2.422851562,1.53515625-4.245605469,3.945800781-4.245605469,2.470703125,0,3.825683594,1.870605469,3.825683594,4.077636719,0,1.834960938-.8515625,3.130371094-1.918945312,3.609863281v.047851562c.623535156,.180175781,1.319335938,.32421875,1.955078125,.456054688l-.527832031,1.415039062Zm-1.438964844-5.45703125c0-1.475097656-.695800781-2.698242188-1.943359375-2.698242188-1.247070312,0-1.966796875,1.223144531-1.966796875,2.734375-.01171875,1.53515625,.731933594,2.710449219,1.955078125,2.710449219,1.235351562,0,1.955078125-1.163085938,1.955078125-2.746582031Z" fill="#231f20"/><path d="M275.8046875,190.391113281c-.719726562,.323730469-1.34375,.432128906-2.1953125,.432128906-1.990234375,0-3.741210938-1.427246094-3.741210938-3.778320312,0-2.446289062,1.774414062-4.569335938,4.485351562-4.569335938,2.111328125,0,3.622070312,1.451171875,3.622070312,3.466308594,0,1.750976562-.983398438,2.854003906-2.278320312,2.854003906-.564453125,0-.971679688-.287597656-1.03125-.923339844h-.024414062c-.372070312,.611816406-.911132812,.923339844-1.547851562,.923339844-.779296875,0-1.342773438-.575683594-1.342773438-1.559082031,0-1.462890625,1.079101562-2.794433594,2.806640625-2.794433594,.52734375,0,1.126953125,.131835938,1.426757812,.299804688l-.359375,2.21875c-.120117188,.708007812-.036132812,1.031738281,.299804688,1.043457031,.515625,.012207031,1.163085938-.647460938,1.163085938-2.026855469,0-1.559082031-1.0078125-2.770507812-2.866210938-2.770507812-1.834960938,0-3.442382812,1.439453125-3.442382812,3.729980469,0,2.002929688,1.283203125,3.142578125,3.0703125,3.142578125,.611328125,0,1.259765625-.132324219,1.739257812-.383789062l.215820312,.6953125Zm-1.067382812-4.953125c-.095703125-.023925781-.215820312-.047851562-.372070312-.047851562-.791015625,0-1.415039062,.779296875-1.415039062,1.703125,0,.455566406,.204101562,.743164062,.599609375,.743164062,.444335938,0,.911132812-.563476562,1.01953125-1.259277344l.16796875-1.139160156Z" fill="#231f20"/><path d="M279.32421875,187.788574219c.323242188,.16796875,1.06640625,.479980469,1.810546875,.479980469,.947265625,0,1.427734375-.456054688,1.427734375-1.043457031,0-.767578125-.767578125-1.115722656-1.572265625-1.115722656h-.743164062v-1.307128906h.708007812c.611328125-.01171875,1.390625-.239746094,1.390625-.899414062,0-.467773438-.3828125-.815429688-1.150390625-.815429688-.63671875,0-1.30859375,.275878906-1.631835938,.467773438l-.372070312-1.319335938c.46875-.299804688,1.403320312-.587890625,2.411132812-.587890625,1.666992188,0,2.590820312,.875488281,2.590820312,1.942871094,0,.827636719-.46875,1.475585938-1.427734375,1.811035156v.023925781c.935546875,.16796875,1.69140625,.875488281,1.69140625,1.895019531,0,1.379394531-1.2109375,2.38671875-3.190429688,2.38671875-1.006835938,0-1.858398438-.263671875-2.315429688-.551757812l.373046875-1.3671875Z" fill="#231f20"/><path d="M291.153320312,190.475097656v.599609375h-5.997070312v-.599609375h5.997070312Z" fill="#231f20"/><path d="M291.948242188,181.600097656c.563476562-.096191406,1.354492188-.16796875,2.469726562-.16796875,1.127929688,0,1.931640625,.215820312,2.470703125,.647460938,.516601562,.408203125,.864257812,1.079589844,.864257812,1.87109375s-.264648438,1.463378906-.744140625,1.918945312c-.623046875,.587890625-1.546875,.8515625-2.625976562,.8515625-.240234375,0-.456054688-.01171875-.624023438-.036132812v2.890625h-1.810546875v-7.975585938Zm1.810546875,3.669921875c.15625,.036132812,.34765625,.047851562,.611328125,.047851562,.971679688,0,1.571289062-.491699219,1.571289062-1.319335938,0-.743164062-.515625-1.187011719-1.426757812-1.187011719-.372070312,0-.624023438,.035644531-.755859375,.071777344v2.38671875Z" fill="#231f20"/><path d="M298.631835938,189.575683594v-1.103515625l1.006835938-.911621094c1.703125-1.522949219,2.53125-2.3984375,2.5546875-3.310058594,0-.635742188-.383789062-1.139160156-1.283203125-1.139160156-.671875,0-1.258789062,.3359375-1.666992188,.647460938l-.515625-1.307128906c.587890625-.443847656,1.499023438-.803710938,2.5546875-.803710938,1.762695312,0,2.734375,1.031738281,2.734375,2.446777344,0,1.307128906-.947265625,2.350585938-2.075195312,3.357910156l-.71875,.600097656v.023925781h2.9375v1.499023438h-5.528320312Z" fill="#231f20"/><path d="M305.387695312,188.604003906c0-.647460938,.443359375-1.115234375,1.079101562-1.115234375s1.067382812,.455566406,1.067382812,1.115234375c0,.635742188-.431640625,1.103515625-1.079101562,1.103515625-.624023438,0-1.067382812-.467773438-1.067382812-1.103515625Z" fill="#231f20"/><path d="M310.73828125,183.398925781h-.0234375l-1.487304688,.707519531-.299804688-1.3671875,2.0625-.959472656h1.51171875v7.795898438h-1.763671875v-6.176757812Z" fill="#231f20"/><path d="M315.16796875,188.604003906c0-.647460938,.443359375-1.115234375,1.079101562-1.115234375s1.067382812,.455566406,1.067382812,1.115234375c0,.635742188-.431640625,1.103515625-1.079101562,1.103515625-.624023438,0-1.067382812-.467773438-1.067382812-1.103515625Z" fill="#231f20"/><path d="M320.518554688,183.398925781h-.0234375l-1.487304688,.707519531-.299804688-1.3671875,2.0625-.959472656h1.51171875v7.795898438h-1.763671875v-6.176757812Z" fill="#231f20"/></g></g><g><path d="M150.199707031,230.067871094c.50390625-.083984375,1.1640625-.155761719,2.002929688-.155761719,1.032226562,0,1.787109375,.239746094,2.267578125,.671875,.443359375,.383789062,.70703125,.971191406,.70703125,1.690917969,0,.731445312-.215820312,1.307128906-.624023438,1.727050781-.55078125,.587402344-1.451171875,.887695312-2.469726562,.887695312-.3125,0-.600585938-.012207031-.83984375-.072265625v3.23828125h-1.043945312v-7.987792969Zm1.043945312,3.897949219c.227539062,.060058594,.515625,.083984375,.86328125,.083984375,1.259765625,0,2.02734375-.611816406,2.02734375-1.727050781,0-1.067382812-.755859375-1.583007812-1.907226562-1.583007812-.456054688,0-.803710938,.036132812-.983398438,.083984375v3.142089844Z" fill="#231f20"/><path d="M156.164550781,233.210449219c0-.443847656,.299804688-.755859375,.719726562-.755859375,.418945312,0,.6953125,.312011719,.70703125,.755859375,0,.419433594-.275390625,.743652344-.719726562,.743652344-.419921875,0-.70703125-.32421875-.70703125-.743652344Zm0,4.233398438c0-.443847656,.299804688-.755371094,.719726562-.755371094,.418945312,0,.6953125,.311523438,.70703125,.755371094,0,.419921875-.275390625,.743652344-.719726562,.743652344-.419921875,0-.70703125-.323730469-.70703125-.743652344Z" fill="#231f20"/><path d="M161.155761719,235.537109375c-.047851562-1.19921875,.599609375-1.811035156,1.426757812-1.811035156,.50390625,0,.887695312,.155761719,1.69140625,.539550781,.611328125,.288085938,1.055664062,.50390625,1.499023438,.50390625,.431640625,0,.635742188-.34765625,.647460938-1.007324219h.719726562c.060546875,1.343261719-.635742188,1.811035156-1.37890625,1.811035156-.479492188,0-.912109375-.144042969-1.739257812-.527832031-.563476562-.275878906-1.0078125-.527832031-1.439453125-.527832031s-.6953125,.299804688-.719726562,1.01953125h-.70703125Z" fill="#231f20"/><path d="M168.260253906,238.055664062v-.647460938l.827148438-.803710938c1.991210938-1.895019531,2.890625-2.90234375,2.90234375-4.077636719,0-.791503906-.383789062-1.5234375-1.546875-1.5234375-.708007812,0-1.295898438,.359863281-1.655273438,.659667969l-.3359375-.743652344c.540039062-.455566406,1.307617188-.791503906,2.20703125-.791503906,1.678710938,0,2.38671875,1.151367188,2.38671875,2.266601562,0,1.439453125-1.043945312,2.603027344-2.686523438,4.186035156l-.624023438,.575683594v.023925781h3.501953125v.875488281h-4.9765625Z" fill="#231f20"/><path d="M174.500488281,237.432128906c0-.443847656,.299804688-.755859375,.719726562-.755859375,.418945312,0,.70703125,.312011719,.70703125,.755859375,0,.431640625-.275390625,.755371094-.719726562,.755371094-.419921875,0-.70703125-.323730469-.70703125-.755371094Z" fill="#231f20"/><path d="M179.189941406,231.243164062h-.0234375l-1.35546875,.731933594-.204101562-.803710938,1.703125-.911621094h.899414062v7.795898438h-1.01953125v-6.8125Z" fill="#231f20"/><path d="M183.140136719,237.432128906c0-.443847656,.299804688-.755859375,.71875-.755859375,.419921875,0,.708007812,.312011719,.708007812,.755859375,0,.431640625-.275390625,.755371094-.719726562,.755371094-.419921875,0-.70703125-.323730469-.70703125-.755371094Z" fill="#231f20"/><path d="M190.720214844,234.073730469c0,2.650878906-.983398438,4.113769531-2.709960938,4.113769531-1.5234375,0-2.5546875-1.427246094-2.579101562-4.005859375,0-2.614257812,1.127929688-4.053710938,2.7109375-4.053710938,1.642578125,0,2.578125,1.463378906,2.578125,3.945800781Zm-4.233398438,.120117188c0,2.026855469,.624023438,3.178222656,1.583007812,3.178222656,1.079101562,0,1.594726562-1.259277344,1.594726562-3.25,0-1.918945312-.491210938-3.178710938-1.583007812-3.178710938-.922851562,0-1.594726562,1.127441406-1.594726562,3.250488281Z" fill="#231f20"/></g><g><path d="M207.881347656,173.243164062c-1.091796875-.288085938-2.159179688-.611816406-3.094726562-.935546875-.16796875-.060058594-.3359375-.120117188-.491210938-.120117188-1.918945312-.071777344-3.5625-1.487304688-3.5625-4.08984375,0-2.590332031,1.583007812-4.257324219,3.765625-4.257324219,2.1953125,0,3.622070312,1.703125,3.622070312,4.089355469,0,2.075195312-.958984375,3.40625-2.302734375,3.874023438v.047851562c.803710938,.204101562,1.6796875,.395996094,2.36328125,.516113281l-.299804688,.875488281Zm-.86328125-5.265136719c0-1.619140625-.83984375-3.286132812-2.5546875-3.286132812-1.763671875,0-2.626953125,1.630859375-2.615234375,3.381835938-.01171875,1.715332031,.935546875,3.262207031,2.56640625,3.262207031,1.66796875,0,2.603515625-1.511230469,2.603515625-3.357910156Z" fill="#231f20"/><path d="M209.192871094,167.210449219c0-.443847656,.299804688-.755859375,.719726562-.755859375,.418945312,0,.6953125,.312011719,.70703125,.755859375,0,.419433594-.275390625,.743652344-.719726562,.743652344-.419921875,0-.70703125-.32421875-.70703125-.743652344Zm0,4.233398438c0-.443847656,.299804688-.755371094,.719726562-.755371094,.418945312,0,.6953125,.311523438,.70703125,.755371094,0,.419921875-.275390625,.743652344-.719726562,.743652344-.419921875,0-.70703125-.323730469-.70703125-.743652344Z" fill="#231f20"/><path d="M214.388183594,170.844238281c.299804688,.191894531,.995117188,.491699219,1.7265625,.491699219,1.35546875,0,1.775390625-.86328125,1.762695312-1.511230469-.01171875-1.091308594-.995117188-1.559082031-2.014648438-1.559082031h-.587890625v-.791503906h.587890625c.767578125,0,1.739257812-.395507812,1.739257812-1.319335938,0-.623535156-.395507812-1.175292969-1.3671875-1.175292969-.624023438,0-1.223632812,.275878906-1.559570312,.515625l-.275390625-.767578125c.407226562-.299804688,1.19921875-.599609375,2.0390625-.599609375,1.53515625,0,2.23046875,.911621094,2.23046875,1.858886719,0,.803710938-.479492188,1.487304688-1.439453125,1.834960938v.024414062c.959960938,.191894531,1.739257812,.911132812,1.739257812,2.002441406,0,1.247558594-.971679688,2.338867188-2.842773438,2.338867188-.875,0-1.642578125-.275878906-2.026367188-.527832031l.288085938-.815429688Z" fill="#231f20"/><path d="M220.376464844,171.432128906c0-.443847656,.299804688-.755859375,.719726562-.755859375,.418945312,0,.70703125,.312011719,.70703125,.755859375,0,.431640625-.275390625,.755371094-.719726562,.755371094-.419921875,0-.70703125-.323730469-.70703125-.755371094Z" fill="#231f20"/><path d="M227.956542969,168.073730469c0,2.650878906-.983398438,4.113769531-2.709960938,4.113769531-1.5234375,0-2.5546875-1.427246094-2.579101562-4.005859375,0-2.614257812,1.127929688-4.053710938,2.7109375-4.053710938,1.642578125,0,2.578125,1.463378906,2.578125,3.945800781Zm-4.233398438,.120117188c0,2.026855469,.623046875,3.178222656,1.583007812,3.178222656,1.079101562,0,1.594726562-1.259277344,1.594726562-3.25,0-1.918945312-.491210938-3.178710938-1.583007812-3.178710938-.922851562,0-1.594726562,1.127441406-1.594726562,3.250488281Z" fill="#231f20"/><path d="M229.016113281,171.432128906c0-.443847656,.299804688-.755859375,.71875-.755859375,.419921875,0,.708007812,.312011719,.708007812,.755859375,0,.431640625-.275390625,.755371094-.719726562,.755371094-.419921875,0-.70703125-.323730469-.70703125-.755371094Z" fill="#231f20"/><path d="M236.596191406,168.073730469c0,2.650878906-.983398438,4.113769531-2.709960938,4.113769531-1.5234375,0-2.5546875-1.427246094-2.579101562-4.005859375,0-2.614257812,1.127929688-4.053710938,2.7109375-4.053710938,1.642578125,0,2.578125,1.463378906,2.578125,3.945800781Zm-4.233398438,.120117188c0,2.026855469,.624023438,3.178222656,1.583007812,3.178222656,1.079101562,0,1.594726562-1.259277344,1.594726562-3.25,0-1.918945312-.491210938-3.178710938-1.583007812-3.178710938-.922851562,0-1.594726562,1.127441406-1.594726562,3.250488281Z" fill="#231f20"/></g></g></g></svg>