<svg version="1.1" viewBox="0 0 431.99998 117" xmlns="http://www.w3.org/2000/svg"><g transform="translate(-27,-1.0556641)"><rect x="27" y="1.0556641" width="432" height="9" fill="none"/><g fill="none" stroke="#929497" stroke-miterlimit="10" stroke-width="2"><line x1="216" x2="216" y1="1.0556641" y2="7.0556641"/><line x1="216" x2="216" y1="18.722336" y2="106.22234" stroke-dasharray="0, 0, 11.6667, 11.6667"/><line x1="216" x2="216" y1="112.05566" y2="118.05566"/></g><line x1="180" x2="270.53101" y1="59.388992" y2="59.388992" fill="none" stroke="#3975bb" stroke-miterlimit="10" stroke-width="1.5"/><polygon points="268.45047 56.33847 268.45047 62.439529 279.83334 59.388992" fill="#3975bb"/><g fill="#231f20"><path d="m348.56836 20.776367c-0.875 1.175293-1.51074 2.734375-1.51074 4.905274 0 2.134765 0.65918 3.669922 1.51074 4.86914h-0.82715c-0.75586-0.995605-1.57129-2.530761-1.57129-4.86914 0.0117-2.362793 0.81543-3.89795 1.57129-4.905274z"/><path d="m354.93945 26.149414c0 2.146484-1.4873 3.082031-2.89062 3.082031-1.57129 0-2.78223-1.151367-2.78223-2.986328 0-1.942871 1.27051-3.082031 2.87793-3.082031 1.66699 0 2.79492 1.210937 2.79492 2.986328zm-4.60547 0.05957c0 1.271485 0.73145 2.230957 1.7627 2.230957 1.00781 0 1.76269-0.947265 1.76269-2.254882 0-0.983399-0.49121-2.230469-1.73828-2.230469-1.24804 0-1.78711 1.151367-1.78711 2.254394z"/><path d="m356.27441 25.189941c0-0.743652-0.0244-1.343261-0.0488-1.895019h0.94824l0.0478 0.995117h0.0234c0.43164-0.707519 1.11523-1.126953 2.06347-1.126953 1.40332 0 2.45801 1.187012 2.45801 2.950195 0 2.086914-1.27051 3.118164-2.63867 3.118164-0.76758 0-1.43848-0.335937-1.78613-0.911621h-0.0244v3.154297h-1.04297zm1.04297 1.546875c0 0.155762 0.0244 0.299805 0.0478 0.431641 0.19239 0.731934 0.82813 1.235352 1.58301 1.235352 1.11524 0 1.76367-0.911133 1.76367-2.242676 0-1.163086-0.6123-2.158692-1.72754-2.158692-0.71972 0-1.3916 0.515625-1.59472 1.307129-0.0361 0.131836-0.0723 0.288086-0.0723 0.431641z"/><path d="m364.37305 21.62793v1.666992h1.51172v0.803223h-1.51172v3.130371c0 0.719726 0.2041 1.127441 0.79199 1.127441 0.27539 0 0.47949-0.03613 0.61133-0.07178l0.0479 0.791504c-0.20313 0.08398-0.52735 0.144043-0.93555 0.144043-0.49121 0-0.88672-0.15625-1.13867-0.443848-0.2998-0.312012-0.4082-0.827637-0.4082-1.511231v-3.166503h-0.89942v-0.803223h0.89942v-1.391599z"/><path d="m368.24902 21.663574c0.0117 0.359863-0.25195 0.647949-0.67187 0.647949-0.3711 0-0.63574-0.288085-0.63574-0.647949 0-0.371582 0.27636-0.659668 0.66015-0.659668 0.39551 0 0.64746 0.288086 0.64746 0.659668zm-1.1748 7.436035v-5.804687h1.05469v5.804687z"/><path d="m375.13477 26.149414c0 2.146484-1.48731 3.082031-2.89063 3.082031-1.57129 0-2.78223-1.151367-2.78223-2.986328 0-1.942871 1.27051-3.082031 2.87793-3.082031 1.667 0 2.79493 1.210937 2.79493 2.986328zm-4.60547 0.05957c0 1.271485 0.73144 2.230957 1.76269 2.230957 1.00781 0 1.7627-0.947265 1.7627-2.254882 0-0.983399-0.49121-2.230469-1.73828-2.230469-1.24805 0-1.78711 1.151367-1.78711 2.254394z"/><path d="m376.46973 24.865723c0-0.59961-0.0127-1.091309-0.0488-1.570801h0.93555l0.0605 0.959473h0.0234c0.28809-0.551758 0.95996-1.091309 1.91894-1.091309 0.80372 0 2.05079 0.479492 2.05079 2.470215v3.466308h-1.05469v-3.346191c0-0.935547-0.34766-1.714844-1.34375-1.714844-0.69531 0-1.23535 0.491699-1.41504 1.079102-0.0478 0.131836-0.0723 0.312012-0.0723 0.491699v3.490234h-1.05468z"/><path d="m386.34375 29.099609-0.084-0.731445h-0.0361c-0.32324 0.455566-0.94726 0.863281-1.77539 0.863281-1.1748 0-1.77441-0.827636-1.77441-1.666992 0-1.40332 1.24707-2.170898 3.49023-2.158691v-0.120117c0-0.479493-0.13183-1.343262-1.31933-1.343262-0.54004 0-1.10352 0.167969-1.51172 0.43164l-0.23926-0.695312c0.47949-0.312012 1.1748-0.515625 1.90625-0.515625 1.77539 0 2.20703 1.210937 2.20703 2.374512v2.170898c0 0.503418 0.0244 0.995117 0.0957 1.391113zm-0.15625-2.962402c-1.15137-0.02393-2.45801 0.180176-2.45801 1.307129 0 0.683594 0.45508 1.007812 0.99512 1.007812 0.75586 0 1.23535-0.47998 1.40332-0.971679 0.0361-0.10791 0.0596-0.228028 0.0596-0.335938z"/><path d="m388.91406 20.584473h1.05469v8.515136h-1.05469z"/><path d="m394.29004 25.189941c0-0.743652-0.0244-1.343261-0.0488-1.895019h0.94824l0.0478 0.995117h0.0234c0.43164-0.707519 1.11524-1.126953 2.06348-1.126953 1.40332 0 2.45801 1.187012 2.45801 2.950195 0 2.086914-1.27051 3.118164-2.63868 3.118164-0.76757 0-1.43847-0.335937-1.78613-0.911621h-0.0244v3.154297h-1.04297zm1.04297 1.546875c0 0.155762 0.0244 0.299805 0.0478 0.431641 0.19238 0.731934 0.82812 1.235352 1.58301 1.235352 1.11523 0 1.76367-0.911133 1.76367-2.242676 0-1.163086-0.61231-2.158692-1.72754-2.158692-0.71973 0-1.3916 0.515625-1.59473 1.307129-0.0361 0.131836-0.0723 0.288086-0.0723 0.431641z"/><path d="m401.70508 26.38916c0.0244 1.427246 0.93554 2.014649 1.99121 2.014649 0.75586 0 1.21094-0.131836 1.60742-0.299805l0.17969 0.755859c-0.37207 0.167969-1.00781 0.359864-1.93067 0.359864-1.7871 0-2.85449-1.175782-2.85449-2.926758 0-1.750977 1.03125-3.129883 2.72266-3.129883 1.89453 0 2.39844 1.666992 2.39844 2.734375 0 0.21582-0.0244 0.383789-0.0361 0.491699zm3.09472-0.755859c0.0117-0.671387-0.27636-1.714844-1.46289-1.714844-1.06738 0-1.53515 0.983398-1.61914 1.714844z"/><path d="m407.7168 26.38916c0.0244 1.427246 0.93554 2.014649 1.99121 2.014649 0.75586 0 1.21094-0.131836 1.60742-0.299805l0.17969 0.755859c-0.37207 0.167969-1.00782 0.359864-1.93067 0.359864-1.78711 0-2.85449-1.175782-2.85449-2.926758 0-1.750977 1.03125-3.129883 2.72266-3.129883 1.89453 0 2.39843 1.666992 2.39843 2.734375 0 0.21582-0.0244 0.383789-0.0361 0.491699zm3.09472-0.755859c0.0117-0.671387-0.27636-1.714844-1.46289-1.714844-1.06738 0-1.53515 0.983398-1.61914 1.714844z"/><path d="m413.1416 25.105957c0-0.683594-0.0127-1.271484-0.0488-1.811035h0.92383l0.0361 1.13916h0.0479c0.26367-0.779297 0.89941-1.270996 1.60742-1.270996 0.12011 0 0.2041 0.01172 0.2998 0.03564v0.995606c-0.1084-0.02393-0.21582-0.03613-0.36035-0.03613-0.74316 0-1.27051 0.563965-1.41504 1.355469-0.0234 0.144043-0.0478 0.311523-0.0478 0.491699v3.094238h-1.04297z"/><path d="m416.42969 30.550781c0.85156-1.1875 1.51074-2.746582 1.51074-4.905273 0-2.146973-0.64746-3.682129-1.51074-4.869141h0.81543c0.76758 0.983399 1.57129 2.518555 1.57129 4.881348 0 2.350586-0.80371 3.873535-1.57129 4.893066z"/><path d="m362.47754 35.511719c0.50391-0.08398 1.16406-0.155762 2.00293-0.155762 1.03223 0 1.78711 0.239746 2.26758 0.671875 0.44336 0.383789 0.70703 0.971191 0.70703 1.690918 0 0.731445-0.21582 1.307129-0.62403 1.727051-0.55078 0.587402-1.45117 0.887207-2.46972 0.887207-0.3125 0-0.60059-0.01172-0.83985-0.07178v3.238282h-1.04394zm1.04394 3.897949c0.22754 0.06006 0.51563 0.08398 0.86329 0.08398 1.25976 0 2.02734-0.611816 2.02734-1.72705 0-1.067383-0.75586-1.583008-1.90723-1.583008-0.45605 0-0.80371 0.03613-0.9834 0.08398z"/><path d="m368.44238 38.654297c0-0.443848 0.29981-0.75586 0.71973-0.75586 0.41894 0 0.69531 0.312012 0.70703 0.75586 0 0.419433-0.27539 0.743652-0.71973 0.743652-0.41992 0-0.70703-0.324219-0.70703-0.743652zm0 4.233398c0-0.443359 0.29981-0.755371 0.71973-0.755371 0.41894 0 0.69531 0.312012 0.70703 0.755371 0 0.419922-0.27539 0.743653-0.71973 0.743653-0.41992 0-0.70703-0.323731-0.70703-0.743653z"/><path d="m378.43457 41.23291-2.00293-4.653808h-0.0234l-2.00293 4.653808h-0.83984l2.48242-5.529297h0.74414l2.48242 5.529297z"/><path d="m380.53809 43.499512v-0.647461l0.82714-0.803711c1.99122-1.89502 2.89063-2.902344 2.90235-4.077637 0-0.791504-0.38379-1.523437-1.54688-1.523437-0.708 0-1.2959 0.359863-1.65527 0.659668l-0.33594-0.743653c0.54004-0.455566 1.30762-0.791504 2.20703-0.791504 1.67871 0 2.38672 1.151368 2.38672 2.26709 0 1.438965-1.04394 2.602539-2.68652 4.185547l-0.62402 0.575684v0.02392h3.50195v0.875489z"/><path d="m386.77832 42.875977c0-0.443848 0.2998-0.75586 0.71973-0.75586 0.41894 0 0.70703 0.312012 0.70703 0.75586 0 0.43164-0.27539 0.755371-0.71973 0.755371-0.41992 0-0.70703-0.323731-0.70703-0.755371z"/><path d="m394.3584 39.517578c0 2.650879-0.9834 4.11377-2.70996 4.11377-1.52344 0-2.55469-1.427246-2.5791-4.00586 0-2.614258 1.12793-4.053711 2.71093-4.053711 1.64258 0 2.57813 1.463379 2.57813 3.945801zm-4.2334 0.120117c0 2.026856 0.62305 3.178223 1.58301 3.178223 1.0791 0 1.59472-1.259277 1.59472-3.250488 0-1.918946-0.49121-3.178223-1.583-3.178223-0.92286 0-1.59473 1.127441-1.59473 3.250488z"/><path d="m395.41797 42.875977c0-0.443848 0.2998-0.75586 0.71875-0.75586 0.41992 0 0.70801 0.312012 0.70801 0.75586 0 0.43164-0.27539 0.755371-0.71973 0.755371-0.41992 0-0.70703-0.323731-0.70703-0.755371z"/><path d="m402.99805 39.517578c0 2.650879-0.9834 4.11377-2.70996 4.11377-1.52344 0-2.55469-1.427246-2.57911-4.00586 0-2.614258 1.12793-4.053711 2.71094-4.053711 1.64258 0 2.57813 1.463379 2.57813 3.945801zm-4.2334 0.120117c0 2.026856 0.62402 3.178223 1.58301 3.178223 1.0791 0 1.59472-1.259277 1.59472-3.250488 0-1.918946-0.49121-3.178223-1.58301-3.178223-0.92285 0-1.59472 1.127441-1.59472 3.250488z"/></g><line x1="116.83333" x2="144.41988" y1="59.388992" y2="59.388992" fill="none" stroke="#3975bb" stroke-miterlimit="10" stroke-width="1.5"/><polygon points="142.33936 56.33847 142.33936 62.439529 153.72223 59.388992" fill="#3975bb"/><line x1="53.111115" x2="80.697662" y1="59.388992" y2="59.388992" fill="none" stroke="#3975bb" stroke-miterlimit="10" stroke-width="1.5"/><polygon points="78.617142 56.33847 78.617142 62.439529 90 59.388992" fill="#3975bb"/><circle cx="103.5" cy="59.555664" r="12.75" fill="#fff"/><path d="m103.5 47.555664c6.61682 0 12 5.383179 12 12s-5.38318 12-12 12c-6.616821 0-12-5.383179-12-12s5.383179-12 12-12m0-1.5c-7.455841 0-13.5 6.044159-13.5 13.5s6.044159 13.5 13.5 13.5c7.45584 0 13.5-6.044159 13.5-13.5s-6.04416-13.5-13.5-13.5z" fill="#231f20"/><path d="m100.66748 55.600098c0.47998-0.09619 1.45117-0.167969 2.36279-0.167969 1.11524 0 1.79883 0.10791 2.38672 0.455566 0.56348 0.299805 0.97119 0.851563 0.97119 1.583496 0 0.719239-0.41943 1.391114-1.33105 1.727051v0.02393c0.92334 0.251953 1.60693 0.947266 1.60693 1.990723 0 0.731445-0.33545 1.307617-0.83935 1.715332-0.58789 0.467773-1.57129 0.731445-3.17823 0.731445-0.89941 0-1.57128-0.06006-1.979-0.120117zm1.81104 3.094238h0.59961c0.95947 0 1.47509-0.395508 1.47509-0.995606 0-0.611328-0.46777-0.935058-1.29492-0.935058-0.396 0-0.62402 0.02393-0.77978 0.04785zm0 3.585937c0.17968 0.02393 0.39599 0.02393 0.70752 0.02393 0.82763 0 1.55908-0.311523 1.55908-1.163086 0-0.815429-0.73145-1.139648-1.64307-1.139648h-0.62353z" fill="#231f20"/><circle cx="40.5" cy="59.555664" r="12.75" fill="#fff"/><path d="m40.5 47.555664c6.616821 0 12 5.383179 12 12s-5.383179 12-12 12-12-5.383179-12-12 5.383179-12 12-12m0-1.5c-7.455841 0-13.5 6.044159-13.5 13.5s6.044159 13.5 13.5 13.5 13.5-6.044159 13.5-13.5-6.044159-13.5-13.5-13.5z" fill="#231f20"/><path d="m39.238281 61.500977-0.575683 2.074707h-1.894532l2.470215-8.083497h2.398926l2.506348 8.083497h-1.966797l-0.623535-2.074707zm2.05127-1.367188-0.503906-1.715332c-0.144043-0.479492-0.287598-1.07959-0.407715-1.559082h-0.02393c-0.120117 0.479492-0.239746 1.091309-0.37207 1.559082l-0.479493 1.715332z" fill="#231f20"/><circle cx="166.5" cy="59.555664" r="12.75" fill="#fff"/><path d="m166.5 47.555664c6.61682 0 12 5.383179 12 12s-5.38318 12-12 12-12-5.383179-12-12 5.38318-12 12-12m0-1.5c-7.45584 0-13.5 6.044159-13.5 13.5s6.04416 13.5 13.5 13.5 13.5-6.044159 13.5-13.5-6.04416-13.5-13.5-13.5z" fill="#231f20"/><path d="m169.65869 63.347656c-0.33594 0.167969-1.0918 0.348145-2.07519 0.348145-2.79444 0-4.2334-1.739258-4.2334-4.041992 0-2.758301 1.96679-4.293457 4.41357-4.293457 0.94727 0 1.66699 0.191894 1.99072 0.359863l-0.37158 1.451172c-0.37207-0.15625-0.88769-0.299805-1.53515-0.299805-1.45118 0-2.57862 0.875488-2.57862 2.674316 0 1.619141 0.95948 2.638672 2.59033 2.638672 0.55176 0 1.16358-0.120117 1.52344-0.26416z" fill="#231f20"/><rect x="279.75" y="46.805664" width="70.5" height="25.5" fill="#fff"/><path d="m349.5 47.555664v24h-69v-24h69m1.5-1.5h-72v27h72z" fill="#231f20"/><g fill="#231f20"><path d="m294.50391 55.600098c0.58789-0.09619 1.46289-0.167969 2.43457-0.167969 1.20019 0 2.03906 0.180176 2.61425 0.635742 0.48047 0.383789 0.74414 0.947266 0.74414 1.690918 0 1.031738-0.73144 1.739258-1.42773 1.991211v0.03565c0.56445 0.228027 0.87598 0.767578 1.08008 1.51123 0.25195 0.911621 0.5039 1.966797 0.65918 2.278809h-1.87012c-0.13281-0.228028-0.32422-0.887696-0.56445-1.882813-0.21582-1.007812-0.56348-1.283691-1.30664-1.29541h-0.55274v3.178223h-1.81054zm1.81054 3.478027h0.72071c0.91113 0 1.45117-0.455566 1.45117-1.163086 0-0.743652-0.50391-1.115723-1.34375-1.127441-0.44336 0-0.69531 0.03564-0.82813 0.05957z"/><path d="m307.37695 64.391113c-0.7207 0.323731-1.34375 0.432129-2.19531 0.432129-1.99023 0-3.74219-1.427246-3.74219-3.77832 0-2.446289 1.77539-4.569336 4.48633-4.569336 2.11035 0 3.62109 1.451172 3.62109 3.466309 0 1.750976-0.98242 2.854003-2.27832 2.854003-0.56347 0-0.97168-0.287597-1.03125-0.923339h-0.0244c-0.37109 0.611816-0.91113 0.923339-1.54687 0.923339-0.7793 0-1.34375-0.575683-1.34375-1.559082 0-1.46289 1.08007-2.794433 2.80664-2.794433 0.52734 0 1.12793 0.131836 1.42773 0.299805l-0.35937 2.21875c-0.1211 0.708007-0.0371 1.031738 0.29882 1.043457 0.51563 0.01221 1.16407-0.647461 1.16407-2.026856 0-1.559082-1.00782-2.770508-2.86719-2.770508-1.83399 0-3.44141 1.439453-3.44141 3.729981 0 2.002929 1.28321 3.142578 3.07032 3.142578 0.61132 0 1.25878-0.132324 1.73828-0.383789zm-1.06836-4.953125c-0.0957-0.02393-0.21484-0.04785-0.37109-0.04785-0.79199 0-1.41602 0.779297-1.41602 1.703125 0 0.455566 0.20508 0.743164 0.59961 0.743164 0.44434 0 0.91211-0.563477 1.01953-1.259278z"/><path d="m313.79785 63.575684v-1.858887h-3.4541v-1.1875l2.9502-4.749512h2.23144v4.569824h0.93457v1.367188h-0.93457v1.858887zm0-3.226075v-1.72705c0-0.467774 0.0244-0.947754 0.0596-1.451172h-0.0478c-0.25098 0.503418-0.45605 0.959472-0.71973 1.451172l-1.04297 1.703125v0.02392z"/><path d="m317.32715 62.604004c0-0.647461 0.44336-1.115234 1.0791-1.115234s1.06738 0.455566 1.06738 1.115234c0 0.635742-0.43164 1.103516-1.0791 1.103516-0.62402 0-1.06738-0.467774-1.06738-1.103516z"/><path d="m326.1084 59.641602c0 2.411132-0.97168 4.065918-2.96289 4.065918-2.01465 0-2.90235-1.811036-2.91406-4.017579 0-2.254882 0.95996-4.041992 2.9746-4.041992 2.08692 0 2.90235 1.858887 2.90235 3.993653zm-4.04199 0.04834c-0.0117 1.78711 0.41992 2.638184 1.12695 2.638184 0.70801 0 1.0918-0.887207 1.0918-2.662109 0-1.727051-0.37207-2.638672-1.10352-2.638672-0.67187 0-1.12695 0.851562-1.11523 2.662597z"/><path d="m327.10742 62.604004c0-0.647461 0.44336-1.115234 1.0791-1.115234 0.63575 0 1.06739 0.455566 1.06739 1.115234 0 0.635742-0.43164 1.103516-1.07911 1.103516-0.62402 0-1.06738-0.467774-1.06738-1.103516z"/><path d="m335.88867 59.641602c0 2.411132-0.97168 4.065918-2.96289 4.065918-2.01465 0-2.90234-1.811036-2.91406-4.017579 0-2.254882 0.95898-4.041992 2.97461-4.041992 2.08691 0 2.90234 1.858887 2.90234 3.993653zm-4.04199 0.04834c-0.0117 1.78711 0.41992 2.638184 1.12695 2.638184 0.70801 0 1.0918-0.887207 1.0918-2.662109 0-1.727051-0.37207-2.638672-1.10352-2.638672-0.67187 0-1.12695 0.851562-1.11523 2.662597z"/></g><line x1="351" x2="400.14383" y1="58.888992" y2="58.888992" fill="none" stroke="#549445" stroke-miterlimit="10" stroke-width="1.5"/><circle transform="rotate(-26.565117,399.88826,58.888996)" cx="399.88828" cy="58.888996" r="4.5117378" fill="#fff"/><path d="m399.88824 64.000717c-2.81832 0-5.11169-2.293365-5.11169-5.111725 0-2.818344 2.29337-5.111725 5.11169-5.111725 2.81843 0 5.11176 2.293381 5.11176 5.111725 0 2.81836-2.29333 5.111725-5.11176 5.111725-2.81832 0 2.81843 0 0 0zm0-9.023437c-2.15737 0-3.91168 1.754303-3.91168 3.911712 0 2.157425 1.75431 3.911728 3.91168 3.911728 2.15748 0 3.91175-1.754303 3.91175-3.911728 0-2.157409-1.75427-3.911712-3.91175-3.911712-2.15737 0 2.15748 0 0 0z" fill="#549445"/><g fill="#231f20"><path d="m226.45215 38.080078c0.52832-0.10791 1.2832-0.167969 2.00293-0.167969 1.11523 0 1.83496 0.204102 2.33887 0.659668 0.4082 0.359864 0.63574 0.911621 0.63574 1.535157 0 1.067382-0.67188 1.774902-1.52344 2.062988v0.03564c0.62402 0.216309 0.99609 0.791993 1.1875 1.631348 0.26367 1.127441 0.45605 1.906738 0.62402 2.21875h-1.0791c-0.13281-0.228027-0.3125-0.92334-0.54004-1.931152-0.24023-1.115235-0.67187-1.535157-1.61914-1.570801h-0.9834v3.501953h-1.04394zm1.04394 3.682129h1.06739c1.11523 0 1.82324-0.611816 1.82324-1.535156 0-1.043457-0.75586-1.499512-1.85938-1.511231-0.5039 0-0.86328 0.04785-1.03125 0.0957z"/><path d="m232.62109 41.210449c0-0.443847 0.29981-0.755859 0.71875-0.755859 0.41993 0 0.69629 0.312012 0.70801 0.755859 0 0.419434-0.27539 0.743653-0.71973 0.743653-0.41992 0-0.70703-0.324219-0.70703-0.743653zm0 4.233399c0-0.443848 0.29981-0.755371 0.71875-0.755371 0.41993 0 0.69629 0.311523 0.70801 0.755371 0 0.419922-0.27539 0.743652-0.71973 0.743652-0.41992 0-0.70703-0.32373-0.70703-0.743652z"/><path d="m240.82617 46.055664v-2.123047h-3.62207v-0.695312l3.47852-4.977539h1.13965v4.845703h1.09082v0.827148h-1.09082v2.123047zm0-2.950195v-2.602539c0-0.408203 0.0117-0.815918 0.0361-1.223633h-0.0361c-0.23926 0.456055-0.43164 0.791504-0.64746 1.151367l-1.90723 2.650391v0.02441z"/><path d="m243.80469 45.432129c0-0.443848 0.2998-0.755859 0.71875-0.755859 0.41992 0 0.70801 0.312011 0.70801 0.755859 0 0.431641-0.2754 0.755371-0.71973 0.755371-0.41992 0-0.70703-0.32373-0.70703-0.755371z"/><path d="m251.38477 42.07373c0 2.650879-0.9834 4.11377-2.70997 4.11377-1.52343 0-2.55468-1.427246-2.5791-4.005859 0-2.614258 1.12793-4.053711 2.71094-4.053711 1.64258 0 2.57813 1.463379 2.57813 3.9458zm-4.2334 0.120118c0 2.026855 0.62402 3.178222 1.583 3.178222 1.07911 0 1.59473-1.259277 1.59473-3.25 0-1.918945-0.49121-3.178711-1.58301-3.178711-0.92285 0-1.59472 1.127442-1.59472 3.250489z"/><path d="m252.44434 45.432129c0-0.443848 0.2998-0.755859 0.71972-0.755859 0.41895 0 0.70703 0.312011 0.70703 0.755859 0 0.431641-0.27539 0.755371-0.71972 0.755371-0.41992 0-0.70703-0.32373-0.70703-0.755371z"/><path d="m260.02441 42.07373c0 2.650879-0.98339 4.11377-2.70996 4.11377-1.52343 0-2.55468-1.427246-2.5791-4.005859 0-2.614258 1.12793-4.053711 2.71094-4.053711 1.64258 0 2.57812 1.463379 2.57812 3.9458zm-4.23339 0.120118c0 2.026855 0.62304 3.178222 1.583 3.178222 1.0791 0 1.59473-1.259277 1.59473-3.25 0-1.918945-0.49121-3.178711-1.58301-3.178711-0.92285 0-1.59472 1.127442-1.59472 3.250489z"/></g></g></svg>
